<svg xmlns="http://www.w3.org/2000/svg" viewBox="0 0 1743.98 906.98"><defs><style>.cls-1{isolation:isolate;}.cls-2{fill:#7b057f;}.cls-3{fill:#6ec0c3;}.cls-4{mix-blend-mode:multiply;}.cls-5{fill:#c75599;}.cls-6,.cls-7{font-size:357px;fill:#fff;font-family:Gotham-Ultra, Gotham;}.cls-7{letter-spacing:-0.01em;}.cls-8{letter-spacing:0em;}</style></defs><title>generos</title><g class="cls-1"><g id="Layer_2" data-name="Layer 2"><g id="Capa_1" data-name="Capa 1"><rect class="cls-2" x="916.82" width="827.16" height="906.98"/><rect class="cls-3" x="14.27" width="902.55" height="906.98"/><g class="cls-4"><path class="cls-3" d="M194.18,806.47a78,78,0,0,0-33-67.42l26.12-49.86L202.52,738a10,10,0,1,0,19-5.95l-20.88-66.85a15.15,15.15,0,0,0-19-10L150,665.19a3.56,3.56,0,1,0,2.12,6.8l31.75-9.92a8,8,0,0,1,10.05,5.27l20.89,66.85a2.85,2.85,0,0,1-5.44,1.7l-17.82-57a3.57,3.57,0,0,0-6.55-.59l-31.59,60.3a3.57,3.57,0,0,0,1.24,4.66,70.81,70.81,0,0,1,32.46,62.9,3.56,3.56,0,1,0,7.12.34Z"/><path class="cls-3" d="M191.4,823.67a3.56,3.56,0,1,0-6.85-1.92c-12.13,43.3-61.17,64.26-100.78,43.51a70.61,70.61,0,0,1,60-127.7,3.56,3.56,0,0,0,4.53-1.63l31.59-60.3a3.56,3.56,0,0,0-4.21-5c-59.33,18.22-57.22,18.66-59.2,17.62A2.85,2.85,0,0,1,117,683l19.24-6a3.56,3.56,0,0,0-2.12-6.8l-19.24,6a10,10,0,1,0,5.94,19l48.83-15.25-26.12,49.85a77.74,77.74,0,0,0-63,141.78C124.15,894.46,178.07,871.26,191.4,823.67Z"/><path class="cls-3" d="M146.67,745.2a64.93,64.93,0,0,0-93.53,43.56,3.56,3.56,0,1,0,7,1.53,57.93,57.93,0,1,1-1.24,15.62,3.56,3.56,0,1,0-7.11.41,65.47,65.47,0,0,0,9.95,31.09c26.37,41.84,89.06,39.88,112.35-4.57A65,65,0,0,0,146.67,745.2Z"/></g><g class="cls-4"><path class="cls-5" d="M1640.89,248.48a3.72,3.72,0,0,0-3.72,3.72v14.55a3,3,0,1,1-5.93,0V220.2a3.72,3.72,0,0,0-3.72-3.72h-36a3,3,0,0,1,0-5.94h36a3.72,3.72,0,0,0,3.72-3.72v-25a3.71,3.71,0,0,0-3.4-3.7,73.85,73.85,0,0,1-59.44-40.31,3.71,3.71,0,0,0-6.63,3.35,81.27,81.27,0,0,0,62,44v17.93h-32.31a10.4,10.4,0,0,0,0,20.8h32.31v42.84a10.41,10.41,0,0,0,20.81,0V252.2A3.72,3.72,0,0,0,1640.89,248.48Z"/><path class="cls-5" d="M1700.09,89.07a3.72,3.72,0,1,0-7.23,1.72,60.37,60.37,0,1,1-5.93-15.25,3.71,3.71,0,0,0,6.49-3.61,67.72,67.72,0,1,0-59.22,100.55C1677.81,172.48,1710.22,131.62,1700.09,89.07Z"/><path class="cls-5" d="M1634.2,23.66a81.12,81.12,0,0,0-78.75,100.46,3.72,3.72,0,0,0,7.22-1.78,73.62,73.62,0,1,1,77.9,55.8,3.71,3.71,0,0,0-3.4,3.7v25a3.72,3.72,0,0,0,3.72,3.71h36a3,3,0,0,1,0,5.94h-36a3.72,3.72,0,0,0-3.72,3.72v14.65a3.72,3.72,0,1,0,7.44,0V223.91h32.31a10.4,10.4,0,0,0,0-20.8h-32.31V185.18A81.1,81.1,0,0,0,1634.2,23.66Z"/></g><text class="cls-6" transform="translate(102.1 599.18)">51%</text><text class="cls-7" transform="translate(930.74 599.18)">4<tspan class="cls-8" x="242.4" y="0">9%</tspan></text></g></g></g></svg>