<svg xmlns="http://www.w3.org/2000/svg" viewBox="0 0 216.48 174.22"><title>Asset 3</title><g id="Layer_2" data-name="Layer 2"><g id="Capa_1" data-name="Capa 1"><path d="M0,0H216.48a0,0,0,0,1,0,0V147.21a27,27,0,0,1-27,27H27a27,27,0,0,1-27-27V0A0,0,0,0,1,0,0Z" style="fill:#a1c517"/><path d="M104.36,66.53a1.14,1.14,0,0,1,1.23-1.23h4.87c3.3,0,4.92,1.67,4.92,4.17a3.56,3.56,0,0,1-1.83,3.37v0a3.74,3.74,0,0,1,2.11,3.64c0,3-2,4.55-5.29,4.55h-4.78a1.12,1.12,0,0,1-1.23-1.2Zm6,5.34a2.09,2.09,0,1,0,0-4.16h-3.16a.13.13,0,0,0-.14.14v3.88a.13.13,0,0,0,.14.14Zm-3.16,6.8h3.3a2.2,2.2,0,1,0,0-4.39h-3.3a.13.13,0,0,0-.14.14v4.11A.13.13,0,0,0,107.23,78.67Z" style="fill:#fff"/><path d="M125,80h0a3.45,3.45,0,0,1-2.93,1.3c-2.39,0-3.83-1.77-3.83-4.16v-6a1.3,1.3,0,1,1,2.6,0v5.43c0,1.44.65,2.44,2.07,2.44S125,78,125,76.58V71.15a1.3,1.3,0,1,1,2.6,0v8.68A1.3,1.3,0,0,1,125,80Z" style="fill:#fff"/><path d="M130.82,78.23a8.76,8.76,0,0,1-.39-2.74,9,9,0,0,1,.37-2.77,5,5,0,0,1,9.17,0,9.12,9.12,0,0,1,.37,2.7.84.84,0,0,1-.91.9h-6.24a.13.13,0,0,0-.14.14A2.6,2.6,0,0,0,135.74,79a3.73,3.73,0,0,0,2.3-.77,1.69,1.69,0,0,1,1-.37A1,1,0,0,1,140.08,79a1.22,1.22,0,0,1-.53,1,6,6,0,0,1-4,1.35A4.54,4.54,0,0,1,130.82,78.23Zm6.76-5a2.39,2.39,0,0,0-4.39,0,2.93,2.93,0,0,0-.14,1,.12.12,0,0,0,.14.14h4.39a.12.12,0,0,0,.14-.14A2.93,2.93,0,0,0,137.58,73.28Z" style="fill:#fff"/><path d="M145.75,70.94a3.47,3.47,0,0,1,2.95-1.3c2.39,0,3.87,1.76,3.87,4.15v6a1.3,1.3,0,1,1-2.6,0V74.4c0-1.44-.69-2.44-2.11-2.44s-2.13,1-2.13,2.44v5.43a1.3,1.3,0,1,1-2.6,0V71.15a1.3,1.3,0,0,1,2.6-.21Z" style="fill:#fff"/><path d="M155.62,78.25a10.52,10.52,0,0,1,0-5.53,5,5,0,0,1,9.21,0,10.52,10.52,0,0,1,0,5.53,5,5,0,0,1-9.21,0Zm6.71-.7a6.45,6.45,0,0,0,.23-2.06,6.6,6.6,0,0,0-.23-2.07A2.07,2.07,0,0,0,160.24,72a2.1,2.1,0,0,0-2.12,1.46,6.6,6.6,0,0,0-.23,2.07,6.45,6.45,0,0,0,.23,2.06A2.11,2.11,0,0,0,160.24,79,2.08,2.08,0,0,0,162.33,77.55Z" style="fill:#fff"/><path d="M168,80.2a1.15,1.15,0,0,1-.62-1A1.17,1.17,0,0,1,168.57,78a1.57,1.57,0,0,1,.81.26,5.14,5.14,0,0,0,2.86.9c1.28,0,2.06-.49,2.06-1.32s-.39-1.09-1.85-1.23l-1.21-.12c-2.3-.25-3.44-1.39-3.44-3.29,0-2.14,1.54-3.53,4.35-3.53a7.44,7.44,0,0,1,3.39.83,1.22,1.22,0,0,1,.78,1.07,1.07,1.07,0,0,1-1.09,1.14,1.6,1.6,0,0,1-.81-.26,5.68,5.68,0,0,0-2.41-.6c-1.16,0-1.7.51-1.7,1.16s.42,1,1.84,1.18l1.2.12c2.37.23,3.46,1.44,3.46,3.3,0,2.23-1.67,3.76-4.71,3.76A7.41,7.41,0,0,1,168,80.2Z" style="fill:#fff"/><path d="M125.32,99.26l4.6-12.67c.34-1,.86-1.56,1.81-1.56s1.48.58,1.83,1.56l4.55,12.67a1.6,1.6,0,0,1,.09.51,1.27,1.27,0,0,1-1.32,1.28,1.34,1.34,0,0,1-1.3-1l-.86-2.46h-6l-.84,2.46a1.34,1.34,0,0,1-1.3,1,1.27,1.27,0,0,1-1.32-1.28A1.6,1.6,0,0,1,125.32,99.26Zm8.57-4.06-2.14-6.15h-.07l-2.13,6.15Z" style="fill:#fff"/><path d="M141.87,84.94a1.56,1.56,0,1,1-1.55,1.55A1.55,1.55,0,0,1,141.87,84.94Zm-1.3,14.74V91a1.3,1.3,0,1,1,2.6,0v8.68a1.3,1.3,0,1,1-2.6,0Z" style="fill:#fff"/><path d="M149.16,91h0a3.39,3.39,0,0,1,4.24-1.25,1.15,1.15,0,0,1,.7,1.07,1.24,1.24,0,0,1-1.28,1.32,2,2,0,0,1-.6-.12,4.13,4.13,0,0,0-1.05-.18c-1.43,0-2,1.14-2,2.83v5a1.25,1.25,0,0,1-1.3,1.37,1.26,1.26,0,0,1-1.3-1.37V91a1.3,1.3,0,1,1,2.6,0Z" style="fill:#fff"/><path d="M155.69,98.08a8.45,8.45,0,0,1-.4-2.74,9,9,0,0,1,.37-2.77,5,5,0,0,1,9.17,0,8.8,8.8,0,0,1,.37,2.7.83.83,0,0,1-.9.9h-6.25a.13.13,0,0,0-.14.14,2.27,2.27,0,0,0,.17.86,2.46,2.46,0,0,0,2.53,1.7,3.75,3.75,0,0,0,2.3-.77,1.66,1.66,0,0,1,1-.37A1,1,0,0,1,165,98.82a1.24,1.24,0,0,1-.53,1,6,6,0,0,1-4,1.35A4.53,4.53,0,0,1,155.69,98.08Zm6.75-5a2.39,2.39,0,0,0-4.39,0,2.93,2.93,0,0,0-.14,1,.12.12,0,0,0,.14.14h4.39a.12.12,0,0,0,.14-.14A2.93,2.93,0,0,0,162.44,93.13Z" style="fill:#fff"/><path d="M168,100.05a1.15,1.15,0,0,1-.62-1,1.17,1.17,0,0,1,1.18-1.19,1.54,1.54,0,0,1,.81.26,5.14,5.14,0,0,0,2.86.9c1.28,0,2.07-.49,2.07-1.32s-.4-1.09-1.86-1.23l-1.21-.12c-2.3-.25-3.44-1.39-3.44-3.29,0-2.14,1.54-3.53,4.35-3.53a7.44,7.44,0,0,1,3.39.83,1.23,1.23,0,0,1,.79,1.07,1.08,1.08,0,0,1-1.1,1.14,1.6,1.6,0,0,1-.81-.26,5.68,5.68,0,0,0-2.41-.6c-1.16,0-1.7.51-1.7,1.16s.42,1,1.84,1.18l1.2.12c2.37.23,3.46,1.44,3.46,3.3,0,2.23-1.67,3.76-4.71,3.76A7.41,7.41,0,0,1,168,100.05Z" style="fill:#fff"/><path d="M138.53,108.48a1.37,1.37,0,1,1,2.74,0v11.86a.13.13,0,0,0,.14.14h6.22a1.24,1.24,0,1,1,0,2.46H139.9a1.28,1.28,0,0,1-1.37-1.37Z" style="fill:#fff"/><path d="M150.21,121.27l4.59-12.68c.35-1,.86-1.55,1.81-1.55s1.49.58,1.84,1.55L163,121.27a1.55,1.55,0,0,1,.09.51,1.27,1.27,0,0,1-1.32,1.28,1.33,1.33,0,0,1-1.3-1l-.86-2.47h-6l-.83,2.47a1.34,1.34,0,0,1-1.3,1,1.27,1.27,0,0,1-1.33-1.28A1.54,1.54,0,0,1,150.21,121.27Zm8.56-4.06-2.13-6.15h-.07l-2.14,6.15Z" style="fill:#fff"/><path d="M165.51,108.39a1.15,1.15,0,0,1,1.23-1.24h4.87c3.3,0,4.92,1.68,4.92,4.18a3.56,3.56,0,0,1-1.83,3.37v0a3.74,3.74,0,0,1,2.11,3.64c0,3-2,4.55-5.29,4.55h-4.78a1.12,1.12,0,0,1-1.23-1.21Zm6,5.33a2.08,2.08,0,1,0,0-4.15h-3.15a.12.12,0,0,0-.14.14v3.88c0,.09,0,.13.14.13Zm-3.15,6.81h3.29a2.2,2.2,0,1,0,0-4.39h-3.29a.12.12,0,0,0-.14.14v4.11A.12.12,0,0,0,168.39,120.53Z" style="fill:#fff"/><path d="M79.11,142.55v-4.69h28.8c2,0,2.41-.38,2.41-2.41V108c0-1.93-.44-2.37-2.36-2.38-8,0-16-.11-24,.06-3.61.08-7.29-2.17-7.24-7.21.08-8,0-16,0-23.93,0-2.1-.41-2.51-2.51-2.51H46.81c-1.78,0-2.36.56-2.36,2.35v29c-1.49,0-2.85,0-4.22,0-.18,0-.38-.16-.52-.49a2,2,0,0,1,0-.65q0-14,0-28.05c0-2.63,1-4.81,3.37-6a7.56,7.56,0,0,1,3.23-.81c9.57-.06,19.14,0,28.71,0a6.35,6.35,0,0,1,6.51,6.54q0,12.19,0,24.39a9.24,9.24,0,0,0,.08,1.4,1.43,1.43,0,0,0,1.34,1.24,8.8,8.8,0,0,0,1,0h24.3c4.14,0,6.84,2.65,6.84,6.77q0,14.16,0,28.34a6.21,6.21,0,0,1-6.52,6.62Z" style="fill:#fff"/><path d="M69.91,137.86v4.69l-23.2,0c-4.35,0-7-2.6-7-6.94,0-7.41,0-14.82,0-22.23,0-1,.24-1.18,1.21-1.17h3.58v23.22c0,1.87.52,2.4,2.38,2.41H69.91" style="fill:#fff"/></g></g></svg>