<svg id="Capa_1" data-name="Capa 1" xmlns="http://www.w3.org/2000/svg" viewBox="0 0 732.91 52.61"><defs><style>.cls-1{fill:#414142;}.cls-2,.cls-3{fill:none;stroke:#414142;stroke-linecap:round;stroke-linejoin:round;stroke-width:4px;}.cls-3{stroke-dasharray:0.99 11.86;}</style></defs><title>Mesa de trabajo 3</title><path class="cls-1" d="M438.66,15.21a2.37,2.37,0,0,1,2.48-2.63c1.26,0,2.07.74,2.89,2.15l9.25,15.69h.11V14.73a2,2,0,1,1,4,0V35.49A2.37,2.37,0,0,1,455,38.12c-1.29,0-2.11-.74-2.92-2.15l-9.21-15.69h-.15V36a2,2,0,1,1-4,0Z"/><path class="cls-1" d="M462.53,33.42a13.2,13.2,0,0,1-.59-4.4,13.19,13.19,0,0,1,.59-4.4c1-3.11,3.74-4.92,7.36-4.92s6.33,1.81,7.33,4.92a13.17,13.17,0,0,1,.59,4.4,13.18,13.18,0,0,1-.59,4.4c-1,3.11-3.74,4.92-7.33,4.92S463.52,36.53,462.53,33.42Zm10.69-1.11a10.07,10.07,0,0,0,.37-3.29,10.22,10.22,0,0,0-.37-3.29,3.3,3.3,0,0,0-3.33-2.33,3.34,3.34,0,0,0-3.37,2.33,10.19,10.19,0,0,0-.37,3.29,10,10,0,0,0,.37,3.29,3.34,3.34,0,0,0,3.37,2.33A3.29,3.29,0,0,0,473.22,32.31Z"/><path class="cls-1" d="M481.73,23.32a1.55,1.55,0,0,1-1.7-1.59,1.57,1.57,0,0,1,1.7-1.63h.52c.15,0,.26-.07.26-.22V16.62a2,2,0,0,1,2.11-2.18,2,2,0,0,1,2,2.18v3.26a.2.2,0,0,0,.22.22h1.89a1.57,1.57,0,0,1,1.7,1.63,1.55,1.55,0,0,1-1.7,1.59h-1.89a.2.2,0,0,0-.22.22v8.88c0,1.44.41,1.89,1.92,2a1.83,1.83,0,0,1,1.89,1.85c0,1-.74,1.85-2.26,1.85h-.33c-3.89,0-5.37-1.74-5.37-5.62v-9c0-.15-.11-.22-.26-.22Z"/><path class="cls-1" d="M509.52,36.19a2,2,0,0,1-2.07,1.92,2,2,0,0,1-1.74-.85l-.59-.89h0a6.69,6.69,0,0,1-5.25,2c-4.22,0-6.48-2-6.48-5.4,0-3.85,2.7-5.7,7.1-5.7h3.66a.2.2,0,0,0,.22-.22v-.44c0-2.07-1.18-3.29-4-3.29a8,8,0,0,0-3.26.74,2.93,2.93,0,0,1-1.07.22,1.61,1.61,0,0,1-1.7-1.7,1.8,1.8,0,0,1,1-1.63,11,11,0,0,1,5.44-1.22c5.07,0,7.47,2.52,7.47,6.92v5.62a3.18,3.18,0,0,0,.37,1.78l.55,1A2.52,2.52,0,0,1,509.52,36.19Zm-5.18-4V30.57a.2.2,0,0,0-.22-.22h-3c-2.74,0-3.85.78-3.85,2.41S498.38,35,500.41,35C502.82,35,504.34,34,504.34,32.16Z"/><path class="cls-1" d="M537.12,14.77V35.93a2.08,2.08,0,0,1-4.14.3h0c-.85,1.22-2.29,2.11-4.81,2.11A6.19,6.19,0,0,1,522,33.82a15,15,0,0,1-.63-4.81A15,15,0,0,1,522,24.2a6.19,6.19,0,0,1,6.11-4.51c2.52,0,4,1,4.81,2.11h0v-7a2.08,2.08,0,1,1,4.14,0ZM526,25.76a10.77,10.77,0,0,0-.37,3.26,10.77,10.77,0,0,0,.37,3.26,3.5,3.5,0,0,0,6.62,0A10.74,10.74,0,0,0,533,29a10.74,10.74,0,0,0-.37-3.26,3.5,3.5,0,0,0-6.62,0Z"/><path class="cls-1" d="M542.19,33.38a13.83,13.83,0,0,1-.63-4.37,14.2,14.2,0,0,1,.59-4.4c1-3.11,3.74-4.92,7.29-4.92s6.33,1.89,7.33,4.92a14.29,14.29,0,0,1,.59,4.29,1.34,1.34,0,0,1-1.44,1.44H546a.2.2,0,0,0-.22.22A4.15,4.15,0,0,0,550,34.64a6,6,0,0,0,3.66-1.22,2.68,2.68,0,0,1,1.52-.59,1.65,1.65,0,0,1,1.74,1.74,2,2,0,0,1-.85,1.63,9.61,9.61,0,0,1-6.44,2.15C545.85,38.34,543.18,36.49,542.19,33.38ZM553,25.5a3.81,3.81,0,0,0-7,0,4.52,4.52,0,0,0-.22,1.52.2.2,0,0,0,.22.22h7a.2.2,0,0,0,.22-.22A4.54,4.54,0,0,0,553,25.5Z"/><path class="cls-1" d="M561.83,36.53a1.84,1.84,0,0,1-1-1.67A1.87,1.87,0,0,1,562.72,33a2.63,2.63,0,0,1,1.29.41,8.12,8.12,0,0,0,4.55,1.44c2,0,3.29-.78,3.29-2.11,0-1.11-.63-1.74-3-2L567,30.57c-3.66-.41-5.48-2.22-5.48-5.25,0-3.4,2.44-5.62,6.92-5.62a11.66,11.66,0,0,1,5.4,1.33,1.94,1.94,0,0,1,1.26,1.7,1.71,1.71,0,0,1-1.74,1.81,2.59,2.59,0,0,1-1.29-.41,9.11,9.11,0,0,0-3.85-1c-1.85,0-2.7.81-2.7,1.85s.67,1.67,2.92,1.89l1.92.18c3.77.37,5.51,2.29,5.51,5.25,0,3.55-2.66,6-7.51,6A11.84,11.84,0,0,1,561.83,36.53Z"/><path class="cls-1" d="M579.7,23.32a1.55,1.55,0,0,1-1.7-1.59,1.57,1.57,0,0,1,1.7-1.63h.52c.15,0,.26-.07.26-.22V16.62a2,2,0,0,1,2.11-2.18,2,2,0,0,1,2,2.18v3.26a.2.2,0,0,0,.22.22h1.89a1.57,1.57,0,0,1,1.7,1.63,1.55,1.55,0,0,1-1.7,1.59h-1.89a.2.2,0,0,0-.22.22v8.88c0,1.44.41,1.89,1.92,2a1.83,1.83,0,0,1,1.89,1.85c0,1-.74,1.85-2.26,1.85h-.33c-3.88,0-5.37-1.74-5.37-5.62v-9c0-.15-.11-.22-.26-.22Z"/><path class="cls-1" d="M607.49,36.19a2,2,0,0,1-2.07,1.92,2,2,0,0,1-1.74-.85l-.59-.89h0a6.69,6.69,0,0,1-5.25,2c-4.22,0-6.48-2-6.48-5.4,0-3.85,2.7-5.7,7.1-5.7h3.66a.2.2,0,0,0,.22-.22v-.44c0-2.07-1.18-3.29-4-3.29a8,8,0,0,0-3.26.74,2.93,2.93,0,0,1-1.07.22,1.61,1.61,0,0,1-1.7-1.7,1.8,1.8,0,0,1,1-1.63,11,11,0,0,1,5.44-1.22c5.07,0,7.47,2.52,7.47,6.92v5.62A3.17,3.17,0,0,0,606.6,34l.55,1A2.54,2.54,0,0,1,607.49,36.19Zm-5.18-4V30.57a.2.2,0,0,0-.22-.22h-3c-2.74,0-3.85.78-3.85,2.41S596.35,35,598.39,35C600.79,35,602.31,34,602.31,32.16Z"/><path class="cls-1" d="M611.08,33.42a14,14,0,0,1-.55-4.4,14,14,0,0,1,.55-4.4c1-3.18,3.74-4.92,7.33-4.92A7.48,7.48,0,0,1,624,21.95a2.24,2.24,0,0,1,.74,1.63A1.77,1.77,0,0,1,623,25.39a2.42,2.42,0,0,1-1.7-.89,3.47,3.47,0,0,0-2.81-1.11,3.27,3.27,0,0,0-3.33,2.33,10.46,10.46,0,0,0-.37,3.29,10.45,10.45,0,0,0,.37,3.29,3.27,3.27,0,0,0,3.33,2.33,3.47,3.47,0,0,0,2.81-1.11,2.42,2.42,0,0,1,1.7-.89,1.77,1.77,0,0,1,1.81,1.81,2.24,2.24,0,0,1-.74,1.63,7.49,7.49,0,0,1-5.62,2.26C614.81,38.34,612.11,36.6,611.08,33.42Z"/><path class="cls-1" d="M644,36.19a2,2,0,0,1-2.07,1.92,2,2,0,0,1-1.74-.85l-.59-.89h0a6.69,6.69,0,0,1-5.25,2c-4.22,0-6.48-2-6.48-5.4,0-3.85,2.7-5.7,7.1-5.7h3.66a.2.2,0,0,0,.22-.22v-.44c0-2.07-1.18-3.29-4-3.29a8,8,0,0,0-3.26.74,2.93,2.93,0,0,1-1.07.22,1.61,1.61,0,0,1-1.7-1.7,1.8,1.8,0,0,1,1-1.63,11,11,0,0,1,5.44-1.22c5.07,0,7.47,2.52,7.47,6.92v5.62a3.17,3.17,0,0,0,.37,1.78l.55,1A2.54,2.54,0,0,1,644,36.19Zm-5.18-4V30.57a.2.2,0,0,0-.22-.22h-3c-2.74,0-3.85.78-3.85,2.41S632.87,35,634.91,35C637.31,35,638.83,34,638.83,32.16Z"/><path class="cls-1" d="M662.77,14.77V35.93a2.08,2.08,0,0,1-4.14.3h0c-.85,1.22-2.29,2.11-4.81,2.11a6.19,6.19,0,0,1-6.11-4.51A15,15,0,0,1,647,29a15,15,0,0,1,.63-4.81,6.19,6.19,0,0,1,6.11-4.51c2.52,0,4,1,4.81,2.11h0v-7a2.08,2.08,0,1,1,4.14,0Zm-11.14,11a10.74,10.74,0,0,0-.37,3.26,10.74,10.74,0,0,0,.37,3.26,3.5,3.5,0,0,0,6.62,0,10.77,10.77,0,0,0,.37-3.26,10.77,10.77,0,0,0-.37-3.26,3.5,3.5,0,0,0-6.62,0Z"/><path class="cls-1" d="M683.52,36.19a2,2,0,0,1-2.07,1.92,2,2,0,0,1-1.74-.85l-.59-.89h0a6.69,6.69,0,0,1-5.25,2c-4.22,0-6.48-2-6.48-5.4,0-3.85,2.7-5.7,7.1-5.7h3.66a.2.2,0,0,0,.22-.22v-.44c0-2.07-1.18-3.29-4-3.29a8,8,0,0,0-3.26.74,2.93,2.93,0,0,1-1.07.22,1.61,1.61,0,0,1-1.7-1.7,1.8,1.8,0,0,1,1-1.63,11,11,0,0,1,5.44-1.22c5.07,0,7.47,2.52,7.47,6.92v5.62a3.17,3.17,0,0,0,.37,1.78l.55,1A2.54,2.54,0,0,1,683.52,36.19Zm-5.18-4V30.57a.2.2,0,0,0-.22-.22h-3c-2.74,0-3.85.78-3.85,2.41S672.39,35,674.42,35C676.83,35,678.34,34,678.34,32.16Z"/><line class="cls-2" x1="374.55" y1="27.27" x2="374.05" y2="27.27"/><line class="cls-3" x1="362.19" y1="27.27" x2="8.43" y2="27.27"/><line class="cls-2" x1="2.5" y1="27.27" x2="2" y2="27.27"/><rect class="cls-2" x="389.8" y="2" width="341.11" height="48.61"/><polygon class="cls-1" points="387.71 19.32 387.71 35.23 380.64 27.27 387.71 19.32"/></svg>