<svg xmlns="http://www.w3.org/2000/svg" viewBox="0 0 278.81 216.22"><defs><style>.cls-1{fill:#9aca3c;}.cls-2{fill:#fff;}.cls-3{fill:#09999a;}</style></defs><title>Recurso 13</title><g id="Capa_2" data-name="Capa 2"><g id="Capa_1-2" data-name="Capa 1"><circle class="cls-1" cx="206.55" cy="208.06" r="8.16"/><path class="cls-2" d="M44.69,202.78c-2.86-1.44-5.21-.44-6.92.29-1.54.66-2.26.93-3.28.41s-1.23-1.26-1.62-2.89c-.43-1.82-1-4.3-3.87-5.75s-5.2-.44-6.92.29c-1.54.66-2.26.93-3.28.41s-1.23-1.26-1.61-2.88c-.43-1.82-1-4.3-3.87-5.75s-5.21-.44-6.92.29c-1.54.66-2.26.93-3.28.41a2.16,2.16,0,1,0-1.94,3.85c2.86,1.44,5.2.44,6.92-.29,1.54-.66,2.26-.93,3.28-.41S12.61,192,13,193.65c.43,1.82,1,4.3,3.87,5.75s5.21.44,6.92-.29c1.54-.66,2.26-.93,3.28-.41s1.23,1.26,1.62,2.89c.43,1.82,1,4.3,3.87,5.75s5.21.44,6.92-.29c1.54-.66,2.26-.93,3.28-.41a2.16,2.16,0,0,0,1.94-3.85Z"/><path class="cls-2" d="M136.19,22.72c1.29,2.93,3.74,3.65,5.53,4.17,1.61.47,2.33.72,2.8,1.77s.15,1.76-.58,3.25c-.82,1.67-2,4-.66,6.9S147,42.45,148.8,43c1.6.47,2.33.72,2.79,1.77s.15,1.75-.58,3.25c-.82,1.67-2,4-.66,6.89s3.74,3.65,5.53,4.17c1.6.47,2.33.72,2.79,1.76a2.16,2.16,0,0,0,3.95-1.74c-1.29-2.93-3.74-3.64-5.53-4.17-1.6-.47-2.33-.72-2.79-1.77s-.15-1.75.58-3.25c.82-1.67,2-4,.66-6.89s-3.74-3.65-5.53-4.17c-1.6-.47-2.33-.72-2.79-1.76s-.15-1.76.58-3.26c.82-1.67,2-4,.66-6.9s-3.74-3.65-5.53-4.17c-1.6-.47-2.33-.72-2.8-1.77a2.16,2.16,0,0,0-3.95,1.74Z"/><circle class="cls-3" cx="263.33" cy="34.21" r="5.06"/><path class="cls-2" d="M278.81,7.4a7.4,7.4,0,1,1-7.4-7.4A7.41,7.41,0,0,1,278.81,7.4Zm-2.11,0a5.29,5.29,0,1,0-5.29,5.29A5.3,5.3,0,0,0,276.7,7.4Z"/><path class="cls-3" d="M64,134.15l-3.62,1,1,3.62a3.13,3.13,0,1,1-6,1.65l-1-3.62-3.62,1a3.13,3.13,0,0,1-1.65-6l3.62-1-1-3.62a3.13,3.13,0,0,1,6-1.65l1,3.62,3.62-1a3.13,3.13,0,0,1,1.65,6Z"/><path class="cls-3" d="M51.07,20.89l9.29-9.45a2.53,2.53,0,0,1,.93-.54c1.18-.34,2.47.49,3,2.27a3.24,3.24,0,0,1-.73,3.47l-7.05,6.75,0,.1,9.58,1.89a3.24,3.24,0,0,1,2.48,2.53c.52,1.78-.11,3.18-1.29,3.52a2.51,2.51,0,0,1-1.07,0l-12.91-3a4.21,4.21,0,0,1-3.43-3.13A4.21,4.21,0,0,1,51.07,20.89Z"/><path class="cls-3" d="M77.28,6.22a2.56,2.56,0,0,1,1.07,0l12.91,3a4.21,4.21,0,0,1,3.43,3.13,4.21,4.21,0,0,1-1.2,4.49l-9.28,9.45a2.53,2.53,0,0,1-.93.55c-1.18.34-2.47-.49-3-2.27A3.23,3.23,0,0,1,81,21l7-6.75,0-.1-9.58-1.89A3.24,3.24,0,0,1,76,9.74C75.47,8,76.11,6.56,77.28,6.22Z"/><path class="cls-2" d="M29.88,123.31l-3.13,7.42a5.87,5.87,0,0,1-7.68,3.13l-7.42-3.13a5.87,5.87,0,0,1-3.13-7.67l3.13-7.42a5.87,5.87,0,0,1,7.68-3.13l7.42,3.13A5.87,5.87,0,0,1,29.88,123.31Zm-9.48,7.42a2.47,2.47,0,0,0,3.23-1.31L26.75,122a2.47,2.47,0,0,0-1.31-3.23L18,115.64A2.47,2.47,0,0,0,14.79,117l-3.13,7.42A2.47,2.47,0,0,0,13,127.6Z"/></g></g></svg>