<svg xmlns="http://www.w3.org/2000/svg" viewBox="0 0 1128.83 374.95"><title>twitter</title><g id="Layer_2" data-name="Layer 2"><g id="Capa_1" data-name="Capa 1"><path d="M65.36,8.05H1080.68M65.36,48.5H1080.68M65.36,88.79H1080.68M65.36,129.1H1080.68M65.36,169.39H1080.68M65.36,210.09H1080.68M65.36,250.38H1080.68M65.36,290.69H1080.68" style="fill:none;stroke:#414042;stroke-miterlimit:10"/><polyline points="65.36 254.46 210.23 205.61 355.55 168.99 500.45 122.17 645.35 104.26 790.65 80.25 935.55 50.95 1080.68 32.68" style="fill:none;stroke:#9aca3c;stroke-linejoin:round;stroke-width:5.087910000000001px"/><line x1="65.36" y1="331.01" x2="1080.68" y2="331.01" style="fill:#414042"/><path d="M1080.68,320.26v21.52M935.56,320.26v21.52M790.65,320.26v21.52m-145.3-21.52v21.52m-144.9-21.52v21.52m-144.9-21.52v21.52M210.23,320.26v21.52M65.36,320.26v21.52m1015.32-18.95v16.29M935.56,322.83v16.29M790.65,322.83v16.29m-145.3-16.29v16.29m-144.9-16.29v16.29m-144.9-16.29v16.29M210.23,322.83v16.29M65.36,322.83v16.29" style="fill:#414042"/><text transform="translate(39.35 340.74)" style="font-size:21px;fill:#414042;font-family:DINNextRoundedLTPro-Regular, DIN Next Rounded LT Pro">0</text><text transform="translate(16.42 259.97)" style="font-size:21px;fill:#414042;font-family:DINNextRoundedLTPro-Regular, DIN Next Rounded LT Pro">4<tspan x="11.38" y="0" style="letter-spacing:0.007998511904761904em">0</tspan><tspan x="22.93" y="0">0</tspan></text><text transform="translate(16.38 179.23)" style="font-size:21px;fill:#414042;font-family:DINNextRoundedLTPro-Regular, DIN Next Rounded LT Pro">8<tspan x="11.38" y="0" style="letter-spacing:0.00999813988095238em">0</tspan><tspan x="22.97" y="0">0</tspan></text><text transform="translate(0 98.46)" style="font-size:21px;fill:#414042;font-family:DINNextRoundedLTPro-Regular, DIN Next Rounded LT Pro">1.2<tspan x="27.72" y="0" style="letter-spacing:0.011997767857142858em">0</tspan><tspan x="39.35" y="0">0</tspan></text><text transform="translate(0 17.69)" style="font-size:21px;fill:#414042;font-family:DINNextRoundedLTPro-Regular, DIN Next Rounded LT Pro">1.6<tspan x="27.72" y="0" style="letter-spacing:0.011997767857142858em">0</tspan><tspan x="39.35" y="0">0</tspan></text><text transform="translate(41.86 370.33)" style="font-size:21px;fill:#414042;font-family:DINNextRoundedLTPro-Regular, DIN Next Rounded LT Pro">Abril</text><text transform="translate(186.59 370.33)" style="font-size:21px;fill:#414042;font-family:DINNextRoundedLTPro-Regular, DIN Next Rounded LT Pro">Mayo</text><text transform="translate(330.92 370.33)" style="font-size:21px;fill:#414042;font-family:DINNextRoundedLTPro-Regular, DIN Next Rounded LT Pro">Junio</text><text transform="translate(478.06 370.33)" style="font-size:21px;fill:#414042;font-family:DINNextRoundedLTPro-Regular, DIN Next Rounded LT Pro">Julio</text><text transform="translate(613.03 370.33)" style="font-size:21px;fill:#414042;font-family:DINNextRoundedLTPro-Regular, DIN Next Rounded LT Pro">Agosto</text><text transform="translate(735.63 370.33)" style="font-size:21px;fill:#414042;font-family:DINNextRoundedLTPro-Regular, DIN Next Rounded LT Pro">Septiembre</text><text transform="translate(898.3 370.33)" style="font-size:21px;fill:#414042;font-family:DINNextRoundedLTPro-Regular, DIN Next Rounded LT Pro">Octubre</text><text transform="translate(1029.9 370.33)" style="font-size:21px;fill:#414042;font-family:DINNextRoundedLTPro-Regular, DIN Next Rounded LT Pro">Noviembre</text></g></g></svg>