<svg xmlns="http://www.w3.org/2000/svg" viewBox="0 0 640 260.82"><title>ub3</title><g id="Layer_2" data-name="Layer 2"><g id="Capa_1" data-name="Capa 1"><rect width="640" height="260.82" style="fill:#fff"/><path d="M114.92,100.06a3.89,3.89,0,0,1,4.18-4.18h26.78c2.93,0,4.74,1.73,4.74,4.18s-1.81,4.19-4.74,4.19H124.71a.42.42,0,0,0-.47.47v13.12a.42.42,0,0,0,.47.47h17.22c2.93,0,4.74,1.74,4.74,4.19s-1.81,4.18-4.74,4.18H124.71a.42.42,0,0,0-.47.48v13.58a.42.42,0,0,0,.47.48h21.17c2.93,0,4.74,1.74,4.74,4.19s-1.81,4.18-4.74,4.18H119.1a3.9,3.9,0,0,1-4.18-4.18Z" style="fill:#2b3182"/><path d="M165.79,146.59a3.93,3.93,0,0,1-2.13-3.55,4,4,0,0,1,4-4,5.52,5.52,0,0,1,2.76.87,17.41,17.41,0,0,0,9.72,3.08c4.34,0,7-1.66,7-4.51,0-2.37-1.34-3.71-6.32-4.18l-4.11-.4c-7.82-.87-11.69-4.74-11.69-11.21,0-7.27,5.21-12,14.77-12a24.87,24.87,0,0,1,11.54,2.84c1.73,1,2.68,2.06,2.68,3.64a3.65,3.65,0,0,1-3.71,3.87,5.57,5.57,0,0,1-2.77-.87,19.32,19.32,0,0,0-8.21-2.06c-3.95,0-5.77,1.74-5.77,4s1.42,3.56,6.24,4l4.11.4c8.06.79,11.77,4.89,11.77,11.21,0,7.59-5.69,12.8-16,12.8A25.31,25.31,0,0,1,165.79,146.59Z" style="fill:#2b3182"/><path d="M210.11,140a29.94,29.94,0,0,1-1.18-9.4,30,30,0,0,1,1.18-9.4c2.21-6.79,8-10.5,15.64-10.5,5.37,0,9.64,2.13,12,4.82a4.8,4.8,0,0,1,1.58,3.47,3.78,3.78,0,0,1-3.87,3.87,5.19,5.19,0,0,1-3.64-1.89,7.39,7.39,0,0,0-6-2.37,7,7,0,0,0-7.11,5,22.46,22.46,0,0,0-.79,7,22.38,22.38,0,0,0,.79,7,7,7,0,0,0,7.11,5,7.39,7.39,0,0,0,6-2.37,5.19,5.19,0,0,1,3.64-1.89,3.77,3.77,0,0,1,3.87,3.87,4.8,4.8,0,0,1-1.58,3.47c-2.37,2.69-6.64,4.82-12,4.82C218.09,150.46,212.32,146.75,210.11,140Z" style="fill:#2b3182"/><path d="M263.36,115.94h.07a11.56,11.56,0,0,1,14.46-4.27,3.94,3.94,0,0,1,2.37,3.64,4.23,4.23,0,0,1-4.34,4.5,6.91,6.91,0,0,1-2.06-.39,13.24,13.24,0,0,0-3.55-.64c-4.9,0-6.95,3.88-6.95,9.64v16.91c0,2.92-1.82,4.66-4.43,4.66a4.29,4.29,0,0,1-4.42-4.66V115.78c0-2.92,1.82-4.66,4.42-4.66s4.43,1.74,4.43,4.66Z" style="fill:#2b3182"/><path d="M298,95.16a5.3,5.3,0,1,1-5.3,5.3A5.29,5.29,0,0,1,298,95.16Zm-4.43,50.17V115.78c0-2.92,1.82-4.66,4.43-4.66s4.42,1.74,4.42,4.66v29.55c0,2.92-1.82,4.66-4.42,4.66S293.61,148.25,293.61,145.33Z" style="fill:#2b3182"/><path d="M328.77,100.14v15h.08c1.66-2.45,4.89-4.5,10.27-4.5,6.31,0,11.05,3.63,13,9.63a32.07,32.07,0,0,1,1.34,10.27,32,32,0,0,1-1.34,10.27c-2,6-6.72,9.64-13,9.64-5.38,0-8.46-1.89-10.27-4.5h-.08c-.4,2.45-1.82,4-4.43,4s-4.42-1.74-4.42-4.66V100.14c0-2.92,1.82-4.66,4.42-4.66S328.77,97.22,328.77,100.14Zm.79,23.46a22.75,22.75,0,0,0-.79,7,22.78,22.78,0,0,0,.79,7c1.18,3.63,3.71,5.05,7.11,5.05a6.75,6.75,0,0,0,7-5.05,23.1,23.1,0,0,0,.79-7,23.07,23.07,0,0,0-.79-7,6.75,6.75,0,0,0-7-5C333.27,118.55,330.74,120,329.56,123.6Z" style="fill:#2b3182"/><path d="M373.32,95.16a5.3,5.3,0,1,1-5.29,5.3A5.3,5.3,0,0,1,373.32,95.16Zm-4.42,50.17V115.78c0-2.92,1.82-4.66,4.42-4.66s4.43,1.74,4.43,4.66v29.55c0,2.92-1.82,4.66-4.43,4.66S368.9,148.25,368.9,145.33Z" style="fill:#2b3182"/><path d="M404.13,115.07c2-2.76,5.53-4.42,10-4.42,8.13,0,13.19,6,13.19,14.14v20.54c0,2.92-1.82,4.66-4.43,4.66s-4.42-1.74-4.42-4.66V126.84c0-4.9-2.37-8.29-7.19-8.29-4.66,0-7.27,3.39-7.27,8.29v18.49c0,2.92-1.81,4.66-4.42,4.66s-4.42-1.74-4.42-4.66V115.78c0-2.92,1.81-4.66,4.42-4.66s4,1.66,4.42,3.95Z" style="fill:#2b3182"/><path d="M443.63,140a28.08,28.08,0,0,1-1.26-9.4,28.15,28.15,0,0,1,1.26-9.4c2.14-6.63,8-10.5,15.72-10.5s13.51,3.87,15.64,10.5a28.13,28.13,0,0,1,1.27,9.4A28,28,0,0,1,475,140c-2.13,6.64-8,10.51-15.64,10.51S445.77,146.59,443.63,140Zm22.83-2.37a21.53,21.53,0,0,0,.79-7,21.89,21.89,0,0,0-.79-7,7,7,0,0,0-7.11-5,7.13,7.13,0,0,0-7.19,5,21.89,21.89,0,0,0-.79,7,21.53,21.53,0,0,0,.79,7,7.14,7.14,0,0,0,7.19,5A7,7,0,0,0,466.46,137.58Z" style="fill:#2b3182"/><path d="M491.74,146.59a3.93,3.93,0,0,1-2.13-3.55,4,4,0,0,1,4-4,5.52,5.52,0,0,1,2.76.87,17.41,17.41,0,0,0,9.72,3.08c4.34,0,7-1.66,7-4.51,0-2.37-1.34-3.71-6.32-4.18l-4.11-.4C494.9,133,491,129.13,491,122.66c0-7.27,5.22-12,14.77-12a24.87,24.87,0,0,1,11.54,2.84c1.74,1,2.68,2.06,2.68,3.64a3.65,3.65,0,0,1-3.71,3.87,5.51,5.51,0,0,1-2.76-.87,19.4,19.4,0,0,0-8.22-2.06c-3.95,0-5.77,1.74-5.77,4s1.43,3.56,6.24,4l4.11.4c8.06.79,11.77,4.89,11.77,11.21,0,7.59-5.69,12.8-16,12.8A25.31,25.31,0,0,1,491.74,146.59Z" style="fill:#2b3182"/></g></g></svg>