<svg xmlns="http://www.w3.org/2000/svg" viewBox="0 0 480 323.56"><title>Asset 10</title><g id="Layer_2" data-name="Layer 2"><g id="Capa_1" data-name="Capa 1"><rect width="480" height="323.56" style="fill:#9aca3c"/><path d="M119.35,107a104.22,104.22,0,0,1,50.86-57" style="fill:none;stroke:#fff;stroke-linecap:round;stroke-linejoin:round;stroke-width:2.88781785964966px;stroke-dasharray:0.7219544649124146,8.663454055786133"/><path d="M321.15,229.37a104.28,104.28,0,0,1-62.94,43.3" style="fill:none;stroke:#fff;stroke-linecap:round;stroke-linejoin:round;stroke-width:2.88781785964966px;stroke-dasharray:0.7219544649124146,8.663454055786133"/><path d="M232.91,104.51h-.11L229,107.23a3,3,0,0,1-1.74.51,2.5,2.5,0,0,1-2.41-2.51,3.22,3.22,0,0,1,1.54-2.51l5.58-4a6,6,0,0,1,3.59-1.33,3.06,3.06,0,0,1,3.13,3.38v29a2.87,2.87,0,1,1-5.74,0Z" style="fill:#fff"/><path d="M252,126a2.45,2.45,0,0,1,2.61-2.56,3,3,0,0,1,2.67,1.84,5.07,5.07,0,0,0,4.92,2.67,4.91,4.91,0,0,0,5.22-5.28,5.27,5.27,0,0,0-5.53-5.54h-.51a2.56,2.56,0,1,1,0-5.12h.51c2.82,0,4.77-2,4.77-5.08a4.36,4.36,0,0,0-4.72-4.71c-2.46,0-3.74,1-4.46,2.61a2.86,2.86,0,0,1-2.56,1.79,2.49,2.49,0,0,1-2.62-2.56,3.45,3.45,0,0,1,.31-1.38c1.28-3.08,4.51-5.59,9.54-5.59,6.45,0,10.3,4,10.3,9.48a8.52,8.52,0,0,1-3.9,7.38v.11c2.21,1,4.61,3.94,4.61,8.55,0,6.21-4.61,10.46-10.91,10.46-5.18,0-8.66-2.36-10-5.69A4.47,4.47,0,0,1,252,126Z" style="fill:#fff"/><path d="M280.73,126.35a2.44,2.44,0,0,1,2.56-2.52,2.85,2.85,0,0,1,2.57,1.54,5.48,5.48,0,0,0,4.76,2.62c2.16,0,3.85-.93,4.46-2.82a11.84,11.84,0,0,0,.51-3.9,10.85,10.85,0,0,0-.51-3.79,4.14,4.14,0,0,0-4.3-2.92,4.52,4.52,0,0,0-4,1.94,3.45,3.45,0,0,1-3,1.64,2.67,2.67,0,0,1-2.77-3v-15a2.3,2.3,0,0,1,2.51-2.52h14.66a2.57,2.57,0,1,1,0,5.13H286.63a.27.27,0,0,0-.31.31v8h.1c1.13-1,2.72-1.74,5.48-1.74,4.46,0,7.44,1.95,8.72,5.74a19.7,19.7,0,0,1,.72,6.1,17.4,17.4,0,0,1-.72,5.49c-1.33,4.1-5.28,6.35-9.95,6.35-5.22,0-8.61-2.56-9.73-5.69A2.74,2.74,0,0,1,280.73,126.35Z" style="fill:#fff"/><path d="M307.49,115.12c0-5.18.25-7.18,1-9.58,1.8-5.49,6.1-8.41,12.1-8.41,4.87,0,8.76,2.26,10.5,5.69a3.62,3.62,0,0,1,.52,1.79,2.68,2.68,0,0,1-2.77,2.72,3.12,3.12,0,0,1-2.67-1.64,6.56,6.56,0,0,0-11.84,1.43c-.46,1.49-.66,3-.66,8s.2,6.51.66,8a6.56,6.56,0,0,0,11.84,1.43,3.12,3.12,0,0,1,2.67-1.64,2.7,2.7,0,0,1,2.77,2.77,3.59,3.59,0,0,1-.52,1.74c-1.74,3.44-5.63,5.69-10.5,5.69-6,0-10.3-2.92-12.1-8.4C307.74,122.3,307.49,120.3,307.49,115.12Z" style="fill:#fff"/><path d="M335.42,128.86l10.15-28c.77-2.15,1.9-3.43,4-3.43s3.28,1.28,4.05,3.43l10,28a3.38,3.38,0,0,1,.21,1.12A2.79,2.79,0,0,1,361,132.8a3,3,0,0,1-2.87-2.1l-1.9-5.43H342.86L341,130.7a3,3,0,0,1-2.87,2.1,2.79,2.79,0,0,1-2.92-2.82A3.67,3.67,0,0,1,335.42,128.86Zm18.92-9-4.72-13.59h-.15l-4.72,13.59Z" style="fill:#fff"/><path d="M369.2,101.08c0-2.26,1.33-3.64,3.38-3.64,1.8,0,2.62,1,3.59,3.12l8.61,19.33H385l8.4-19.33c.93-2.15,1.75-3.12,3.54-3.12,2.05,0,3.33,1.38,3.33,3.64v28.75a2.8,2.8,0,1,1-5.58,0V110.71h-.26l-6.36,14.46c-.92,2.1-1.84,2.71-3.28,2.71s-2.41-.61-3.33-2.71L375,110.71h-.25v19.12a2.8,2.8,0,1,1-5.59,0Z" style="fill:#fff"/><path d="M408,129.63V100.41a2.52,2.52,0,0,1,2.67-2.72h10.92c6.76,0,11.48,4.36,11.48,10.82s-4.72,10.86-11.48,10.86h-7.23a.28.28,0,0,0-.31.31v9.95a3,3,0,1,1-6.05,0Zm19-21.12c0-3.18-2.21-5.38-5.79-5.38h-6.87c-.21,0-.31.1-.31.3v10.15a.27.27,0,0,0,.31.31h6.87C424.76,113.89,427,111.74,427,108.51Z" style="fill:#fff"/><path d="M220.25,139v-2.56H434.76V139Z" style="fill:#fff"/><path d="M53.1,187.85,67,189.76c.18,0,.36.1.54.11,7,.59,11.67.62,10.8-9.36a20.33,20.33,0,0,1,.21-5.5c1.69-9,7.73-12.71,16.58-10A47.12,47.12,0,0,1,109,172.22a24.23,24.23,0,0,0,6.13,3.69c3.19,1.1,5.72-.18,6.7-3.38a12.52,12.52,0,0,0-.27-8.13c-1.46-4-5.22-5.58-10.89-4.56-2.35.42-4.68,1-7,1.59s-4.41,1.27-7.16,2.07c3-8.54,4.65-17.26,11.94-23.05,5.52-4.39,11.74-3.73,17.84-1.46,4.22,1.57,8.24,3.68,12.43,5.33,1.42.56,3.74,1.9,4.49.44s-1.5-2.89-2.82-3.9c-4.9-3.74-10.71-5.16-16.66-6.11a9.45,9.45,0,0,1-3.52-1c9.23-1.62,17.87-4.77,27.09-4.48,10.2.32,18.69,4.16,25.37,12,10.37,12.18,15,26.63,16.77,42.18,1.52,13.49.27,26.67-5.64,39.11-5.7,12-14.34,20.68-27.76,23.6a44.14,44.14,0,0,1-19.17-.43c-11.55-2.58-21.61-8.63-32-14.12,5.33.37,10.67.78,16,1.09,3.87.22,7.74.19,11.45-1.23a12.63,12.63,0,0,0,6.38-4.63c.78-1.17,1.51-2.47.77-3.85s-2.09-1.34-3.39-1.41a27.19,27.19,0,0,0-8.94,1.5c-7.06,2-14.21,3-21.55,1.84-6.67-1-10.47-5.75-13.89-10.89-.84-1.26.36-1.23,1.17-1.36,2.45-.38,4.94-.6,7.34-1.2,6.8-1.69,8.58-7.34,4.12-12.76a14.43,14.43,0,0,0-4.66-3.84c-3.65-1.86-5.8-1.42-8.41,1.79-3.78,4.64-8.1,8.3-14.52,8.4a16.54,16.54,0,0,1-10.67-3.95C61.3,197.33,57.33,192.6,53.1,187.85Zm85-53.44c3.43,1.71,6.27,3.56,8.33,6.33,1.51,2,2.33,4.31.7,6.64s-3.77,2.53-6.39,2c-5.34-1.07-9.83-4.13-14.83-6-3.46-1.29-7-2.4-10.76-1.5-4.5,1.06-11.29,9.25-11.48,13.86-.06,1.34.65,1,1.39.78a31.92,31.92,0,0,1,9-1.21c6.48.14,10.56,3.13,12,8.93a18.36,18.36,0,0,1,.07,8.78c-1.45,6.22-7,9.07-13,6.75-3-1.15-5.36-3.21-7.94-5a37.82,37.82,0,0,0-12.62-6.08c-5.23-1.22-8.32.78-9.62,6a24.2,24.2,0,0,0-.27,7.15c.51,9.63-5.33,13.46-14.17,12.4a11.81,11.81,0,0,0-4.24-.11,66.94,66.94,0,0,0,5.39,4.28c5.81,3.68,10.76,3.14,15.72-1.66,1.44-1.4,2.63-3.07,4-4.52a8.68,8.68,0,0,1,8.85-2.4,17.37,17.37,0,0,1,9.69,6.47c6.15,7.7,3,16.76-6.52,19.26-.82.21-1.63.48-2.56.76a11.52,11.52,0,0,0,8.46,4.55,45.63,45.63,0,0,0,16.68-1.41,46.77,46.77,0,0,1,10.24-2.2c3.39-.23,6.84.23,8.88,3.32s.77,6.22-1,9.06a11.77,11.77,0,0,1-3.14,3.07c-3.94,2.87-8.44,4.1-13.86,4.55a59.3,59.3,0,0,0,17.47,5.11c10.76,1.19,20.56-1.07,28.44-9,9.44-9.5,13.35-21.44,14.33-34.42a84.66,84.66,0,0,0-5.65-37.35c-3.21-8.32-7.66-15.8-14.45-21.55C157.58,133.52,148.32,132.6,138.12,134.41Z" style="fill:#fff"/><path d="M138.54,237.83c1.56-1.11,2.58-1.8,3.57-2.55a13.94,13.94,0,0,0,5.38-14.35c-.83-3.4-3.14-5.35-6.21-6.46a18.88,18.88,0,0,0-11.66-.31c-6.57,1.81-13.16,3.5-20.07,3l-1.19-.07c9.77-8.14,7.42-17.54,1.89-24.07-5.83-6.86-16.26-11-24.83-2.74,1.72-4.34,1-8.83,1.17-13.28.11-4,2.34-5.54,6.25-4.24a42.41,42.41,0,0,1,10.49,5.41c3,2,5.71,4.35,9.22,5.46,8.15,2.58,15.19-1.32,17.27-9.66,2.14-8.6-.85-17.12-7.4-20.45a20.56,20.56,0,0,0-12.36-1.82c2.1-5.52,6.07-7.37,12-5.57a49.16,49.16,0,0,1,8.85,3.82,34.78,34.78,0,0,0,10.71,3.45,8.38,8.38,0,0,0,8.47-3.51,8.6,8.6,0,0,0,.68-9.37c-.44-.9-1-1.75-1.66-3a25.09,25.09,0,0,1,17.3,8.92c8.91,10.54,13.17,23,14.74,36.47,1.3,11.16,1,22.21-3.25,32.84-4,10-10,18.24-20.79,21.77C151.25,239.45,145.24,239,138.54,237.83Z" style="fill:#fff"/><path d="M335.43,154a103.88,103.88,0,0,1-152.82,91.6" style="fill:none;stroke:#fff;stroke-linecap:round;stroke-miterlimit:10;stroke-width:5.0536812543869px"/><path d="M133.62,119.43A103.88,103.88,0,0,1,308.32,84" style="fill:none;stroke:#fff;stroke-linecap:round;stroke-miterlimit:10;stroke-width:5.0536812543869px"/></g></g></svg>