<svg xmlns="http://www.w3.org/2000/svg" viewBox="0 0 75.19 59.62"><title>arrowcard</title><g id="Layer_2" data-name="Layer 2"><g id="Capa_1" data-name="Capa 1"><path d="M75.19,29.81a2.51,2.51,0,0,1-1,2L37,59.14a2.5,2.5,0,0,1-3-4l34.45-25.3L34,4.52a2.5,2.5,0,0,1,3-4L74.17,27.8A2.5,2.5,0,0,1,75.19,29.81Z" style="fill:#9aca3c"/><path d="M42.19,29.81a2.51,2.51,0,0,1-1,2L4,59.14a2.5,2.5,0,0,1-3-4l34.45-25.3L1,4.52a2.5,2.5,0,0,1,3-4L41.17,27.8A2.5,2.5,0,0,1,42.19,29.81Z" style="fill:#fff"/></g></g></svg>