<svg xmlns="http://www.w3.org/2000/svg" xmlns:xlink="http://www.w3.org/1999/xlink" viewBox="0 0 1265.52 598.57"><title>book5</title><g id="Layer_2" data-name="Layer 2"><g id="Capa_1" data-name="Capa 1"><path d="M203.69,216.75a1.87,1.87,0,1,1,2-1.87,1.92,1.92,0,0,1-2,1.87" transform="translate(0)" style="fill:#fff"/><path d="M203.69,249.35a1.87,1.87,0,1,1,2-1.86,1.91,1.91,0,0,1-2,1.86" transform="translate(0)" style="fill:#fff"/><path d="M203.69,282a1.87,1.87,0,1,1,2-1.87,1.92,1.92,0,0,1-2,1.87" transform="translate(0)" style="fill:#fff"/><path d="M203.69,314.57a1.87,1.87,0,1,1,2-1.87,1.92,1.92,0,0,1-2,1.87" transform="translate(0)" style="fill:#fff"/><path d="M203.69,347.17a1.86,1.86,0,1,1,2-1.86,1.92,1.92,0,0,1-2,1.86" transform="translate(0)" style="fill:#fff"/><path d="M234.22,216.75a1.87,1.87,0,1,1,2-1.87,1.92,1.92,0,0,1-2,1.87" transform="translate(0)" style="fill:#fff"/><path d="M234.22,249.35a1.87,1.87,0,1,1,2-1.86,1.91,1.91,0,0,1-2,1.86" transform="translate(0)" style="fill:#fff"/><path d="M234.22,282a1.87,1.87,0,1,1,2-1.87,1.92,1.92,0,0,1-2,1.87" transform="translate(0)" style="fill:#fff"/><path d="M234.22,314.57a1.87,1.87,0,1,1,2-1.87,1.92,1.92,0,0,1-2,1.87" transform="translate(0)" style="fill:#fff"/><path d="M234.22,347.17a1.86,1.86,0,1,1,2-1.86,1.92,1.92,0,0,1-2,1.86" transform="translate(0)" style="fill:#fff"/><path d="M264.76,216.75a1.87,1.87,0,1,1,2-1.87,1.92,1.92,0,0,1-2,1.87" transform="translate(0)" style="fill:#fff"/><path d="M264.76,249.35a1.87,1.87,0,1,1,2-1.86,1.91,1.91,0,0,1-2,1.86" transform="translate(0)" style="fill:#fff"/><path d="M264.76,282a1.87,1.87,0,1,1,2-1.87,1.92,1.92,0,0,1-2,1.87" transform="translate(0)" style="fill:#fff"/><path d="M264.76,314.57a1.87,1.87,0,1,1,2-1.87,1.92,1.92,0,0,1-2,1.87" transform="translate(0)" style="fill:#fff"/><path d="M264.76,347.17a1.86,1.86,0,1,1,2-1.86,1.92,1.92,0,0,1-2,1.86" transform="translate(0)" style="fill:#fff"/><path d="M295.3,216.75a1.87,1.87,0,1,1,2-1.87,1.92,1.92,0,0,1-2,1.87" transform="translate(0)" style="fill:#fff"/><path d="M295.3,249.35a1.87,1.87,0,1,1,2-1.86,1.91,1.91,0,0,1-2,1.86" transform="translate(0)" style="fill:#fff"/><path d="M295.3,282a1.87,1.87,0,1,1,2-1.87,1.92,1.92,0,0,1-2,1.87" transform="translate(0)" style="fill:#fff"/><path d="M295.3,314.57a1.87,1.87,0,1,1,2-1.87,1.92,1.92,0,0,1-2,1.87" transform="translate(0)" style="fill:#fff"/><path d="M295.3,347.17a1.86,1.86,0,1,1,2-1.86,1.92,1.92,0,0,1-2,1.86" transform="translate(0)" style="fill:#fff"/><path d="M325.83,216.75a1.87,1.87,0,1,1,2-1.87,1.92,1.92,0,0,1-2,1.87" transform="translate(0)" style="fill:#fff"/><path d="M325.83,249.35a1.87,1.87,0,1,1,2-1.86,1.91,1.91,0,0,1-2,1.86" transform="translate(0)" style="fill:#fff"/><path d="M325.83,282a1.87,1.87,0,1,1,2-1.87,1.92,1.92,0,0,1-2,1.87" transform="translate(0)" style="fill:#fff"/><path d="M325.83,314.57a1.87,1.87,0,1,1,2-1.87,1.92,1.92,0,0,1-2,1.87" transform="translate(0)" style="fill:#fff"/><path d="M325.83,347.17a1.86,1.86,0,1,1,2-1.86,1.92,1.92,0,0,1-2,1.86" transform="translate(0)" style="fill:#fff"/><path d="M356.37,216.75a1.87,1.87,0,1,1,2-1.87,1.92,1.92,0,0,1-2,1.87" transform="translate(0)" style="fill:#fff"/><path d="M356.37,249.35a1.87,1.87,0,1,1,2-1.86,1.91,1.91,0,0,1-2,1.86" transform="translate(0)" style="fill:#fff"/><path d="M356.37,282a1.87,1.87,0,1,1,2-1.87,1.92,1.92,0,0,1-2,1.87" transform="translate(0)" style="fill:#fff"/><path d="M356.37,314.57a1.87,1.87,0,1,1,2-1.87,1.92,1.92,0,0,1-2,1.87" transform="translate(0)" style="fill:#fff"/><path d="M356.37,347.17a1.86,1.86,0,1,1,2-1.86,1.92,1.92,0,0,1-2,1.86" transform="translate(0)" style="fill:#fff"/><path d="M386.91,216.75a1.87,1.87,0,1,1,2-1.87,1.92,1.92,0,0,1-2,1.87" transform="translate(0)" style="fill:#fff"/><path d="M386.91,249.35a1.87,1.87,0,1,1,2-1.86,1.91,1.91,0,0,1-2,1.86" transform="translate(0)" style="fill:#fff"/><path d="M386.91,282a1.87,1.87,0,1,1,2-1.87,1.92,1.92,0,0,1-2,1.87" transform="translate(0)" style="fill:#fff"/><path d="M386.91,314.57a1.87,1.87,0,1,1,2-1.87,1.92,1.92,0,0,1-2,1.87" transform="translate(0)" style="fill:#fff"/><path d="M386.91,347.17a1.86,1.86,0,1,1,2-1.86,1.92,1.92,0,0,1-2,1.86" transform="translate(0)" style="fill:#fff"/><path d="M417.44,216.75a1.87,1.87,0,1,1,2-1.87,1.92,1.92,0,0,1-2,1.87" transform="translate(0)" style="fill:#fff"/><path d="M417.44,249.35a1.87,1.87,0,1,1,0-3.73,1.87,1.87,0,1,1,0,3.73" transform="translate(0)" style="fill:#fff"/><path d="M417.44,282a1.87,1.87,0,1,1,2-1.87,1.91,1.91,0,0,1-2,1.87" transform="translate(0)" style="fill:#fff"/><path d="M417.44,314.57a1.87,1.87,0,1,1,2-1.87,1.92,1.92,0,0,1-2,1.87" transform="translate(0)" style="fill:#fff"/><path d="M417.44,347.17a1.86,1.86,0,1,1,2-1.86,1.92,1.92,0,0,1-2,1.86" transform="translate(0)" style="fill:#fff"/><path d="M448,216.75a1.87,1.87,0,1,1,2-1.87,1.92,1.92,0,0,1-2,1.87" transform="translate(0)" style="fill:#fff"/><path d="M448,249.35a1.87,1.87,0,1,1,2-1.86,1.91,1.91,0,0,1-2,1.86" transform="translate(0)" style="fill:#fff"/><path d="M448,282a1.87,1.87,0,1,1,2-1.87,1.92,1.92,0,0,1-2,1.87" transform="translate(0)" style="fill:#fff"/><path d="M448,314.57a1.87,1.87,0,1,1,2-1.87,1.92,1.92,0,0,1-2,1.87" transform="translate(0)" style="fill:#fff"/><path d="M448,347.17a1.86,1.86,0,1,1,2-1.86,1.92,1.92,0,0,1-2,1.86" transform="translate(0)" style="fill:#fff"/><path d="M478.52,216.75a1.87,1.87,0,1,1,2-1.87,1.93,1.93,0,0,1-2,1.87" transform="translate(0)" style="fill:#fff"/><path d="M478.52,249.35a1.87,1.87,0,1,1,2-1.86,1.92,1.92,0,0,1-2,1.86" transform="translate(0)" style="fill:#fff"/><path d="M478.52,282a1.87,1.87,0,1,1,2-1.87,1.92,1.92,0,0,1-2,1.87" transform="translate(0)" style="fill:#fff"/><path d="M478.52,314.57a1.87,1.87,0,1,1,2-1.87,1.93,1.93,0,0,1-2,1.87" transform="translate(0)" style="fill:#fff"/><path d="M478.52,347.17a1.86,1.86,0,1,1,2-1.86,1.93,1.93,0,0,1-2,1.86" transform="translate(0)" style="fill:#fff"/><path d="M509.06,216.75a1.87,1.87,0,1,1,2-1.87,1.92,1.92,0,0,1-2,1.87" transform="translate(0)" style="fill:#fff"/><path d="M509.06,249.35a1.87,1.87,0,1,1,2-1.86,1.91,1.91,0,0,1-2,1.86" transform="translate(0)" style="fill:#fff"/><path d="M509.06,282a1.87,1.87,0,1,1,2-1.87,1.92,1.92,0,0,1-2,1.87" transform="translate(0)" style="fill:#fff"/><path d="M509.06,314.57a1.87,1.87,0,1,1,2-1.87,1.92,1.92,0,0,1-2,1.87" transform="translate(0)" style="fill:#fff"/><path d="M509.06,347.17a1.86,1.86,0,1,1,2-1.86,1.92,1.92,0,0,1-2,1.86" transform="translate(0)" style="fill:#fff"/><path d="M539.59,216.75a1.87,1.87,0,1,1,2-1.87,1.93,1.93,0,0,1-2,1.87" transform="translate(0)" style="fill:#fff"/><path d="M539.59,249.35a1.87,1.87,0,1,1,2-1.86,1.92,1.92,0,0,1-2,1.86" transform="translate(0)" style="fill:#fff"/><path d="M539.59,282a1.87,1.87,0,1,1,2-1.87,1.92,1.92,0,0,1-2,1.87" transform="translate(0)" style="fill:#fff"/><path d="M539.59,314.57a1.87,1.87,0,1,1,2-1.87,1.93,1.93,0,0,1-2,1.87" transform="translate(0)" style="fill:#fff"/><path d="M539.59,347.17a1.86,1.86,0,1,1,2-1.86,1.93,1.93,0,0,1-2,1.86" transform="translate(0)" style="fill:#fff"/><path d="M570.13,216.75a1.87,1.87,0,1,1,0-3.73h.21a1.86,1.86,0,0,0,0,3.71h-.21" transform="translate(0)" style="fill:#fff"/><path d="M570.13,249.35a1.87,1.87,0,1,1,0-3.73h.21a1.86,1.86,0,0,0,0,3.71h-.21" transform="translate(0)" style="fill:#fff"/><path d="M570.13,282a1.87,1.87,0,1,1,0-3.73h.21a1.86,1.86,0,0,0,0,3.71h-.21" transform="translate(0)" style="fill:#fff"/><path d="M570.13,314.57a1.87,1.87,0,1,1,0-3.73h.21a1.86,1.86,0,0,0,0,3.71h-.21" transform="translate(0)" style="fill:#fff"/><path d="M570.13,347.17a1.86,1.86,0,1,1,0-3.72h.21a1.85,1.85,0,0,0,0,3.7h-.21" transform="translate(0)" style="fill:#fff"/><path d="M570.56,216.75h-.22a1.86,1.86,0,0,1,0-3.71h.22a1.87,1.87,0,1,1,0,3.73" transform="translate(0)" style="fill:#fff"/><path d="M570.56,249.35h-.22a1.86,1.86,0,0,1,0-3.71h.22a1.87,1.87,0,1,1,0,3.73" transform="translate(0)" style="fill:#fff"/><path d="M570.56,282h-.22a1.86,1.86,0,0,1,0-3.71h.22a1.87,1.87,0,1,1,0,3.73" transform="translate(0)" style="fill:#fff"/><path d="M570.56,314.57h-.22a1.86,1.86,0,0,1,0-3.71h.22a1.87,1.87,0,1,1,0,3.73" transform="translate(0)" style="fill:#fff"/><path d="M570.56,347.17h-.22a1.85,1.85,0,0,1,0-3.7h.22a1.86,1.86,0,1,1,0,3.72" transform="translate(0)" style="fill:#fff"/><path d="M601.09,216.75a1.87,1.87,0,1,1,2-1.87,1.93,1.93,0,0,1-2,1.87" transform="translate(0)" style="fill:#fff"/><path d="M601.09,249.35a1.87,1.87,0,1,1,2-1.86,1.92,1.92,0,0,1-2,1.86" transform="translate(0)" style="fill:#fff"/><path d="M601.09,282a1.87,1.87,0,1,1,2-1.87,1.92,1.92,0,0,1-2,1.87" transform="translate(0)" style="fill:#fff"/><path d="M601.09,314.57a1.87,1.87,0,1,1,0-3.73,1.87,1.87,0,1,1,0,3.73" transform="translate(0)" style="fill:#fff"/><path d="M601.09,347.17a1.86,1.86,0,1,1,0-3.72,1.86,1.86,0,1,1,0,3.72" transform="translate(0)" style="fill:#fff"/><path d="M631.63,216.75a1.87,1.87,0,1,1,2-1.87,1.92,1.92,0,0,1-2,1.87" transform="translate(0)" style="fill:#fff"/><path d="M631.63,249.35a1.87,1.87,0,1,1,2-1.86,1.91,1.91,0,0,1-2,1.86" transform="translate(0)" style="fill:#fff"/><path d="M631.63,282a1.87,1.87,0,1,1,2-1.87,1.92,1.92,0,0,1-2,1.87" transform="translate(0)" style="fill:#fff"/><path d="M631.63,314.57a1.87,1.87,0,1,1,2-1.87,1.92,1.92,0,0,1-2,1.87" transform="translate(0)" style="fill:#fff"/><path d="M631.63,347.17a1.86,1.86,0,1,1,2-1.86,1.92,1.92,0,0,1-2,1.86" transform="translate(0)" style="fill:#fff"/><path d="M662.17,216.75a1.87,1.87,0,1,1,2-1.87,1.92,1.92,0,0,1-2,1.87" transform="translate(0)" style="fill:#fff"/><path d="M662.17,249.35a1.87,1.87,0,1,1,2-1.86,1.91,1.91,0,0,1-2,1.86" transform="translate(0)" style="fill:#fff"/><path d="M662.17,282a1.87,1.87,0,1,1,2-1.87,1.92,1.92,0,0,1-2,1.87" transform="translate(0)" style="fill:#fff"/><path d="M662.17,314.57a1.87,1.87,0,1,1,2-1.87,1.92,1.92,0,0,1-2,1.87" transform="translate(0)" style="fill:#fff"/><path d="M662.17,347.17a1.86,1.86,0,1,1,2-1.86,1.92,1.92,0,0,1-2,1.86" transform="translate(0)" style="fill:#fff"/><path d="M692.7,216.75a1.87,1.87,0,1,1,2-1.87,1.92,1.92,0,0,1-2,1.87" transform="translate(0)" style="fill:#fff"/><path d="M692.7,249.35a1.87,1.87,0,1,1,2-1.86,1.91,1.91,0,0,1-2,1.86" transform="translate(0)" style="fill:#fff"/><path d="M692.7,282a1.87,1.87,0,1,1,2-1.87,1.92,1.92,0,0,1-2,1.87" transform="translate(0)" style="fill:#fff"/><path d="M692.7,314.57a1.87,1.87,0,1,1,2-1.87,1.92,1.92,0,0,1-2,1.87" transform="translate(0)" style="fill:#fff"/><path d="M692.7,347.17a1.86,1.86,0,1,1,2-1.86,1.92,1.92,0,0,1-2,1.86" transform="translate(0)" style="fill:#fff"/><path d="M723.24,216.75a1.87,1.87,0,1,1,2-1.87,1.92,1.92,0,0,1-2,1.87" transform="translate(0)" style="fill:#fff"/><path d="M723.24,249.35a1.87,1.87,0,1,1,2-1.86,1.91,1.91,0,0,1-2,1.86" transform="translate(0)" style="fill:#fff"/><path d="M723.24,282a1.87,1.87,0,1,1,2-1.87,1.92,1.92,0,0,1-2,1.87" transform="translate(0)" style="fill:#fff"/><path d="M723.24,314.57a1.87,1.87,0,1,1,2-1.87,1.92,1.92,0,0,1-2,1.87" transform="translate(0)" style="fill:#fff"/><path d="M723.24,347.17a1.86,1.86,0,1,1,2-1.86,1.92,1.92,0,0,1-2,1.86" transform="translate(0)" style="fill:#fff"/><path d="M753.78,216.75a1.87,1.87,0,1,1,2-1.87,1.92,1.92,0,0,1-2,1.87" transform="translate(0)" style="fill:#fff"/><path d="M753.78,249.35a1.87,1.87,0,1,1,0-3.73,1.87,1.87,0,1,1,0,3.73" transform="translate(0)" style="fill:#fff"/><path d="M753.78,282a1.87,1.87,0,1,1,2-1.87,1.91,1.91,0,0,1-2,1.87" transform="translate(0)" style="fill:#fff"/><path d="M753.78,314.57a1.87,1.87,0,1,1,2-1.87,1.92,1.92,0,0,1-2,1.87" transform="translate(0)" style="fill:#fff"/><path d="M753.78,347.17a1.86,1.86,0,1,1,2-1.86,1.91,1.91,0,0,1-2,1.86" transform="translate(0)" style="fill:#fff"/><path d="M784.32,216.75a1.87,1.87,0,1,1,2-1.87,1.93,1.93,0,0,1-2,1.87" transform="translate(0)" style="fill:#fff"/><path d="M784.32,249.35a1.87,1.87,0,1,1,2-1.86,1.92,1.92,0,0,1-2,1.86" transform="translate(0)" style="fill:#fff"/><path d="M784.32,282a1.87,1.87,0,1,1,2-1.87,1.92,1.92,0,0,1-2,1.87" transform="translate(0)" style="fill:#fff"/><path d="M784.32,314.57a1.87,1.87,0,1,1,2-1.87,1.93,1.93,0,0,1-2,1.87" transform="translate(0)" style="fill:#fff"/><path d="M784.32,347.17a1.86,1.86,0,1,1,2-1.86,1.92,1.92,0,0,1-2,1.86" transform="translate(0)" style="fill:#fff"/><path d="M814.85,216.75a1.87,1.87,0,1,1,2-1.87,1.93,1.93,0,0,1-2,1.87" transform="translate(0)" style="fill:#fff"/><path d="M814.85,249.35a1.87,1.87,0,1,1,2-1.86,1.92,1.92,0,0,1-2,1.86" transform="translate(0)" style="fill:#fff"/><path d="M814.85,282a1.87,1.87,0,1,1,2-1.87,1.92,1.92,0,0,1-2,1.87" transform="translate(0)" style="fill:#fff"/><path d="M814.85,314.57a1.87,1.87,0,1,1,2-1.87,1.93,1.93,0,0,1-2,1.87" transform="translate(0)" style="fill:#fff"/><path d="M814.85,347.17a1.86,1.86,0,1,1,2-1.86,1.93,1.93,0,0,1-2,1.86" transform="translate(0)" style="fill:#fff"/><path d="M845.39,216.75a1.87,1.87,0,1,1,2-1.87,1.92,1.92,0,0,1-2,1.87" transform="translate(0)" style="fill:#fff"/><path d="M845.39,249.35a1.87,1.87,0,1,1,2-1.86,1.91,1.91,0,0,1-2,1.86" transform="translate(0)" style="fill:#fff"/><path d="M845.39,282a1.87,1.87,0,1,1,2-1.87,1.92,1.92,0,0,1-2,1.87" transform="translate(0)" style="fill:#fff"/><path d="M845.39,314.57a1.87,1.87,0,1,1,2-1.87,1.92,1.92,0,0,1-2,1.87" transform="translate(0)" style="fill:#fff"/><path d="M845.39,347.17a1.86,1.86,0,1,1,2-1.86,1.92,1.92,0,0,1-2,1.86" transform="translate(0)" style="fill:#fff"/><path d="M875.92,216.75a1.87,1.87,0,1,1,2-1.87,1.92,1.92,0,0,1-2,1.87" transform="translate(0)" style="fill:#fff"/><path d="M875.92,249.35a1.87,1.87,0,1,1,0-3.73,1.87,1.87,0,1,1,0,3.73" transform="translate(0)" style="fill:#fff"/><path d="M875.92,282a1.87,1.87,0,1,1,2-1.87,1.91,1.91,0,0,1-2,1.87" transform="translate(0)" style="fill:#fff"/><path d="M875.92,314.57a1.87,1.87,0,1,1,2-1.87,1.92,1.92,0,0,1-2,1.87" transform="translate(0)" style="fill:#fff"/><path d="M875.92,347.17a1.86,1.86,0,1,1,2-1.86,1.92,1.92,0,0,1-2,1.86" transform="translate(0)" style="fill:#fff"/><path d="M906.47,216.75a1.87,1.87,0,1,1,2-1.87,1.93,1.93,0,0,1-2,1.87" transform="translate(0)" style="fill:#fff"/><path d="M906.47,249.35a1.87,1.87,0,1,1,2-1.86,1.92,1.92,0,0,1-2,1.86" transform="translate(0)" style="fill:#fff"/><path d="M906.47,282a1.87,1.87,0,1,1,2-1.87,1.92,1.92,0,0,1-2,1.87" transform="translate(0)" style="fill:#fff"/><path d="M906.47,314.57a1.87,1.87,0,1,1,2-1.87,1.93,1.93,0,0,1-2,1.87" transform="translate(0)" style="fill:#fff"/><path d="M906.47,347.17a1.86,1.86,0,1,1,2-1.86,1.93,1.93,0,0,1-2,1.86" transform="translate(0)" style="fill:#fff"/><path d="M937,216.75a1.87,1.87,0,1,1,2-1.87,1.93,1.93,0,0,1-2,1.87" transform="translate(0)" style="fill:#fff"/><path d="M937,249.35a1.87,1.87,0,1,1,2-1.86,1.92,1.92,0,0,1-2,1.86" transform="translate(0)" style="fill:#fff"/><path d="M937,282a1.87,1.87,0,1,1,2-1.87,1.92,1.92,0,0,1-2,1.87" transform="translate(0)" style="fill:#fff"/><path d="M937,314.57a1.87,1.87,0,1,1,2-1.87,1.93,1.93,0,0,1-2,1.87" transform="translate(0)" style="fill:#fff"/><path d="M937,347.17a1.86,1.86,0,1,1,2-1.86,1.93,1.93,0,0,1-2,1.86" transform="translate(0)" style="fill:#fff"/><path d="M967.54,216.75a1.87,1.87,0,1,1,2-1.87,1.92,1.92,0,0,1-2,1.87" transform="translate(0)" style="fill:#fff"/><path d="M967.54,249.35a1.87,1.87,0,1,1,2-1.86,1.91,1.91,0,0,1-2,1.86" transform="translate(0)" style="fill:#fff"/><path d="M967.54,282a1.87,1.87,0,1,1,2-1.87,1.92,1.92,0,0,1-2,1.87" transform="translate(0)" style="fill:#fff"/><path d="M967.54,314.57a1.87,1.87,0,1,1,2-1.87,1.92,1.92,0,0,1-2,1.87" transform="translate(0)" style="fill:#fff"/><path d="M967.54,347.17a1.86,1.86,0,1,1,2-1.86,1.92,1.92,0,0,1-2,1.86" transform="translate(0)" style="fill:#fff"/><path d="M998.08,216.75a1.87,1.87,0,1,1,2-1.87,1.92,1.92,0,0,1-2,1.87" transform="translate(0)" style="fill:#fff"/><path d="M998.08,249.35a1.87,1.87,0,1,1,2-1.86,1.91,1.91,0,0,1-2,1.86" transform="translate(0)" style="fill:#fff"/><path d="M998.08,282a1.87,1.87,0,1,1,2-1.87,1.92,1.92,0,0,1-2,1.87" transform="translate(0)" style="fill:#fff"/><path d="M998.08,314.57a1.87,1.87,0,1,1,2-1.87,1.92,1.92,0,0,1-2,1.87" transform="translate(0)" style="fill:#fff"/><path d="M998.08,347.17a1.86,1.86,0,1,1,2-1.86,1.92,1.92,0,0,1-2,1.86" transform="translate(0)" style="fill:#fff"/><path d="M1028.61,216.75a1.87,1.87,0,1,1,2-1.87,1.92,1.92,0,0,1-2,1.87" transform="translate(0)" style="fill:#fff"/><path d="M1028.61,249.35a1.87,1.87,0,1,1,2-1.86,1.91,1.91,0,0,1-2,1.86" transform="translate(0)" style="fill:#fff"/><path d="M1028.61,282a1.87,1.87,0,1,1,2-1.87,1.92,1.92,0,0,1-2,1.87" transform="translate(0)" style="fill:#fff"/><path d="M1028.61,314.57a1.87,1.87,0,1,1,2-1.87,1.92,1.92,0,0,1-2,1.87" transform="translate(0)" style="fill:#fff"/><path d="M1028.61,347.17a1.86,1.86,0,1,1,2-1.86,1.92,1.92,0,0,1-2,1.86" transform="translate(0)" style="fill:#fff"/><path d="M1059.15,216.75a1.87,1.87,0,1,1,2-1.87,1.92,1.92,0,0,1-2,1.87" transform="translate(0)" style="fill:#fff"/><path d="M1059.15,249.35a1.87,1.87,0,1,1,2-1.86,1.91,1.91,0,0,1-2,1.86" transform="translate(0)" style="fill:#fff"/><path d="M1059.15,282a1.87,1.87,0,1,1,2-1.87,1.92,1.92,0,0,1-2,1.87" transform="translate(0)" style="fill:#fff"/><path d="M1059.15,314.57a1.87,1.87,0,1,1,2-1.87,1.92,1.92,0,0,1-2,1.87" transform="translate(0)" style="fill:#fff"/><path d="M1059.15,347.17a1.86,1.86,0,1,1,2-1.86,1.92,1.92,0,0,1-2,1.86" transform="translate(0)" style="fill:#fff"/><path d="M203.69,372.6a1.87,1.87,0,1,1,2-1.87,1.92,1.92,0,0,1-2,1.87" transform="translate(0)" style="fill:#fff"/><path d="M203.69,405.21a1.87,1.87,0,1,1,2-1.87,1.92,1.92,0,0,1-2,1.87" transform="translate(0)" style="fill:#fff"/><path d="M203.69,437.81a1.86,1.86,0,1,1,2-1.86,1.91,1.91,0,0,1-2,1.86" transform="translate(0)" style="fill:#fff"/><path d="M203.69,470.42a1.87,1.87,0,1,1,2-1.87,1.92,1.92,0,0,1-2,1.87" transform="translate(0)" style="fill:#fff"/><path d="M203.69,503a1.87,1.87,0,1,1,2-1.85,1.91,1.91,0,0,1-2,1.85" transform="translate(0)" style="fill:#fff"/><path d="M203.69,535.62a1.86,1.86,0,1,1,2-1.86,1.91,1.91,0,0,1-2,1.86" transform="translate(0)" style="fill:#fff"/><path d="M203.69,568.23a1.86,1.86,0,1,1,2-1.87,1.91,1.91,0,0,1-2,1.87" transform="translate(0)" style="fill:#fff"/><path d="M234.22,372.6a1.87,1.87,0,1,1,2-1.87,1.92,1.92,0,0,1-2,1.87" transform="translate(0)" style="fill:#fff"/><path d="M234.22,405.21a1.87,1.87,0,1,1,2-1.87,1.92,1.92,0,0,1-2,1.87" transform="translate(0)" style="fill:#fff"/><path d="M234.22,437.81a1.86,1.86,0,1,1,2-1.86,1.91,1.91,0,0,1-2,1.86" transform="translate(0)" style="fill:#fff"/><path d="M234.22,470.42a1.87,1.87,0,1,1,2-1.87,1.92,1.92,0,0,1-2,1.87" transform="translate(0)" style="fill:#fff"/><path d="M234.22,503a1.87,1.87,0,1,1,2-1.85,1.91,1.91,0,0,1-2,1.85" transform="translate(0)" style="fill:#fff"/><path d="M234.22,535.62a1.86,1.86,0,1,1,2-1.86,1.91,1.91,0,0,1-2,1.86" transform="translate(0)" style="fill:#fff"/><path d="M234.22,568.23a1.86,1.86,0,1,1,2-1.87,1.91,1.91,0,0,1-2,1.87" transform="translate(0)" style="fill:#fff"/><path d="M264.76,372.6a1.87,1.87,0,1,1,2-1.87,1.92,1.92,0,0,1-2,1.87" transform="translate(0)" style="fill:#fff"/><path d="M264.76,405.21a1.87,1.87,0,1,1,2-1.87,1.92,1.92,0,0,1-2,1.87" transform="translate(0)" style="fill:#fff"/><path d="M264.76,437.81a1.86,1.86,0,1,1,2-1.86,1.91,1.91,0,0,1-2,1.86" transform="translate(0)" style="fill:#fff"/><path d="M264.76,470.42a1.87,1.87,0,1,1,2-1.87,1.92,1.92,0,0,1-2,1.87" transform="translate(0)" style="fill:#fff"/><path d="M264.76,503a1.87,1.87,0,1,1,2-1.85,1.91,1.91,0,0,1-2,1.85" transform="translate(0)" style="fill:#fff"/><path d="M264.76,535.62a1.86,1.86,0,1,1,2-1.86,1.91,1.91,0,0,1-2,1.86" transform="translate(0)" style="fill:#fff"/><path d="M264.76,568.23a1.86,1.86,0,1,1,2-1.87,1.91,1.91,0,0,1-2,1.87" transform="translate(0)" style="fill:#fff"/><path d="M295.3,372.6a1.87,1.87,0,1,1,2-1.87,1.92,1.92,0,0,1-2,1.87" transform="translate(0)" style="fill:#fff"/><path d="M295.3,405.21a1.87,1.87,0,1,1,2-1.87,1.92,1.92,0,0,1-2,1.87" transform="translate(0)" style="fill:#fff"/><path d="M295.3,437.81a1.86,1.86,0,1,1,2-1.86,1.91,1.91,0,0,1-2,1.86" transform="translate(0)" style="fill:#fff"/><path d="M295.3,470.42a1.87,1.87,0,1,1,2-1.87,1.92,1.92,0,0,1-2,1.87" transform="translate(0)" style="fill:#fff"/><path d="M295.3,503a1.87,1.87,0,1,1,2-1.85,1.91,1.91,0,0,1-2,1.85" transform="translate(0)" style="fill:#fff"/><path d="M295.3,535.62a1.86,1.86,0,1,1,0-3.72,1.86,1.86,0,1,1,0,3.72" transform="translate(0)" style="fill:#fff"/><path d="M295.3,568.23a1.86,1.86,0,1,1,2-1.87,1.91,1.91,0,0,1-2,1.87" transform="translate(0)" style="fill:#fff"/><path d="M325.83,372.6a1.87,1.87,0,1,1,2-1.87,1.92,1.92,0,0,1-2,1.87" transform="translate(0)" style="fill:#fff"/><path d="M325.83,405.21a1.87,1.87,0,1,1,2-1.87,1.92,1.92,0,0,1-2,1.87" transform="translate(0)" style="fill:#fff"/><path d="M325.83,437.81a1.86,1.86,0,1,1,2-1.86,1.91,1.91,0,0,1-2,1.86" transform="translate(0)" style="fill:#fff"/><path d="M325.83,470.42a1.87,1.87,0,1,1,2-1.87,1.92,1.92,0,0,1-2,1.87" transform="translate(0)" style="fill:#fff"/><path d="M325.83,503a1.87,1.87,0,1,1,2-1.85,1.91,1.91,0,0,1-2,1.85" transform="translate(0)" style="fill:#fff"/><path d="M325.83,535.62a1.86,1.86,0,1,1,2-1.86,1.91,1.91,0,0,1-2,1.86" transform="translate(0)" style="fill:#fff"/><path d="M325.83,568.23a1.86,1.86,0,1,1,2-1.87,1.91,1.91,0,0,1-2,1.87" transform="translate(0)" style="fill:#fff"/><path d="M356.37,372.6a1.87,1.87,0,1,1,2-1.87,1.92,1.92,0,0,1-2,1.87" transform="translate(0)" style="fill:#fff"/><path d="M356.37,405.21a1.87,1.87,0,1,1,2-1.87,1.92,1.92,0,0,1-2,1.87" transform="translate(0)" style="fill:#fff"/><path d="M356.37,437.81a1.86,1.86,0,1,1,2-1.86,1.91,1.91,0,0,1-2,1.86" transform="translate(0)" style="fill:#fff"/><path d="M356.37,470.42a1.87,1.87,0,1,1,2-1.87,1.92,1.92,0,0,1-2,1.87" transform="translate(0)" style="fill:#fff"/><path d="M356.37,503a1.87,1.87,0,1,1,2-1.85,1.91,1.91,0,0,1-2,1.85" transform="translate(0)" style="fill:#fff"/><path d="M356.37,535.62a1.86,1.86,0,1,1,2-1.86,1.91,1.91,0,0,1-2,1.86" transform="translate(0)" style="fill:#fff"/><path d="M356.37,568.23a1.86,1.86,0,1,1,2-1.87,1.91,1.91,0,0,1-2,1.87" transform="translate(0)" style="fill:#fff"/><path d="M386.91,372.6a1.87,1.87,0,1,1,2-1.87,1.92,1.92,0,0,1-2,1.87" transform="translate(0)" style="fill:#fff"/><path d="M386.91,405.21a1.87,1.87,0,1,1,2-1.87,1.92,1.92,0,0,1-2,1.87" transform="translate(0)" style="fill:#fff"/><path d="M386.91,437.81a1.86,1.86,0,1,1,2-1.86,1.91,1.91,0,0,1-2,1.86" transform="translate(0)" style="fill:#fff"/><path d="M386.91,470.42a1.87,1.87,0,1,1,2-1.87,1.92,1.92,0,0,1-2,1.87" transform="translate(0)" style="fill:#fff"/><path d="M386.91,503a1.87,1.87,0,1,1,2-1.85,1.91,1.91,0,0,1-2,1.85" transform="translate(0)" style="fill:#fff"/><path d="M386.91,535.62a1.86,1.86,0,1,1,0-3.72,1.86,1.86,0,1,1,0,3.72" transform="translate(0)" style="fill:#fff"/><path d="M386.91,568.23a1.86,1.86,0,1,1,2-1.87,1.91,1.91,0,0,1-2,1.87" transform="translate(0)" style="fill:#fff"/><path d="M417.44,372.6a1.87,1.87,0,1,1,2-1.87,1.92,1.92,0,0,1-2,1.87" transform="translate(0)" style="fill:#fff"/><path d="M417.44,405.21a1.87,1.87,0,1,1,2-1.87,1.92,1.92,0,0,1-2,1.87" transform="translate(0)" style="fill:#fff"/><path d="M417.44,437.81a1.86,1.86,0,1,1,2-1.86,1.91,1.91,0,0,1-2,1.86" transform="translate(0)" style="fill:#fff"/><path d="M417.44,470.42a1.87,1.87,0,1,1,2-1.87,1.92,1.92,0,0,1-2,1.87" transform="translate(0)" style="fill:#fff"/><path d="M417.44,503a1.87,1.87,0,1,1,0-3.73,1.87,1.87,0,1,1,0,3.73" transform="translate(0)" style="fill:#fff"/><path d="M417.44,535.62a1.86,1.86,0,1,1,0-3.72,1.86,1.86,0,1,1,0,3.72" transform="translate(0)" style="fill:#fff"/><path d="M417.44,568.23a1.86,1.86,0,1,1,2-1.87,1.91,1.91,0,0,1-2,1.87" transform="translate(0)" style="fill:#fff"/><path d="M448,372.6a1.87,1.87,0,1,1,2-1.87,1.92,1.92,0,0,1-2,1.87" transform="translate(0)" style="fill:#fff"/><path d="M448,405.21a1.87,1.87,0,1,1,2-1.87,1.92,1.92,0,0,1-2,1.87" transform="translate(0)" style="fill:#fff"/><path d="M448,437.81a1.86,1.86,0,1,1,2-1.86,1.91,1.91,0,0,1-2,1.86" transform="translate(0)" style="fill:#fff"/><path d="M448,470.42a1.87,1.87,0,1,1,2-1.87,1.92,1.92,0,0,1-2,1.87" transform="translate(0)" style="fill:#fff"/><path d="M448,503a1.87,1.87,0,1,1,2-1.85,1.91,1.91,0,0,1-2,1.85" transform="translate(0)" style="fill:#fff"/><path d="M448,535.62a1.86,1.86,0,1,1,2-1.86,1.91,1.91,0,0,1-2,1.86" transform="translate(0)" style="fill:#fff"/><path d="M448,568.23a1.86,1.86,0,1,1,2-1.87,1.91,1.91,0,0,1-2,1.87" transform="translate(0)" style="fill:#fff"/><path d="M478.52,372.6a1.87,1.87,0,1,1,2-1.87,1.93,1.93,0,0,1-2,1.87" transform="translate(0)" style="fill:#fff"/><path d="M478.52,405.21a1.87,1.87,0,1,1,2-1.87,1.93,1.93,0,0,1-2,1.87" transform="translate(0)" style="fill:#fff"/><path d="M478.52,437.81a1.86,1.86,0,1,1,2-1.86,1.92,1.92,0,0,1-2,1.86" transform="translate(0)" style="fill:#fff"/><path d="M478.52,470.42a1.87,1.87,0,1,1,2-1.87,1.93,1.93,0,0,1-2,1.87" transform="translate(0)" style="fill:#fff"/><path d="M478.52,503a1.87,1.87,0,1,1,2-1.85,1.92,1.92,0,0,1-2,1.85" transform="translate(0)" style="fill:#fff"/><path d="M478.52,535.62a1.86,1.86,0,1,1,2-1.86,1.91,1.91,0,0,1-2,1.86" transform="translate(0)" style="fill:#fff"/><path d="M478.52,568.23a1.86,1.86,0,1,1,2-1.87,1.92,1.92,0,0,1-2,1.87" transform="translate(0)" style="fill:#fff"/><path d="M509.06,372.6a1.87,1.87,0,1,1,2-1.87,1.92,1.92,0,0,1-2,1.87" transform="translate(0)" style="fill:#fff"/><path d="M509.06,405.21a1.87,1.87,0,1,1,2-1.87,1.92,1.92,0,0,1-2,1.87" transform="translate(0)" style="fill:#fff"/><path d="M509.06,437.81a1.86,1.86,0,1,1,2-1.86,1.91,1.91,0,0,1-2,1.86" transform="translate(0)" style="fill:#fff"/><path d="M509.06,470.42a1.87,1.87,0,1,1,2-1.87,1.92,1.92,0,0,1-2,1.87" transform="translate(0)" style="fill:#fff"/><path d="M509.06,503a1.87,1.87,0,1,1,2-1.85,1.91,1.91,0,0,1-2,1.85" transform="translate(0)" style="fill:#fff"/><path d="M509.06,535.62a1.86,1.86,0,1,1,2-1.86,1.91,1.91,0,0,1-2,1.86" transform="translate(0)" style="fill:#fff"/><path d="M509.06,568.23a1.86,1.86,0,1,1,2-1.87,1.91,1.91,0,0,1-2,1.87" transform="translate(0)" style="fill:#fff"/><path d="M539.59,372.6a1.87,1.87,0,1,1,2-1.87,1.93,1.93,0,0,1-2,1.87" transform="translate(0)" style="fill:#fff"/><path d="M539.59,405.21a1.87,1.87,0,1,1,2-1.87,1.93,1.93,0,0,1-2,1.87" transform="translate(0)" style="fill:#fff"/><path d="M539.59,437.81a1.86,1.86,0,1,1,2-1.86,1.92,1.92,0,0,1-2,1.86" transform="translate(0)" style="fill:#fff"/><path d="M539.59,470.42a1.87,1.87,0,1,1,2-1.87,1.93,1.93,0,0,1-2,1.87" transform="translate(0)" style="fill:#fff"/><path d="M539.59,503a1.87,1.87,0,1,1,2-1.85,1.92,1.92,0,0,1-2,1.85" transform="translate(0)" style="fill:#fff"/><path d="M539.59,535.62a1.86,1.86,0,1,1,2-1.86,1.91,1.91,0,0,1-2,1.86" transform="translate(0)" style="fill:#fff"/><path d="M539.59,568.23a1.86,1.86,0,1,1,2-1.87,1.92,1.92,0,0,1-2,1.87" transform="translate(0)" style="fill:#fff"/><path d="M570.13,372.6a1.87,1.87,0,1,1,0-3.73h.21a1.86,1.86,0,0,0,0,3.71h-.21" transform="translate(0)" style="fill:#fff"/><path d="M570.13,405.21a1.87,1.87,0,1,1,0-3.74h.21a1.86,1.86,0,0,0,0,3.72h-.21" transform="translate(0)" style="fill:#fff"/><path d="M570.13,437.81a1.86,1.86,0,1,1,0-3.72h.21a1.85,1.85,0,0,0,0,3.7h-.21" transform="translate(0)" style="fill:#fff"/><path d="M570.13,470.42a1.87,1.87,0,1,1,0-3.74h.21a1.86,1.86,0,0,0,0,3.72h-.21" transform="translate(0)" style="fill:#fff"/><path d="M570.13,503a1.87,1.87,0,1,1,0-3.73h.21a1.86,1.86,0,0,0,0,3.71h-.21" transform="translate(0)" style="fill:#fff"/><path d="M570.13,535.62a1.86,1.86,0,1,1,0-3.72h.21a1.85,1.85,0,0,0,0,3.7h-.21" transform="translate(0)" style="fill:#fff"/><path d="M570.13,568.23a1.86,1.86,0,1,1,0-3.72h.21a1.85,1.85,0,0,0,0,3.7h-.21" transform="translate(0)" style="fill:#fff"/><path d="M570.56,372.6h-.22a1.86,1.86,0,0,1,0-3.71h.22a1.87,1.87,0,1,1,0,3.73" transform="translate(0)" style="fill:#fff"/><path d="M570.56,405.21h-.22a1.86,1.86,0,0,1,0-3.72h.22a1.87,1.87,0,1,1,0,3.74" transform="translate(0)" style="fill:#fff"/><path d="M570.56,437.81h-.22a1.85,1.85,0,0,1,0-3.7h.22a1.86,1.86,0,1,1,0,3.72" transform="translate(0)" style="fill:#fff"/><path d="M570.56,470.42h-.22a1.86,1.86,0,0,1,0-3.72h.22a1.87,1.87,0,1,1,0,3.74" transform="translate(0)" style="fill:#fff"/><path d="M570.56,503h-.22a1.86,1.86,0,0,1,0-3.71h.22a1.87,1.87,0,1,1,0,3.73" transform="translate(0)" style="fill:#fff"/><path d="M570.56,535.62h-.22a1.85,1.85,0,0,1,0-3.7h.22a1.86,1.86,0,1,1,0,3.72" transform="translate(0)" style="fill:#fff"/><path d="M570.56,568.23h-.22a1.85,1.85,0,0,1,0-3.7h.22a1.86,1.86,0,1,1,0,3.72" transform="translate(0)" style="fill:#fff"/><path d="M601.09,372.6a1.87,1.87,0,1,1,2-1.87,1.93,1.93,0,0,1-2,1.87" transform="translate(0)" style="fill:#fff"/><path d="M601.09,405.21a1.87,1.87,0,1,1,2-1.87,1.93,1.93,0,0,1-2,1.87" transform="translate(0)" style="fill:#fff"/><path d="M601.09,437.81a1.86,1.86,0,1,1,2-1.86,1.92,1.92,0,0,1-2,1.86" transform="translate(0)" style="fill:#fff"/><path d="M601.09,470.42a1.87,1.87,0,1,1,2-1.87,1.93,1.93,0,0,1-2,1.87" transform="translate(0)" style="fill:#fff"/><path d="M601.09,503a1.87,1.87,0,1,1,2-1.85,1.92,1.92,0,0,1-2,1.85" transform="translate(0)" style="fill:#fff"/><path d="M601.09,535.62a1.86,1.86,0,1,1,2-1.86,1.91,1.91,0,0,1-2,1.86" transform="translate(0)" style="fill:#fff"/><path d="M601.09,568.23a1.86,1.86,0,1,1,2-1.87,1.92,1.92,0,0,1-2,1.87" transform="translate(0)" style="fill:#fff"/><path d="M631.63,372.6a1.87,1.87,0,1,1,2-1.87,1.92,1.92,0,0,1-2,1.87" transform="translate(0)" style="fill:#fff"/><path d="M631.63,405.21a1.87,1.87,0,1,1,2-1.87,1.92,1.92,0,0,1-2,1.87" transform="translate(0)" style="fill:#fff"/><path d="M631.63,437.81a1.86,1.86,0,1,1,2-1.86,1.91,1.91,0,0,1-2,1.86" transform="translate(0)" style="fill:#fff"/><path d="M631.63,470.42a1.87,1.87,0,1,1,2-1.87,1.92,1.92,0,0,1-2,1.87" transform="translate(0)" style="fill:#fff"/><path d="M631.63,503a1.87,1.87,0,1,1,2-1.85,1.91,1.91,0,0,1-2,1.85" transform="translate(0)" style="fill:#fff"/><path d="M631.63,535.62a1.86,1.86,0,1,1,0-3.72,1.86,1.86,0,1,1,0,3.72" transform="translate(0)" style="fill:#fff"/><path d="M631.63,568.23a1.86,1.86,0,1,1,2-1.87,1.91,1.91,0,0,1-2,1.87" transform="translate(0)" style="fill:#fff"/><path d="M662.17,372.6a1.87,1.87,0,1,1,2-1.87,1.92,1.92,0,0,1-2,1.87" transform="translate(0)" style="fill:#fff"/><path d="M662.17,405.21a1.87,1.87,0,1,1,2-1.87,1.92,1.92,0,0,1-2,1.87" transform="translate(0)" style="fill:#fff"/><path d="M662.17,437.81a1.86,1.86,0,1,1,2-1.86,1.91,1.91,0,0,1-2,1.86" transform="translate(0)" style="fill:#fff"/><path d="M662.17,470.42a1.87,1.87,0,1,1,2-1.87,1.92,1.92,0,0,1-2,1.87" transform="translate(0)" style="fill:#fff"/><path d="M662.17,503a1.87,1.87,0,1,1,2-1.85,1.91,1.91,0,0,1-2,1.85" transform="translate(0)" style="fill:#fff"/><path d="M662.17,535.62a1.86,1.86,0,1,1,2-1.86,1.91,1.91,0,0,1-2,1.86" transform="translate(0)" style="fill:#fff"/><path d="M662.17,568.23a1.86,1.86,0,1,1,2-1.87,1.91,1.91,0,0,1-2,1.87" transform="translate(0)" style="fill:#fff"/><path d="M692.7,372.6a1.87,1.87,0,1,1,2-1.87,1.92,1.92,0,0,1-2,1.87" transform="translate(0)" style="fill:#fff"/><path d="M692.7,405.21a1.87,1.87,0,1,1,2-1.87,1.92,1.92,0,0,1-2,1.87" transform="translate(0)" style="fill:#fff"/><path d="M692.7,437.81a1.86,1.86,0,1,1,2-1.86,1.91,1.91,0,0,1-2,1.86" transform="translate(0)" style="fill:#fff"/><path d="M692.7,470.42a1.87,1.87,0,1,1,2-1.87,1.92,1.92,0,0,1-2,1.87" transform="translate(0)" style="fill:#fff"/><path d="M692.7,503a1.87,1.87,0,1,1,2-1.85,1.91,1.91,0,0,1-2,1.85" transform="translate(0)" style="fill:#fff"/><path d="M692.7,535.62a1.86,1.86,0,1,1,2-1.86,1.91,1.91,0,0,1-2,1.86" transform="translate(0)" style="fill:#fff"/><path d="M692.7,568.23a1.86,1.86,0,1,1,2-1.87,1.91,1.91,0,0,1-2,1.87" transform="translate(0)" style="fill:#fff"/><path d="M723.24,372.6a1.87,1.87,0,1,1,2-1.87,1.92,1.92,0,0,1-2,1.87" transform="translate(0)" style="fill:#fff"/><path d="M723.24,405.21a1.87,1.87,0,1,1,2-1.87,1.92,1.92,0,0,1-2,1.87" transform="translate(0)" style="fill:#fff"/><path d="M723.24,437.81a1.86,1.86,0,1,1,2-1.86,1.91,1.91,0,0,1-2,1.86" transform="translate(0)" style="fill:#fff"/><path d="M723.24,470.42a1.87,1.87,0,1,1,2-1.87,1.92,1.92,0,0,1-2,1.87" transform="translate(0)" style="fill:#fff"/><path d="M723.24,503a1.87,1.87,0,1,1,2-1.85,1.91,1.91,0,0,1-2,1.85" transform="translate(0)" style="fill:#fff"/><path d="M723.24,535.62a1.86,1.86,0,1,1,2-1.86,1.91,1.91,0,0,1-2,1.86" transform="translate(0)" style="fill:#fff"/><path d="M723.24,568.23a1.86,1.86,0,1,1,2-1.87,1.91,1.91,0,0,1-2,1.87" transform="translate(0)" style="fill:#fff"/><path d="M753.78,372.6a1.87,1.87,0,1,1,2-1.87,1.92,1.92,0,0,1-2,1.87" transform="translate(0)" style="fill:#fff"/><path d="M753.78,405.21a1.87,1.87,0,1,1,2-1.87,1.92,1.92,0,0,1-2,1.87" transform="translate(0)" style="fill:#fff"/><path d="M753.78,437.81a1.86,1.86,0,1,1,2-1.86,1.91,1.91,0,0,1-2,1.86" transform="translate(0)" style="fill:#fff"/><path d="M753.78,470.42a1.87,1.87,0,1,1,2-1.87,1.92,1.92,0,0,1-2,1.87" transform="translate(0)" style="fill:#fff"/><path d="M753.78,503a1.87,1.87,0,1,1,0-3.73,1.87,1.87,0,1,1,0,3.73" transform="translate(0)" style="fill:#fff"/><path d="M753.78,535.62a1.86,1.86,0,1,1,0-3.72,1.86,1.86,0,1,1,0,3.72" transform="translate(0)" style="fill:#fff"/><path d="M753.78,568.23a1.86,1.86,0,1,1,2-1.87,1.9,1.9,0,0,1-2,1.87" transform="translate(0)" style="fill:#fff"/><path d="M784.32,372.6a1.87,1.87,0,1,1,2-1.87,1.93,1.93,0,0,1-2,1.87" transform="translate(0)" style="fill:#fff"/><path d="M784.32,405.21a1.87,1.87,0,1,1,2-1.87,1.93,1.93,0,0,1-2,1.87" transform="translate(0)" style="fill:#fff"/><path d="M784.32,437.81a1.86,1.86,0,1,1,2-1.86,1.92,1.92,0,0,1-2,1.86" transform="translate(0)" style="fill:#fff"/><path d="M784.32,470.42a1.87,1.87,0,1,1,2-1.87,1.93,1.93,0,0,1-2,1.87" transform="translate(0)" style="fill:#fff"/><path d="M784.32,503a1.87,1.87,0,1,1,2-1.85,1.92,1.92,0,0,1-2,1.85" transform="translate(0)" style="fill:#fff"/><path d="M784.32,535.62a1.86,1.86,0,1,1,2-1.86,1.91,1.91,0,0,1-2,1.86" transform="translate(0)" style="fill:#fff"/><path d="M784.32,568.23a1.86,1.86,0,1,1,2-1.87,1.91,1.91,0,0,1-2,1.87" transform="translate(0)" style="fill:#fff"/><path d="M814.85,372.6a1.87,1.87,0,1,1,2-1.87,1.93,1.93,0,0,1-2,1.87" transform="translate(0)" style="fill:#fff"/><path d="M814.85,405.21a1.87,1.87,0,1,1,2-1.87,1.93,1.93,0,0,1-2,1.87" transform="translate(0)" style="fill:#fff"/><path d="M814.85,437.81a1.86,1.86,0,1,1,2-1.86,1.92,1.92,0,0,1-2,1.86" transform="translate(0)" style="fill:#fff"/><path d="M814.85,470.42a1.87,1.87,0,1,1,2-1.87,1.93,1.93,0,0,1-2,1.87" transform="translate(0)" style="fill:#fff"/><path d="M814.85,503a1.87,1.87,0,1,1,2-1.85,1.92,1.92,0,0,1-2,1.85" transform="translate(0)" style="fill:#fff"/><path d="M814.85,535.62a1.86,1.86,0,1,1,2-1.86,1.91,1.91,0,0,1-2,1.86" transform="translate(0)" style="fill:#fff"/><path d="M814.85,568.23a1.86,1.86,0,1,1,2-1.87,1.92,1.92,0,0,1-2,1.87" transform="translate(0)" style="fill:#fff"/><path d="M845.39,372.6a1.87,1.87,0,1,1,2-1.87,1.92,1.92,0,0,1-2,1.87" transform="translate(0)" style="fill:#fff"/><path d="M845.39,405.21a1.87,1.87,0,1,1,2-1.87,1.92,1.92,0,0,1-2,1.87" transform="translate(0)" style="fill:#fff"/><path d="M845.39,437.81a1.86,1.86,0,1,1,2-1.86,1.91,1.91,0,0,1-2,1.86" transform="translate(0)" style="fill:#fff"/><path d="M845.39,470.42a1.87,1.87,0,1,1,2-1.87,1.92,1.92,0,0,1-2,1.87" transform="translate(0)" style="fill:#fff"/><path d="M845.39,503a1.87,1.87,0,1,1,2-1.85,1.91,1.91,0,0,1-2,1.85" transform="translate(0)" style="fill:#fff"/><path d="M845.39,535.62a1.86,1.86,0,1,1,2-1.86,1.91,1.91,0,0,1-2,1.86" transform="translate(0)" style="fill:#fff"/><path d="M845.39,568.23a1.86,1.86,0,1,1,2-1.87,1.91,1.91,0,0,1-2,1.87" transform="translate(0)" style="fill:#fff"/><path d="M875.92,372.6a1.87,1.87,0,1,1,2-1.87,1.92,1.92,0,0,1-2,1.87" transform="translate(0)" style="fill:#fff"/><path d="M875.92,405.21a1.87,1.87,0,1,1,2-1.87,1.92,1.92,0,0,1-2,1.87" transform="translate(0)" style="fill:#fff"/><path d="M875.92,437.81a1.86,1.86,0,1,1,2-1.86,1.91,1.91,0,0,1-2,1.86" transform="translate(0)" style="fill:#fff"/><path d="M875.92,470.42a1.87,1.87,0,1,1,2-1.87,1.92,1.92,0,0,1-2,1.87" transform="translate(0)" style="fill:#fff"/><path d="M875.92,503a1.87,1.87,0,1,1,0-3.73,1.87,1.87,0,1,1,0,3.73" transform="translate(0)" style="fill:#fff"/><path d="M875.92,535.62a1.86,1.86,0,1,1,0-3.72,1.86,1.86,0,1,1,0,3.72" transform="translate(0)" style="fill:#fff"/><path d="M875.92,568.23a1.86,1.86,0,1,1,2-1.87,1.91,1.91,0,0,1-2,1.87" transform="translate(0)" style="fill:#fff"/><path d="M906.47,372.6a1.87,1.87,0,1,1,2-1.87,1.93,1.93,0,0,1-2,1.87" transform="translate(0)" style="fill:#fff"/><path d="M906.47,405.21a1.87,1.87,0,1,1,2-1.87,1.93,1.93,0,0,1-2,1.87" transform="translate(0)" style="fill:#fff"/><path d="M906.47,437.81a1.86,1.86,0,1,1,2-1.86,1.92,1.92,0,0,1-2,1.86" transform="translate(0)" style="fill:#fff"/><path d="M906.47,470.42a1.87,1.87,0,1,1,2-1.87,1.93,1.93,0,0,1-2,1.87" transform="translate(0)" style="fill:#fff"/><path d="M906.47,503a1.87,1.87,0,1,1,2-1.85,1.92,1.92,0,0,1-2,1.85" transform="translate(0)" style="fill:#fff"/><path d="M906.47,535.62a1.86,1.86,0,1,1,2-1.86,1.92,1.92,0,0,1-2,1.86" transform="translate(0)" style="fill:#fff"/><path d="M906.47,568.23a1.86,1.86,0,1,1,2-1.87,1.92,1.92,0,0,1-2,1.87" transform="translate(0)" style="fill:#fff"/><path d="M937,372.6a1.87,1.87,0,1,1,2-1.87,1.93,1.93,0,0,1-2,1.87" transform="translate(0)" style="fill:#fff"/><path d="M937,405.21a1.87,1.87,0,1,1,2-1.87,1.93,1.93,0,0,1-2,1.87" transform="translate(0)" style="fill:#fff"/><path d="M937,437.81a1.86,1.86,0,1,1,2-1.86,1.92,1.92,0,0,1-2,1.86" transform="translate(0)" style="fill:#fff"/><path d="M937,470.42a1.87,1.87,0,1,1,2-1.87,1.93,1.93,0,0,1-2,1.87" transform="translate(0)" style="fill:#fff"/><path d="M937,503a1.87,1.87,0,1,1,2-1.85,1.92,1.92,0,0,1-2,1.85" transform="translate(0)" style="fill:#fff"/><path d="M937,535.62a1.86,1.86,0,1,1,2-1.86,1.91,1.91,0,0,1-2,1.86" transform="translate(0)" style="fill:#fff"/><path d="M937,568.23a1.86,1.86,0,1,1,2-1.87,1.92,1.92,0,0,1-2,1.87" transform="translate(0)" style="fill:#fff"/><path d="M967.54,372.6a1.87,1.87,0,1,1,2-1.87,1.92,1.92,0,0,1-2,1.87" transform="translate(0)" style="fill:#fff"/><path d="M967.54,405.21a1.87,1.87,0,1,1,2-1.87,1.92,1.92,0,0,1-2,1.87" transform="translate(0)" style="fill:#fff"/><path d="M967.54,437.81a1.86,1.86,0,1,1,2-1.86,1.91,1.91,0,0,1-2,1.86" transform="translate(0)" style="fill:#fff"/><path d="M967.54,470.42a1.87,1.87,0,1,1,2-1.87,1.92,1.92,0,0,1-2,1.87" transform="translate(0)" style="fill:#fff"/><path d="M967.54,503a1.87,1.87,0,1,1,2-1.85,1.91,1.91,0,0,1-2,1.85" transform="translate(0)" style="fill:#fff"/><path d="M967.54,535.62a1.86,1.86,0,1,1,2-1.86,1.91,1.91,0,0,1-2,1.86" transform="translate(0)" style="fill:#fff"/><path d="M967.54,568.23a1.86,1.86,0,1,1,2-1.87,1.91,1.91,0,0,1-2,1.87" transform="translate(0)" style="fill:#fff"/><path d="M998.08,372.6a1.87,1.87,0,1,1,2-1.87,1.92,1.92,0,0,1-2,1.87" transform="translate(0)" style="fill:#fff"/><path d="M998.08,405.21a1.87,1.87,0,1,1,2-1.87,1.92,1.92,0,0,1-2,1.87" transform="translate(0)" style="fill:#fff"/><path d="M998.08,437.81a1.86,1.86,0,1,1,2-1.86,1.91,1.91,0,0,1-2,1.86" transform="translate(0)" style="fill:#fff"/><path d="M998.08,470.42a1.87,1.87,0,1,1,2-1.87,1.92,1.92,0,0,1-2,1.87" transform="translate(0)" style="fill:#fff"/><path d="M998.08,503a1.87,1.87,0,1,1,2-1.85,1.91,1.91,0,0,1-2,1.85" transform="translate(0)" style="fill:#fff"/><path d="M998.08,535.62a1.86,1.86,0,1,1,0-3.72,1.86,1.86,0,1,1,0,3.72" transform="translate(0)" style="fill:#fff"/><path d="M998.08,568.23a1.86,1.86,0,1,1,2-1.87,1.91,1.91,0,0,1-2,1.87" transform="translate(0)" style="fill:#fff"/><path d="M1028.61,372.6a1.87,1.87,0,1,1,2-1.87,1.92,1.92,0,0,1-2,1.87" transform="translate(0)" style="fill:#fff"/><path d="M1028.61,405.21a1.87,1.87,0,1,1,2-1.87,1.92,1.92,0,0,1-2,1.87" transform="translate(0)" style="fill:#fff"/><path d="M1028.61,437.81a1.86,1.86,0,1,1,2-1.86,1.91,1.91,0,0,1-2,1.86" transform="translate(0)" style="fill:#fff"/><path d="M1028.61,470.42a1.87,1.87,0,1,1,2-1.87,1.92,1.92,0,0,1-2,1.87" transform="translate(0)" style="fill:#fff"/><path d="M1028.61,503a1.87,1.87,0,1,1,2-1.85,1.91,1.91,0,0,1-2,1.85" transform="translate(0)" style="fill:#fff"/><path d="M1028.61,535.62a1.86,1.86,0,1,1,2-1.86,1.91,1.91,0,0,1-2,1.86" transform="translate(0)" style="fill:#fff"/><path d="M1028.61,568.23a1.86,1.86,0,1,1,2-1.87,1.91,1.91,0,0,1-2,1.87" transform="translate(0)" style="fill:#fff"/><path d="M1059.15,372.6a1.87,1.87,0,1,1,2-1.87,1.92,1.92,0,0,1-2,1.87" transform="translate(0)" style="fill:#fff"/><path d="M1059.15,405.21a1.87,1.87,0,1,1,2-1.87,1.92,1.92,0,0,1-2,1.87" transform="translate(0)" style="fill:#fff"/><path d="M1059.15,437.81a1.86,1.86,0,1,1,2-1.86,1.91,1.91,0,0,1-2,1.86" transform="translate(0)" style="fill:#fff"/><path d="M1059.15,470.42a1.87,1.87,0,1,1,2-1.87,1.92,1.92,0,0,1-2,1.87" transform="translate(0)" style="fill:#fff"/><path d="M1059.15,503a1.87,1.87,0,1,1,2-1.85,1.91,1.91,0,0,1-2,1.85" transform="translate(0)" style="fill:#fff"/><path d="M1059.15,535.62a1.86,1.86,0,1,1,2-1.86,1.91,1.91,0,0,1-2,1.86" transform="translate(0)" style="fill:#fff"/><path d="M1059.15,568.23a1.86,1.86,0,1,1,2-1.87,1.91,1.91,0,0,1-2,1.87" transform="translate(0)" style="fill:#fff"/><image width="1000" height="667" transform="translate(368.12) scale(0.9)" xlink:href="../../../../../Users/stran/Desktop/01. Cierre 2017/01. Multimedios/02. Mock ups/8-GI.png"/><image width="1000" height="435" transform="translate(0 135.56) scale(1.09 0.97)" xlink:href="../../../../../Users/stran/Desktop/01. Cierre 2017/01. Multimedios/02. Mock ups/7-GI.png"/></g></g></svg>