<svg xmlns="http://www.w3.org/2000/svg" viewBox="0 0 480 323.56"><title>Asset 8</title><g id="Layer_2" data-name="Layer 2"><g id="Capa_1" data-name="Capa 1"><rect width="480" height="323.56" style="fill:#404142"/><path d="M160.54,115.12c0-5.18.25-7.18,1-9.58,1.8-5.49,6.1-8.41,12.1-8.41,4.87,0,8.76,2.26,10.51,5.69a3.71,3.71,0,0,1,.51,1.79,2.68,2.68,0,0,1-2.77,2.72,3.12,3.12,0,0,1-2.67-1.64,6.55,6.55,0,0,0-11.83,1.43c-.47,1.49-.67,3-.67,8s.2,6.51.67,8a6.55,6.55,0,0,0,11.83,1.43,3.12,3.12,0,0,1,2.67-1.64,2.7,2.7,0,0,1,2.77,2.77,3.69,3.69,0,0,1-.51,1.74c-1.75,3.44-5.64,5.69-10.51,5.69-6,0-10.3-2.92-12.1-8.4C160.79,122.3,160.54,120.3,160.54,115.12Z" style="fill:#fff"/><path d="M197.19,132.85c-5,0-6.77-2.51-6.77-7.22V100.46a2.87,2.87,0,1,1,5.74,0v24.71c0,1.74.57,2.35,2,2.56a2.41,2.41,0,0,1,2.41,2.51c0,1.49-.92,2.61-3,2.61Z" style="fill:#fff"/><path d="M220.1,130.24h0a7.63,7.63,0,0,1-6.46,2.87c-5.28,0-8.46-3.89-8.46-9.17V110.61a2.87,2.87,0,1,1,5.74,0v12c0,3.18,1.44,5.39,4.56,5.39s4.67-2.21,4.67-5.39v-12a2.87,2.87,0,1,1,5.74,0v19.17a2.88,2.88,0,0,1-5.74.46Z" style="fill:#fff"/><path d="M239.06,100.46v9.74h.06c1.07-1.59,3.17-2.92,6.66-2.92a8.58,8.58,0,0,1,8.46,6.25,21,21,0,0,1,.87,6.66,21,21,0,0,1-.87,6.67,8.58,8.58,0,0,1-8.46,6.25c-3.49,0-5.49-1.23-6.66-2.92h-.06a2.88,2.88,0,0,1-5.74-.41V100.46a2.87,2.87,0,1,1,5.74,0Zm.52,15.22a19.86,19.86,0,0,0,0,9,4.84,4.84,0,0,0,9.17,0,20.24,20.24,0,0,0,0-9,4.84,4.84,0,0,0-9.17,0Z" style="fill:#fff"/><path d="M260.8,126.24a22.22,22.22,0,0,1-.05-12.14c1.38-4.31,5.17-6.82,10.09-6.82,5.08,0,8.77,2.61,10.15,6.82a19.52,19.52,0,0,1,.82,5.94,1.85,1.85,0,0,1-2,2H266a.27.27,0,0,0-.31.31,5.26,5.26,0,0,0,.36,1.89,5.42,5.42,0,0,0,5.58,3.75,8.26,8.26,0,0,0,5.08-1.7,3.7,3.7,0,0,1,2.1-.82,2.29,2.29,0,0,1,2.41,2.41,2.71,2.71,0,0,1-1.18,2.26,13.32,13.32,0,0,1-8.92,3C265.87,133.11,262.18,130.55,260.8,126.24Zm14.91-10.91a5.27,5.27,0,0,0-9.68,0,6.12,6.12,0,0,0-.31,2.1c0,.2.1.3.31.3h9.68c.21,0,.31-.1.31-.3A6.12,6.12,0,0,0,275.71,115.33Z" style="fill:#fff"/><path d="M288,130.6a2.55,2.55,0,0,1-1.39-2.31,2.59,2.59,0,0,1,2.62-2.61,3.62,3.62,0,0,1,1.79.56,11.23,11.23,0,0,0,6.3,2c2.82,0,4.57-1.07,4.57-2.92,0-1.54-.87-2.41-4.1-2.72l-2.67-.25c-5.07-.57-7.58-3.08-7.58-7.28,0-4.72,3.38-7.79,9.58-7.79a16.2,16.2,0,0,1,7.48,1.84,2.71,2.71,0,0,1,1.75,2.36A2.37,2.37,0,0,1,304,114a3.58,3.58,0,0,1-1.8-.56,12.57,12.57,0,0,0-5.33-1.33c-2.56,0-3.74,1.12-3.74,2.56s.92,2.31,4.05,2.61l2.66.26c5.23.51,7.64,3.18,7.64,7.28,0,4.92-3.69,8.3-10.4,8.3A16.41,16.41,0,0,1,288,130.6Z" style="fill:#fff"/><path d="M157.72,139v-2.56h152V139Z" style="fill:#fff"/><path d="M181.91,162v29.32a2.88,2.88,0,0,1-5.74.41h0c-1.18,1.69-3.18,2.92-6.66,2.92a8.58,8.58,0,0,1-8.46-6.25A26,26,0,0,1,161,175a8.58,8.58,0,0,1,8.46-6.25c3.48,0,5.58,1.33,6.66,2.92h0V162a2.87,2.87,0,1,1,5.74,0Zm-15.43,15.22a20.24,20.24,0,0,0,0,9,4.85,4.85,0,0,0,9.18,0,20.24,20.24,0,0,0,0-9,4.85,4.85,0,0,0-9.18,0Z" style="fill:#fff"/><path d="M188.94,187.75a18.88,18.88,0,0,1-.88-6,19.69,19.69,0,0,1,.82-6.1c1.39-4.31,5.18-6.82,10.1-6.82,5.08,0,8.77,2.61,10.15,6.82a19.84,19.84,0,0,1,.82,5.94,1.86,1.86,0,0,1-2,2H194.16c-.2,0-.3.1-.3.31a5.48,5.48,0,0,0,.35,1.89,5.43,5.43,0,0,0,5.59,3.75,8.28,8.28,0,0,0,5.08-1.7A3.7,3.7,0,0,1,207,187a2.29,2.29,0,0,1,2.41,2.41,2.71,2.71,0,0,1-1.18,2.26,13.34,13.34,0,0,1-8.92,3C194,194.62,190.32,192.06,188.94,187.75Zm14.91-10.91a5.28,5.28,0,0,0-9.69,0,6.39,6.39,0,0,0-.3,2.1.27.27,0,0,0,.3.3h9.69c.21,0,.31-.1.31-.3A6.12,6.12,0,0,0,203.85,176.84Z" style="fill:#fff"/><path d="M228.46,162.13a3,3,0,1,1,6,0v29a3,3,0,1,1-6,0Z" style="fill:#fff"/><path d="M247.88,171.66a7.72,7.72,0,0,1,6.51-2.87c5.28,0,8.56,3.89,8.56,9.17v13.33a2.87,2.87,0,1,1-5.74,0v-12c0-3.18-1.54-5.39-4.66-5.39s-4.72,2.21-4.72,5.39v12a2.87,2.87,0,1,1-5.74,0V172.12a2.88,2.88,0,0,1,5.74-.46Z" style="fill:#fff"/><path d="M276,171.66a7.72,7.72,0,0,1,6.51-2.87c5.28,0,8.56,3.89,8.56,9.17v13.33a2.87,2.87,0,1,1-5.74,0v-12c0-3.18-1.54-5.39-4.66-5.39s-4.72,2.21-4.72,5.39v12a2.87,2.87,0,1,1-5.74,0V172.12a2.88,2.88,0,0,1,5.74-.46Z" style="fill:#fff"/><path d="M297.76,187.8a23.06,23.06,0,0,1,0-12.19c1.38-4.31,5.17-6.82,10.2-6.82s8.76,2.51,10.14,6.82a23.06,23.06,0,0,1,0,12.19c-1.38,4.31-5.17,6.82-10.14,6.82S299.14,192.11,297.76,187.8Zm14.81-1.53a14,14,0,0,0,.51-4.56,14.2,14.2,0,0,0-.51-4.57,4.57,4.57,0,0,0-4.61-3.23,4.63,4.63,0,0,0-4.67,3.23,14.2,14.2,0,0,0-.51,4.57,14,14,0,0,0,.51,4.56A4.63,4.63,0,0,0,308,189.5,4.57,4.57,0,0,0,312.57,186.27Z" style="fill:#fff"/><path d="M329.79,190.83l-6.92-17.63a3.6,3.6,0,0,1-.25-1.39,2.7,2.7,0,0,1,2.82-2.71,2.66,2.66,0,0,1,2.66,2.05l5.59,15h.1l5.38-15a2.76,2.76,0,0,1,5.43.66,3.6,3.6,0,0,1-.25,1.39l-6.92,17.63c-1.08,2.61-1.95,3.48-3.85,3.48S330.87,193.44,329.79,190.83Z" style="fill:#fff"/><path d="M370.59,191.65a2.69,2.69,0,0,1-2.87,2.66,2.74,2.74,0,0,1-2.41-1.18l-.82-1.23h-.05c-1.43,1.7-3.94,2.72-7.28,2.72-5.84,0-9-2.77-9-7.48,0-5.33,3.75-7.9,9.85-7.9h5.07a.27.27,0,0,0,.31-.3v-.62c0-2.87-1.64-4.56-5.54-4.56a11,11,0,0,0-4.51,1,4.12,4.12,0,0,1-1.49.3,2.23,2.23,0,0,1-2.35-2.35,2.5,2.5,0,0,1,1.43-2.26,15.31,15.31,0,0,1,7.54-1.69c7,0,10.35,3.48,10.35,9.58v7.79a4.36,4.36,0,0,0,.51,2.46l.77,1.34A3.44,3.44,0,0,1,370.59,191.65Zm-7.17-5.59v-2.2a.28.28,0,0,0-.31-.31H359c-3.79,0-5.33,1.08-5.33,3.33,0,2.05,1.49,3.08,4.3,3.08C361.32,190,363.42,188.68,363.42,186.06Z" style="fill:#fff"/><path d="M375.57,187.8a24.51,24.51,0,0,1,0-12.19c1.43-4.41,5.17-6.82,10.14-6.82a10.36,10.36,0,0,1,7.8,3.13,3.12,3.12,0,0,1,1,2.25,2.45,2.45,0,0,1-2.51,2.51,3.36,3.36,0,0,1-2.36-1.23,4.81,4.81,0,0,0-3.89-1.54,4.54,4.54,0,0,0-4.62,3.23,20.69,20.69,0,0,0,0,9.13,4.54,4.54,0,0,0,4.62,3.23,4.81,4.81,0,0,0,3.89-1.54,3.36,3.36,0,0,1,2.36-1.23,2.45,2.45,0,0,1,2.51,2.51,3.12,3.12,0,0,1-1,2.25,10.36,10.36,0,0,1-7.8,3.13C380.74,194.62,377,192.21,375.57,187.8Z" style="fill:#fff"/><path d="M403.4,158.74a3.44,3.44,0,1,1-3.43,3.44A3.43,3.43,0,0,1,403.4,158.74Zm-2.87,32.55V172.12a2.87,2.87,0,1,1,5.74,0v19.17a2.87,2.87,0,1,1-5.74,0Z" style="fill:#fff"/><path d="M413.24,187.8a23.06,23.06,0,0,1,0-12.19c1.39-4.31,5.18-6.82,10.2-6.82s8.77,2.51,10.15,6.82a23.06,23.06,0,0,1,0,12.19c-1.38,4.31-5.18,6.82-10.15,6.82S414.63,192.11,413.24,187.8Zm14.81-1.53a13.91,13.91,0,0,0,.52-4.56,14.16,14.16,0,0,0-.52-4.57,4.55,4.55,0,0,0-4.61-3.23,4.61,4.61,0,0,0-4.66,3.23,14.16,14.16,0,0,0-.52,4.57,13.91,13.91,0,0,0,.52,4.56,4.61,4.61,0,0,0,4.66,3.23A4.55,4.55,0,0,0,428.05,186.27Zm-4.76-20.15a2,2,0,0,1-2.21-2.05,2.68,2.68,0,0,1,.57-1.64l2.51-3.79a2.21,2.21,0,0,1,1.95-1,2.17,2.17,0,0,1,2.25,2.1,2.57,2.57,0,0,1-.56,1.64l-2.62,3.74A2.24,2.24,0,0,1,423.29,166.12Z" style="fill:#fff"/><path d="M446.35,171.66a7.74,7.74,0,0,1,6.51-2.87c5.28,0,8.56,3.89,8.56,9.17v13.33a2.87,2.87,0,1,1-5.74,0v-12c0-3.18-1.54-5.39-4.66-5.39s-4.72,2.21-4.72,5.39v12a2.87,2.87,0,1,1-5.74,0V172.12a2.88,2.88,0,0,1,5.74-.46Z" style="fill:#fff"/><path d="M157.72,200.46V197.9H464.91v2.56Z" style="fill:#fff"/><path d="M114.23,226.78a5.23,5.23,0,0,0-1.15.16l-1.62.4-2.15.54-10.06,2.6-35.53,9.17L58.47,241c-1.94.5-2.95,1.1-3.48,2.06a4.43,4.43,0,0,0-.36,2.73c.29,2.59,1.79,3.78,5,4h0c.49,0,7-1.42,9.63-2.05l3.15-.77c6.91-1.71,14.39-3.58,23.56-5.87l2.61-.65,5.45-1.36,2.15-.54,2.49-.62a.55.55,0,0,0,.34-.24c2-3.23,3.93-6.62,5.68-10.09a.57.57,0,0,0,0-.55A.55.55,0,0,0,114.23,226.78Z" style="fill:#fff"/><path d="M131.82,149.1a4.35,4.35,0,0,0-2.95-4l-48-16.25a4.36,4.36,0,0,0-2.83,0L31.6,145.14a4.34,4.34,0,0,0-2.9,4.25c.85,23.22,4.68,44.41,11.37,63a4.32,4.32,0,0,0,3.46,2.82v.08l.31,0a4.35,4.35,0,0,0,1.63-.2c6.31-.88,14.22-3,20-7.88A21.8,21.8,0,0,0,67.75,205c5.19.94,11.86.81,20.34-1.4l0-.1a43.18,43.18,0,0,0,13.42-6.17,20.7,20.7,0,0,0,3,1.06,31.81,31.81,0,0,0,11.52.7q-1.35,4.65-3.07,9.4a5.62,5.62,0,0,0-.7.1c-8.3,1.8-16.6,3.64-24.9,5.45Q69,218,50.69,222c-3.46.74-5,2.38-4.38,5.06.51,2.2,3.2,3.52,6.33,2.89,5-1,9.93-2.15,14.89-3.24q18.18-4,36.35-7.93c4.1-.91,8.19-1.84,12.23-2.9a5.9,5.9,0,0,0,.71-.24,4.36,4.36,0,0,0,3.77-2.81A185.19,185.19,0,0,0,131.82,149.1ZM64.38,195.52a14.4,14.4,0,0,1-4.76-3.46,10.55,10.55,0,0,1-2.39-10.52,4.46,4.46,0,0,1,3.8-3.07,7.83,7.83,0,0,1,.81,0A4,4,0,0,1,66,181.2C67.41,184.67,66.78,190.63,64.38,195.52Zm39.56-14.39a15.29,15.29,0,0,1-3.38,6.19c-4-3.22-6.77-8-7.06-11.67a4.72,4.72,0,0,1,3.07-5.25,5.57,5.57,0,0,1,2.25-.53,4.26,4.26,0,0,1,2.83,1.1C104.45,173.36,104.8,177.91,103.94,181.13Zm14.32,9.4a28.63,28.63,0,0,1-10.17.33,23.11,23.11,0,0,0,3.7-7.64c1.88-7.06,0-14.29-4.87-18.42A12.49,12.49,0,0,0,93.27,163a12.78,12.78,0,0,0-7.86,13.31C85.87,182,89.28,188,94,192.39a43.56,43.56,0,0,1-13,4.39v0a38.7,38.7,0,0,1-8.63.57,31.35,31.35,0,0,0,1.37-4c1.51-5.59,1.38-11.17-.37-15.32-2.28-5.45-7.08-8.24-13.15-7.67a12.56,12.56,0,0,0-10.6,8.17c-2.41,6.1-.89,13.51,3.87,18.88a21.86,21.86,0,0,0,5.52,4.46,30.71,30.71,0,0,1-11.85,4.63c-5.47-16.17-8.74-34.4-9.71-54.27l42-14.69,43.66,14.77A185.3,185.3,0,0,1,118.26,190.53Z" style="fill:#fff"/><path d="M71.86,118.05A104,104,0,0,1,240.23,77.83" style="fill:none;stroke:#fff;stroke-linecap:round;stroke-miterlimit:10;stroke-width:5.0536812543869px"/><path d="M59.35,107a104.26,104.26,0,0,1,50.86-57" style="fill:none;stroke:#fff;stroke-linecap:round;stroke-linejoin:round;stroke-width:2.88781785964966px;stroke-dasharray:0.7219544649124146,8.663454055786133"/><path d="M261.15,229.37a104.28,104.28,0,0,1-62.94,43.3" style="fill:none;stroke:#fff;stroke-linecap:round;stroke-linejoin:round;stroke-width:2.88781785964966px;stroke-dasharray:0.7219544649124146,8.663454055786133"/><path d="M249.93,219.65a104,104,0,0,1-128.39,26.52" style="fill:none;stroke:#fff;stroke-linecap:round;stroke-miterlimit:10;stroke-width:5.0536812543869px"/></g></g></svg>