<svg xmlns="http://www.w3.org/2000/svg" xmlns:xlink="http://www.w3.org/1999/xlink" viewBox="0 0 1418.67 908.41"><defs><clipPath id="clip-path" transform="translate(-189.76 -12.27)"><rect width="1747.88" height="1017.29" style="fill:none"/></clipPath></defs><title>circuito</title><g id="Layer_2" data-name="Layer 2"><g id="Capa_1" data-name="Capa 1"><g style="clip-path:url(#clip-path)"><path d="M436.37,198.34c-10.54-9.52-18.91-20.52-23.38-34.2,33.72-.16,67.43-.27,101.15-.52,7.49-.06,17.47,1.44,17.45-9.56,0-10.44-9.66-8.71-16.76-8.74-22.61-.08-45.22,0-67.83,0-5,0-9.42-2.33-14-3.43-11.41-2.77-19.12-13.75-31.6-13.2,1.44-31.45,8.64-60.37,32.17-83.65C482.5-3.38,559.12,2.43,598.77,58.69,604.63,67,608.94,69.21,619,66c30.31-9.86,58.66,2.06,75.15,30.87,3.75,6.54,7.75,9.09,15.24,9.31a46,46,0,0,1,43.28,58.56c-2.78,10,.7,10.76,8.93,10.71,38.78-.28,77.56-.43,116.33.1,9.15.13,12.51-3,14.55-11.6,9-37.72,49.35-52.59,77-26.2,12.23,11.68,21.73,19.91,39.13,17.85,7.8-.92,14,6.09,18.48,12.37,4.34,6.12,9.6,7.5,16.65,7.48q110.57-.33,221.13-.19c11.62,9.64,25.62,9.51,39.56,9.6-7.54,13.56-3.83,20.73,10.78,20.77q13.23,0,26.47,0c15.71,0,18.78-5.72,11.24-20.8,12.33.56,23.81-1.85,33.74-9.67l70.25.16c18.68,0,32.62,11.18,32.82,26.24s-13.81,26.75-32.46,26.76q-154.87.06-309.77,0c-5.37,0-10.75.09-16.11.14-3.06,0-6.26.17-8.47-2.44-5.25-6.24-11.32-10-19.94-7.89-2.49.61-4-1.79-5.68-3.25-19.92-17-39.2-11.51-48.08,13.69l-90-.19c-13.7-18.47-30.77-28.92-54.73-22.88-14.8,3-24.86,12.12-31.93,25-11.3-4.71-23.11-1.34-34.66-2.1-8.66-.57-17.38-.24-26.07-.31-18.33-3.49-36.65-3.79-55,.21-75.63,0-151.27-.64-226.89.3-32.06.4-61.74-4.73-88.12-23.79C439.65,202.93,444.57,195.14,436.37,198.34ZM641.23,141c15.46.05,27.19-11.2,27.44-26.33.24-14.08-12.73-27-27.16-27a27.57,27.57,0,0,0-27.37,26.8C613.87,129.2,625.9,141,641.23,141Zm1,20.23c3.27-.77,5.86-2.8,5.59-6.88s-2.8-6.34-6.79-6.1-6.32,2.77-6.11,6.78S637.79,161,642.28,161.27Zm5.72-87c-.32-3.87-2.3-6.51-6.3-6.66s-6.52,2.19-6.72,6.17,2.17,6.44,6.17,6.64S647.36,78.28,648,74.32ZM676.09,86c-.21-3.45-1.9-6.35-5.94-6.45a6.41,6.41,0,0,0-6.84,6.16c-.41,4.07,2.13,6.27,6.07,6.53S675.74,90.49,676.09,86Zm-6.67,50.53c-4.09.72-6.38,3.23-6,7.17s2.95,6.38,7.14,5.79c3.45-.49,5.41-2.88,5.33-6.43C675.83,138.89,673.39,136.84,669.42,136.49ZM682,121.36c4.08-.84,5.9-3.45,5.63-7.41-.25-3.61-2.39-5.56-6-5.47-4.18.1-6.49,2.56-6.39,6.53S678.2,120.91,682,121.36Zm-75-6.19c0-4.09-1.67-6.63-6-6.69a5.86,5.86,0,0,0-6.39,5.36c-.63,4.11,1.78,6.73,5.59,7.3C604.4,121.76,606.54,119.17,607.06,115.17Zm788.63,78.43a53.89,53.89,0,0,0-30.54.12A54.87,54.87,0,0,0,1395.69,193.6Zm-783-114.3c-3.56.62-5.84,2.7-5.86,6.82,0,3.61,1.78,5.85,5.44,6.1,4.12.29,6.73-2,7-5.9S617,80.14,612.73,79.3Zm.79,70.31c3-.91,6-2.62,5.8-6.72s-2.87-6.3-6.75-6.2c-3.46.08-5.5,2.44-5.62,6C606.81,146.66,608.79,149.06,613.52,149.61Z" transform="translate(-189.76 -12.27)" style="fill:#afeefe"/><path d="M1462.36,509.71c33.5-.69,61.67,9.88,81,38.75,12.31,18.4,14.86,39,13.07,60.49-1.45,3.53-3,7-4.33,10.59-12.93,35.43-42.28,56-80.07,56.13q-23,.08-46.08.11L1424.7,660c-5.24,4.89-3,10.66-4.29,15.78l-21.42-.42c-3.56-21.26-15.83-32.88-34.47-32.62-18,.25-29.87,12-33.21,32.75q-108.19.1-216.39.23c-29,0-45,16.13-47.19,45-.6,8,4.15,17.46-4,24.41-6.26-4.29-1.35-11-3.21-15.57-3.71-9.12-9.7-17.31-14.8-25.86-1.28-2.15-3.29-4.15-5.12-1.11-5.73,9.48-15,19.09-15.32,28.87-.24,8.63-3.3,13-7.22,19.42-9.22-26-16.52-31.12-43.51-31.17q-56.31-.09-112.61-.25c-7.06-4.64-7.28-18-14-18.2-8.34-.25-7.76,13.69-15,18.45-6.13-.1-12.33.32-18.37-.45s-9.37-5-9.46-11.17,3.17-10.24,9.1-11.54c3.32-.72,6.87-.47,10.31-.47,50.61,0,101.26-1.06,151.83.39,28.3.8,47.76-17.94,38.25-53.06,4-4.2,2.84-9.52,2.39-14.25-1-10.38,2.57-15.07,13.43-13.67,5.76.74,11.64.66,14.38-6.34,3.19-8.19,6.72-6.61,10.35-.17,4.52,8,9.43,9,13.82.07,3.82-7.79,7-6.75,10.59,0,4.47,8.46,9.08,8.76,13.7.12,3.42-6.4,6.84-8.45,10.54-.21,1.87,4.18,4.8,6.71,9.74,6.63,8.81-.15,17.64-.2,26.45,0,8.43.17,8.44-11.16,14.12-11.5,6.46-.39,6.17,11.86,15.15,11.57,14.94-.48,30,.65,44.83-.54,16.62-1.34,26.89-13.85,26.93-30.31,0-13.73-10.43-26.93-23-29-16.28-2.72-16.28-2.72-16.26-18.87,0-3.83.06-7.67.09-11.5,9.66-.87,14.63-7.43,18.55-15.28l24.43-.5a34.44,34.44,0,0,0,15.12.11l13,0a221.73,221.73,0,0,0,37.43.17l25-.06a294.55,294.55,0,0,0,43.86-.09c25.75.41,23.32,4.32,22.43-23,1.55-8.27-1-17,2.94-25.18,3.83,8.16,1.38,16.89,2.84,25.17-.11,5.72-.24,11.44-.33,17.17-.06,3.47,1.24,5.36,5.08,6.17,15.54,3.32,20.11,0,20.07-15.29,0-6.49-.19-13-.29-19.47.11-10,.19-19.93.38-29.9.05-2.63-.06-6.18,3.5-6.11s3.26,3.68,3.33,6.27c.24,10,.36,19.93.53,29.9-.1,8.8,0,17.6-.38,26.39-.28,6.59,2.25,9.32,8.83,7.85A27.53,27.53,0,0,0,1462.36,509.71Zm-166,64.24c-6.89.09-13.81-.23-20.65.39-8.35.77-13.45,5.87-13.69,14.26-.25,9,4.87,14.42,13.77,15.3,6.45.64,13,.27,19.5.27,14.9,0,15.16-.31,14.43-15.62-.09-1.91-.46-3.8-.7-5.69,1.12-6.23-1.2-12.93,4.26-18.87v19c-.2,3.83-.25,7.67-.62,11.48-.76,7.68,2.88,9.87,10.16,9.85,60.27-.2,120.55-.07,180.82-.16,10.36,0,18.25-7,18-15.29s-8-14.57-18.63-14.71c-10.75-.13-21.5,0-32.25-.06-5.71,0-12.46.85-13-7.52s5.73-8.3,11.76-8.79c11-.88,18-7.59,17.41-16-.63-9.31-6.57-13.87-18.87-13.92-21.12-.1-42.23,0-63.35.05-1.93-.6-3.88-6-5.8,0l.12.06c-5.54-8-12.08-8-20.11-.19-8.82,0-17.63-.11-26.45.06-11.18.22-16.92,5.14-17,14.23-.07,9.67,6,15.44,17.16,15.76,10,.29,19.93,0,29.89.12,5.72.06,12.8-.68,12.45,7.82-.3,7.5-6.57,8.39-12.72,8.36q-28.15-.12-56.33-.18c.36-14.58-6.52-22.74-17.65-20.32S1295.39,564.28,1296.31,574Zm-8.13,78.43c8.8,0,17.6.08,26.41,0,2.54,0,6,.19,5.93-3.59-.08-2.92-3.08-3-5.33-3q-27-.09-54,0c-2.26,0-5.25.13-5.35,3-.14,3.81,3.36,3.57,5.9,3.61C1270.57,652.46,1279.37,652.38,1288.18,652.38Zm-225.5,1.75c5.36,0,10.72.14,16.06-.08a4.09,4.09,0,0,0,4.13-3.35c.38-2.92-1.94-4.36-4.19-4.41-12.24-.24-24.49-.21-36.74-.17-2,0-4.17,1-4.43,3-.43,3.16,2.51,3.13,4.64,3.78C1048.88,655,1055.8,654.5,1062.68,654.13Z" transform="translate(-189.76 -12.27)" style="fill:#34cb99"/><path d="M1143.9,759.17l50.75-.14c-7.34,15.07-7.34,15.07,10.25,15.18,1.88,0,3.77,0,5.66.08q-.07,25.46-.14,50.91c-1.54,0-3.07.08-4.6.14-6.18.24-10.7,2.89-10.58,9.52s5,8.93,11,9.12a80.68,80.68,0,0,0,9.2,0c7.8-.65,19.48,3.31,19.38-9.6-.08-11.95-11.28-8.42-18.79-9.18q-.06-25.46-.11-50.93c1.88,0,3.77-.06,5.66-.07,17.61-.09,17.61-.09,10.26-15.18,17.6-.09,35.27.77,52.79-.44,40.06-2.76,69.75,26.32,64.07,67.23-13,32.46-37.84,41.64-71.45,41.48-196.53-.92-393.07-.46-589.6-.38-5.62,0-11.59-1.55-16.75,2.26-4.26-5.5-9.19-12.86-16-11.67-16.2,2.82-25.32-7.47-35.88-15.84-1.47-1.16-3.39-1.76-5.1-2.62,3.58-3.23,8-2.13,12.1-2.15,20.32-.1,40.64-.07,61,0,5.45,0,12,.44,14.6-4.69,3.94-7.85,10.19-6.75,16.56-6.75q66.15,0,132.3,0c4.57,0,9.2.4,13.55-1.73,5.6-2.75,9.59-7.12,9.53-13.29-.08-6.58-4.27-13.62-10.22-13.74-16.34-.32-14.48-10.91-14.19-21.27.19-6.5.42-13,.63-19.51,1.9.06,3.79.16,5.68.18,17.78.23,17.78.23,11.5-15.69,38-.15,76-.24,114.07-.48,8.19-.05,15.16,1.9,15.39,11.38.26,10.2-6.94,12.35-15.64,12.29-21.89-.13-43.79-.2-65.68,0-16.28.18-28.5,8.63-32.52,22.6-2.91,10.12-1.58,20.62-1,30.92.29,5.19,4.3,8.21,9.56,8s8.69-3.31,9.2-8.58.32-10.73.47-16.1c.38-13.65,3.45-16.71,17.37-16.76,21.52-.09,43,0,64.54,0,12.89,0,24.5-4.54,29.32-16.54,4.05-10.09,9.75-12.26,19-11,3,.4,6.14,0,9.21-.06,0,5.31.09,10.63.09,15.94,0,22.33,0,22.33-21.35,24a30.38,30.38,0,0,0-19.88-.27c-23.41-.09-46.81-.1-70.22-.34-9.67-.1-16.79,2.87-17.57,13.66-.73,10.13,5.77,16.29,17.62,16.37,21.11.16,42.21-.11,63.32-.2,4.13,3.11,7.65,7.31,13.46,7.33.82,9.21-1.4,18.79,2.67,27.68a12.21,12.21,0,0,0,2.09-6.71c.63-16.56.61-16.56,17.2-16.56q68.37,0,136.75-.06c7.35,0,15.88.09,16.22-10.09.34-10.34-7.78-10.65-15.46-10.53-1.53,0-3.06-.07-4.59-.11l-.66-27.3.69-4.49c3.84-.34,4.78-1.6,1.82-4.76C1156.19,772.82,1150.08,766,1143.9,759.17Z" transform="translate(-189.76 -12.27)" style="fill:#34cb99"/><path d="M190.17,609c-2.83-37.33,8.91-67.63,42-87.8,12.48-7.6,26.48-9.44,40.46-11.58l34.47.12a27.06,27.06,0,0,0,14.15-.11l35.66.54a358.31,358.31,0,0,1-.07,45.17l-11.06.61c-5.65-9.91-12.94-17.37-25.58-15.2-17.29,3-22.84,19.64-12.75,37.62-1.19,12.24-.88,23.83,13.34,31V583.19c.95-9.72-1.65-19.77,2.58-31.75,5.72,12,1.85,22.75,4.31,32.61,0,4.6.06,9.19.06,13.79,0,17.76,0,17.77,17.24,17.78H453c18.16,0,18.16,0,17.82-18,.12-6.88.19-13.76.39-20.63.06-2,.87-4.12,3.08-4.12s3,2.12,3.09,4.11c.21,6.88.28,13.76.4,20.64-.35,18-.35,18,17.64,18,1.91,0,3.81,0,5.71,0,21.19-.48,20.91,4.24,20.23-21,0-3,0-6,0-9,.08-10.3.1-20.6.29-30.89,0-2.88-.62-7.2,3.59-7.06s3.21,4.5,3.29,7.35c.28,10.29.37,20.58.54,30.87l0,8.35c-.15,2.27-.13,4.57-.49,6.81-1.85,11.44,2.61,15.68,14.36,14.78,8.11-.62,16.66-2.1,24.67,1.52-9.27,5-14.07,12.56-12.2,23.19,1.66,9.44,7.24,15.55,17.1,17.06q0,9.09-.1,18.18l-73.92-.25c-1.3-4.86-3.56-9.07-7.88-12.12-3.62,3.55-5.22,7.79-6.39,12.26l-8.92-.2c-2.4-4.19-3.39-9.3-7.94-12.31-4.55,3-5.53,8.13-7.94,12.31l-8.92.2c-.75-4.81-1.86-11-6.77-11.33-3.87-.22-5.62,6-7.28,10.1a5.69,5.69,0,0,0-.22,1.09l-41.23.1c-1.41-4.22-1.94-10.31-7.17-10.32s-5.74,6.1-7.16,10.31l-15,0c-.67-3-1.4-7.29-4.09-7.82C348,665.14,341.46,645.53,324,652c-2.72,1-3.71-2-5.25-3.58C306.28,636,294,632.9,280.62,638.94s-19.5,18.19-18.08,36.1c-17.69-1.89-32.5-9.39-45.74-21.37C203.19,641.35,197,625.12,190.17,609Zm210.16,48c2.31-.64,6.59,1.14,6-3-.51-3.84-1.76-9.25-6.88-9.12-3.59.09-4.91,4.74-5.44,8C393.21,658,397.7,656.41,400.33,657.05Zm-25,.13c1.86-1.29,6.69,1.35,6.51-3.55-.13-3.6-1.67-8.61-5.89-8.76s-5.49,4.94-6.42,8.45C368.31,657.85,372.42,656.49,375.31,657.18Z" transform="translate(-189.76 -12.27)" style="fill:#34cb99"/><path d="M1171.77,387.48c12.07,1.32,24.4,1.68,34.39,10.16,3.57,3,8,1.72,12.14,1.86,6.87.24,14-.5,18.21,6.81s-1.66,12.1-4.32,17.69l-115.78.21-64.43,0-32.33-.09-2.73,0H967.09l-2.87-.05-27.71-.19c-13.14-3.4-26.4-1.72-39.63-.93l-8.16,0-21.35-3.18c-17.35-9.51-28.2-22.89-28.19-43.85s11-34.3,28.26-43.83c6.86-2.45,14.09-2.25,21.2-3l8.61.37c10.42,3.25,18.72,9.54,25.8,17.73,3.61,4.18,7.6,7.83,13.52,3.48,10.47-.45,19.27,3.79,27.48,9.73,1.48,5.08,3.68,8.88,10.05,9.06,5.09.15,9.3,3.27,13.06,6.66a44.34,44.34,0,0,0,3.35,6c3.87,5-2.66,14.43,6.28,16.53,6.15,1.44,12.88.43,19.35.5,1.14,0,2.28-.07,3.42-.12,6.73.1,13.5-.24,20.17.41,9,.87,13.55-2.23,12.76-11.65,8.75-4.66,18-15.67,27.52-7.43,11,9.55,25.55,10.16,36.41,18.65,9.53.06,19.1-.42,28.57.32C1156.29,400.16,1166,398.62,1171.77,387.48Z" transform="translate(-189.76 -12.27)" style="fill:#fcfdfd"/><path d="M494,327.54c54.37,0,108.74.29,163.1-.28,20.19-.21,39.65,1.82,58.33,9.64q.19,71.19.38,142.37c-1.81,10.89-6.37,17.08-19.27,15.68-8.71-.94-13.68,5.43-13.59,14.63l-18.16.72c-.93-5.53,1.22-11.43-2.1-16.66.11-1.73.21-3.47.31-5.2A49.13,49.13,0,0,0,663,461.5l-.21-5.19c3.07-8.95,2.46-17.95.43-27-.18-1.75-.35-3.51-.53-5.26,3.64-8.62,1.59-17.52,1.3-26.34l.13-4.84c.41-9.31,1.43-18.62-.52-27.88-2.49-6.23,3.82-15.19-5.95-19.15H593.15c-5.92,1-5.16,5.59-5.19,9.67-.11,13.61-.13,27.21-.18,40.82l-8.29.17V371c-8.21,4.77,0,15-9.46,16.67a14,14,0,0,1-3.4-.39c-8.84-3.32-6.29,9-11.61,8.76-5.06-.2-2.75-11.47-11.67-8.91-4.61,1.31-9.85.44-14.8.55l-35.31-.8Q493.63,357.19,494,327.54Z" transform="translate(-189.76 -12.27)" style="fill:#afeefe"/><path d="M397.7,830.07c-1.94-22.27,1.27-42.77,19.51-58.34,14.16-12.08,31.17-13.39,48.61-13.31,8.63,5.32,18.21,4.62,27.72,4.31l-.06,62.43-4.6.17c-6.82.24-11,3.44-10.91,10.55.14,7.46,5.64,8.16,11.39,8.14,6.52,0,13.05,0,19.57-.18,4.33-.12,7.35-2.22,7.91-6.77.49-3.89.54-7.89-3.33-10.28s-8.24-1.22-12.4-1.54L501,762.71c9.49.32,19.06,1.09,27.72-4.16l11.77,1c-7.91,17.54-7.91,17.54,11.24,17.57h3.37l0,38.94c-6.53.1-13.12-.35-19.57.43-8.58,1-12.82,10.65-7,16.07,9.34,8.65,19.57,16.2,33.74,13.13,3.22-.71,6.62-2.68,9.83.21-6.52,5.77-10.75,13.08-14,21-34.4,0-68.8,0-103.19-.13-22.94-.1-40.4-9.74-51.32-30.32C402.27,833.82,401.26,830.75,397.7,830.07Z" transform="translate(-189.76 -12.27)" style="fill:#34cb99"/><path d="M558.2,866.94c3.24-8,7.47-15.27,14-21,12.65-10,26.8-10.83,41.74-6.85,1.71.86,3.63,1.46,5.1,2.62,10.56,8.37,19.68,18.66,35.88,15.84,6.81-1.19,11.74,6.17,16,11.68,6.5,5.86,17.93,4.33,21.61,14.41,3.22,4.79-2.3,12.62,3.34,15.25,4.76,2.21,11.28.66,17,.72,4.59,0,9.24-.45,13.77.1,12.57,1.53,22.66,0,23-15.94,13.64-13,22.89-12.94,36.67.26.46,1.46,1,2.9,1.39,4.38C791.24,901,791.22,901,800.14,892c5.28-5.32,13.51-7.51,17.51-2.48,7.57,9.54,18,9.81,27.73,13,3.08,14.2.57,17.67-13.61,17.68-77.2.07-154.4-.09-231.6.12-15.6.05-27.11-6.9-36.76-18.22l-6.57-18.82Q557.51,875.08,558.2,866.94Z" transform="translate(-189.76 -12.27)" style="fill:#fcfdfd"/><path d="M401.44,128.67c12.48-.55,20.19,10.43,31.6,13.2,4.54,1.1,8.95,3.44,14,3.43,22.61,0,45.22-.06,67.83,0,7.1,0,16.73-1.7,16.76,8.74,0,11-10,9.5-17.45,9.56-33.72.25-67.43.36-101.15.52-49.55-.18-99.1-.51-148.64-.45-13.44,0-25.11-3.32-33.8-14-12.43-15.3-10.75-36.4,3.74-49.95a35.63,35.63,0,0,1,49.93.89c5.18,5.24,9.65,9.79,17.55,6.36a3,3,0,0,1,1.15,0c11.68.54,36.62,21.33,38.62,33,.84,4.91,3.4,5.28,7,5.28,10.76,0,21.52-.16,32.27.1,4.62.11,6.8-1.66,8.16-6A14.74,14.74,0,0,1,401.44,128.67Z" transform="translate(-189.76 -12.27)" style="fill:#fcfdfd"/><path d="M1116.41,424.21l115.78-.21,35.54-.09c1.27,15.1,1,30.21.15,45.32l-6.62-8.07c-1-1.63-2.43-1.87-3.73-.81-13.08,10.68-19.07,34.08-12.69,49.29l-24.43.5c-.3-17.73-8.39-27.9-21.84-27.48s-21.46,11.11-20.65,27.26l-12.25.68c-8-6.91-16-6.74-24-.08l-18.4-.91c-1.66-7.31-2.93-14.75-7-21.26Q1116.33,456.28,1116.41,424.21Z" transform="translate(-189.76 -12.27)" style="fill:#afeefe"/><path d="M786.32,884c-13.78-13.2-23-13.27-36.67-.27l-57.12-.12c-3.68-10.08-15.11-8.55-21.61-14.41,5.15-3.82,11.12-2.27,16.74-2.27,196.53-.08,393.07-.54,589.6.38,33.61.16,58.42-9,71.45-41.48,2,5.65-3.15,10.84-1,16.49-9.88,29.06-26.83,41.26-57.62,41.26l-478.38,0C803.22,883.6,794.77,883.85,786.32,884Z" transform="translate(-189.76 -12.27)" style="fill:#369a68"/><path d="M754.22,256.61c34.94-4.46,58,15.32,58.35,50,0,4.2,0,8.39,0,12.59q-.27,87.42-.53,174.84c-11.39.82-23.66,3.53-26-13.44-.27-2-2.57-3.63-3.93-5.43q.06-47.64.13-95.28a45.7,45.7,0,0,0-.15-5.74c-.32-2.58-.41-6-4.08-5.64-3,.29-2.49,3.43-2.53,5.58-.13,7.65,0,15.31-.14,23-.06,2.86.9,7.33-3.25,7.4-7.79.15-6,5.51-6,9.66-.15,18.75-.07,37.5-.07,56.25l-6.87,0c0-21.1-.31-42.2.24-63.29.13-4.89-5.41-15.67,8.63-12.14,2.75.69,2.51-4.08,2.55-6.63.11-8.44,0-16.88.11-25.32,0-2.87-.52-7.19,4.57-5.35,6.85,2.46,7-1.67,7-6.3q0-11.52,0-23c0-8.05.29-16.13-.16-24.16-.5-9.14-8.56-13-15-13.14-6.83-.12-2.95,7.92-3.18,12.15-.6,11.48-.09,23-.29,34.51-.06,3.48.56,9.5-5.87,5.47-10.79-6.75-10.14.35-10.13,7.54q.08,59.83,0,119.68h-9.22c0-45.7.07-91.41-.07-137.12,0-6.81.72-10.93,8.71-6.21,5.76,3.41,7.45.29,7.43-5.18-.06-11.52,0-23,0-34.57,0-14.61,0-14.54,13.27-7.58,2.48,1.3,4.87,4,8.47,2.06-.19-4.64-3.57-7.47-5.86-10.82C766.15,264.86,757.58,263.65,754.22,256.61Z" transform="translate(-189.76 -12.27)" style="fill:#f6de9f"/><path d="M786.32,884c8.45-.14,16.9-.39,25.34-.39l478.38,0c30.79,0,47.74-12.2,57.62-41.26,5.8,27.81-17,57.31-46.31,59.36-12.95.9-26,.5-39,.69-7-14.54-28.6-14.76-40-.4l-129.44-.07h-12.78l-12,0c-11-14.1-30.46-14.09-41.75,0l-66.51.82c-7-4.13-14.06-4.28-21.12-.08a94.14,94.14,0,0,0-23.6,0,72.46,72.46,0,0,0-46.24.1c-7.79-1.32-15.61-.85-23.44-.36-9.73-3.15-20.17-3.42-27.74-13-4-5-12.23-2.84-17.51,2.48-8.92,9-8.9,9-12.43-3.63C787.29,886.89,786.78,885.45,786.32,884Zm366.49,14.94c6.85,0,13.71.12,20.56-.06,3.11-.08,6.58-.87,6.59-4.78,0-4.39-3.85-4-6.77-4.05q-20-.15-40,0c-2.92,0-6.79-.27-6.57,4.22.19,3.87,3.66,4.55,6.76,4.63C1139.86,899.05,1146.34,898.94,1152.81,898.93Zm45.17,0c3.12-.23,6.73-.26,6.94-4.26s-3.34-4.53-6.45-4.57-6.69.14-6.9,4.14S1195,898.59,1198,899Z" transform="translate(-189.76 -12.27)" style="fill:#c1ad70"/><path d="M1399,675.35l21.42.42q0,9,0,18-152.28,0-304.56,0c-8.11,0-16,.38-23.55,3.91-4.32,2-6,4.46-3,8.79,2,2.82,3.9,5.65,5.85,8.48,8.49,10.41,5.73,24.52,12.31,36.11,4.41,7.76-6.22,2.93-9.23,5.28l-11.31-.4c-1.46-6.94,1.67-14.59-2-21.2l-3.17.11v21.21L1068,756q-2.14-5.43-4.27-10.85c8.13-6.95,3.38-16.36,4-24.41,2.15-28.91,18.18-45,47.19-45q108.19-.23,216.39-.23l31.12,0h5.94Z" transform="translate(-189.76 -12.27)" style="fill:#369a68"/><path d="M528.75,758.55c-8.66,5.25-18.23,4.48-27.72,4.16-.2-8.36-.34-16.73-.65-25.1-.09-2.28-.75-4.79-3.79-4.44-2.36.28-2.52,2.56-2.57,4.45-.21,8.37-.33,16.74-.48,25.11-9.51.31-19.09,1-27.72-4.31,2.44-4.3,5.23-8.45,7.21-12.95,1.62-3.67,7.86-7.16.42-12-2.79-1.81,1.45-5.23,2.64-7.8,2.05-4.47,4.54-8.73,6.84-13.09A46.91,46.91,0,0,0,493,693.85h-97c.31-7.58-4-10-10.79-9.82-4.57.11-9.16-.26-13.71.05-7,.47-7.66-3-5.8-8.44l15,0h14.33l41.23-.1,14.27.14,8.92-.2h15.88l8.92.19,14.27-.13,73.92.25c.94,4.56-2.54,12.89,2.74,13,7.15.15,2.36-8.56,4.37-12.93h51.86a23.62,23.62,0,0,0,.51,3.37c1.13,3.87-2.4,10.89,3.35,11.13,6.15.26,3.7-6.93,4.61-11a21.12,21.12,0,0,0,.27-2.26c26.16,2.87,41.31,22.18,37,47.06-7.91-21.41-23.38-30.73-46.06-30.42-36.75.49-73.51,0-110.27.24-6.23,0-15.36-3.24-18,2.1-2.38,4.81,4.66,11.18,8.36,16.42,2.28,4.33,4.76,8.56,6.78,13,1.23,2.72,5.72,5.49,1.68,8.71s-1.61,6-.08,8.74C522.49,748.24,525.67,753.37,528.75,758.55Z" transform="translate(-189.76 -12.27)" style="fill:#369a68"/><path d="M1254.73,140.8c1.45-17.58,14.7-31.68,32.69-32.27,25.6-.85,51.24-.43,76.86-.14,10.09.11,19.32,4.58,24.59,12.79,5.82,9.07,13,11.81,22.81,10.59-4.86,14.49,6.62,10.26,13.27,11.57,0,2.09,0,4.17,0,6.26-5.48,2.05-19.47-4.39-11.28,11.3l-16.28-.16c0-5.63,0-11.25,0-19.32-3.37,4.47-5.32,7.13-7.35,9.72-1.62,2.06-3.14,5-6.23,4.08-3.38-1-2.08-4.45-2.41-6.95-.5-3.94,1.06-8.47-4.42-12.23,0,6.23.1,11.47,0,16.71-.14,5.57-2.53,9.76-8.36,10.76a221.83,221.83,0,0,1-33.1,2.88c-4.34.09-5.54-4.49-10.82-3.23C1297.07,169.74,1267.35,166.94,1254.73,140.8Zm117.62-16.25,2.3,2.31c.52.51-.63,2.28,1.3,1.74l-1.3-1.74C1373.88,126.09,1373.11,125.33,1372.35,124.55Zm-48.41,0q1.14,2.31,2.29,4.62c.54.5-.61,2.3,1.33,1.73l-1.32-1.75Q1325.09,126.86,1323.94,124.55Zm5.69,28.35c1-4.13,2-8.72.17-14C1327.74,143.72,1328.93,148.11,1329.63,152.9ZM1365,116.42l.58.4.1-.61Z" transform="translate(-189.76 -12.27)" style="fill:#fcfdfd"/><path d="M356.87,555.35a358.31,358.31,0,0,0,.07-45.17q.29-25.15.54-50.31c0-6.77,3.51-11.83,9.24-14.34,3.49-1.53,8.56-1.9,11.3,2.56,1.7,2.77,3.15,5.51,6.9,3.93s2.48-5.18,2.66-8a68.77,68.77,0,0,0-.36-8l1.6-4.93,1.8,4.71c.17,3.52.64,10.54,1.35,9.88,6.13-5.76,10.11.62,12,3,3.74,4.79,7.61,4,12.1,3.37,5.05,3.13,15.76-4.84,15.66,8.64-.32,44.66-.25,89.32-.33,134-21.77,0-43.55-.17-65.33.11-6.42.09-8.81-2-8.66-8.55C357.61,576,357.08,565.65,356.87,555.35Zm44.83,7.87c-4.57,0-9.14.07-13.71,0-4.82-.1-6.81,2.09-6.69,6.93.1,4.38,2.07,6.2,6.26,6.18q14.28,0,28.56,0c4.31,0,6-2.05,6.1-6.32.1-4.92-2.07-6.92-6.81-6.81C410.84,563.29,406.27,563.21,401.7,563.22Zm.08-69.41c-4.58,0-9.17.11-13.75,0-4.89-.15-6.82,2.06-6.74,6.9.08,4.29,1.76,6.33,6.12,6.3q14.32-.11,28.66,0c4.32,0,6.08-1.93,6.15-6.26.09-4.81-1.78-7.08-6.68-6.94C411,493.92,406.37,493.81,401.78,493.81Zm-1.14,59.41c5,0,9.91-.1,14.87,0s6.8-2.06,6.7-6.9c-.08-4.31-1.91-6.28-6.17-6.26q-14.3.07-28.59,0c-4.29,0-6.06,2-6.15,6.29-.1,4.88,1.95,7,6.76,6.85C392.25,553.12,396.45,553.22,400.64,553.22Zm1.17-23.11c4.58,0,9.16-.11,13.74,0,4.9.14,6.76-2.13,6.67-6.94-.09-4.33-1.91-6.28-6.19-6.25q-14.32.07-28.63,0c-4.36,0-6,2.08-6.11,6.33-.11,4.9,1.95,7,6.77,6.84C392.64,530,397.22,530.1,401.81,530.11Zm-1.06-46.25v.05c5,0,10-.11,14.93,0s6.63-2.35,6.54-7.07c-.08-4.38-2-6.23-6.24-6.2q-14.36.12-28.71,0c-4.47,0-6,2.28-5.95,6.45,0,4,1,6.78,5.66,6.72S396.16,483.86,400.75,483.86Zm-28.5,45.95c4.33-.39,4.11-3.68,4.15-6.7,0-3.38-.89-6.13-5-5.83-4.34.32-4.1,3.7-4.14,6.71C367.17,527.35,368,530.07,372.25,529.81Zm-.93,10.56c-3.62.14-4.17,3-4.12,6.23s.18,6.26,4.52,6.29,4.67-3,4.69-6.16S376.05,540.58,371.32,540.37Zm5.11,29.17c-.09-2.28,0-5.57-4.13-6s-5.17,2.24-5.09,5.67c.06,3-.23,6.33,4.06,6.71C375.35,576.32,376.33,573.67,376.43,569.54Zm0-69.56c-.05-3.36-.82-6.15-5-5.86-4.42.3-4.12,3.69-4.17,6.7,0,3.35.76,6.15,5,5.86C376.61,506.37,376.24,503,376.42,500Zm0-23.25c-.3-2.18.1-5.6-4.4-5.77s-4.85,2.83-4.83,6.08c0,3.08-.09,6.39,4.34,6.57S376.35,480.8,376.44,476.73Z" transform="translate(-189.76 -12.27)" style="fill:#fd6464"/><path d="M812,494.08q.27-87.42.53-174.84c17.6,24.42,37.12,24.92,54.8,1.4,0,3.8.07,7.6.1,11.4-17.29,9.53-28.26,22.84-28.26,43.83s10.84,34.34,28.19,43.85q.07,28.75.16,57.51c-23.49,1.92-28,7.24-27.68,32.44a44.61,44.61,0,0,1-16.21,0C824.35,501.05,819.12,496.86,812,494.08Z" transform="translate(-189.76 -12.27)" style="fill:#e4cf92"/><path d="M1095.16,715c-2-2.83-3.89-5.66-5.85-8.48-3-4.33-1.29-6.77,3-8.79,7.53-3.53,15.44-3.91,23.55-3.91q152.28,0,304.56,0,.12,9.12.25,18.23l-6.32.23c-.84-1.91.39-5.46-2.67-5.47s-2,3.51-2.79,5.48q-146.13,0-292.26,0C1109.37,712.29,1102.05,712,1095.16,715Z" transform="translate(-189.76 -12.27)" style="fill:#c1ad70"/><path d="M754.22,256.61c3.36,7,11.93,8.25,16.1,14.35,2.29,3.35,5.67,6.18,5.86,10.82-3.6,2-6-.76-8.47-2.06-13.29-7-13.26-7-13.27,7.58,0,11.53-.06,23.05,0,34.57,0,5.47-1.67,8.59-7.43,5.18-8-4.72-8.73-.6-8.71,6.21.14,45.71.07,91.42.07,137.12-8.53.4-16.38,2.49-22.54,8.88l-.39-142.36c.12-11.12,0-22.26.42-33.38C716.75,279.68,731.09,262.31,754.22,256.61Z" transform="translate(-189.76 -12.27)" style="fill:#f8edcc"/><path d="M964.05,360.4c-8.21-5.94-17-10.18-27.48-9.73,0-22.95-1-46,.3-68.84.77-13.74-5.33-20.14-16.6-25-6.53-2.8-9.11-2.14-9,5.36q.3,18.93-.06,37.87c-.06,3.28,1.23,9.55-5.21,7.06-8.84-3.42-8.78,1.35-8.67,7.41.09,5-.05,9.95-.09,14.92l-8.61-.36c-.16-10.69-.37-21.38-.44-32.07,0-5,0-10.17,7.39-5.39,5.38,3.47,6.56.39,6.53-4.46,0-9.55,0-19.1,0-28.66,0-21.56-.09-21.4,18.88-11.67,3.78,1.94,8,7.84,11.8,4.34,3.91-3.65,1.46-10.06-.21-15.2a36.8,36.8,0,0,0-10.36-16.24c-5.66-5.06-11.85-9.54-17.81-14.27,24-6,41,4.41,54.73,22.88,4.39,10.39,5.51,21.21,5.37,32.43C964.12,294,964.17,327.19,964.05,360.4Z" transform="translate(-189.76 -12.27)" style="fill:#f6de9f"/><path d="M1267.87,469.23c.81-15.11,1.13-30.22-.14-45.32.2-9.57.25-19.14.67-28.69.52-12.15,8.52-20.83,19.54-21.62,11.78-.85,21.29,6.68,23.09,19.23,1,6.78.58,13.75.67,20.64.22,16.33-1.45,32.82,4.44,48.63h0c-6.34-3-6,1.37-6,5.42q.08,21.18.14,42.37a221.73,221.73,0,0,1-37.43-.17C1281.82,494.9,1273.56,482.23,1267.87,469.23Z" transform="translate(-189.76 -12.27)" style="fill:#f8edcc"/><path d="M396.09,693.85h97a46.91,46.91,0,0,1-10.11,18.73H456.07c1.67,5.37,7.69,10.4.62,15.13-5.65,3.78-18.18.92-23.05-5.13,1.08-6.94,6-8,11.83-7.91,2.68.05,5.59-.1,6.5-3.38a5.84,5.84,0,0,0-1.85-6.24c-7.24-6.19-15.94-4.15-24.14-3.64-6.37.39-10.5,4.2-10.76,11.13-47.55-.09-95.11.08-142.66-.34-47.74-.41-86-41.58-82-87.69,12.58,44.67,43.25,69.94,83.81,69.09,6.59,3,13.16,5.63,20.73,5.58,29.35-.21,58.7-.1,88.06,0C388.26,699.14,393.19,699.05,396.09,693.85Z" transform="translate(-189.76 -12.27)" style="fill:#c1ad70"/><path d="M494,327.54q-.39,29.65-.76,59.31c-6.89,1.5-16.63-3-18.68,9-.11.71-4.16.79-6.39,1.08-4,.52-8.46-1.25-11.95,2.19-10.22,0-20.44,0-30.65-.06-4,0-8.71,1-10.05-4.78,0-1.53.05-3.07.08-4.61,14.23-4,28.77-.95,43.14-1.8,5.23-.31,10-.06,9.89-7.56-.07-7.76-5.26-7-10.24-7.08q-21.18-.19-42.36-.35l-.21-10.65c14.51-.11,29-.35,43.54-.26,5.77,0,9.39-1,9.39-8.06s-3.58-8.11-9.37-8.07c-14.51.09-29-.16-43.54-.27l-.45-9.11c13.45-4,27.22-.84,40.81-1.82,5.78-.41,12.71,1.8,12.53-8.32-.17-9.43-6.65-7.53-12-7.64-13.71-.27-27.43-.32-41.15-.46-.55-6.8,2.4-9.52,9.37-9.38,16.41.33,32.84.15,49.26.08C498.08,308.86,492.89,308.71,494,327.54Z" transform="translate(-189.76 -12.27)" style="fill:#4daec6"/><path d="M904.42,205.48c6,4.73,12.15,9.21,17.81,14.27A36.8,36.8,0,0,1,932.59,236c1.67,5.14,4.12,11.55.21,15.2-3.75,3.5-8-2.4-11.8-4.34-19-9.73-18.88-9.89-18.88,11.67,0,9.56,0,19.11,0,28.66,0,4.85-1.15,7.93-6.53,4.46-7.39-4.78-7.42.35-7.39,5.39.07,10.69.28,21.38.44,32.07-7.11.69-14.34.49-21.2,2.94,0-3.8-.07-7.6-.1-11.4,0-20.31.34-40.63.07-60.94-.14-10.15,1.22-19.84,5.08-29.2C879.56,217.6,889.62,208.51,904.42,205.48Z" transform="translate(-189.76 -12.27)" style="fill:#f8edcc"/><path d="M1049.19,228.55c8.88-25.2,28.16-30.7,48.08-13.69,1.73,1.46,3.19,3.86,5.68,3.25,8.62-2.1,14.69,1.65,19.94,7.89,2.21,2.61,5.41,2.45,8.47,2.44a3.48,3.48,0,0,1,.68.92c4.08,13.29,12,20.32,26.82,17.45,2.78-.54,4.87,2.21,5.21,5.15a5.67,5.67,0,0,1-4,6.27,20.22,20.22,0,0,1-6.7,1.37c-24.92,0-49.87.58-74.75-.42C1058.26,258.36,1050.43,249.26,1049.19,228.55Z" transform="translate(-189.76 -12.27)" style="fill:#fcfdfd"/><path d="M1379.24,509.74a294.55,294.55,0,0,1-43.86.09c0-13.34,0-26.68.08-40,0-4.24.24-7.8-6.12-4.89-4.5,2.05-9.75,2.57-13.17-2.83h0c10.55-.76,20.37-1,20.33-16.46,0-10.15,10.94-18,20.73-18.15,10.52-.13,19.79,7.77,21.62,18.73a91.1,91.1,0,0,1,.59,10.34Q1379.33,483.16,1379.24,509.74Z" transform="translate(-189.76 -12.27)" style="fill:#f8edcc"/><path d="M556.84,883.24l6.57,18.82c-38.28.13-76.61,1.53-114.83,0-32.49-1.26-54.7-29.72-50-60.15,7.86,24.64,23.66,40.65,50.31,41.32C484.88,884.18,520.87,883.33,556.84,883.24Z" transform="translate(-189.76 -12.27)" style="fill:#c1ad70"/><path d="M387.22,436a68.77,68.77,0,0,1,.36,8c-.18,2.86,1,6.49-2.66,8s-5.2-1.16-6.9-3.93c-2.74-4.46-7.81-4.09-11.3-2.56-5.73,2.51-9.19,7.57-9.24,14.34q-.23,25.15-.54,50.31l-35.66-.54c.85-23.83-4.67-47.43-2.65-71.3C341.37,434.13,364.35,436.49,387.22,436Z" transform="translate(-189.76 -12.27)" style="fill:#afeefe"/><path d="M1116.42,399c-10.86-8.49-25.36-9.1-36.41-18.65-9.55-8.24-18.77,2.77-27.53,7.43-4.27-26.88,5.6-46.85,29.33-60.05,18.08,3.93,26.71,17.6,33.83,32.83Q1116,379.75,1116.42,399Z" transform="translate(-189.76 -12.27)" style="fill:#f8edcc"/><path d="M1254.73,140.8c12.62,26.14,42.34,28.94,70,22.36,5.28-1.26,6.48,3.32,10.82,3.23a221.83,221.83,0,0,0,33.1-2.88c5.83-1,8.22-5.19,8.36-10.76.12-5.24,0-10.48,0-16.71,5.48,3.76,3.92,8.29,4.42,12.23.33,2.5-1,5.95,2.41,6.95,3.09.92,4.61-2,6.23-4.08,2-2.59,4-5.25,7.35-9.72,0,8.07,0,13.69,0,19.32l-10.8,14.37c-9.93,7.82-21.41,10.23-33.74,9.67l-48.49,0c-13.94-.09-27.94,0-39.56-9.6C1258.18,164.71,1250,154.64,1254.73,140.8Z" transform="translate(-189.76 -12.27)" style="fill:#f8edcc"/><path d="M556.84,883.24c-36,.09-72,.94-107.91,0-26.65-.67-42.45-16.68-50.31-41.32q-.45-5.93-.92-11.87c3.56.67,4.57,3.74,6,6.41,10.92,20.58,28.38,30.22,51.32,30.32,34.39.16,68.79.1,103.19.13Q557.51,875.09,556.84,883.24Z" transform="translate(-189.76 -12.27)" style="fill:#369a68"/><path d="M1425.93,675.79q23-.06,46.08-.12c37.79-.1,67.14-20.7,80.07-56.13,1.31-3.58,2.88-7.06,4.33-10.59,1.5,8.59-2.7,16.66-2.28,25.15-1.42,3.07-2.82,6.14-4.25,9.19-14.88,31.63-39.83,48.7-74.66,50.43-16.41.81-32.89.09-49.34.07Z" transform="translate(-189.76 -12.27)" style="fill:#369a68"/><path d="M1081.81,327.7c-23.73,13.2-33.6,33.17-29.33,60.05.8,9.42-3.79,12.52-12.75,11.65-6.67-.65-13.44-.31-20.17-.41q0-17.49,0-35c8.36-23.72,23.39-38.85,50.14-38.86C1073.89,325.14,1078,325.61,1081.81,327.7Z" transform="translate(-189.76 -12.27)" style="fill:#f6de9f"/><path d="M318.63,438.34c-2,23.87,3.5,47.47,2.65,71.3a27.06,27.06,0,0,1-14.15.11c-1.46-22.39,4.52-44.49,2.55-66.89,2.29-17.17,1.14-34.43,1.57-51.66.18-7.49-2.26-8.68-8.66-5.2-9.75,5.31-19.76,10.15-29.65,15.19-.56-1.05-1.11-2.11-1.66-3.16,8.1-4.73,16.24-9.38,24.27-14.21,3.16-1.91,6.77-3.23,7.41-8,1-7.08.82-15.24,12.39-13.58,3.92.56,3.12-4.4,3.35-7.28.86-10.68,1.65-21.36,2.48-32,.19-2.52-.29-5.32,4.32-8.46,0,16.25.75,30.93-.26,45.49-.7,10.1,3.54,15.32,11.9,19.32,7.63,3.66,14.57,8.53,19.23,16.68-7.42-4.21-14.83-8.44-22.27-12.63-10.61-6-15.73-3.15-15.79,9C318.23,407.69,318.5,423,318.63,438.34Z" transform="translate(-189.76 -12.27)" style="fill:#fcfdfd"/><path d="M454.07,302.14c-10,0-19.92-.25-29.87.06s-9-6.56-8.4-12.54-4-15.15,7.95-15.19c20.68-.06,41.36,0,62-.05,5.1,0,7.43,1.92,8.05,7.29,2.13,18.54.65,20.44-17.93,20.44Q465,302.17,454.07,302.14Z" transform="translate(-189.76 -12.27)" style="fill:#4daec6"/><path d="M415.53,394.31c1.34,5.8,6,4.73,10.05,4.78,10.21.1,20.43.05,30.65.06q.28,7.83.56,15.67c-10.28.09-20.57.08-30.86.32-4.26.1-10-1.46-9.77,6,.22,6.55,5.45,5.22,9.36,5.26,13.34.11,26.68,0,40,0l0,16.08c-13.28,0-26.56.29-39.83-.09-7.24-.2-10.89,2.07-9.68,9.74-4.5.64-8.37,1.42-12.11-3.37-1.87-2.4-5.85-8.78-12-3-.71.66-1.18-6.36-1.35-9.88,18.22,0,18.2,0,18.17-18.76C408.77,408.8,407.13,400.06,415.53,394.31Z" transform="translate(-189.76 -12.27)" style="fill:#99e8fc"/><path d="M1425.88,693.79c16.45,0,32.93.74,49.34-.07,34.83-1.73,59.78-18.8,74.66-50.43,1.43-3,2.83-6.12,4.25-9.19,2.49,33.32-24.63,67.1-60.92,75.71-4.82,1.15-9.79,1.65-14.69,2.44-1.52-8.84-7.48-11.42-15.59-11.29-9.71.14-20.36-1.89-23.82,11.32L1425.6,712Q1425.74,702.92,1425.88,693.79Z" transform="translate(-189.76 -12.27)" style="fill:#c1ad70"/><path d="M309.68,442.86c2,22.4-4,44.5-2.55,66.89l-34.47-.12c-1.42-27,7.15-49.29,30.78-64.28C305.3,444.17,307.59,443.67,309.68,442.86Z" transform="translate(-189.76 -12.27)" style="fill:#afeefe"/><path d="M1439.72,475.44c-.17-10-.29-19.93-.53-29.9-.07-2.59.24-6.2-3.33-6.27s-3.45,3.48-3.5,6.11c-.19,10-.27,19.94-.38,29.91l-8.56-2.53c.83-11.18-3.39-19.29-14.19-23.41,4.35-23.56,18-31.1,41.65-23l8.07,8a36.9,36.9,0,0,1,.16,30l-6.49,6.22C1448.62,473,1444.44,474.92,1439.72,475.44Z" transform="translate(-189.76 -12.27)" style="fill:#73daa6"/><path d="M1459,434.36l-8.07-8c.09-11.53.35-23.05.21-34.57-.14-11.29-5.37-14.26-15.57-8.8-11.83,6.33-23.47,13-35.2,19.53-.22.12-.66-.19-2.35-.71,6.54-7.68,14.75-12.51,22.89-16.21,18.89-8.59,26.78-21.78,23.29-42.56-1.48-8.84-.25-18.13-.25-27.21l3.31-.28c.91,11.8,1.85,23.59,2.73,35.39.68,9.18.65,9.33,10.32,8.81,1.66-.09,2.06.6,2.07,1.41.3,23,21.42,26.21,34.79,36.78.21.17.12.71.59,4-10.21-5.17-19.19-9.32-27.77-14.18-7.72-4.36-11.1-3.28-10.91,6.2C1459.31,407.46,1459,420.91,1459,434.36Z" transform="translate(-189.76 -12.27)" style="fill:#fcfdfd"/><path d="M1086.94,756l11.3.4c11,4.89,22.73,1,34,2.66-6.21,6.76-12.34,13.6-18.69,20.23-2.37,2.49-3.28,4.19.9,5.31a1.21,1.21,0,0,0,.59,1.16l1.26,2.82q-.37,13.73-.73,27.43c-8.39.9-16.11,1.14-16.46-10.74-.07-2.26-2.15-5.66-4.14-6.46-9.85-4-8.54-12.18-8.43-20.05C1086.65,771.19,1086.8,763.61,1086.94,756Z" transform="translate(-189.76 -12.27)" style="fill:#34cb99"/><path d="M1210.56,774.29c-1.89,0-3.78-.07-5.66-.08-17.59-.11-17.59-.11-10.25-15.18,0-14.08,8.17-24.81,14.8-36.21,2.83-4.87,4.81-5.05,7.58,0,4.21,7.66,8,15.78,13.43,22.47,4.08,5-5.58,10,1.39,13.73,7.35,15.1,7.35,15.1-10.26,15.19-1.89,0-3.78,0-5.67.07-1.17-7.52.92-15.42-2.66-22.79C1209.68,758.87,1211.78,766.78,1210.56,774.29Z" transform="translate(-189.76 -12.27)" style="fill:#fd6464"/><path d="M1116.42,399q-.39-19.22-.78-38.44c22.37,1.36,40.54,11.47,56.13,27-5.76,11.14-15.48,12.68-26.78,11.81C1135.52,398.55,1126,399,1116.42,399Z" transform="translate(-189.76 -12.27)" style="fill:#afeefe"/><path d="M436.37,198.34c8.2-3.2,3.28,4.59,5.42,6.46-.21,9.58-.49,19.16-.6,28.74,0,2.81.68,5.53,4.22,5.76s4.36-2.21,4.94-5.09c.53-2.68-.88-7.21,3.78-6.83,3.4.27,2.6,4.21,2.8,6.72.8,10,13.13,2.43,15.56,10.47,1.72,5.7-3.61,15.05,7.82,16.26a5.11,5.11,0,0,1,3.4,2.58c1.1,2.32-.19,6-2.2,5.08-11.52-5.42-22.17,5.09-33.53,1.22-3.73-1.27-8.58,1.13-11.44-3.43-1.79-2.87-3.41-2.25-5.13.2-1.92,2.73-4.36,3.74-5.93-.06-1.28-3.11.63-5.45,3.79-5.65,7.24-.44,7.24-5.34,7.21-10.6C436.4,232.89,436.4,215.62,436.37,198.34Z" transform="translate(-189.76 -12.27)" style="fill:#4daec6"/><path d="M274.38,693.6c-40.56.85-71.23-24.42-83.81-69.09q-.19-7.75-.4-15.5c6.8,16.11,13,32.34,26.63,44.66,13.24,12,28,19.48,45.74,21.37C264.67,682.38,269.36,688.09,274.38,693.6Z" transform="translate(-189.76 -12.27)" style="fill:#369a68"/><path d="M1242,257.51c-10,0-19.91.12-29.87,0-6.71-.11-11.93-2.78-13.83-9.79-1.38-5.09.71-9.05,4.69-12,5.54-4.09,10.26-2.05,15.7,1.29,8.29,5.09,17,9.55,27.49,8.84a233.8,233.8,0,0,1,24.12,0c4.67.17,11.46-1.14,11.23,6.2-.2,6.21-6.32,5.47-10.82,5.52-9.57.11-19.14,0-28.71,0Z" transform="translate(-189.76 -12.27)" style="fill:#fcfdfd"/><path d="M1409.23,449.35c10.8,4.12,15,12.23,14.19,23.41-3.12,7.17-7.47,12.94-16,13.94-1.46-8.28,1-17-2.84-25.17-4,8.15-1.39,16.91-2.94,25.18-15.25-5-18.76-12.95-13.07-29.76C1394.2,451,1401.15,448.62,1409.23,449.35Z" transform="translate(-189.76 -12.27)" style="fill:#f8e76c"/><path d="M868.83,902.84a72.46,72.46,0,0,1,46.24-.1c4.39,12.6,1.46,17.11-11.58,17.41-7.64.18-15.3.16-22.94,0C867.47,919.9,864.68,915.7,868.83,902.84Z" transform="translate(-189.76 -12.27)" style="fill:#fcfdfd"/><path d="M415.56,318.25c13.72.14,27.44.19,41.15.46,5.38.11,11.86-1.79,12,7.64.18,10.12-6.75,7.91-12.53,8.32-13.59,1-27.36-2.22-40.81,1.82C405.9,330.61,406,324,415.56,318.25Z" transform="translate(-189.76 -12.27)" style="fill:#99e8fc"/><path d="M415.85,345.6c14.52.11,29,.36,43.54.27,5.79,0,9.37,1,9.37,8.07s-3.62,8.09-9.39,8.06c-14.51-.09-29,.15-43.54.26-5-.18-7.08-2.75-7.13-7.77C408.66,349.31,410,345.77,415.85,345.6Z" transform="translate(-189.76 -12.27)" style="fill:#99e8fc"/><path d="M1019.51,364q0,17.49,0,35c-1.14.05-2.28.13-3.42.12-6.47-.07-13.2.94-19.35-.5-8.94-2.1-2.41-11.56-6.28-16.53a44.34,44.34,0,0,1-3.35-6C998.56,373.73,1007.2,364,1019.51,364Z" transform="translate(-189.76 -12.27)" style="fill:#afeefe"/><path d="M416,372.91q21.18.16,42.36.35c5,0,10.17-.68,10.24,7.08.07,7.5-4.66,7.25-9.89,7.56-14.37.85-28.91-2.2-43.14,1.8-5.75-.89-6.9-4.82-6.82-9.87S412,373.55,416,372.91Z" transform="translate(-189.76 -12.27)" style="fill:#99e8fc"/><path d="M1388.6,457c-5.69,16.81-2.18,24.79,13.07,29.76.89,27.35,3.32,23.44-22.43,23q.09-26.6.17-53.18Z" transform="translate(-189.76 -12.27)" style="fill:#afeefe"/><path d="M1439.11,712.28c3.46-13.21,14.11-11.18,23.82-11.32,8.11-.13,14.07,2.45,15.59,11.29-2,10.6-10.19,10.9-18.47,10.92C1451.19,723.18,1441.94,723.89,1439.11,712.28Z" transform="translate(-189.76 -12.27)" style="fill:#e4cf92"/><path d="M1026.3,902c11.29-14.12,30.76-14.13,41.75,0-3.18,12.44-13,11.29-22.6,11.55C1036.22,913.73,1028.82,912.26,1026.3,902Z" transform="translate(-189.76 -12.27)" style="fill:#e4cf92"/><path d="M1222.3,902c11.45-14.36,33.06-14.14,40,.4-.45,8.14-5.15,11.43-12.84,10.91C1239.19,912.58,1226.44,917.55,1222.3,902Z" transform="translate(-189.76 -12.27)" style="fill:#e4cf92"/><path d="M1114.45,784.62c-4.18-1.12-3.27-2.82-.9-5.31,6.35-6.63,12.48-13.47,18.69-20.23,3.91-4.27,7.8-4,11.66.08,6.18,6.8,12.29,13.66,18.57,20.36,3,3.16,2,4.42-1.82,4.76l-44.89.15A1.37,1.37,0,0,0,1114.45,784.62Zm37.26-6.07c-13.46-16.73-15.19-16.68-26.22,0Z" transform="translate(-189.76 -12.27)" style="fill:#fd6464"/><path d="M415.22,712.54c.26-6.93,4.39-10.74,10.76-11.13,8.2-.51,16.9-2.55,24.14,3.64a5.84,5.84,0,0,1,1.85,6.24c-.91,3.28-3.82,3.43-6.5,3.38-5.84-.1-10.75,1-11.83,7.91C426.22,721.58,416.69,724.45,415.22,712.54Z" transform="translate(-189.76 -12.27)" style="fill:#e4cf92"/><path d="M1452.62,470.55l6.49-6.22c2.45,15,3.9,30.13,3.25,45.38a27.53,27.53,0,0,1-14.19,0C1449.13,496.58,1446.16,483,1452.62,470.55Z" transform="translate(-189.76 -12.27)" style="fill:#fcfdfd"/><path d="M938.67,902.7c7.06-4.2,14.1-4.05,21.12.08,2.88,5.57,3.49,11.23-2.18,15.14a14.36,14.36,0,0,1-17,0C935.05,913.93,935.72,908.24,938.67,902.7Z" transform="translate(-189.76 -12.27)" style="fill:#fcfdfd"/><path d="M293.12,737.65h52.19l.06,3.28c-17.26,2-34.59.7-51.89.77Z" transform="translate(-189.76 -12.27)" style="fill:#fcfdfd"/><path d="M756.8,228.29c18.31-4,36.63-3.7,55-.21C793.45,232.12,775.13,231.82,756.8,228.29Z" transform="translate(-189.76 -12.27)" style="fill:#fcfdfd"/><path d="M1301.17,257.62c-4.94-.35-10.2-.22-10.17-5.93,0-6.68,5.94-5.83,10.38-5.86,4.25,0,9.37.14,8.89,6.19C1309.82,257.77,1304.57,257.11,1301.17,257.62Z" transform="translate(-189.76 -12.27)" style="fill:#fcfdfd"/><path d="M1425.88,693.79q-.15,9.12-.28,18.25h-4.9q-.12-9.12-.25-18.23t0-18c1.31-5.12-1-10.89,4.29-15.78l1.23,15.79Q1425.9,684.8,1425.88,693.79Z" transform="translate(-189.76 -12.27)" style="fill:#fcfdfd"/><path d="M1080.08,901.89h12.78c-.69,4.7,2,11.6-6.43,11.58S1080.61,906.65,1080.08,901.89Z" transform="translate(-189.76 -12.27)" style="fill:#e4cf92"/><path d="M1413.71,160.9c-8.19-15.69,5.8-9.25,11.28-11.3C1428.59,160.72,1422.79,162.45,1413.71,160.9Z" transform="translate(-189.76 -12.27)" style="fill:#afeefe"/><path d="M1425,143.34c-6.65-1.31-18.13,2.92-13.27-11.57C1419,132.34,1426.7,132.4,1425,143.34Z" transform="translate(-189.76 -12.27)" style="fill:#afeefe"/><path d="M290.75,298.66c3.52,9.14,3.11,18.35.55,27.61C287.45,317.24,288.85,308,290.75,298.66Z" transform="translate(-189.76 -12.27)" style="fill:#fcfdfd"/><path d="M1483.18,329.82a41.4,41.4,0,0,1-.34-26.44C1486.39,312.06,1485.29,320.94,1483.18,329.82Z" transform="translate(-189.76 -12.27)" style="fill:#fcfdfd"/><path d="M367,749.73c6.09-3.11,12-3.13,19.93-.44C379,754,373,753,367,749.73Z" transform="translate(-189.76 -12.27)" style="fill:#fcfdfd"/><path d="M1408.92,712.28c.77-2-.26-5.49,2.79-5.48s1.83,3.56,2.67,5.47l-1.17,21.61-3.14,0Q1409.5,723.09,1408.92,712.28Z" transform="translate(-189.76 -12.27)" style="fill:#fcfdfd"/><path d="M831.42,239.34c-8.67,3.73-17.43,2.83-26.3.25C813.74,236.81,822.55,237.06,831.42,239.34Z" transform="translate(-189.76 -12.27)" style="fill:#fcfdfd"/><path d="M1504.51,717.58c-.61,3.7-3.08,5.29-6.51,5.12s-5.88-2-5.5-5.86c.33-3.35,2.76-4.3,5.73-4.36C1501.75,712.41,1504.19,713.7,1504.51,717.58Z" transform="translate(-189.76 -12.27)" style="fill:#e4cf92"/><path d="M615.84,252.67c-11.18,10.7-14.17,10-19.12-3.25C602.4,252.49,607.61,254.52,615.84,252.67Z" transform="translate(-189.76 -12.27)" style="fill:#4daec6"/><path d="M433.7,735.43c-.65,4-3.74,4.09-6.78,4.1-2.71,0-5.75-.37-6.07-3.58-.4-4.12,2.94-4.64,6.09-4.66S433.08,731.32,433.7,735.43Z" transform="translate(-189.76 -12.27)" style="fill:#e4cf92"/><path d="M1462.63,163c1.32-1.49,1.52-1.91,1.82-2,4.74-1.66,9.49-2.72,13.73,1.06.37.32-.17,2.65-.64,2.79C1472.51,166.28,1467.43,167.36,1462.63,163Z" transform="translate(-189.76 -12.27)" style="fill:#fcfdfd"/><path d="M641.23,141c-15.33,0-27.36-11.84-27.09-26.57a27.57,27.57,0,0,1,27.37-26.8c14.43,0,27.4,13,27.16,27C668.42,129.84,656.69,141.09,641.23,141Z" transform="translate(-189.76 -12.27)" style="fill:#f6de9f"/><path d="M1304.4,184.81l48.49,0c7.54,15.08,4.47,20.77-11.24,20.8q-13.25,0-26.47,0C1300.57,205.54,1296.86,198.37,1304.4,184.81Z" transform="translate(-189.76 -12.27)" style="fill:#fd6464"/><path d="M642.28,161.27c-4.49-.23-7.11-2.18-7.31-6.2s2.18-6.55,6.11-6.78,6.52,2.14,6.79,6.1S645.55,160.5,642.28,161.27Z" transform="translate(-189.76 -12.27)" style="fill:#f6de9f"/><path d="M648,74.32c-.64,4-2.78,6.36-6.85,6.15s-6.37-2.61-6.17-6.64,2.76-6.32,6.72-6.17S647.68,70.45,648,74.32Z" transform="translate(-189.76 -12.27)" style="fill:#f6de9f"/><path d="M676.09,86c-.35,4.53-2.67,6.52-6.71,6.24s-6.48-2.46-6.07-6.53a6.41,6.41,0,0,1,6.84-6.16C674.19,79.61,675.88,82.51,676.09,86Z" transform="translate(-189.76 -12.27)" style="fill:#f6de9f"/><path d="M669.42,136.49c4,.35,6.41,2.4,6.51,6.53.08,3.55-1.88,5.94-5.33,6.43-4.19.59-6.72-1.95-7.14-5.79S665.33,137.21,669.42,136.49Z" transform="translate(-189.76 -12.27)" style="fill:#f6de9f"/><path d="M682,121.36c-3.82-.45-6.72-2.27-6.81-6.35s2.21-6.43,6.39-6.53c3.66-.09,5.8,1.86,6,5.47C687.92,117.91,686.1,120.52,682,121.36Z" transform="translate(-189.76 -12.27)" style="fill:#f6de9f"/><path d="M607.06,115.17c-.52,4-2.66,6.59-6.81,6-3.81-.57-6.22-3.19-5.59-7.3a5.86,5.86,0,0,1,6.39-5.36C605.39,108.54,607.1,111.08,607.06,115.17Z" transform="translate(-189.76 -12.27)" style="fill:#f6de9f"/><path d="M1395.69,193.6a54.87,54.87,0,0,1-30.54.12A53.89,53.89,0,0,1,1395.69,193.6Z" transform="translate(-189.76 -12.27)" style="fill:#fcfdfd"/><path d="M612.73,79.3c4.22.84,6.92,3,6.61,7s-2.91,6.19-7,5.9c-3.66-.25-5.45-2.49-5.44-6.1C606.89,82,609.17,79.92,612.73,79.3Z" transform="translate(-189.76 -12.27)" style="fill:#f6de9f"/><path d="M613.52,149.61c-4.73-.55-6.71-3-6.57-7,.12-3.52,2.16-5.88,5.62-6,3.88-.1,6.59,2.21,6.75,6.2S616.5,148.7,613.52,149.61Z" transform="translate(-189.76 -12.27)" style="fill:#f6de9f"/><path d="M1201.86,525.42c0,3.83-.08,7.67-.09,11.5,0,16.15,0,16.15,16.26,18.87,12.58,2.11,23,15.31,23,29,0,16.46-10.31,29-26.93,30.31-14.86,1.19-29.89.06-44.83.54-9,.29-8.69-12-15.15-11.57-5.68.34-5.69,11.67-14.12,11.5-8.81-.19-17.64-.14-26.45,0-4.94.08-7.87-2.45-9.74-6.63-3.7-8.24-7.12-6.19-10.54.21-4.62,8.64-9.23,8.34-13.7-.12-3.56-6.75-6.77-7.79-10.59,0-4.39,8.92-9.3,8-13.82-.07-3.63-6.44-7.16-8-10.35.17-2.74,7-8.62,7.08-14.38,6.34-10.86-1.4-14.43,3.29-13.43,13.67.45,4.73,1.58,10-2.39,14.25-6.54-3.5-12.41-3.08-17.33,2.95-.23-4.59-.61-9.18-.65-13.77-.12-17-.08-17-16.75-17l-313,0c-.45-7.51-3.32-14.19-7.09-20.55,6.29-2,4.18-7.14,4.4-11.43V557.79l.3-2.46c6.87.06,13.74.13,20.61.17,18.29.12,26.94,6.17,32.31,24.21,1.69,5.66,5.08,5.8,9.33,6,.51,5.22,3.68,7,8.54,6.69,11.53-.63,23.05,2.19,34.58.06,9,5.54,13.32-.92,17.77-7,4.17,0,8.33.1,12.5.11,28.42,0,28.42,0,28-27.93.79-8.66-1.32-17.61,2.52-29.42,3.89,11.79,1.87,20.68,2.38,29.34,0,4.22-.08,8.44-.08,12.66,0,15.31,0,15.34,14.92,15.35,61,0,122-.13,183,.16,7.74,0,11.63-2.09,14-9.79,4.35-13.84,13.9-20.12,28.52-20.4,8-.15,16.12-.25,24.16,0,6.24.21,8.89-1.07,7.68-8.47-1.84-11.29,2.39-21,11.41-28.34.23,8.71.73,17.42.61,26.12-.13,9.71,3.47,12.78,12.41,8,17.08,6.63,21.63,3.82,21.41-13.22,0-1.52-.09-3-.15-4.55,2.88-5.9-.65-12.84,3.32-19.77,2.5,7.1.92,13.45,1.43,19.61,0,1.9,0,3.81,0,5.71,0,14.78,0,14.78,15.23,14.82,26.22,0,26.22,0,26-30.28.1-9.5-2-19.18,2.46-31.31C1203.42,506.14,1201.09,515.91,1201.86,525.42ZM1110.25,597c2.6-.69,7.23,1.24,6.94-3.47-.26-4-2.06-9.66-6.1-10.12-4.82-.54-5.73,5.54-6.8,9.2C1102.86,597.49,1107.44,596.46,1110.25,597Zm-24.13-14.37c-3.58,2.73-5.72,6.45-5.71,10.57,0,4.28,4.07,3.65,6.95,3.61,3.3,0,6.48-1.08,5-5.33C1091.13,588.14,1090.39,584.12,1086.12,582.62Z" transform="translate(-189.76 -12.27)" style="fill:#73daa6"/><path d="M1404.68,527.84c21.12,0,42.23-.15,63.35-.05,12.3.05,18.24,4.61,18.87,13.92.57,8.45-6.43,15.16-17.41,16-6,.49-12.32.4-11.76,8.79s7.31,7.47,13,7.52c10.75.09,21.5-.07,32.25.06,10.6.14,18.42,6.43,18.63,14.71s-7.68,15.27-18,15.29c-60.27.09-120.55,0-180.82.16-7.28,0-10.92-2.17-10.16-9.85.37-3.81.42-7.65.62-11.48,6.12-.37,9.32-4.82,12.68-9.05q28.15.09,56.32.18c6.15,0,12.42-.86,12.72-8.36.35-8.5-6.73-7.76-12.45-7.82-10-.11-19.93.17-29.89-.12-11.2-.32-17.23-6.09-17.16-15.76.07-9.09,5.81-14,17-14.23,8.82-.17,17.63,0,26.42-.06l20.14.19-.12-.06c-.47,3.41-3.24,2.53-5.3,2.68-4.14.31-9-.76-11.31,3.8-2.75,5.56,4.25,6.34,5.61,9.79,3.4,8.65,10.67,5.76,16.75,6.14,3.19.2,7.6,1.07,8-4s-2.69-7.57-7.61-8.18c-5.6-.7-11.41.93-18.9-2.06C1393.76,533.8,1402.7,537.38,1404.68,527.84Zm30,46.17.07.07c-5.87-4.5-12-6.6-18.9-2.13-5.62,4.92,2.8,3.94,2.75,6.52-3.53,1.95-5.54,4.62-2.45,8.24,5.38,6.31,10.74,13,20.7,10.48,3.29-.83,8.5,1.84,8.86-4.27.37-6.28-4.07-7.42-9.19-7.38s-10.34,0-17,0c5.23-5.27,12.46-.65,15.29-6.8l-.1.09C1437.7,577.23,1437.73,575.62,1434.64,574Z" transform="translate(-189.76 -12.27)" style="fill:#66fecb"/><path d="M1063.75,745.16,1068,756l-22.93-.08V734.24h-4.81V756c-3.07,0-6.19.46-9.21.06-9.29-1.24-15,.93-19,11-4.82,12-16.43,16.52-29.32,16.54-21.51,0-43,0-64.54,0-13.92.05-17,3.11-17.37,16.76-.15,5.37.05,10.77-.47,16.1s-4,8.41-9.2,8.58-9.27-2.84-9.56-8c-.58-10.3-1.91-20.8,1-30.92,4-14,16.24-22.42,32.52-22.6,21.89-.23,43.79-.16,65.68,0,8.7.06,15.9-2.09,15.64-12.29-.23-9.48-7.2-11.43-15.39-11.38-38,.24-76,.33-114.06.48-5.75-6,.41-14.8-5-20.85q56.31.13,112.62.25c27,0,34.29,5.12,43.51,31.17,3.92-6.43,7-10.79,7.22-19.42.28-9.78,9.59-19.39,15.32-28.87,1.83-3,3.84-1,5.12,1.11,5.1,8.55,11.09,16.74,14.8,25.86C1062.4,734.14,1057.49,740.87,1063.75,745.16Z" transform="translate(-189.76 -12.27)" style="fill:#f8e76c"/><path d="M997.29,646.39c4.92-6,10.79-6.45,17.33-2.95,9.51,35.12-10,53.86-38.25,53.06-50.57-1.45-101.22-.42-151.83-.39-3.44,0-7-.25-10.31.47-5.93,1.3-9.2,5.34-9.1,11.54s3.42,10.4,9.46,11.17,12.24.35,18.37.45c-6,5.83.73,14.51-4.56,20.51-2.66-.12-5.31-.29-8-.35-19.16-.46-31.5-9.8-34.9-26.45-3-14.82,4.89-27.92,21.6-35.73,17.76-.67,35.62,2.17,53.29-1.63.72-.22,1.46-.42,2.2-.59h9.43l32.47-.17,6.49-.06,32.44.31c7.23.12,14.46.35,21.7.35C998.25,675.94,996.06,678.1,997.29,646.39Z" transform="translate(-189.76 -12.27)" style="fill:#f8e76c"/><path d="M1362.43,675.52l-31.12,0c3.34-20.76,15.24-32.5,33.21-32.75,18.64-.26,30.91,11.36,34.47,32.62l-30.62.17c.41-9,2.81-18.19-3-28C1359.58,657.32,1362.66,666.6,1362.43,675.52Zm12.83-20.06c1.16-.36,3.28-.46,2.16-2.18-.86-1.31-2.39-.08-3.27,1.07-.37.47-1.15,1.2-1.05,1.36C1373.89,656.91,1374.6,656.18,1375.26,655.46Zm-18.38.44.61.39.08-.6Zm-4.51-2.36.58.4.1-.59Z" transform="translate(-189.76 -12.27)" style="fill:#fd6464"/><path d="M828.4,740.25c5.29-6-1.47-14.68,4.56-20.51,7.22-4.76,6.64-18.7,15-18.45,6.74.21,7,13.56,14,18.2,5.4,6-.76,14.88,5,20.85,6.27,15.92,6.27,15.92-11.51,15.69-1.89,0-3.78-.12-5.68-.18l-1.17-22.59c-5.67,7.24-3,15.22-4.37,22.66-1.5,0-3,.11-4.5.12C821.14,756.19,821.14,756.19,828.4,740.25Z" transform="translate(-189.76 -12.27)" style="fill:#369a68"/><path d="M1201.86,525.42c-.77-9.51,1.56-19.28-2.48-31.51-4.42,12.13-2.36,21.81-2.46,31.31-10.22-.28-15.37-6.84-19-15.3-.81-16.15,7.29-26.84,20.65-27.26s21.54,9.75,21.84,27.48C1216.49,518,1211.52,524.55,1201.86,525.42Z" transform="translate(-189.76 -12.27)" style="fill:#f8e76c"/><path d="M1309,582.86c.24,1.89.61,3.78.7,5.69.73,15.31.47,15.6-14.43,15.62-6.5,0-13,.37-19.5-.27-8.9-.88-14-6.33-13.77-15.3.24-8.39,5.34-13.49,13.69-14.26,6.84-.62,13.76-.3,20.65-.39C1299.63,578.19,1302.85,582.58,1309,582.86Z" transform="translate(-189.76 -12.27)" style="fill:#66fecb"/><path d="M1316.17,462.1c3.42,5.4,8.67,4.88,13.17,2.83,6.36-2.91,6.13.65,6.12,4.89,0,13.33,0,26.67-.08,40l-25,.06q-.06-21.19-.14-42.37C1310.18,463.47,1309.83,459.12,1316.17,462.1Z" transform="translate(-189.76 -12.27)" style="fill:#f6de9f"/><path d="M1407.45,486.7c8.5-1,12.85-6.77,16-13.94l8.56,2.53c.1,6.48.28,13,.29,19.46,0,15.3-4.53,18.61-20.07,15.29-3.84-.81-5.14-2.7-5.08-6.17C1407.21,498.14,1407.34,492.42,1407.45,486.7Z" transform="translate(-189.76 -12.27)" style="fill:#afeefe"/><path d="M1309,582.86c-6.12-.28-9.34-4.67-12.66-8.91-.92-9.67.92-18,11.94-20.37s18,5.74,17.66,20.32c-3.36,4.23-6.56,8.68-12.68,9.05V564C1307.77,569.93,1310.09,576.63,1309,582.86Z" transform="translate(-189.76 -12.27)" style="fill:#f8e76c"/><path d="M1244.84,509.64c-6.38-15.21-.39-38.61,12.69-49.29,1.3-1.06,2.77-.82,3.73.81-3.14,16.12-.84,32.4-1.3,48.59A34.44,34.44,0,0,1,1244.84,509.64Z" transform="translate(-189.76 -12.27)" style="fill:#f8e76c"/><path d="M1260,509.75c.46-16.19-1.84-32.47,1.3-48.59l6.62,8.07c5.68,13,13.94,25.67,5,40.49Z" transform="translate(-189.76 -12.27)" style="fill:#fd6464"/><path d="M1404.68,527.84c-2,9.54-10.92,6-18.52,8.16,7.49,3,13.3,1.36,18.9,2.06,4.92.61,8,3.06,7.61,8.18s-4.85,4.23-8,4c-6.08-.38-13.35,2.51-16.75-6.14-1.36-3.45-8.36-4.23-5.61-9.79,2.27-4.56,7.17-3.49,11.31-3.8,2.06-.15,4.83.73,5.3-2.68C1400.8,521.82,1402.75,527.24,1404.68,527.84Z" transform="translate(-189.76 -12.27)" style="fill:#fcfdfd"/><path d="M1288.18,652.38c-8.81,0-17.61.08-26.41,0-2.54,0-6,.2-5.9-3.61.1-2.89,3.09-3,5.35-3q27-.08,54,0c2.25,0,5.25.11,5.33,3,.1,3.78-3.39,3.56-5.93,3.59C1305.78,652.46,1297,652.38,1288.18,652.38Z" transform="translate(-189.76 -12.27)" style="fill:#73daa6"/><path d="M1062.68,654.13c-6.88.37-13.8.83-20.53-1.24-2.13-.65-5.07-.62-4.64-3.78.26-2,2.44-3,4.43-3,12.25,0,24.5-.07,36.74.17,2.25.05,4.57,1.49,4.19,4.41a4.09,4.09,0,0,1-4.13,3.35C1073.4,654.27,1068,654.13,1062.68,654.13Z" transform="translate(-189.76 -12.27)" style="fill:#73daa6"/><path d="M1452.62,470.55c-6.46,12.48-3.49,26-4.45,39.13-6.58,1.47-9.11-1.26-8.83-7.85.37-8.79.28-17.59.38-26.39C1444.44,474.92,1448.62,473,1452.62,470.55Z" transform="translate(-189.76 -12.27)" style="fill:#afeefe"/><path d="M1399,527.92l-20.14-.19C1386.92,519.89,1393.46,520,1399,527.92Z" transform="translate(-189.76 -12.27)" style="fill:#afeefe"/><path d="M844.22,755.91c1.42-7.43-1.3-15.41,4.37-22.65l1.17,22.59c-.21,6.5-.44,13-.63,19.51-.29,10.36-2.15,20.95,14.19,21.27,5.95.12,10.14,7.16,10.22,13.74.06,6.17-3.93,10.54-9.53,13.29-4.35,2.13-9,1.73-13.55,1.73q-66.15,0-132.3,0c-6.37,0-12.62-1.1-16.56,6.75-2.57,5.13-9.15,4.7-14.6,4.69-20.33,0-40.65-.06-61,0-4.11,0-8.52-1.08-12.1,2.15-14.94-4-29.09-3.12-41.74,6.85-3.21-2.89-6.61-.92-9.83-.21-14.17,3.07-24.4-4.48-33.74-13.13-5.85-5.42-1.61-15,7-16.07,6.45-.78,13-.33,19.57-.43q.65,9.29,1.27,18.58c.66,1.82,1.52,1.58,2.48.24,3.38-6,.63-12.57,2.05-18.74,5.69,0,11.39-.07,17.08.06,4.88.11,7.76-1.36,8.15-6.94.77-11.19,8.11-14.47,18.14-14,1.31,21,1.31,21,21.93,21,21.66,0,21.66,0,23.35-20.91l46.17-.06c.25,4.16.56,8.32.72,12.48.14,3.4,1.21,5.38,5,6.23,16.83,3.75,22.57-.12,23.6-16.47a19.64,19.64,0,0,1,.43-2.24l16.92,0C743.56,814,743.56,814,763.12,814h12.67c19.56,0,19.56,0,20.64-18.78,12.22,0,24.45-.29,36.66.2,8.12.32,12.1-2,11.52-10.91C844,775,844.31,765.46,844.22,755.91Z" transform="translate(-189.76 -12.27)" style="fill:#73daa6"/><path d="M1040.27,756V734.25h4.81q0,10.85,0,21.69c0,4.59-.19,9.18-.08,13.77.75,29.55-6,25.24,27.52,25.62.38,0,.77,0,1.15,0,5.79.34,8.38-2.34,8.26-8.18-.2-10.32-.15-20.66-.2-31V734.93l3.17-.11c3.71,6.61.58,14.26,2,21.2-.13,7.59-.28,15.17-.39,22.76-.11,7.87-1.42,16.07,8.43,20.05,2,.8,4.07,4.2,4.14,6.46.35,11.88,8.07,11.64,16.46,10.74-.26,7.79,3.35,10.74,11.19,10.1a146.15,146.15,0,0,1,22.92,0c7.76.6,11.59-2,10.94-10.06,1.53,0,3.06.13,4.59.11,7.68-.12,15.8.19,15.46,10.53-.34,10.18-8.87,10.08-16.22,10.09q-68.37.15-136.75.06c-16.59,0-16.57,0-17.2,16.56a12.21,12.21,0,0,1-2.09,6.71c-4.07-8.89-1.85-18.47-2.67-27.68,1.36-8.55-2-17.7,3.15-27.66,3.16,7.44,1.51,13.5,2.06,19.33.24,2.53-.89,5.81,2.08,7.18,3.24,1.5,5.83-1,8.12-2.83,10.24-8.23,9.42-19.86-2.14-32.57,21.35-1.63,21.36-1.63,21.35-24C1040.36,766.63,1040.3,761.31,1040.27,756Z" transform="translate(-189.76 -12.27)" style="fill:#73daa6"/><path d="M992.28,825.12c-21.11.09-42.21.36-63.32.2-11.85-.08-18.35-6.24-17.62-16.37.78-10.79,7.9-13.76,17.57-13.66,23.41.24,46.81.25,70.22.34C988.92,803.62,986.89,813.51,992.28,825.12Z" transform="translate(-189.76 -12.27)" style="fill:#73daa6"/><path d="M1160.62,816.07c.65,8-3.18,10.66-10.94,10.06a146.15,146.15,0,0,0-22.92,0c-7.84.64-11.45-2.31-11.19-10.1q.36-13.71.73-27.43l43.66.17Zm-7.55-13.39c.44-3.36-.73-6-5.32-6.16-5.48-.13-5.83,3.42-5.78,7.55,0,3.77.68,6.77,5.41,6.84C1152.85,811,1153.29,807.41,1153.07,802.68Zm-18.8,1.6c.18-4.29-.67-7.72-6-7.66-4.17,0-5,2.66-5,6.1.08,3.83-.53,8,5.29,8.17C1133.26,811,1134.44,808.24,1134.27,804.28Z" transform="translate(-189.76 -12.27)" style="fill:#f8e76c"/><path d="M992.28,825.12c-5.39-11.61-3.36-21.5,6.85-29.49a30.38,30.38,0,0,1,19.88.27c11.56,12.71,12.38,24.34,2.14,32.57-2.29,1.85-4.88,4.33-8.12,2.83-3-1.37-1.84-4.65-2.08-7.18-.55-5.83,1.1-11.89-2.06-19.33-5.19,10-1.79,19.11-3.15,27.66C999.93,832.43,996.41,828.23,992.28,825.12Z" transform="translate(-189.76 -12.27)" style="fill:#f8e76c"/><path d="M1216,825.21c7.51.76,18.71-2.77,18.79,9.18.1,12.91-11.58,9-19.38,9.6a80.68,80.68,0,0,1-9.2,0c-6-.19-10.89-2.41-11-9.12s4.4-9.28,10.58-9.52c1.53-.06,3.06-.09,4.6-.14,1,2-.55,6,2.83,6S1215.06,827.26,1216,825.21Z" transform="translate(-189.76 -12.27)" style="fill:#73daa6"/><path d="M1216,825.21c-1,2,.63,6-2.79,6s-1.81-4-2.83-6q.07-25.46.14-50.91c1.22-7.51-.88-15.42,2.7-22.8,3.58,7.37,1.49,15.27,2.66,22.79Z" transform="translate(-189.76 -12.27)" style="fill:#f8e76c"/><path d="M1160,788.77l-43.66-.17-1.26-2.81a2.2,2.2,0,0,0,.72-1.36l44.89-.15Z" transform="translate(-189.76 -12.27)" style="fill:#c1ad70"/><path d="M529.16,594.3c0-2.78,0-5.57,0-8.35,13.23-2.57,20.48-11.32,24.31-23.59,5.69-11.15,4-18.38-4.68-20.14A49.48,49.48,0,0,0,533,531.16l.24-107.31c18.23-1.43,36.56,1.14,54.76-1.43,7.54.89,7.14,6.38,7.13,11.91q-.09,62.64,0,125.29c0,5.51-.69,11.17,7.77,10.46,5.29-.44,6.25,3,6.13,7.42-.17,5.75-.12,11.5-.17,17.24Zm54.3-51.92c-9-2.2-11.63,1.39-11.67,10.42,0,9.41,4.07,10.87,11.68,9.26C590.16,555.85,590.15,548.56,583.46,542.38Zm0-71.56c-5.82-1-11.35-2.39-11.56,6.94-.19,8.23.35,14.62,11.13,12.69C590.18,484.76,590.34,477.41,583.5,470.82Zm-.11-17.14c6.77-6.1,6.8-13.41.08-19.66-7.51-1.56-11.71-.26-11.68,9.16C571.81,452.17,574.47,455.73,583.39,453.68Zm.11,71.57c6.83-6.56,6.68-13.9-.4-19.63-9.48-1.72-11.31,3-11.25,11.51C571.91,526.54,576.67,526.8,583.5,525.25Zm-27-45.86c-1.56-3.08,2.5-9.56-5.36-9.81-7.25-.23-6.27,5.36-6,9.72s-2.49,11.06,5.78,11C558.41,490.2,555.55,484,556.52,479.39Zm-.16,36.31c-.51-4.36,1.5-10.23-5.91-10s-5.24,6.16-5.3,10.26-1.57,10,5.81,9.76C558.5,525.52,555.45,519.42,556.36,515.7Zm0-72.21c-.57-4.43,1.52-10.41-6.2-9.8-7.51.6-4.8,6.64-5,10.66-.23,4.27-1.5,10.13,6.08,9.56S555.23,447.11,556.38,443.49Z" transform="translate(-189.76 -12.27)" style="fill:#e9d973"/><path d="M533.23,423.85,533,531.16c-18.54-1.51-31.26,6.19-34.32,20.76-3.38,16.1,4.63,28,22.75,33.76q0,4.47,0,9H487c9.28-14,9.21-18.42-.47-31.66,9.54-4.38,3.89-12.36,4.11-18.76.07-2.28-3.49-2.2-5.76-2.16-2.64,0-4.33,1.23-4.49,4-.26,4.53-.38,9.07-.56,13.6l-13.62.72-.69-11.5V532.74c0-3.68,0-7.35,0-11V479.53c0-3.71,0-7.42,0-11.13l0-16c0-3.32,0-6.64,0-10l0-16.08c8.44-6.69,18.73-.68,27.66-4C506.46,424.93,519.92,422.35,533.23,423.85Zm-27.31,56.23c.82,3.86-2.13,9.76,5.32,10.33,6.87.52,7.33-4.28,6.85-9.06-.44-4.41,1.74-10.81-6.15-11.13C504.42,469.93,506.46,475.78,505.92,480.08ZM491.57,515.8c-.62-4.14,1.75-10.08-5.72-10.12s-5.58,5.92-5.53,10-2.15,10,5.44,10.08S490.93,519.9,491.57,515.8Zm0-35.39c-.85-3.78,2.08-9.81-5.43-10.16s-5.92,5.54-5.81,9.7-2.35,10,5.17,10.38S491.13,484.87,491.56,480.41Zm0-36.49c-1.09-3.66,2.35-9.68-5.21-10.28s-6.38,5.05-6.06,9.27-2.92,10.86,5.46,11C493.29,454.13,490.94,448.17,491.6,443.92Zm25.91,0c-1-3.69,2.21-9.67-5.24-10.28s-6.48,4.94-6.15,9.24-2.83,10.84,5.49,11.05C519,454.14,516.87,448.23,517.51,443.94Zm0,71.9c-.65-4.05,1.69-10-5.69-10.13s-5.75,5.71-5.69,9.88-2,10,5.41,10.2S516.93,520.11,517.48,515.84Z" transform="translate(-189.76 -12.27)" style="fill:#f8e76c"/><path d="M274.38,693.6c-5-5.51-9.71-11.22-11.84-18.56-1.42-17.91,4.64-30,18.08-36.1s25.66-3,38.11,9.5C320.27,650,321.26,653,324,652c17.48-6.49,24,13.12,37.72,15.8,2.69.53,3.42,4.79,4.09,7.82-1.86,5.41-1.19,8.91,5.8,8.44,4.55-.31,9.14.06,13.71-.05,6.8-.17,11.1,2.24,10.79,9.82-2.9,5.2-7.83,5.29-12.92,5.28-29.36,0-58.71-.16-88.06,0C287.54,699.23,281,696.64,274.38,693.6Z" transform="translate(-189.76 -12.27)" style="fill:#fcfdfd"/><path d="M356.87,555.35c.21,10.3.74,20.6.52,30.89-.15,6.5,2.24,8.64,8.66,8.55,21.78-.28,43.56-.11,65.33-.11l21.27.1,8.66-.24,9.55,3.1c.34,18,.34,18-17.82,18H345c-17.22,0-17.22,0-17.24-17.78,0-4.6,0-9.19-.06-13.79,14.55-4.8,18.73-11.3,18.1-28.09Z" transform="translate(-189.76 -12.27)" style="fill:#73daa6"/><path d="M521.42,585.68c-18.12-5.77-26.13-17.66-22.75-33.76,3.06-14.57,15.78-22.27,34.32-20.76a49.48,49.48,0,0,1,15.76,11.06,48.91,48.91,0,0,1,4.68,20.14c-3.83,12.27-11.08,21-24.31,23.59-.16-10.29-.25-20.58-.53-30.87-.08-2.85.83-7.21-3.29-7.35s-3.54,4.18-3.59,7.06C521.52,565.08,521.5,575.38,521.42,585.68Z" transform="translate(-189.76 -12.27)" style="fill:#369a68"/><path d="M529.16,594.3l79.64.44,3,.44a53.39,53.39,0,0,0-7.13,20.49l-21.58.08c-5.2-.1-10.39-.22-15.38,1.66-8-3.62-16.56-2.14-24.67-1.52-11.75.9-16.21-3.34-14.36-14.78C529,598.87,529,596.57,529.16,594.3Z" transform="translate(-189.76 -12.27)" style="fill:#73daa6"/><path d="M345.81,556c.63,16.79-3.55,23.29-18.1,28.09-2.46-9.86,1.41-20.59-4.31-32.61-4.23,12-1.63,22-2.58,31.74-5.45,1.19-9.11-2.59-13.34-4.8-10.09-18-4.54-34.65,12.75-37.62C332.87,538.59,340.16,546.05,345.81,556Z" transform="translate(-189.76 -12.27)" style="fill:#f8e76c"/><path d="M567.7,617.41c5-1.88,10.18-1.76,15.38-1.67,9.34,5.74,16.59,13,14.26,25-1.83,9.45-7.54,15.74-17.7,16.93-.12-8-.21-15.94-.37-23.91,0-2.25.05-5.25-2.91-5.21-2.66,0-3.1,2.88-3.17,5.2-.23,8-.4,15.92-.59,23.89-9.86-1.51-15.44-7.62-17.1-17.06C553.63,630,558.43,622.41,567.7,617.41Z" transform="translate(-189.76 -12.27)" style="fill:#f8e76c"/><path d="M470.86,597.64l-9.55-3.09c-6.08-7.24-7.74-15.51-5.76-24.64l10.68-9.59,13.62-.72,6.7,3.36c9.68,13.24,9.75,17.62.47,31.66l-9.2,3c-.12-6.88-.19-13.76-.4-20.64-.06-2-.88-4.11-3.09-4.11s-3,2.12-3.08,4.12C471.05,583.88,471,590.76,470.86,597.64Z" transform="translate(-189.76 -12.27)" style="fill:#369a68"/><path d="M477.82,597.64l9.2-3h34.39c.67,25.22,1,20.5-20.24,21-1.9,0-3.8,0-5.71,0C477.47,615.61,477.47,615.61,477.82,597.64Z" transform="translate(-189.76 -12.27)" style="fill:#73daa6"/><path d="M572.6,657.66c.19-8,.36-15.93.59-23.89.07-2.32.51-5.17,3.17-5.2,3,0,2.87,3,2.91,5.21.16,8,.25,15.94.37,23.9l0,18.23c-2,4.37,2.78,13.08-4.37,12.93-5.28-.11-1.8-8.44-2.74-13Q572.54,666.75,572.6,657.66Z" transform="translate(-189.76 -12.27)" style="fill:#99e8fc"/><path d="M307.48,578.38c4.23,2.21,7.89,6,13.34,4.8v26.25C306.6,602.21,306.29,590.62,307.48,578.38Z" transform="translate(-189.76 -12.27)" style="fill:#73daa6"/><path d="M400.33,657.05c-2.63-.64-7.12,1-6.28-4.14.53-3.24,1.85-7.89,5.44-8,5.12-.13,6.37,5.28,6.88,9.12C406.92,658.19,402.64,656.41,400.33,657.05Z" transform="translate(-189.76 -12.27)" style="fill:#73daa6"/><path d="M375.31,657.18c-2.89-.69-7,.67-5.8-3.86.93-3.51,2.08-8.61,6.42-8.45s5.76,5.16,5.89,8.76C382,658.53,377.17,655.89,375.31,657.18Z" transform="translate(-189.76 -12.27)" style="fill:#73daa6"/><path d="M475.39,675.53H459.51c2.41-4.18,3.39-9.31,7.94-12.31C472,666.23,473,671.34,475.39,675.53Z" transform="translate(-189.76 -12.27)" style="fill:#73daa6"/><path d="M450.59,675.73l-14.27-.14a5.69,5.69,0,0,1,.22-1.09c1.66-4.07,3.41-10.32,7.28-10.1C448.73,664.69,449.84,670.92,450.59,675.73Z" transform="translate(-189.76 -12.27)" style="fill:#73daa6"/><path d="M395.09,675.69H380.76c1.42-4.21,1.93-10.32,7.16-10.31S393.68,671.47,395.09,675.69Z" transform="translate(-189.76 -12.27)" style="fill:#73daa6"/><path d="M498.58,675.59l-14.27.13c1.17-4.46,2.77-8.7,6.39-12.25C495,666.52,497.28,670.73,498.58,675.59Z" transform="translate(-189.76 -12.27)" style="fill:#73daa6"/><path d="M964.22,424.06l2.87.05c14.43,20.72,35.4,20.73,49.83,0l2.73,0q0,37.11-.08,74.22c-7.91,1.91-19.49-2.84-20.57,11.39a121.56,121.56,0,0,1-27.76,0c.7-5.64-3-8.41-7.09-10.93Z" transform="translate(-189.76 -12.27)" style="fill:#e4cf92"/><path d="M1116.41,424.21q-.09,32.07-.17,64.15c-25.93-22.43-50.94-16.36-63.84,15.48l-.42-79.67Z" transform="translate(-189.76 -12.27)" style="fill:#f8edcc"/><path d="M1052,424.17l.42,79.67c.06,1.93.11,3.87.17,5.8a52.19,52.19,0,0,1-19,0c.37-10-7.21-10.19-14-11.33q0-37.11.08-74.22Z" transform="translate(-189.76 -12.27)" style="fill:#f6de9f"/><path d="M897.25,329.46c0-5,.18-9.95.09-14.92-.11-6.06-.17-10.83,8.67-7.41,6.44,2.49,5.15-3.78,5.21-7.06q.35-18.93.06-37.87c-.12-7.5,2.46-8.16,9-5.36,11.27,4.85,17.37,11.25,16.6,25-1.29,22.88-.32,45.89-.3,68.84-5.92,4.35-9.91.7-13.52-3.48C916,339,907.67,332.71,897.25,329.46Z" transform="translate(-189.76 -12.27)" style="fill:#f8edcc"/><path d="M964.22,424.06q0,37.33-.07,74.66c-9.61-.88-20.51,4.22-28.09-6.06l.45-68.79Z" transform="translate(-189.76 -12.27)" style="fill:#f6de9f"/><path d="M936.51,423.87l-.45,68.79-9-1.14c-2.25-20.48-11.24-37.83-24.64-53.14-.71-1.41-1.66-1.58-2.83-.51-3.87-4.44-1.27-10-2.67-14.92C910.11,422.15,923.37,420.47,936.51,423.87Z" transform="translate(-189.76 -12.27)" style="fill:#f8edcc"/><path d="M867.54,477.23q-.09-28.75-.17-57.51l21.34,3.17,0,24.83c-1.93,10.92-8.29,20-12.34,30.09Z" transform="translate(-189.76 -12.27)" style="fill:#f8edcc"/><path d="M1016.92,424.12c-14.43,20.72-35.4,20.71-49.83,0Z" transform="translate(-189.76 -12.27)" style="fill:#afeefe"/><path d="M888.75,447.72q0-12.42,0-24.83l8.17.05c1.4,4.89-1.2,10.49,2.67,14.93C897.05,442.36,893.85,446.09,888.75,447.72Z" transform="translate(-189.76 -12.27)" style="fill:#f6de9f"/><path d="M1033.59,509.63a52.19,52.19,0,0,0,19,0l33.61,0h37.08l18.4.91c-5.26,14.05-3.31,19.22,9.28,24.61.06,1.52.13,3,.15,4.55.22,17-4.33,19.85-21.4,13.22,4.94-13.36-1.26-24-8.52-34.3-1.46-2.07-3.06-1.54-4.51.15-9,7.35-13.25,17-11.41,28.34,1.21,7.4-1.44,8.68-7.68,8.47-8-.27-16.11-.17-24.16,0-14.62.28-24.17,6.56-28.52,20.4-2.41,7.7-6.3,9.83-14,9.79-61-.29-122-.15-183-.16-14.91,0-14.92,0-14.92-15.35,0-4.22,0-8.44.08-12.66,12.69-3.58,18.61-11.17,17-21.77A19.67,19.67,0,0,0,831,519a19.18,19.18,0,0,0-19.19,16.38c-1.6,11.22,3.43,18.11,16.31,22.29.42,28,.42,28-28,27.93-4.17,0-8.33-.07-12.5-.11-3.09-7.66-10.29-8.39-16.93-10.07l-.3-7c-9.36-9.58-26.17-8.85-29.86,1.29l.17-.2c-2.32,2.88-2.25,7.46-7.62,8.22a7.39,7.39,0,0,0-6.35,8c-4.25-.19-7.64-.33-9.33-6-5.37-18-14-24.09-32.31-24.21-6.87,0-13.74-.11-20.61-.17-.08-1.42-.17-2.85-.26-4.28q-.07-12.54-.14-25.09l-1.72-5.2c3.07-3,1.71-7,2.42-10.46l18.16-.72,140.68.08a44.61,44.61,0,0,0,16.21,0l41.3,0a66.93,66.93,0,0,0,21,0l18.67-.17,50.42.14a121.56,121.56,0,0,0,27.76,0ZM904.67,539.54v.07c-9.56,0-19.11,0-28.66,0-2.29,0-5.14.3-5.19,3.2s2.72,3.35,5,3.36q27.51.09,55,0c2.71,0,6.25-.38,6.34-3.51.11-3.68-3.68-3.1-6.2-3.14C922.24,539.47,913.45,539.54,904.67,539.54ZM737.54,528.08v.1c-7.24,0-14.48,0-21.71,0-2,0-4,.84-4.07,3.11s2,3.26,3.91,3.27q21.15.07,42.28-.12c2,0,4.14-1.23,4.12-3.24,0-3-2.84-3.11-5.09-3.13C750.5,528,744,528.08,737.54,528.08Zm16.07,11.35c-3.07.81-8.42-1.54-8.71,2.71-.37,5.42,5.3,3.91,8.72,4.08,3.26.16,8.35.62,8.31-3.57C761.88,537.92,756.61,540.25,753.61,539.43Z" transform="translate(-189.76 -12.27)" style="fill:#34cb99"/><path d="M664.24,551.05c.09,1.43.18,2.86.26,4.28l-.3,2.46c-27.8.44-27.8.44-27.34,25.63-9.56,1.34-18.12,4.84-25.07,11.76l-3-.44c.05-5.74,0-11.49.17-17.24.12-4.38-.84-7.86-6.13-7.42-8.46.71-7.78-5-7.77-10.46q.06-62.64,0-125.29c0-5.53.41-11-7.12-11.91l-.24-6.91a45.34,45.34,0,0,1,6.87-.32c6.93.71,10.27-1.08,10.24-9.21s-3.21-10-10.23-9.28a44.17,44.17,0,0,1-6.87-.34c.06-13.61.08-27.21.19-40.82,0-4.08-.73-8.7,5.19-9.67.23,5.37,1.44,9.61,8.37,9a82,82,0,0,1,13.48,0c6.88.53,8.3-3.38,8-9h7c-.9,6.42,2,9.87,8.28,8.49,6.89-1.5,18.15,6.17,19.28-8.49,9.77,4,3.46,12.92,5.95,19.15-4.17.08-8.4.71-12.48.15-11.41-1.57-14.84,2.67-14.8,14.37,0,11.53,4.81,13.38,14.25,12.61,4.47-.37,9,.46,13.55.75,0,1.61-.09,3.23-.13,4.85-4.9.27-9.88,1.21-14.7.65-10.25-1.18-12.88,3.13-12.83,12.93.05,9.55,2.11,14.42,12.6,12.93,4.47-.63,9.09-.16,13.63-.18.18,1.75.35,3.51.52,5.26-4.2,0-8.47.52-12.6,0-11.11-1.53-14,3-14.27,14-.28,12.24,5,14.29,15,13.15,3.78-.44,7.64-.09,11.46-.1l.21,5.19-9.18,0c-17.81,0-17.54,0-17.17,17.53.14,6.72,2.06,10,9.2,9.5,5.72-.38,11.47-.07,17.21-.07-.1,1.73-.2,3.47-.31,5.2-4.22,0-8.51.43-12.66-.14-10.61-1.47-13.54,2.79-13.71,13.34-.19,11.48,3.74,15.23,14.55,13.78,3.76-.5,7.66.06,11.5.14l1.72,5.2c-5-.07-10,.35-14.87-.32-10.41-1.43-12.82,3.11-12.84,12.92s2.72,14.26,13,12.91C654.26,550.83,659.28,551.16,664.24,551.05Z" transform="translate(-189.76 -12.27)" style="fill:#4daec6"/><path d="M823.64,509.66,683,509.58c-.09-9.2,4.88-15.57,13.59-14.63,12.9,1.4,17.46-4.79,19.27-15.68,6.17-6.4,14-8.49,22.55-8.89h20.7l6.87,0a47.37,47.37,0,0,1,16.1,4.81c1.36,1.8,3.66,3.47,3.93,5.43,2.38,17,14.65,14.26,26,13.44C819.12,496.86,824.35,501.05,823.64,509.66Z" transform="translate(-189.76 -12.27)" style="fill:#369a68"/><path d="M456.79,414.82q-.29-7.85-.56-15.67c3.49-3.44,7.92-1.67,11.95-2.19,2.23-.29,6.28-.37,6.39-1.08,2.05-12,11.79-7.53,18.68-9l35.3.8c-.63,9-3.39,17.87-2.35,27.05l-33,.77Z" transform="translate(-189.76 -12.27)" style="fill:#f8e76c"/><path d="M526.2,414.7c-1-9.18,1.72-18,2.35-27.05,5-.11,10.19.76,14.8-.55,8.92-2.56,6.61,8.71,11.67,8.91,5.32.2,2.77-12.08,11.61-8.76a14,14,0,0,0,3.4.39c-.74,7.11,2.79,9.68,9.46,8.89l8.29-.17a44,44,0,0,0,6.86.34c7-.74,10.2,1.25,10.23,9.28s-3.31,9.92-10.24,9.21a45.34,45.34,0,0,0-6.87.32Z" transform="translate(-189.76 -12.27)" style="fill:#e9d973"/><path d="M663,488.44c-5.74,0-11.49-.31-17.21.07-7.14.48-9.06-2.78-9.2-9.5-.37-17.54-.64-17.53,17.17-17.53l9.18,0A49.13,49.13,0,0,1,663,488.44Z" transform="translate(-189.76 -12.27)" style="fill:#99e8fc"/><path d="M662.38,520.76c-3.84-.08-7.74-.64-11.5-.14-10.81,1.45-14.74-2.3-14.55-13.78.17-10.55,3.1-14.81,13.71-13.34,4.15.57,8.44.12,12.66.14,3.32,5.23,1.17,11.13,2.1,16.66C664.09,513.81,665.45,517.8,662.38,520.76Z" transform="translate(-189.76 -12.27)" style="fill:#99e8fc"/><path d="M664.07,392.9c-4.52-.29-9.08-1.12-13.55-.75-9.44.77-14.22-1.08-14.25-12.61,0-11.7,3.39-15.94,14.8-14.37,4.08.56,8.31-.07,12.48-.15C665.5,374.28,664.48,383.59,664.07,392.9Z" transform="translate(-189.76 -12.27)" style="fill:#99e8fc"/><path d="M662.74,456.31c-3.82,0-7.68-.34-11.46.1-10,1.14-15.27-.91-15-13.15.26-11,3.16-15.5,14.27-14,4.13.57,8.4.06,12.6,0C665.2,438.36,665.81,447.36,662.74,456.31Z" transform="translate(-189.76 -12.27)" style="fill:#99e8fc"/><path d="M662.64,424.08c-4.54,0-9.16-.45-13.63.18-10.49,1.49-12.55-3.38-12.6-12.93,0-9.8,2.58-14.11,12.83-12.93,4.82.56,9.8-.38,14.7-.65C664.23,406.56,666.28,415.46,662.64,424.08Z" transform="translate(-189.76 -12.27)" style="fill:#99e8fc"/><path d="M623,345.87c.29,5.63-1.13,9.54-8,9a82,82,0,0,0-13.48,0c-6.93.59-8.14-3.65-8.37-9Z" transform="translate(-189.76 -12.27)" style="fill:#99e8fc"/><path d="M657.6,345.87c-1.13,14.66-12.39,7-19.28,8.49-6.33,1.38-9.18-2.07-8.28-8.49Z" transform="translate(-189.76 -12.27)" style="fill:#99e8fc"/><path d="M579.49,396.53c-6.67.79-10.2-1.78-9.46-8.89,9.48-1.65,1.25-11.9,9.46-16.67Z" transform="translate(-189.76 -12.27)" style="fill:#f8e76c"/><path d="M528.75,758.55c-3.08-5.18-6.26-10.31-9.18-15.58-1.53-2.78-4.07-5.44.08-8.74s-.45-6-1.68-8.71c-2-4.44-4.5-8.67-6.78-13,40.11-.07,80.22.2,120.31-.38,18.52-.27,32.57,6.43,42.45,22-5,15.3-17.1,21.61-31.6,24.86-15-13.83-15-13.83-30.76.14l-37.14-.06c1.42-4.39,2.4-8.35-1-12.81-4.09-5.43-7.28-11.59-10.44-17.66-3.36-6.43-6.19-8.41-10.11-.39-2.5,5.11-5.7,9.88-8.58,14.81-3,5.1-7.56,9.85-3.83,16.51Z" transform="translate(-189.76 -12.27)" style="fill:#6fd7f1"/><path d="M540.52,759.54c-3.73-6.66.85-11.41,3.83-16.51,2.88-4.93,6.08-9.7,8.58-14.81,3.92-8,6.75-6,10.11.39,3.16,6.07,6.35,12.23,10.44,17.66,3.37,4.46,2.39,8.42,1,12.81,9,17.93,9,17.93-11.24,18-.75,0-1.51,0-2.26,0-2-7.29,2.08-15.55-3.47-23.68-3.39,8.56-.59,16.33-2.35,23.63h-3.37C532.61,777.08,532.61,777.08,540.52,759.54Z" transform="translate(-189.76 -12.27)" style="fill:#369a68"/><path d="M493.54,762.73c.15-8.37.27-16.74.48-25.11.05-1.89.21-4.17,2.57-4.45,3-.35,3.7,2.16,3.79,4.44.31,8.37.45,16.74.65,25.1q0,31.26.08,62.54c-1.12,3.17,1,9-3.94,8.9s-2.53-5.85-3.69-9Z" transform="translate(-189.76 -12.27)" style="fill:#e9d973"/><path d="M493.48,825.16c1.16,3.14-1.27,8.93,3.69,9s2.82-5.73,3.94-8.9c4.16.32,8.58-.82,12.4,1.54s3.82,6.39,3.33,10.28c-.56,4.55-3.58,6.65-7.91,6.77-6.52.19-13.05.15-19.57.18-5.75,0-11.25-.68-11.39-8.14-.13-7.11,4.09-10.31,10.91-10.55Z" transform="translate(-189.76 -12.27)" style="fill:#73daa6"/><path d="M555.13,777.12c1.76-7.3-1-15.07,2.35-23.63,5.55,8.13,1.45,16.39,3.47,23.67q0,19.5,0,39c-1.42,6.17,1.33,12.79-2.05,18.74l-2.48-.24q-.63-9.28-1.27-18.58Z" transform="translate(-189.76 -12.27)" style="fill:#f8e76c"/><path d="M692.53,883.6l57.12.12c-.33,15.92-10.42,17.48-23,15.95-4.53-.55-9.18,0-13.77-.1-5.74-.06-12.26,1.49-17-.72C690.23,896.22,695.75,888.39,692.53,883.6Z" transform="translate(-189.76 -12.27)" style="fill:#c1ad70"/><path d="M1086.18,509.61l-33.61,0c-.06-1.93-.11-3.87-.17-5.8,12.9-31.84,37.91-37.91,63.84-15.48,4.09,6.5,5.36,13.94,7,21.25h-32.74c-.68-4.92,2.92-8,5.07-11.66l2.14-.26-.48-1.05-1.53,1.46c-8.38-1.81.16-12.59-8.34-14.81C1084.74,492,1081.23,500.51,1086.18,509.61Z" transform="translate(-189.76 -12.27)" style="fill:#369a68"/><path d="M1177.92,509.92c3.63,8.46,8.78,15,19,15.3.18,30.33.18,30.33-26,30.28-15.27,0-15.27,0-15.23-14.82,0-1.9,0-3.81,0-5.71,13.33-4.18,15.77-10.14,10-24.37Z" transform="translate(-189.76 -12.27)" style="fill:#34cb99"/><path d="M1165.67,510.6c5.79,14.23,3.35,20.19-10,24.37-.51-6.16,1.07-12.51-1.43-19.61-4,6.93-.44,13.87-3.32,19.77-12.59-5.39-14.54-10.56-9.28-24.61C1149.69,503.86,1157.69,503.69,1165.67,510.6Z" transform="translate(-189.76 -12.27)" style="fill:#f8e76c"/><path d="M759.07,470.37H747.58q0-59.83,0-119.68c0-7.19-.66-14.29,10.13-7.54,6.43,4,5.81-2,5.87-5.47.2-11.5-.31-23,.29-34.51.23-4.23-3.65-12.27,3.18-12.15,6.43.12,14.49,4,15,13.14.45,8,.15,16.11.16,24.16q0,11.51,0,23c0,4.63-.13,8.76-7,6.3-5.09-1.84-4.53,2.48-4.57,5.35-.13,8.44,0,16.88-.11,25.32,0,2.55.2,7.32-2.55,6.63-14-3.53-8.5,7.25-8.63,12.14C758.76,428.17,759.07,449.27,759.07,470.37Z" transform="translate(-189.76 -12.27)" style="fill:#f8edcc"/><path d="M782,475.21a47.37,47.37,0,0,0-16.1-4.81c0-18.75-.08-37.5.07-56.25,0-4.15-1.78-9.51,6-9.66,4.15-.07,3.19-4.54,3.25-7.4.16-7.65,0-15.31.14-23,0-2.15-.46-5.29,2.53-5.58,3.67-.34,3.76,3.06,4.08,5.64a45.7,45.7,0,0,1,.15,5.74Q782.11,427.57,782,475.21Z" transform="translate(-189.76 -12.27)" style="fill:#f8edcc"/><path d="M1152.81,898.93c-6.47,0-13,.12-19.42,0-3.1-.08-6.57-.76-6.76-4.63-.22-4.49,3.65-4.19,6.57-4.22q20-.15,40,0c2.92,0,6.79-.34,6.77,4.05,0,3.91-3.48,4.7-6.59,4.78C1166.52,899.05,1159.66,898.93,1152.81,898.93Z" transform="translate(-189.76 -12.27)" style="fill:#e4cf92"/><path d="M1198,899c-3-.36-6.63-.6-6.41-4.69s3.84-4.17,6.9-4.14,6.67.46,6.45,4.57S1201.1,898.72,1198,899Z" transform="translate(-189.76 -12.27)" style="fill:#e4cf92"/><path d="M1081.72,756.14c0,10.32,0,20.66.2,31,.12,5.84-2.47,8.52-8.26,8.18-.38,0-.77,0-1.15,0-33.56-.38-26.77,3.93-27.52-25.62-.11-4.59,0-9.18.08-13.77L1068,756Z" transform="translate(-189.76 -12.27)" style="fill:#34cb99"/><path d="M1362.43,675.52c.23-8.92-2.85-18.2,2.94-28,5.81,9.86,3.41,19.07,3,28Z" transform="translate(-189.76 -12.27)" style="fill:#e9d973"/><path d="M642.35,759c14.5-3.25,26.59-9.56,31.6-24.87,2.78-2.76,2.57-6.49,3.22-10,4.35-24.88-10.8-44.19-36.95-47.06a166.12,166.12,0,0,1-.08-33.22c17.17-1.6,23-14,26.75-28.26l313,0c16.67,0,16.63,0,16.75,17,0,4.59.42,9.18.65,13.77-1.23,31.71,1,29.55-32.14,29.53-7.24,0-14.47-.23-21.7-.35-.45-1.87-.88-3.74-1.36-5.59-5-19.33-20-30.37-38.51-29-14.25,1.06-32.72,18.62-31.53,34.5h-9.43c-1.42-21.63-11.75-37.22-32.38-44.35-21.65-7.49-39.77-.47-54.62,16.25-4.38-7.39-7.36-15.71-14.27-21.42-11.8,7.41-16.05,19.49-18.19,32-2.48,14.64,2.3,18.77,17.52,17.43a32.54,32.54,0,0,0,14.13.19l33.39.67a2.62,2.62,0,0,0-1.07,1.42c-16.71,7.81-24.62,20.91-21.6,35.73,3.4,16.65,15.74,26,34.9,26.45,2.66.06,5.31.23,8,.35-7.26,15.94-7.26,15.94,11.32,15.79,1.5,0,3-.08,4.5-.12.09,9.54-.24,19.11.39,28.62.58,8.87-3.4,11.23-11.52,10.91-12.21-.49-24.44-.18-36.66-.2q-.36-8-.7-15.93l.3-6.21c2.13-1.7,11.59,1.77,4.81-6.19C793,757.65,784.28,749,776.13,740c-4.62-5.12-8.72-5.12-13.33,0-8.16,9.06-16.82,17.68-24.72,26.95-6.77,8,2.69,4.49,4.82,6.2l.29,6.2q-.35,8-.7,15.93l-16.92,0-.54-8.33c3.46-7.85-4.91-9.07-7.75-13.28-1.85-2.74-5.41-7.74-9-3.74-4.55,5.1-14.27,7.06-12,17l-.54,8.33-46.17.06q-.37-8.12-.77-16.25l.51-4.09c2.91-.8,6.42-1.19,2.49-5.32C648.56,766.22,645.5,762.56,642.35,759Z" transform="translate(-189.76 -12.27)" style="fill:#34cb99"/><path d="M677.17,724.18c-.65,3.46-.44,7.19-3.22,10-9.88-15.56-23.93-22.26-42.45-22-40.09.58-80.2.31-120.31.38-3.7-5.24-10.74-11.61-8.36-16.42,2.65-5.34,11.78-2.06,18-2.1,36.76-.23,73.52.25,110.27-.24C653.79,693.45,669.26,702.77,677.17,724.18Z" transform="translate(-189.76 -12.27)" style="fill:#c1ad70"/><path d="M579.61,675.91l0-18.23c10.16-1.18,15.87-7.47,17.7-16.92,2.33-12.06-4.92-19.28-14.26-25l21.58-.08q3.75,23.76,26.91,28.27a175.19,175.19,0,0,1-.1,32Z" transform="translate(-189.76 -12.27)" style="fill:#34cb99"/><path d="M631.47,675.91a175.19,175.19,0,0,0,.1-32c.12-11.82.18-23.63.4-35.43,0-3-.14-6.77,4.4-6.32,3.55.35,3.28,3.73,3.33,6.3.22,11.81.3,23.61.44,35.42a166.12,166.12,0,0,0,.08,33.22c-.09.76-.12,1.52-.28,2.26-.91,4.1,1.54,11.29-4.61,11-5.75-.24-2.22-7.26-3.35-11.13A23.62,23.62,0,0,1,631.47,675.91Z" transform="translate(-189.76 -12.27)" style="fill:#99e8fc"/><path d="M1329.63,152.9c-.7-4.79-1.89-9.18.17-14C1331.61,144.18,1330.65,148.77,1329.63,152.9Z" transform="translate(-189.76 -12.27)" style="fill:#f8edcc"/><path d="M1374.65,126.86l1.3,1.74c-1.93.54-.78-1.23-1.3-1.74Z" transform="translate(-189.76 -12.27)" style="fill:#f8edcc"/><path d="M1326.24,129.15l1.32,1.75c-1.94.57-.79-1.23-1.33-1.73Z" transform="translate(-189.76 -12.27)" style="fill:#f8edcc"/><polygon points="1175.26 104.16 1175.94 103.94 1175.84 104.55 1175.26 104.16" style="fill:#f8edcc"/><path d="M1326.23,129.17q-1.15-2.31-2.29-4.62h0l2.31,4.59Z" transform="translate(-189.76 -12.27)" style="fill:#f8edcc"/><path d="M1372.34,124.56l2.31,2.3h0l-2.3-2.31Z" transform="translate(-189.76 -12.27)" style="fill:#f8edcc"/><path d="M466.23,560.32q-5.34,4.8-10.69,9.59c-6.46,7.65-1.87,16.59-2.89,24.87l-21.27-.1c.08-44.66,0-89.32.33-134,.1-13.48-10.61-5.51-15.66-8.64-1.2-7.67,2.45-9.94,9.69-9.74,13.27.38,26.55.1,39.83.09,0,3.32,0,6.64,0,10-6.61.77-16.74-3.72-15.15,9.59,1.25,10.46,9.87,4.75,15.12,6.44,0,3.71,0,7.42,0,11.13-5.91,1.4-15.76-4.26-15.23,8.6.48,11.92,9.7,5.91,15.23,7.49,0,3.67,0,7.34,0,11-5.54,1.8-15.59-4.07-15,8.11.49,11,9.8,5,15,7,0,3.67,0,7.34,0,11-6,1.3-15.74-4.2-15.23,8.62.47,12,9.76,5.78,15.23,7.46Z" transform="translate(-189.76 -12.27)" style="fill:#4daec6"/><path d="M401.7,563.22c4.57,0,9.14.07,13.71,0,4.74-.11,6.91,1.89,6.81,6.81-.09,4.27-1.79,6.34-6.1,6.32q-14.28-.08-28.56,0c-4.19,0-6.16-1.8-6.26-6.18-.12-4.84,1.87-7,6.69-6.93C392.56,563.29,397.13,563.22,401.7,563.22Z" transform="translate(-189.76 -12.27)" style="fill:#f6de9f"/><path d="M401.78,493.81c4.59,0,9.18.11,13.76,0,4.9-.14,6.77,2.13,6.68,6.94-.07,4.33-1.83,6.29-6.15,6.26q-14.34-.09-28.66,0c-4.36,0-6-2-6.12-6.3-.08-4.84,1.85-7.05,6.74-6.9C392.61,493.92,397.2,493.81,401.78,493.81Z" transform="translate(-189.76 -12.27)" style="fill:#f6de9f"/><path d="M400.64,553.22c-4.19,0-8.39-.1-12.58,0-4.81.14-6.86-2-6.76-6.85.09-4.29,1.86-6.31,6.15-6.29q14.3.06,28.59,0c4.26,0,6.09,1.95,6.17,6.26.1,4.84-1.85,7-6.7,6.9S405.6,553.22,400.64,553.22Z" transform="translate(-189.76 -12.27)" style="fill:#f6de9f"/><path d="M401.81,530.11c-4.59,0-9.17-.11-13.75,0-4.82.15-6.88-1.94-6.77-6.84.1-4.25,1.75-6.36,6.11-6.33q14.31.07,28.63,0c4.28,0,6.1,1.92,6.19,6.25.09,4.81-1.77,7.08-6.67,6.94C411,530,406.39,530.11,401.81,530.11Z" transform="translate(-189.76 -12.27)" style="fill:#f6de9f"/><path d="M400.75,483.86c-4.59,0-9.18-.05-13.77,0s-5.64-2.74-5.66-6.72c0-4.17,1.48-6.48,5.95-6.45q14.36.09,28.71,0c4.27,0,6.16,1.82,6.24,6.2.09,4.72-1.51,7.22-6.54,7.07s-9.95,0-14.93,0Z" transform="translate(-189.76 -12.27)" style="fill:#f6de9f"/><path d="M372.24,529.81c-4.23.26-5.07-2.46-5-5.82,0-3-.2-6.39,4.14-6.71,4.16-.3,5.09,2.45,5,5.83C376.36,526.13,376.58,529.42,372.24,529.81Z" transform="translate(-189.76 -12.27)" style="fill:#f6de9f"/><path d="M371.32,540.37c4.73.21,5.1,3.17,5.09,6.36s-.43,6.19-4.69,6.16-4.48-3.17-4.52-6.29S367.7,540.51,371.32,540.37Z" transform="translate(-189.76 -12.27)" style="fill:#f6de9f"/><path d="M376.43,569.54c-.1,4.13-1.08,6.78-5.16,6.42-4.29-.38-4-3.74-4.06-6.71-.08-3.43,1.06-6,5.09-5.67S376.34,567.26,376.43,569.54Z" transform="translate(-189.76 -12.27)" style="fill:#f6de9f"/><path d="M376.43,500c-.19,3,.18,6.39-4.22,6.7-4.24.29-5-2.51-5-5.86.05-3-.25-6.4,4.17-6.7C375.6,493.83,376.37,496.62,376.43,500Z" transform="translate(-189.76 -12.27)" style="fill:#f6de9f"/><path d="M376.44,476.73c-.09,4.07-.55,7.06-4.89,6.88s-4.32-3.49-4.34-6.57c0-3.25.46-6.25,4.83-6.08S376.14,474.55,376.44,476.73Z" transform="translate(-189.76 -12.27)" style="fill:#f6de9f"/><path d="M881.15,509.71l-41.3,0c-.35-25.2,4.19-30.52,27.68-32.44l8.87.58C875.83,488.76,874.65,499.81,881.15,509.71Z" transform="translate(-189.76 -12.27)" style="fill:#369a68"/><path d="M456.79,414.82l36.45.65q0,3.42,0,6.86c-8.93,3.32-19.22-2.69-27.66,4-13.34,0-26.68.14-40,0-3.91,0-9.14,1.29-9.36-5.26-.24-7.42,5.51-5.86,9.77-6C436.22,414.9,446.51,414.91,456.79,414.82Z" transform="translate(-189.76 -12.27)" style="fill:#4daec6"/><path d="M1115.76,784.43a2.2,2.2,0,0,1-.72,1.36,1.24,1.24,0,0,1-.59-1.17A1.37,1.37,0,0,1,1115.76,784.43Z" transform="translate(-189.76 -12.27)" style="fill:#73daa6"/><path d="M1151.71,778.55h-26.22C1136.52,761.87,1138.25,761.82,1151.71,778.55Z" transform="translate(-189.76 -12.27)" style="fill:#e4cf92"/><path d="M640.14,643.9c-.14-11.81-.22-23.61-.44-35.42-.05-2.57.22-6-3.33-6.3-4.54-.45-4.35,3.37-4.4,6.32-.22,11.8-.28,23.61-.4,35.43q-23.19-4.54-26.91-28.27a53.4,53.4,0,0,1,7.13-20.48c7-6.92,15.51-10.42,25.07-11.76l4.65.56a54.19,54.19,0,0,1,18.29,11.11c3.77,6.36,6.64,13,7.09,20.55C663.13,629.94,657.31,642.3,640.14,643.9Z" transform="translate(-189.76 -12.27)" style="fill:#f8e76c"/><path d="M828.14,557.64c-12.88-4.18-17.91-11.07-16.31-22.29A19.18,19.18,0,0,1,831,519a19.67,19.67,0,0,1,19,16.82c1.65,10.6-4.27,18.19-17,21.77-.51-8.66,1.51-17.55-2.38-29.34C826.82,540,828.93,549,828.14,557.64Z" transform="translate(-189.76 -12.27)" style="fill:#f8e76c"/><path d="M726.75,585.7a7.39,7.39,0,0,1,6.35-8c5.37-.76,5.3-5.34,7.62-8.22-.58,5.31,1.62,7.77,7.1,7.1,2.68-.32,4.44-1.55,3.62-4.32-1.73-5.87-5.68-4.77-9.78-2.73a4,4,0,0,1-1.11.15c3.69-10.14,20.5-10.87,29.85-1.3-5.53-.1-14-4.35-14.88,4.1-.75,7.38,8.16,2.69,12.29,4.71,4.64,4.55,5.89,9.56,2.06,15.26-11.53,2.13-23-.69-34.58-.06C730.43,592.66,727.26,590.92,726.75,585.7Z" transform="translate(-189.76 -12.27)" style="fill:#f8e76c"/><path d="M641.51,584l-4.65-.56c-.46-25.19-.46-25.19,27.34-25.63v25.87Z" transform="translate(-189.76 -12.27)" style="fill:#99e8fc"/><path d="M1116.66,518.75c1.45-1.69,3-2.22,4.51-.15,7.26,10.32,13.46,20.94,8.52,34.3-9,4.75-12.55,1.68-12.42-8C1117.39,536.17,1116.89,527.46,1116.66,518.75Z" transform="translate(-189.76 -12.27)" style="fill:#f8e76c"/><path d="M769.87,592.45c3.83-5.7,2.58-10.71-2.06-15.26l2.9-1.8c6.64,1.68,13.84,2.41,16.93,10.07C783.19,591.53,778.89,598,769.87,592.45Z" transform="translate(-189.76 -12.27)" style="fill:#c1ad70"/><path d="M1110.25,597c-2.81-.53-7.39.5-6-4.39,1.07-3.66,2-9.74,6.8-9.2,4,.46,5.84,6.11,6.1,10.12C1117.48,598.23,1112.85,596.3,1110.25,597Z" transform="translate(-189.76 -12.27)" style="fill:#34cb99"/><path d="M1086.12,582.62c4.27,1.5,5,5.52,6.2,8.85,1.52,4.25-1.66,5.29-5,5.33-2.88,0-6.94.67-6.95-3.61C1080.4,589.07,1082.54,585.35,1086.12,582.62Z" transform="translate(-189.76 -12.27)" style="fill:#34cb99"/><path d="M641.51,584l22.69-.32c-.22,4.29,1.89,9.47-4.4,11.43A54.19,54.19,0,0,0,641.51,584Z" transform="translate(-189.76 -12.27)" style="fill:#4daec6"/><path d="M1434.74,578.76c-2.83,6.15-10.06,1.53-15.29,6.8,6.69,0,11.86,0,17,0s9.56,1.1,9.19,7.38c-.36,6.11-5.57,3.44-8.86,4.27-10,2.5-15.32-4.17-20.7-10.48-3.09-3.62-1.08-6.29,2.44-8.24Z" transform="translate(-189.76 -12.27)" style="fill:#fcfdfd"/><path d="M1434.74,578.76l-16.19-.29c.06-2.58-8.36-1.6-2.74-6.52,5.94,3.91,12.61,1.31,18.9,2.13l-.07-.07v4.84Z" transform="translate(-189.76 -12.27)" style="fill:#99e8fc"/><path d="M1434.71,574.08c-6.29-.82-13,1.78-18.9-2.13C1422.7,567.48,1428.84,569.58,1434.71,574.08Z" transform="translate(-189.76 -12.27)" style="fill:#fcfdfd"/><path d="M1434.64,578.85V574C1437.73,575.62,1437.7,577.23,1434.64,578.85Z" transform="translate(-189.76 -12.27)" style="fill:#fcfdfd"/><path d="M775.62,647.4c14.85-16.72,33-23.74,54.62-16.25,20.63,7.13,31,22.72,32.38,44.35-.74.17-1.48.37-2.2.59-11-.14-22-.16-32.93-.49-3.49-.11-8.06,1.68-9.79-3.29-1.52-4.35,1.6-7,4.34-9.7,3.42-.89,6.63-2.17,8.94-5,1.47-.62,4.33-.92,2.92-3-1.12-1.64-2.85.64-4,1.78a14.15,14.15,0,0,0-8.92,4.9c-4.32-5.11-4.32-5.11,5.47-12.94.39-.47,1.21-1.22,1.12-1.36-.79-1.17-1.56-.5-2.27.21-10,4.07-6.34-7.73-10.5-10-5.46,3,.55,10.92-6.59,12.36-.71-.71-1.46-1.39-2.25-.2-.09.13.73.87,1.13,1.33,1.87,2.55,6.16,4.47,4.28,8.18s-5.1-.67-7.76-.09c-.71-.72-1.47-1.39-2.26-.21-.08.13.74.87,1.15,1.33,3.46,4.95,16.14,6.68,5.75,16.47l-33.4-.67C779.32,666.34,778.12,656.89,775.62,647.4ZM793,642c3.5,3.39,5.26,5.72,9.33,4.56C800.47,643.15,798.31,642.14,793,642Zm4.55,13.63c-.34-.62-.54-1.47-1.06-1.75s-1.21.25-1.84.42c.31.61.47,1.51,1,1.76S796.88,655.83,797.57,655.65ZM833.5,642c-.64.33-1.5.52-1.84,1-.22.34.3,1.16.49,1.77.65-.3,1.54-.44,1.86-.94S833.71,642.65,833.5,642Z" transform="translate(-189.76 -12.27)" style="fill:#fd6464"/><path d="M872.05,675.49c-1.19-15.88,17.28-33.44,31.53-34.5,18.55-1.38,33.54,9.66,38.51,29,.48,1.85.91,3.72,1.36,5.59L911,675.26a10.69,10.69,0,0,1,3.5-8.88c1.74-1.58,3.34-3.52-.7-4.35l-.63-.63q1.32-3.3,2.65-6.62c2-.18,4.41.39,5.41-2.24a1,1,0,0,0-.5-.86c-2.62-.52-3.75,1.31-4.86,3.16-4.86.83-4.72-8.36-9.41-5.53-4,2.44-3,7.91-3.79,12.33-1,5.46,3.11,9,1.84,13.68Zm23.23-21.87.91-.54a13.48,13.48,0,0,0-1.23-1.47c-.07-.07-.57.33-.87.51Z" transform="translate(-189.76 -12.27)" style="fill:#73daa6"/><path d="M803.57,658.7c2.66-.57,5.85,3.86,7.76.1s-2.41-5.63-4.28-8.18c.38-.37.75-.75,1.12-1.13,7.14-1.44,1.13-9.37,6.59-12.36,4.16,2.31.48,14.11,10.5,10l1.15,1.15c-9.79,7.83-9.79,7.83-5.47,12.94.38.45.75.9,1.1,1.35-2.74,2.66-5.86,5.35-4.34,9.7,1.73,5,6.3,3.18,9.79,3.29,11,.33,22,.35,32.93.49-17.67,3.8-35.53,1-53.29,1.63a2.62,2.62,0,0,1,1.07-1.42c10.4-9.79-2.28-11.52-5.74-16.47Z" transform="translate(-189.76 -12.27)" style="fill:#e9d973"/><path d="M913.81,662c4,.83,2.44,2.77.7,4.35a10.69,10.69,0,0,0-3.5,8.88l-6.49.06c1.27-4.65-2.86-8.22-1.84-13.68.83-4.42-.25-9.89,3.79-12.33,4.69-2.83,4.55,6.36,9.41,5.53l0-.06q-1.33,3.32-2.65,6.63a4.08,4.08,0,0,0-.58.75c0,.07.38.49.46.45A3.77,3.77,0,0,0,913.81,662Z" transform="translate(-189.76 -12.27)" style="fill:#34cb99"/><path d="M1374.15,654.34c.88-1.14,2.41-2.37,3.27-1.06,1.12,1.72-1,1.82-2.16,2.18Z" transform="translate(-189.76 -12.27)" style="fill:#e9d973"/><path d="M1375.26,655.46c-.66.72-1.37,1.45-2.16.25-.1-.16.68-.89,1.05-1.36Q1374.71,654.89,1375.26,655.46Z" transform="translate(-189.76 -12.27)" style="fill:#e9d973"/><polygon points="1167.12 643.63 1167.81 643.42 1167.73 644.02 1167.12 643.63" style="fill:#e9d973"/><polygon points="1162.61 641.27 1163.29 641.09 1163.19 641.67 1162.61 641.27" style="fill:#e9d973"/><path d="M561,816.14q0-19.49,0-39l2.26,0c20.29-.12,20.29-.12,11.24-18l37.14.06c-3.1,3.56-6.16,7.16-9.32,10.67-3,3.35-.72,4.22,2.16,4.9.21,1.55.42,3.11.64,4.66q-.37,8-.74,15.92c-10-.5-17.37,2.78-18.14,14-.39,5.58-3.27,7-8.15,6.94C572.35,816.07,566.65,816.15,561,816.14Z" transform="translate(-189.76 -12.27)" style="fill:#34cb99"/><path d="M795.73,779.32q.35,8,.7,15.93C795.35,814,795.35,814,775.79,814H763.12c-19.56,0-19.56,0-20.63-18.78q.36-8,.7-15.93Zm-27.07,23.54c7.44.24,14,1.38,13.89-9.73-.1-9.84-5.18-10.25-12.24-9.81-6.37.41-13.82-2.38-13.93,9.24C756.29,803,761.44,803.8,768.66,802.86Z" transform="translate(-189.76 -12.27)" style="fill:#f8e76c"/><path d="M604.33,795.29q.38-7.95.74-15.92l43.77-.29q.39,8.13.77,16.25c-1.69,20.91-1.69,20.91-23.35,20.91C605.64,816.24,605.64,816.24,604.33,795.29ZM623,793.63c.12-3.8-.22-7-5.21-7.08-4.71,0-5.78,2.64-5.76,6.62,0,3.77.57,6.87,5.41,7S623.26,797.52,623,793.63Zm18.78.06c-.06-3.54-.09-7.09-5.15-7-4.24.1-4.75,3-4.76,6.27,0,3.58.17,7.07,5.19,7C641.33,799.88,641.71,796.93,641.77,793.69Z" transform="translate(-189.76 -12.27)" style="fill:#f8e76c"/><path d="M695.78,795.27l.54-8.33H725l.54,8.33a19.64,19.64,0,0,0-.43,2.24c-1,16.35-6.77,20.22-23.6,16.47-3.83-.85-4.9-2.83-5-6.23C696.34,803.59,696,799.43,695.78,795.27Z" transform="translate(-189.76 -12.27)" style="fill:#f8e76c"/><path d="M556.43,834.64l2.48.24C558,836.22,557.09,836.46,556.43,834.64Z" transform="translate(-189.76 -12.27)" style="fill:#e9d973"/><path d="M1153.07,802.68c.22,4.73-.22,8.3-5.69,8.23-4.73-.07-5.36-3.07-5.41-6.84,0-4.13.3-7.68,5.78-7.55C1152.34,796.63,1153.51,799.32,1153.07,802.68Z" transform="translate(-189.76 -12.27)" style="fill:#fcfdfd"/><path d="M1134.28,804.26c.16,4-1,6.76-5.7,6.63-5.82-.15-5.21-4.34-5.29-8.17-.06-3.44.78-6.05,5-6.1C1133.6,796.56,1134.45,800,1134.28,804.26Z" transform="translate(-189.76 -12.27)" style="fill:#fcfdfd"/><path d="M493.2,422.33q0-3.43,0-6.86l33-.77,61.56.81.24,6.91c-18.21,2.57-36.54,0-54.77,1.43C519.92,422.35,506.46,424.93,493.2,422.33Z" transform="translate(-189.76 -12.27)" style="fill:#afeefe"/><path d="M556.52,479.39c-1,4.59,1.89,10.81-5.6,10.88-8.27.09-5.53-6.6-5.78-11s-1.23-9.95,6-9.72C559,469.83,555,476.31,556.52,479.39Z" transform="translate(-189.76 -12.27)" style="fill:#fcfdfd"/><path d="M583.5,525.25c-6.83,1.55-11.59,1.29-11.65-8.12-.06-8.48,1.77-13.23,11.25-11.52Q583.31,515.43,583.5,525.25Z" transform="translate(-189.76 -12.27)" style="fill:#fcfdfd"/><path d="M556.36,515.7c-.91,3.72,2.14,9.82-5.4,10-7.38.22-5.88-5.57-5.81-9.76s-2-10,5.3-10.26S555.85,511.34,556.36,515.7Z" transform="translate(-189.76 -12.27)" style="fill:#fcfdfd"/><path d="M556.38,443.49c-1.15,3.62,2.5,9.85-5.13,10.42s-6.31-5.29-6.08-9.56c.21-4-2.5-10.06,5-10.66C557.9,433.08,555.81,439.06,556.38,443.49Z" transform="translate(-189.76 -12.27)" style="fill:#fcfdfd"/><path d="M583.39,453.68c-8.92,2.05-11.58-1.51-11.6-10.5,0-9.42,4.17-10.72,11.68-9.17Q583.43,443.84,583.39,453.68Z" transform="translate(-189.76 -12.27)" style="fill:#fcfdfd"/><path d="M583.07,490.45c-10.78,1.93-11.32-4.46-11.13-12.69.21-9.33,5.74-7.95,11.56-6.94Q583.29,480.63,583.07,490.45Z" transform="translate(-189.76 -12.27)" style="fill:#fcfdfd"/><path d="M583.47,562.06c-7.61,1.61-11.72.15-11.68-9.26,0-9,2.67-12.62,11.66-10.42Q583.47,552.2,583.47,562.06Z" transform="translate(-189.76 -12.27)" style="fill:#fcfdfd"/><path d="M553.43,562.36a48.91,48.91,0,0,0-4.68-20.14C557.44,544,559.12,551.21,553.43,562.36Z" transform="translate(-189.76 -12.27)" style="fill:#fcfdfd"/><path d="M583.47,562.06q0-9.84,0-19.68C590.15,548.56,590.16,555.85,583.47,562.06Z" transform="translate(-189.76 -12.27)" style="fill:#c1ad70"/><path d="M583.5,525.25q-.19-9.82-.4-19.64C590.18,511.35,590.33,518.69,583.5,525.25Z" transform="translate(-189.76 -12.27)" style="fill:#c1ad70"/><path d="M583.07,490.45q.23-9.82.43-19.63C590.34,477.41,590.18,484.76,583.07,490.45Z" transform="translate(-189.76 -12.27)" style="fill:#c1ad70"/><path d="M583.39,453.68q0-9.84.08-19.67C590.19,440.27,590.16,447.58,583.39,453.68Z" transform="translate(-189.76 -12.27)" style="fill:#c1ad70"/><path d="M505.92,480.08c.54-4.3-1.5-10.15,6-9.86,7.89.32,5.71,6.72,6.15,11.13.48,4.78,0,9.58-6.85,9.06C503.79,489.84,506.74,483.94,505.92,480.08Z" transform="translate(-189.76 -12.27)" style="fill:#fcfdfd"/><path d="M465.53,468.4c-5.25-1.69-13.87,4-15.12-6.44-1.59-13.31,8.54-8.82,15.15-9.59Z" transform="translate(-189.76 -12.27)" style="fill:#99e8fc"/><path d="M465.54,548.82c-5.47-1.68-14.76,4.52-15.23-7.46-.51-12.82,9.27-7.32,15.23-8.62Z" transform="translate(-189.76 -12.27)" style="fill:#99e8fc"/><path d="M465.54,495.62c-5.53-1.58-14.75,4.43-15.23-7.49-.53-12.86,9.32-7.2,15.23-8.6Z" transform="translate(-189.76 -12.27)" style="fill:#99e8fc"/><path d="M491.57,515.8c-.64,4.1,1.7,10-5.81,10s-5.4-6-5.44-10.08-2-10.08,5.53-10S491,511.66,491.57,515.8Z" transform="translate(-189.76 -12.27)" style="fill:#fcfdfd"/><path d="M491.56,480.41c-.43,4.46,1.4,10.26-6.07,9.92S480.43,484,480.32,480s-1.79-10.05,5.81-9.7S490.71,476.63,491.56,480.41Z" transform="translate(-189.76 -12.27)" style="fill:#fcfdfd"/><path d="M491.6,443.92c-.66,4.25,1.69,10.21-5.81,10-8.38-.19-5.14-6.84-5.46-11s-1.5-9.87,6.06-9.27S490.51,440.26,491.6,443.92Z" transform="translate(-189.76 -12.27)" style="fill:#fcfdfd"/><path d="M517.51,443.94c-.64,4.29,1.51,10.2-5.9,10-8.32-.21-5.17-6.82-5.49-11.05s-1.3-9.85,6.15-9.24S516.48,440.25,517.51,443.94Z" transform="translate(-189.76 -12.27)" style="fill:#fcfdfd"/><path d="M517.48,515.84c-.55,4.27,1.43,10.12-6,9.95s-5.35-6.1-5.41-10.2-1.81-10.06,5.69-9.88S516.83,511.79,517.48,515.84Z" transform="translate(-189.76 -12.27)" style="fill:#fcfdfd"/><path d="M486.55,563l-6.7-3.36c.18-4.53.3-9.07.56-13.6.16-2.73,1.85-3.93,4.49-4,2.27,0,5.83-.12,5.76,2.16C490.44,550.6,496.09,558.58,486.55,563Z" transform="translate(-189.76 -12.27)" style="fill:#fcfdfd"/><path d="M465.53,521.72c-5.24-1.93-14.55,4.08-15-7-.55-12.18,9.5-6.31,15-8.11Z" transform="translate(-189.76 -12.27)" style="fill:#99e8fc"/><path d="M452.65,594.78c1-8.28-3.57-17.22,2.89-24.87-2,9.13-.31,17.4,5.77,24.64Z" transform="translate(-189.76 -12.27)" style="fill:#f8e76c"/><path d="M971.24,509.66l-50.42-.13q3.09-9,6.2-18l9,1.14c7.58,10.28,18.48,5.18,28.09,6.06C968.23,501.25,971.94,504,971.24,509.66Z" transform="translate(-189.76 -12.27)" style="fill:#369a68"/><path d="M1033.59,509.63l-34.59.06c1.08-14.23,12.66-9.48,20.57-11.39C1026.38,499.44,1034,499.61,1033.59,509.63Z" transform="translate(-189.76 -12.27)" style="fill:#369a68"/><path d="M881.15,509.71c-6.5-9.9-5.32-20.95-4.75-31.9,4.05-10.06,10.41-19.17,12.34-30.09,5.11-1.63,8.31-5.36,10.81-9.85,1.17-1.07,2.12-.9,2.83.51q-.12,35.65-.23,71.31A66.93,66.93,0,0,1,881.15,509.71Z" transform="translate(-189.76 -12.27)" style="fill:#f8e76c"/><path d="M902.15,509.69q.11-35.65.23-71.31c13.4,15.31,22.39,32.66,24.64,53.14q-3.1,9-6.2,18Z" transform="translate(-189.76 -12.27)" style="fill:#fd6464"/><path d="M664.24,551.05c-5,.11-10-.22-14.87.42-10.26,1.35-13-3-13-12.91s2.43-14.35,12.84-12.92c4.88.67,9.91.25,14.87.32Q664.18,538.5,664.24,551.05Z" transform="translate(-189.76 -12.27)" style="fill:#99e8fc"/><path d="M904.67,539.54c8.78,0,17.57-.07,26.36,0,2.52,0,6.31-.54,6.2,3.14-.09,3.13-3.63,3.5-6.34,3.51q-27.51.06-55,0c-2.33,0-5.1-.49-5-3.36s2.9-3.18,5.19-3.2c9.55-.07,19.1,0,28.66,0Z" transform="translate(-189.76 -12.27)" style="fill:#73daa6"/><path d="M737.54,528.08c6.48,0,13-.06,19.44,0,2.25,0,5.08.08,5.09,3.13,0,2-2.13,3.22-4.12,3.24q-21.13.19-42.28.12c-2,0-3.95-1-3.91-3.27s2.09-3.08,4.07-3.11c7.23-.09,14.47,0,21.71,0Z" transform="translate(-189.76 -12.27)" style="fill:#73daa6"/><path d="M1086.18,509.61c-5-9.1-1.44-17.62,1.2-26.32,8.5,2.22,0,13,8.34,14.81l-.13-.16c-2.15,3.69-5.75,6.75-5.07,11.67Z" transform="translate(-189.76 -12.27)" style="fill:#73daa6"/><path d="M770.71,575.39l-2.9,1.8c-4.13-2-13,2.67-12.29-4.71.85-8.45,9.35-4.2,14.88-4.1Q770.57,571.89,770.71,575.39Z" transform="translate(-189.76 -12.27)" style="fill:#369a68"/><path d="M753.61,539.43c3,.82,8.27-1.51,8.32,3.22,0,4.19-5,3.73-8.31,3.57-3.42-.17-9.09,1.34-8.72-4.08C745.19,537.89,750.54,540.24,753.61,539.43Z" transform="translate(-189.76 -12.27)" style="fill:#73daa6"/><path d="M604.43,774.71c-2.88-.68-5.17-1.55-2.16-4.9,3.16-3.51,6.22-7.11,9.32-10.67,15.78-14,15.78-14,30.76-.14,3.15,3.56,6.21,7.22,9.49,10.67,3.93,4.13.42,4.52-2.49,5.32Zm35.4-5c-.41-5.67-3.62-7.52-6-9.75s-4.56-7.43-9.11-3.65c-3.72,3.09-9.71,6.4-9,11,.75,4.8,7.1,1.9,10.94,2.33C630.78,770.06,635,769.71,639.83,769.71Z" transform="translate(-189.76 -12.27)" style="fill:#fd6464"/><path d="M1095.72,498.1l1.53-1.46.48,1.05-2.14.26Z" transform="translate(-189.76 -12.27)" style="fill:#73daa6"/><path d="M742.9,773.12c-2.13-1.71-11.59,1.75-4.82-6.2C746,757.65,754.64,749,762.8,740c4.61-5.12,8.71-5.12,13.33,0,8.15,9.06,16.82,17.68,24.71,26.95,6.78,8-2.68,4.49-4.81,6.18ZM789.77,767c-6.84-7.23-11.78-12.41-16.67-17.63-2.09-2.23-4.32-3.39-6.67-.56-4.86,5.87-11.95,10-14.87,18.19Z" transform="translate(-189.76 -12.27)" style="fill:#369a68"/><path d="M760.68,675.44c-15.22,1.34-20-2.79-17.52-17.43,2.14-12.54,6.39-24.62,18.19-32Q761,650.71,760.68,675.44Z" transform="translate(-189.76 -12.27)" style="fill:#fd6464"/><path d="M760.68,675.44q.35-24.72.67-49.45c6.91,5.7,9.89,14,14.27,21.41,2.5,9.49,3.7,18.94-.81,28.23A32.54,32.54,0,0,1,760.68,675.44Z" transform="translate(-189.76 -12.27)" style="fill:#f8e76c"/><path d="M742.9,773.12l53.13,0-.3,6.22H743.19Q743,776.21,742.9,773.12Z" transform="translate(-189.76 -12.27)" style="fill:#c1ad70"/><path d="M725,786.94H696.32c-2.28-10,7.44-11.92,12-17,3.56-4,7.12,1,9,3.74C720.12,777.87,728.49,779.09,725,786.94Zm-5.64-3.57c-9.39-11.52-9.79-11.48-16.21,0Z" transform="translate(-189.76 -12.27)" style="fill:#369a68"/><path d="M604.43,774.71l44.92.28-.51,4.09-43.77.29C604.85,777.82,604.64,776.26,604.43,774.71Z" transform="translate(-189.76 -12.27)" style="fill:#c1ad70"/><path d="M740.55,569.68a4,4,0,0,0,1.11-.15c4.1-2,8.05-3.14,9.78,2.73.82,2.77-.94,4-3.62,4.32-5.48.67-7.68-1.79-7.1-7.1Z" transform="translate(-189.76 -12.27)" style="fill:#369a68"/><path d="M793,642c5.29.12,7.45,1.13,9.33,4.56C798.28,647.74,796.52,645.41,793,642Z" transform="translate(-189.76 -12.27)" style="fill:#e9d973"/><path d="M820.94,661.26a14.15,14.15,0,0,1,8.92-4.9l1.12,1.22c-2.31,2.86-5.52,4.14-8.94,5C821.69,662.16,821.32,661.71,820.94,661.26Z" transform="translate(-189.76 -12.27)" style="fill:#e9d973"/><path d="M797.57,655.65c-.69.18-1.49.66-1.94.43s-.65-1.15-1-1.76c.63-.17,1.42-.64,1.84-.42S797.23,655,797.57,655.65Z" transform="translate(-189.76 -12.27)" style="fill:#e9d973"/><path d="M833.5,642c.21.67.74,1.51.51,1.87s-1.21.64-1.86.94c-.19-.61-.71-1.43-.49-1.77C832,642.5,832.86,642.31,833.5,642Z" transform="translate(-189.76 -12.27)" style="fill:#e9d973"/><path d="M829.86,656.36c1.19-1.14,2.92-3.42,4-1.78,1.41,2.07-1.45,2.37-2.92,3Z" transform="translate(-189.76 -12.27)" style="fill:#e9d973"/><path d="M802.46,659.83c-.41-.46-1.23-1.2-1.15-1.33.79-1.18,1.55-.51,2.26.21Z" transform="translate(-189.76 -12.27)" style="fill:#e9d973"/><path d="M807.05,650.62c-.4-.46-1.22-1.2-1.13-1.33.79-1.19,1.54-.51,2.25.2C807.8,649.87,807.43,650.25,807.05,650.62Z" transform="translate(-189.76 -12.27)" style="fill:#e9d973"/><path d="M825.26,647.17c.71-.71,1.48-1.38,2.27-.21.09.14-.73.89-1.12,1.36Z" transform="translate(-189.76 -12.27)" style="fill:#e9d973"/><path d="M915.88,654.84c1.11-1.85,2.24-3.68,4.86-3.16a1,1,0,0,1,.5.86c-1,2.63-3.36,2.06-5.41,2.24Z" transform="translate(-189.76 -12.27)" style="fill:#34cb99"/><path d="M895.28,653.62l-1.19-1.5c.3-.18.8-.58.87-.51a13.48,13.48,0,0,1,1.23,1.47Z" transform="translate(-189.76 -12.27)" style="fill:#34cb99"/><path d="M913.81,662a3.77,3.77,0,0,1-.75.58c-.08,0-.49-.38-.46-.45a4.08,4.08,0,0,1,.58-.75Z" transform="translate(-189.76 -12.27)" style="fill:#73daa6"/><path d="M768.66,802.86c-7.22.94-12.37.11-12.28-10.3.11-11.62,7.56-8.83,13.93-9.24,7.06-.44,12.14,0,12.24,9.81C782.67,804.24,776.1,803.1,768.66,802.86Z" transform="translate(-189.76 -12.27)" style="fill:#fcfdfd"/><path d="M623,793.63c.27,3.89-.81,6.63-5.56,6.52s-5.38-3.21-5.41-7c0-4,1.05-6.67,5.76-6.62C622.77,786.59,623.11,789.83,623,793.63Z" transform="translate(-189.76 -12.27)" style="fill:#fcfdfd"/><path d="M641.76,793.7c0,3.23-.43,6.18-4.71,6.26-5,.1-5.19-3.39-5.19-7,0-3.25.52-6.17,4.76-6.27C641.68,786.6,641.71,790.15,641.76,793.7Z" transform="translate(-189.76 -12.27)" style="fill:#fcfdfd"/><path d="M639.83,769.71c-4.86,0-9.05.35-13.14-.11-3.84-.43-10.19,2.47-10.94-2.33-.71-4.56,5.28-7.87,9-11,4.55-3.78,6.65,1.33,9.11,3.65S639.42,764,639.83,769.71Z" transform="translate(-189.76 -12.27)" style="fill:#e4cf92"/><path d="M789.77,767H751.56c2.92-8.16,10-12.32,14.87-18.19,2.35-2.83,4.58-1.67,6.67.56C778,754.63,782.93,759.81,789.77,767Z" transform="translate(-189.76 -12.27)" style="fill:#f8e76c"/><path d="M719.39,783.37H703.18C709.6,771.89,710,771.85,719.39,783.37Z" transform="translate(-189.76 -12.27)" style="fill:#f8e76c"/></g><path d="M1475.8,568.2l16.54,16.54,16.54-16.54h82.49a17.06,17.06,0,0,0,17.06-17.06V532.85a17.06,17.06,0,0,0-17.06-17.06H1403.68a17.06,17.06,0,0,0-17.07,17.06v18.29a17.06,17.06,0,0,0,17.07,17.06Z" transform="translate(-189.76 -12.27)" style="fill:#414042"/><text transform="translate(1259.88 542.08)" style="font-size:42px;fill:#9aca3c;font-family:DINNextRoundedLTPro-Regular, DIN Next Rounded LT Pro">Ag<tspan x="47.75" y="0" style="letter-spacing:-0.017985026041666668em">r</tspan><tspan x="64.09" y="0">o</tspan></text><path d="M763.18,516.46,779.72,533l16.55-16.54H948.75a17.07,17.07,0,0,0,17.07-17.07V481.11a17.06,17.06,0,0,0-17.07-17.06H611.06A17.06,17.06,0,0,0,594,481.11v18.28a17.06,17.06,0,0,0,17.06,17.07Z" transform="translate(-189.76 -12.27)" style="fill:#414042"/><text transform="translate(434.04 490.34)" style="font-size:42px;fill:#9aca3c;font-family:DINNextRoundedLTPro-Regular, DIN Next Rounded LT Pro">M<tspan x="31.71" y="0" style="letter-spacing:-0.003999255952380952em">o</tspan><tspan x="53.21" y="0">vilidad Segu</tspan><tspan x="274.3" y="0" style="letter-spacing:-0.023983909970238096em">r</tspan><tspan x="290.38" y="0">a</tspan></text><path d="M502.14,348.93l16.54,16.54,16.54-16.54H707.71a17.06,17.06,0,0,0,17.06-17.07V313.58a17.06,17.06,0,0,0-17.06-17.07H330A17.06,17.06,0,0,0,313,313.58v18.28A17.06,17.06,0,0,0,330,348.93Z" transform="translate(-189.76 -12.27)" style="fill:#414042"/><text transform="translate(134.77 322.81)" style="font-size:42px;fill:#9aca3c;font-family:DINNextRoundedLTPro-Regular, DIN Next Rounded LT Pro">Ciudades Inteligentes</text><path d="M656.06,770.91l16.55,16.54,16.54-16.54H901.63a17.06,17.06,0,0,0,17.07-17.06V735.56a17.06,17.06,0,0,0-17.07-17.06H443.94a17.06,17.06,0,0,0-17.06,17.06v18.29a17.06,17.06,0,0,0,17.06,17.06Z" transform="translate(-189.76 -12.27)" style="fill:#414042"/><text transform="translate(264.74 744.79)" style="font-size:42px;fill:#9aca3c;font-family:DINNextRoundedLTPro-Regular, DIN Next Rounded LT Pro"><tspan style="letter-spacing:-0.019984654017857144em">P</tspan><tspan x="24.02" y="0">articipacin Ciudadana</tspan></text></g></g></svg>