<svg xmlns="http://www.w3.org/2000/svg" viewBox="0 0 1082.49 1000.47"><title>datorueda</title><g id="Layer_2" data-name="Layer 2"><g id="Capa_1" data-name="Capa 1"><path d="M533.46,242.86a308.38,308.38,0,0,1,124.12,26.07l-36.35,82.72a218.13,218.13,0,0,0-87.77-18.44Z" style="fill:none;stroke:#414042;stroke-miterlimit:10;stroke-width:2px"/><path d="M657.58,268.93a309,309,0,0,1,34.54,17.85l-46.47,77.49a219.33,219.33,0,0,0-24.42-12.62Z" style="fill:none;stroke:#414042;stroke-miterlimit:10;stroke-width:2px"/><path d="M692.12,286.78C838.24,374.4,885.66,563.89,798,710a308.5,308.5,0,0,1-155.19,129.8l-32-84.49C723.46,712.6,780.15,586.65,737.43,474a218.14,218.14,0,0,0-91.78-109.73Z" style="fill:none;stroke:#414042;stroke-miterlimit:10;stroke-width:5px"/><path d="M642.85,839.81a308.51,308.51,0,0,1-245.49-11.6l39.87-81.09a218.1,218.1,0,0,0,173.58,8.2Z" style="fill:none;stroke:#414042;stroke-miterlimit:10;stroke-width:2px"/><path d="M397.36,828.21a308.51,308.51,0,0,1-90.1-67.08l66.25-61.44a218.25,218.25,0,0,0,63.72,47.43Z" style="fill:none;stroke:#414042;stroke-miterlimit:10;stroke-width:2px"/><path d="M307.26,761.13a308.51,308.51,0,0,1-76.69-268.35l88.72,17.16a218.12,218.12,0,0,0,54.22,189.75Z" style="fill:none;stroke:#414042;stroke-miterlimit:10;stroke-width:5px"/><path d="M230.57,492.78A308.5,308.5,0,0,1,533.46,242.86v90.35A218.13,218.13,0,0,0,319.29,509.94Z" style="fill:none;stroke:#414042;stroke-miterlimit:10;stroke-width:5px"/><text transform="translate(886.97 456.85)" style="font-size:36px;fill:#414042;font-family:DINNextRoundedLTPro-Regular, DIN Next Rounded LT Pro">Demog<tspan x="108.93" y="0" style="letter-spacing:-0.023993598090277776em">r</tspan><tspan x="122.72" y="0">afía </tspan><tspan x="0" y="43.2">y</tspan><tspan x="17.17" y="43.2" style="letter-spacing:-0.010986328125em"> </tspan><tspan x="25.49" y="43.2" style="letter-spacing:-0.0899929470486111em">T</tspan><tspan x="41.58" y="43.2">erritorio</tspan><tspan x="170.42" y="43.2" style="letter-spacing:-0.1759033203125em">	</tspan><tspan style="font-size:48px;font-family:Gotham-Ultra, Gotham"><tspan x="0" y="100.8">36%</tspan></tspan></text><path d="M241.93,606.13a4.43,4.43,0,1,0,4.43-4.43A4.43,4.43,0,0,0,241.93,606.13Z" style="fill:#414042"/><line x1="246.36" y1="593.7" x2="246.36" y2="593.2" style="fill:none;stroke:#414042;stroke-linecap:round;stroke-miterlimit:10;stroke-width:4px"/><line x1="246.36" y1="579.28" x2="246.36" y2="571.15" style="fill:none;stroke:#414042;stroke-linecap:round;stroke-miterlimit:10;stroke-width:4px;stroke-dasharray:1.1603440046310425,13.924127578735352"/><polyline points="246.36 564.19 246.36 563.69 245.92 563.45" style="fill:none;stroke:#414042;stroke-linecap:round;stroke-miterlimit:10;stroke-width:4px"/><line x1="236.3" y1="558.19" x2="199.43" y2="538.03" style="fill:none;stroke:#414042;stroke-linecap:round;stroke-miterlimit:10;stroke-width:4px;stroke-dasharray:0.9135136008262634,10.962162971496582"/><line x1="194.63" y1="535.4" x2="194.19" y2="535.16" style="fill:none;stroke:#414042;stroke-linecap:round;stroke-miterlimit:10;stroke-width:4px"/><path d="M823.05,606.13a4.43,4.43,0,1,1-4.43-4.43A4.43,4.43,0,0,1,823.05,606.13Z" style="fill:#414042"/><line x1="818.62" y1="593.7" x2="818.62" y2="593.2" style="fill:none;stroke:#414042;stroke-linecap:round;stroke-miterlimit:10;stroke-width:4px"/><line x1="818.62" y1="579.28" x2="818.62" y2="571.15" style="fill:none;stroke:#414042;stroke-linecap:round;stroke-miterlimit:10;stroke-width:4px;stroke-dasharray:1.1603440046310425,13.924127578735352"/><polyline points="818.62 564.19 818.62 563.69 819.05 563.45" style="fill:none;stroke:#414042;stroke-linecap:round;stroke-miterlimit:10;stroke-width:4px"/><line x1="828.67" y1="558.19" x2="865.54" y2="538.03" style="fill:none;stroke:#414042;stroke-linecap:round;stroke-miterlimit:10;stroke-width:4px;stroke-dasharray:0.9135122299194336,10.962146759033203"/><line x1="870.35" y1="535.4" x2="870.79" y2="535.16" style="fill:none;stroke:#414042;stroke-linecap:round;stroke-miterlimit:10;stroke-width:4px"/><text transform="translate(0.38 441.89)" style="font-size:36px;fill:#414042;font-family:DINNextRoundedLTPro-Regular, DIN Next Rounded LT Pro">M<tspan x="27.18" y="0" style="letter-spacing:-0.004001193576388889em">o</tspan><tspan x="45.61" y="0">vilidad </tspan><tspan x="0" y="43.2">y</tspan><tspan x="17.17" y="43.2" style="letter-spacing:-0.010986328125em"> </tspan><tspan x="25.49" y="43.2" style="letter-spacing:-0.06599934895833333em">T</tspan><tspan x="42.44" y="43.2" style="letter-spacing:-0.023980034722222224em">r</tspan><tspan x="56.23" y="43.2">ansporte</tspan><tspan style="font-size:48px;font-family:Gotham-Ultra, Gotham"><tspan x="0" y="100.8">15%</tspan></tspan></text><path d="M665.53,302.43A4.43,4.43,0,1,1,661.1,298,4.43,4.43,0,0,1,665.53,302.43Z" style="fill:#414042"/><line x1="661.1" y1="290" x2="661.1" y2="289.5" style="fill:none;stroke:#414042;stroke-linecap:round;stroke-miterlimit:10;stroke-width:4px"/><line x1="661.1" y1="276.45" x2="661.1" y2="226.43" style="fill:none;stroke:#414042;stroke-linecap:round;stroke-miterlimit:10;stroke-width:4px;stroke-dasharray:1.087371826171875,13.048462867736816"/><polyline points="661.1 219.91 661.1 219.41 661.54 219.17" style="fill:none;stroke:#414042;stroke-linecap:round;stroke-miterlimit:10;stroke-width:4px"/><line x1="672.64" y1="213.1" x2="691.13" y2="202.99" style="fill:none;stroke:#414042;stroke-linecap:round;stroke-miterlimit:10;stroke-width:4px;stroke-dasharray:1.0536819696426392,12.644184112548828"/><line x1="696.67" y1="199.96" x2="697.11" y2="199.72" style="fill:none;stroke:#414042;stroke-linecap:round;stroke-miterlimit:10;stroke-width:4px"/><text transform="translate(728.99 114.41)" style="font-size:36px;fill:#414042;font-family:DINNextRoundedLTPro-Regular, DIN Next Rounded LT Pro">Agricu<tspan x="100.91" y="0" style="letter-spacing:-0.0019938151041666665em">l</tspan><tspan x="110.88" y="0">tu</tspan><tspan x="141.73" y="0" style="letter-spacing:-0.023993598090277776em">r</tspan><tspan x="155.52" y="0">a </tspan><tspan x="0" y="43.2">y Ganadería</tspan><tspan style="font-size:48px;font-family:Gotham-Ultra, Gotham"><tspan x="0" y="100.8">2%</tspan></tspan></text><path d="M569.59,271a4.43,4.43,0,1,1-4.43-4.43A4.43,4.43,0,0,1,569.59,271Z" style="fill:#414042"/><line x1="565.16" y1="258.6" x2="565.16" y2="258.1" style="fill:none;stroke:#414042;stroke-linecap:round;stroke-miterlimit:10;stroke-width:4px"/><line x1="565.16" y1="246.7" x2="565.16" y2="190.67" style="fill:none;stroke:#414042;stroke-linecap:round;stroke-miterlimit:10;stroke-width:4px;stroke-dasharray:0.949741542339325,11.39689826965332"/><line x1="565.16" y1="184.97" x2="565.16" y2="184.47" style="fill:none;stroke:#414042;stroke-linecap:round;stroke-miterlimit:10;stroke-width:4px"/><text transform="translate(520.11 30.33)" style="font-size:36px;fill:#414042;font-family:DINNextRoundedLTPro-Regular, DIN Next Rounded LT Pro"><tspan style="letter-spacing:-0.0019938151041666665em">A</tspan><tspan x="21.78" y="0">dminist</tspan><tspan x="138.09" y="0" style="letter-spacing:-0.023993598090277776em">r</tspan><tspan x="151.88" y="0">ación</tspan><tspan x="0" y="43.2">Públi</tspan><tspan x="79.05" y="43.2" style="letter-spacing:-0.011990017361111112em">c</tspan><tspan x="95.61" y="43.2">a</tspan><tspan x="114.33" y="43.2" style="letter-spacing:-0.2179226345486111em">	</tspan><tspan style="font-size:48px;font-family:Gotham-Ultra, Gotham"><tspan x="0" y="100.8">7%</tspan></tspan></text><path d="M317.42,368A4.43,4.43,0,1,1,313,363.6,4.44,4.44,0,0,1,317.42,368Z" style="fill:#414042"/><line x1="312.99" y1="355.6" x2="312.99" y2="355.1" style="fill:none;stroke:#414042;stroke-linecap:round;stroke-miterlimit:10;stroke-width:4px"/><line x1="312.99" y1="342.68" x2="312.99" y2="268.17" style="fill:none;stroke:#414042;stroke-linecap:round;stroke-miterlimit:10;stroke-width:4px;stroke-dasharray:1.0347777605056763,12.417333602905273"/><line x1="312.99" y1="261.97" x2="312.99" y2="261.47" style="fill:none;stroke:#414042;stroke-linecap:round;stroke-miterlimit:10;stroke-width:4px"/><text transform="translate(246.2 150.98)" style="font-size:36px;fill:#414042;font-family:DINNextRoundedLTPro-Regular, DIN Next Rounded LT Pro">Salud<tspan style="font-size:48px;font-family:Gotham-Ultra, Gotham"><tspan x="0" y="57.6">22%</tspan></tspan></text><path d="M583.24,837a4.43,4.43,0,1,1-4.43-4.43A4.43,4.43,0,0,1,583.24,837Z" style="fill:#414042"/><line x1="578.81" y1="849.47" x2="578.81" y2="849.97" style="fill:none;stroke:#414042;stroke-linecap:round;stroke-miterlimit:10;stroke-width:4px"/><line x1="578.81" y1="862.39" x2="578.81" y2="936.89" style="fill:none;stroke:#414042;stroke-linecap:round;stroke-miterlimit:10;stroke-width:4px;stroke-dasharray:1.0347777605056763,12.417333602905273"/><polyline points="578.81 943.1 578.81 943.6 579.25 943.84" style="fill:none;stroke:#414042;stroke-linecap:round;stroke-miterlimit:10;stroke-width:4px"/><line x1="590.34" y1="949.91" x2="608.83" y2="960.02" style="fill:none;stroke:#414042;stroke-linecap:round;stroke-miterlimit:10;stroke-width:4px;stroke-dasharray:1.0536842346191406,12.644211769104004"/><line x1="614.38" y1="963.05" x2="614.82" y2="963.29" style="fill:none;stroke:#414042;stroke-linecap:round;stroke-miterlimit:10;stroke-width:4px"/><text transform="translate(639.38 883.79)" style="font-size:36px;fill:#414042;font-family:DINNextRoundedLTPro-Regular, DIN Next Rounded LT Pro">Economía<tspan x="0" y="43.2">y Finanzas</tspan><tspan style="font-size:48px;font-family:Gotham-Ultra, Gotham"><tspan x="0" y="100.8">13%</tspan></tspan></text><path d="M379,791.56a4.43,4.43,0,1,1-4.43-4.43A4.43,4.43,0,0,1,379,791.56Z" style="fill:#414042"/><line x1="374.59" y1="803.98" x2="374.59" y2="804.48" style="fill:none;stroke:#414042;stroke-linecap:round;stroke-miterlimit:10;stroke-width:4px"/><line x1="374.59" y1="816.9" x2="374.59" y2="891.41" style="fill:none;stroke:#414042;stroke-linecap:round;stroke-miterlimit:10;stroke-width:4px;stroke-dasharray:1.0347777605056763,12.417333602905273"/><polyline points="374.59 897.62 374.59 898.12 374.15 898.36" style="fill:none;stroke:#414042;stroke-linecap:round;stroke-miterlimit:10;stroke-width:4px"/><line x1="363.06" y1="904.42" x2="344.57" y2="914.53" style="fill:none;stroke:#414042;stroke-linecap:round;stroke-miterlimit:10;stroke-width:4px;stroke-dasharray:1.0536842346191406,12.644211769104004"/><line x1="339.02" y1="917.56" x2="338.58" y2="917.8" style="fill:none;stroke:#414042;stroke-linecap:round;stroke-miterlimit:10;stroke-width:4px"/><text transform="translate(197.61 881.55)" style="font-size:36px;fill:#414042;font-family:DINNextRoundedLTPro-Regular, DIN Next Rounded LT Pro">Edu<tspan x="59.04" y="0" style="letter-spacing:-0.011990017361111112em">c</tspan><tspan x="75.6" y="0">ación</tspan><tspan style="font-size:48px;font-family:Gotham-Ultra, Gotham"><tspan x="0" y="57.6">6%</tspan></tspan></text><path d="M664,376.11c7.65-10.4,14.65-20.4,22.65-31.4,12-14,20-28,31.58-41.33" style="fill:none;stroke:#414042;stroke-linecap:round;stroke-linejoin:round;stroke-width:3px"/><path d="M678.17,387.31c18.47-23.6,40.47-44.6,59.83-67.72" style="fill:none;stroke:#414042;stroke-linecap:round;stroke-linejoin:round;stroke-width:3px"/><path d="M690.19,397.84l37.85-37,23.06-22.54L755,334.5" style="fill:none;stroke:#414042;stroke-linecap:round;stroke-linejoin:round;stroke-width:3px"/><path d="M701.13,409.06c19.51-15.35,36.51-33.35,57.51-49.35,4-2,7-6,11.32-8.95" style="fill:none;stroke:#414042;stroke-linecap:round;stroke-linejoin:round;stroke-width:3px"/><path d="M710.21,421.08c25.43-17.37,48.43-36.37,72.93-53.63" style="fill:none;stroke:#414042;stroke-linecap:round;stroke-linejoin:round;stroke-width:3px"/><path d="M719.18,433.52q22.19-14.06,44.39-28.09l27-17.12,4.57-2.89" style="fill:none;stroke:#414042;stroke-linecap:round;stroke-linejoin:round;stroke-width:3px"/><path d="M728.25,449.47c26.39-13.76,52.39-27.76,79.09-41.23" style="fill:none;stroke:#414042;stroke-linecap:round;stroke-linejoin:round;stroke-width:3px"/><path d="M736.43,465.66c27.21-12,54.21-23,81.85-34.42" style="fill:none;stroke:#414042;stroke-linecap:round;stroke-linejoin:round;stroke-width:3px"/><path d="M742.42,482.86c28.22-9.15,56.22-18.15,84.69-27.62" style="fill:none;stroke:#414042;stroke-linecap:round;stroke-linejoin:round;stroke-width:3px"/><path d="M746.21,498.42c23.43-6.71,46.43-10.71,69.43-17.71,6-2,13-2,18.53-4" style="fill:none;stroke:#414042;stroke-linecap:round;stroke-linejoin:round;stroke-width:3px"/><path d="M748.36,513.91c30.28-5.2,60.28-11.2,90.48-15.6" style="fill:none;stroke:#414042;stroke-linecap:round;stroke-linejoin:round;stroke-width:3px"/><path d="M750.39,528.74c30.25-2,61.25-7,91.34-9.35" style="fill:none;stroke:#414042;stroke-linecap:round;stroke-linejoin:round;stroke-width:3px"/><path d="M752.45,543.9c30.19-1.19,60.19-2.19,90.54-2.92" style="fill:none;stroke:#414042;stroke-linecap:round;stroke-linejoin:round;stroke-width:3px"/><path d="M753.14,562.24c29.5.47,59.5,3.47,88.75,4.58" style="fill:none;stroke:#414042;stroke-linecap:round;stroke-linejoin:round;stroke-width:3px"/><path d="M751.34,580.34l51.64,7,31.4,4.24,5.27.71" style="fill:none;stroke:#414042;stroke-linecap:round;stroke-linejoin:round;stroke-width:3px"/><path d="M748.39,598.31c29.25,6.4,57.25,13.4,86.68,19.12" style="fill:none;stroke:#414042;stroke-linecap:round;stroke-linejoin:round;stroke-width:3px"/><path d="M744.37,613.86c28.27,9.85,58.27,15.85,85.89,25.64" style="fill:none;stroke:#414042;stroke-linecap:round;stroke-linejoin:round;stroke-width:3px"/><path d="M738.34,628.36c28.3,10.35,57.3,21.35,85,32.14" style="fill:none;stroke:#414042;stroke-linecap:round;stroke-linejoin:round;stroke-width:3px"/><path d="M732.25,642.1c14.39,7.61,29.39,12.61,43.39,19.61,13,7,26,12,39.47,18.41" style="fill:none;stroke:#414042;stroke-linecap:round;stroke-linejoin:round;stroke-width:3px"/><path d="M726.31,656.24c26.33,14.47,53.33,28.47,78.93,43.13" style="fill:none;stroke:#414042;stroke-linecap:round;stroke-linejoin:round;stroke-width:3px"/><path d="M717.3,672.26l43.18,28.53,26.27,17.35,4.44,2.93" style="fill:none;stroke:#414042;stroke-linecap:round;stroke-linejoin:round;stroke-width:3px"/><path d="M707.33,687.51c23.31,18.2,46.31,36.2,69.06,54.29" style="fill:none;stroke:#414042;stroke-linecap:round;stroke-linejoin:round;stroke-width:3px"/><path d="M695.38,701.37c22.26,19.34,42.26,40.34,64.3,59.79" style="fill:none;stroke:#414042;stroke-linecap:round;stroke-linejoin:round;stroke-width:3px"/><path d="M684.2,713c20.44,21.7,40.44,42.7,60.14,64.73" style="fill:none;stroke:#414042;stroke-linecap:round;stroke-linejoin:round;stroke-width:3px"/><path d="M672.18,723.26c17.46,24.45,38.46,45.45,55.52,69" style="fill:none;stroke:#414042;stroke-linecap:round;stroke-linejoin:round;stroke-width:3px"/><path d="M660,732.36c17.62,23.35,33.62,48.35,50.65,72.7" style="fill:none;stroke:#414042;stroke-linecap:round;stroke-linejoin:round;stroke-width:3px"/><path d="M646.76,740.26c15.88,25.45,30.88,51.45,45.65,76.38" style="fill:none;stroke:#414042;stroke-linecap:round;stroke-linejoin:round;stroke-width:3px"/><path d="M630.22,748.38c13.42,27.33,25.42,54.33,39.06,79.83" style="fill:none;stroke:#414042;stroke-linecap:round;stroke-linejoin:round;stroke-width:3px"/><path d="M319.3,501.19c-28.66-7.48-57.66-12.48-86.49-20.07" style="fill:none;stroke:#414042;stroke-linecap:round;stroke-linejoin:round;stroke-width:0.501594px"/><path d="M324.84,483.84c-28.2-9.13-57.2-18.13-85.12-27.35" style="fill:none;stroke:#414042;stroke-linecap:round;stroke-linejoin:round;stroke-width:0.501594px"/><path d="M331.18,469.15c-16.54-5.44-32.54-13.44-49.54-20.44-12-4-24-8-35.06-13.74" style="fill:none;stroke:#414042;stroke-linecap:round;stroke-linejoin:round;stroke-width:0.501594px"/><path d="M337.05,454.67c-27.41-14-54.41-26-81.59-39.95" style="fill:none;stroke:#414042;stroke-linecap:round;stroke-linejoin:round;stroke-width:0.501594px"/><path d="M343.57,441.09c-13.93-8.38-26.93-16.38-40.93-24.38-13-7-25-13-37.17-20.76" style="fill:none;stroke:#414042;stroke-linecap:round;stroke-linejoin:round;stroke-width:0.501594px"/><path d="M351.11,427.69c-24.47-18-49.47-33-74-50" style="fill:none;stroke:#414042;stroke-linecap:round;stroke-linejoin:round;stroke-width:0.501594px"/><path d="M362.12,412.94c-22.48-18.23-44.48-35.23-66.48-54.23a6.33,6.33,0,0,0-2.51-1.29" style="fill:none;stroke:#414042;stroke-linecap:round;stroke-linejoin:round;stroke-width:0.501594px"/><path d="M373.93,399.13,336.45,363.5l-22.79-21.67-3.86-3.66" style="fill:none;stroke:#414042;stroke-linecap:round;stroke-linejoin:round;stroke-width:0.501594px"/><path d="M387.73,387.21c-20.09-22.5-40.09-44.5-59.48-66.75" style="fill:none;stroke:#414042;stroke-linecap:round;stroke-linejoin:round;stroke-width:0.501594px"/><path d="M400.06,377c-18.42-24.29-36.42-48.29-55-71.61" style="fill:none;stroke:#414042;stroke-linecap:round;stroke-linejoin:round;stroke-width:0.501594px"/><path d="M412.87,368l-29.14-44.16L366,297l-3-4.51" style="fill:none;stroke:#414042;stroke-linecap:round;stroke-linejoin:round;stroke-width:0.501594px"/><path d="M425.72,360.14c-8.08-13.43-16.08-27.43-23.08-41.43-7-13-15-24-21.48-37.37" style="fill:none;stroke:#414042;stroke-linecap:round;stroke-linejoin:round;stroke-width:0.501594px"/><path d="M439.82,354.17c-13.18-27.46-27.18-54.46-39.39-82.64" style="fill:none;stroke:#414042;stroke-linecap:round;stroke-linejoin:round;stroke-width:0.501594px"/><path d="M456.62,347.11l-18.75-49.62q-5.7-15.12-11.42-30.24l-1.92-5.08" style="fill:none;stroke:#414042;stroke-linecap:round;stroke-linejoin:round;stroke-width:0.501594px"/><path d="M473.33,340c-8.69-28.3-15.69-57.3-24.58-86" style="fill:none;stroke:#414042;stroke-linecap:round;stroke-linejoin:round;stroke-width:0.501594px"/><path d="M491.07,336.14c-4.43-30.43-12.43-59.43-17.43-88" style="fill:none;stroke:#414042;stroke-linecap:round;stroke-linejoin:round;stroke-width:0.501594px"/><path d="M506.77,333c-4.13-30.25-7.13-59.25-11-89.28" style="fill:none;stroke:#414042;stroke-linecap:round;stroke-linejoin:round;stroke-width:0.501594px"/><path d="M522.42,332c-1.78-30.32-2.78-60.32-4.62-90.41" style="fill:none;stroke:#414042;stroke-linecap:round;stroke-linejoin:round;stroke-width:0.501594px"/><path d="M366.05,694c-22.41,19.7-45.41,38.7-67.29,57.44" style="fill:none;stroke:#414042;stroke-linecap:round;stroke-linejoin:round;stroke-width:2px"/><path d="M355.11,679.41c-24.47,17.3-48.47,35.3-72.05,51.85" style="fill:none;stroke:#414042;stroke-linecap:round;stroke-linejoin:round;stroke-width:2px"/><path d="M345.93,666.22c-26.29,15.49-50.29,31.49-76.11,46.75" style="fill:none;stroke:#414042;stroke-linecap:round;stroke-linejoin:round;stroke-width:2px"/><path d="M338,652.63c-26.35,14.08-52.35,28.08-79.19,41.16" style="fill:none;stroke:#414042;stroke-linecap:round;stroke-linejoin:round;stroke-width:2px"/><path d="M332.06,638.7c-9.42,4-17.42,8-26.42,11-19,8-37,16-56,24.88" style="fill:none;stroke:#414042;stroke-linecap:round;stroke-linejoin:round;stroke-width:2px"/><path d="M326.06,624.55c-28.42,10.16-56.42,19.16-84.17,29.85" style="fill:none;stroke:#414042;stroke-linecap:round;stroke-linejoin:round;stroke-width:2px"/><path d="M322,606.61l-50.6,13.3-31,8.17-5.24,1.38" style="fill:none;stroke:#414042;stroke-linecap:round;stroke-linejoin:round;stroke-width:2px"/><path d="M318.85,588.84c-30.21,5.87-59.21,9.87-89.34,15.76" style="fill:none;stroke:#414042;stroke-linecap:round;stroke-linejoin:round;stroke-width:2px"/><path d="M316.85,570.9c-30.21,3.81-60.21,3.81-90.63,8.34" style="fill:none;stroke:#414042;stroke-linecap:round;stroke-linejoin:round;stroke-width:2px"/><path d="M315,555.05c-30.36,1.66-61.36.66-90.91,1.71" style="fill:none;stroke:#414042;stroke-linecap:round;stroke-linejoin:round;stroke-width:2px"/><path d="M314.08,539.37c-30.44-2.66-59.44-2.66-89.76-4.73" style="fill:none;stroke:#414042;stroke-linecap:round;stroke-linejoin:round;stroke-width:2px"/><path d="M315.08,524.29c-29.44-3.58-59.44-7.58-88.91-10.84" style="fill:none;stroke:#414042;stroke-linecap:round;stroke-linejoin:round;stroke-width:2px"/></g></g></svg>