<svg xmlns="http://www.w3.org/2000/svg" viewBox="0 0 1026.05 1001.19"><title>dedonde</title><g id="Layer_2" data-name="Layer 2"><g id="Capa_1" data-name="Capa 1"><path d="M415.82,357.62,384,300.6c-3.11,1.8-6.2,3.64-9.24,5.56C254.2,382.25,217.62,541,292.05,662.09l54.69-34.51a195.26,195.26,0,0,1,69.08-270Z" style="fill:#404142"/><path d="M510.24,266a260,260,0,0,0-120.53,31.35l31.88,57a194.14,194.14,0,0,1,88.65-23Z" style="fill:#2b3182"/><path d="M516.84,266v65.32c106.35,1.67,192,88.39,192,195.14,0,107.79-87.38,195.17-195.17,195.17a195,195,0,0,1-163.45-88.49l-54.7,34.51a260,260,0,0,0,218,118.26c143.58,0,260-116.38,260-260C773.53,383.48,658.9,267.8,516.84,266Z" style="fill:#9aca3c"/><path d="M318.44,166.49l34,62.48,23.81,42a287.44,287.44,0,0,1,134-34.65V116.87C484.54,117.08,394,128.12,318.44,166.49Z" style="fill:#2b3182"/><path d="M190.93,775c-8.07-10.08-17.64-25.08-18.73-26.76L272.79,684a290.48,290.48,0,0,0,26.32,34.31L211.3,799.1C210.09,797.76,199,785.09,190.93,775Z" style="fill:#9aca3c"/><path d="M530.57,933.53s-28.81,2.94-54.37-1.47h.06A406.68,406.68,0,0,1,215.75,804l87.82-80.84C396.8,822.88,550.72,845.2,669.9,769a288.32,288.32,0,0,0,77.21-72.25l-2,2.66L841.22,770a407.88,407.88,0,0,1-310.65,163.5Z" style="fill:#9aca3c"/><path d="M845.13,764.71,749.06,694.1l-1.95,2.67c68.62-93.41,76.76-223.13,10.59-326.64C702.4,283.6,612,236.48,516.37,236.81l1.88-119.27c86.55.24,167.94,27.94,237.71,79.21,48.78,35.85,90,84.4,114.9,130.14a479.5,479.5,0,0,1,23.24,49.23C943.23,501.25,929.54,647.92,845.13,764.71Z" style="fill:#9aca3c"/><path d="M311.56,170.33c-55,32.93-116.33,90-165.13,176.24L254.17,398A290,290,0,0,1,370.49,274.15Z" style="fill:#404142"/><path d="M143.59,352.54c-13.08,25-29.17,70.48-33.75,112.14L228.1,481.19a286.93,286.93,0,0,1,23.22-77.26Z" style="fill:#404142;fill-rule:evenodd"/><path d="M267.75,676.72c-28.22-44.61-43-95-43-151.67a290.85,290.85,0,0,1,2.43-37.32L108.93,471.22c-12.88,117.6,25,215.73,57.76,268.91Z" style="fill:#404142;fill-rule:evenodd"/><path d="M649,714a1.44,1.44,0,0,1-1.24-.64,1.31,1.31,0,0,1,.39-1.83,1.66,1.66,0,0,1,.89-.24,9.69,9.69,0,0,0,5.3-1.53c2.49-1.65,3.16-3.81,2-5.62-1-1.51-2.45-1.9-5.6-.45l-.95.44c-3.92,1.8-6.63,1.32-8.46-1.46-2.08-3.15-1.17-6.63,2.36-9a11.26,11.26,0,0,1,5.47-1.9,1.43,1.43,0,0,1,1.3.6,1.24,1.24,0,0,1-.36,1.73,2.52,2.52,0,0,1-.89.29,10.48,10.48,0,0,0-4.17,1.49c-2.23,1.47-2.54,3.43-1.46,5.07,1,1.48,2.51,1.82,5.53.41l1-.44c3.92-1.8,6.66-1.33,8.53,1.5,2,3.07,1.32,6.74-3,9.58A11.88,11.88,0,0,1,649,714Z" style="fill:#fff"/><path d="M663.57,701.52a14.9,14.9,0,0,1-4.76-5.84,5.72,5.72,0,0,1,2-6.79c2.28-1.84,4.83-2.06,7.06-.59a11.06,11.06,0,0,1,2.67,2.5,1,1,0,0,1-.18,1.42l-6.8,5.51c-.1.07-.1.16,0,.26a5.75,5.75,0,0,0,1.33,1.25,3.66,3.66,0,0,0,4.56-.37,5.44,5.44,0,0,0,2-3.24,1.44,1.44,0,0,1,.47-.86,1.07,1.07,0,0,1,1.53.16,1.26,1.26,0,0,1,.27,1,7.63,7.63,0,0,1-2.87,5C668.4,702.82,665.87,703,663.57,701.52Zm4-9.77a.16.16,0,0,0,0-.26,5.09,5.09,0,0,0-1.23-1.17,3.68,3.68,0,0,0-5.32,4.31,5.3,5.3,0,0,0,.88,1.45.17.17,0,0,0,.27,0Z" style="fill:#fff"/><path d="M676.33,690.82a12.53,12.53,0,0,1-2.94-2.46,12.75,12.75,0,0,1-2.22-3.07,6.31,6.31,0,0,1,6.53-8.61,1.55,1.55,0,0,1,.93.45,1.14,1.14,0,0,1,0,1.63,1.56,1.56,0,0,1-1.27.33,3.54,3.54,0,0,0-2.92,1,3.25,3.25,0,0,0-.85,4,10.27,10.27,0,0,0,1.81,2.44,10,10,0,0,0,2.33,2,3.23,3.23,0,0,0,4-.57,3.53,3.53,0,0,0,1.23-2.84,1.52,1.52,0,0,1,.41-1.24,1.14,1.14,0,0,1,1.63.05,1.56,1.56,0,0,1,.39,1,6.31,6.31,0,0,1-9,5.91Z" style="fill:#fff"/><path d="M693.49,678.92c-2,2.26-3.75,2.24-6.06.14l-6.21-5.63a.17.17,0,0,0-.26,0l-.56.62a1.06,1.06,0,1,1-1.57-1.42l.56-.63a.16.16,0,0,0,0-.26l-2.42-2.2a1.31,1.31,0,1,1,1.75-1.93l2.43,2.19a.16.16,0,0,0,.26,0l1.32-1.45a1.06,1.06,0,1,1,1.57,1.42L683,671.23a.17.17,0,0,0,0,.27l6.14,5.56c1.18,1.07,1.79,1.08,2.86-.09a1.17,1.17,0,0,1,1.76-.13,1.2,1.2,0,0,1,0,1.85Z" style="fill:#fff"/><path d="M694.44,672.08a11.43,11.43,0,0,1-3.3-2,11.1,11.1,0,0,1-2.66-2.72,6.32,6.32,0,0,1,7.25-9.27,11.43,11.43,0,0,1,3.28,1.93,11.24,11.24,0,0,1,2.68,2.74,6.32,6.32,0,0,1-7.25,9.27Zm5.11-7.75a10.21,10.21,0,0,0-2.2-2.15,9.29,9.29,0,0,0-2.59-1.59,3.59,3.59,0,0,0-4.14,5.3,9.49,9.49,0,0,0,2.17,2.13,9.8,9.8,0,0,0,2.61,1.61,3.59,3.59,0,0,0,4.15-5.3Z" style="fill:#fff"/><path d="M706.86,659.62l-10.38-6.84a1.31,1.31,0,1,1,1.44-2.19l.57.38,0,0a4.07,4.07,0,0,1,.21-4.46,4.32,4.32,0,0,1,1.66-1.55,1.22,1.22,0,0,1,1.34,0,1.25,1.25,0,0,1,.38,1.81,1.68,1.68,0,0,1-.49.46,4.75,4.75,0,0,0-1.26,1.23c-1.23,1.87-.17,3.65,1.92,5l6,4a1.31,1.31,0,1,1-1.44,2.19Z" style="fill:#fff"/><path d="M701.44,632.8a1.15,1.15,0,0,1-.58-1.66l2.85-5.89c1.84-3.81,5.26-5,8.65-3.35s4.57,5.05,2.73,8.86L713,635.11a.17.17,0,0,0,.09.25l6.31,3a1.39,1.39,0,1,1-1.21,2.5Zm9.72-8.44c-2.07-1-4-.25-5.17,2.1l-2.06,4.26a.17.17,0,0,0,.09.25l6.39,3.1a.17.17,0,0,0,.25-.09l2.06-4.26C713.86,627.37,713.24,625.37,711.16,624.36Z" style="fill:#fff"/><path d="M712.33,612.75a1.31,1.31,0,0,1-.62-.46l-1.92-2.56a1.05,1.05,0,0,1-.18-1.06,1,1,0,0,1,1.3-.65,1.45,1.45,0,0,1,.65.5l1.89,2.62a1.06,1.06,0,0,1,.17,1A1,1,0,0,1,712.33,612.75Zm18.15-.55a1.31,1.31,0,1,1-.9,2.46l-.41-.15v0a4.59,4.59,0,0,1,.49,4.56c-1.11,3-3.84,4.06-7,2.9l-7.9-2.9a1.31,1.31,0,1,1,.9-2.45l7.31,2.67c2.26.83,3.94.32,4.71-1.79.69-1.9-.19-3.65-2.27-4.41l-7.46-2.73a1.31,1.31,0,1,1,.9-2.46Z" style="fill:#fff"/><path d="M732.36,606.22l-18.08-4.74a1.31,1.31,0,1,1,.66-2.53l6.45,1.69v0c-.94-1-1.43-2.43-.86-4.6a5.17,5.17,0,0,1,4.92-4,16,16,0,0,1,7.86,2.06,5.16,5.16,0,0,1,2.32,5.92c-.56,2.14-1.68,3.2-3,3.59v0l.39.11a1.31,1.31,0,1,1-.66,2.53Zm-.66-10a9.45,9.45,0,0,0-2.87-1.1,9.24,9.24,0,0,0-3-.44,3.48,3.48,0,0,0-1.66,6.36,13.48,13.48,0,0,0,5.87,1.54,3.48,3.48,0,0,0,1.67-6.36Z" style="fill:#fff"/><path d="M738.51,585.83c-.49,2.63-2,3.34-4.59,2.85l-15.83-3a1.31,1.31,0,1,1,.48-2.57l15.68,2.93c1.23.23,1.76-.09,2-1.1a1.14,1.14,0,0,1,1.42-1,1.18,1.18,0,0,1,.94,1.54Z" style="fill:#fff"/><path d="M719.78,577.84a1.72,1.72,0,0,1,.47-3.4,1.72,1.72,0,0,1-.47,3.4Zm6,.42a1.32,1.32,0,1,1,.36-2.6l12.31,1.72A1.31,1.31,0,1,1,738,580Z" style="fill:#fff"/><path d="M736.68,571.78a12.48,12.48,0,0,1-3.82.18,12.61,12.61,0,0,1-3.73-.75,6.31,6.31,0,0,1-1-10.76,1.55,1.55,0,0,1,1-.3,1.13,1.13,0,0,1,1.06,1.24,1.56,1.56,0,0,1-.71,1.1,3.54,3.54,0,0,0-1.46,2.73,3.24,3.24,0,0,0,2.08,3.5,9.89,9.89,0,0,0,3,.57,10.08,10.08,0,0,0,3.07-.11,3.23,3.23,0,0,0,2.58-3.15,3.56,3.56,0,0,0-1-2.92,1.51,1.51,0,0,1-.53-1.19,1.13,1.13,0,0,1,1.23-1.07,1.62,1.62,0,0,1,.94.45,6.31,6.31,0,0,1-2.64,10.48Z" style="fill:#fff"/><path d="M737.66,556.27a14.83,14.83,0,0,1-7.56.08,6.33,6.33,0,0,1-.12-11.78,14.68,14.68,0,0,1,7.56-.07,6.32,6.32,0,0,1,.12,11.77Zm-.84-9.24a9.86,9.86,0,0,0-3.05-.32,9.6,9.6,0,0,0-3,.38,3.59,3.59,0,0,0,.07,6.73,9.7,9.7,0,0,0,3,.31,9.81,9.81,0,0,0,3-.38,3.59,3.59,0,0,0-.07-6.72Z" style="fill:#fff"/><path d="M304.33,569.27a1.45,1.45,0,0,1-1.05.91,1.3,1.3,0,0,1-1.55-1,1.74,1.74,0,0,1,.1-.91,9.64,9.64,0,0,0,.58-5.49c-.6-2.93-2.35-4.36-4.48-3.92-1.77.35-2.68,1.55-2.52,5l.06,1c.2,4.31-1.27,6.64-4.53,7.3-3.7.75-6.58-1.4-7.42-5.55a11.24,11.24,0,0,1,.29-5.78,1.41,1.41,0,0,1,1-1,1.23,1.23,0,0,1,1.47,1,2.48,2.48,0,0,1-.06.93,10.42,10.42,0,0,0-.19,4.42c.53,2.63,2.23,3.65,4.16,3.26,1.74-.35,2.62-1.64,2.45-5l-.05-1c-.2-4.32,1.26-6.68,4.59-7.35,3.6-.73,6.75,1.3,7.76,6.34A11.71,11.71,0,0,1,304.33,569.27Z" style="fill:#fff"/><path d="M299,552a11,11,0,0,1-3.72.92,10.86,10.86,0,0,1-3.81-.07,6.32,6.32,0,0,1-1.31-11.7,11.14,11.14,0,0,1,3.69-.92,11.47,11.47,0,0,1,3.83.07A6.32,6.32,0,0,1,299,552Zm-1.78-9.11a10,10,0,0,0-3.07,0,9.85,9.85,0,0,0-3,.67,3.6,3.6,0,0,0,.75,6.69,9.55,9.55,0,0,0,3.05,0,9.73,9.73,0,0,0,3-.68,3.59,3.59,0,0,0-.75-6.69Z" style="fill:#fff"/><path d="M297.42,536.17a15.46,15.46,0,0,1-7.56.26,6.31,6.31,0,0,1-2.2-10.59,1.57,1.57,0,0,1,.95-.4,1.12,1.12,0,0,1,1.19,1.11,1.52,1.52,0,0,1-.58,1.17,3.57,3.57,0,0,0-1.15,2.88,3.25,3.25,0,0,0,2.45,3.25,9.84,9.84,0,0,0,3,.24,10.06,10.06,0,0,0,3-.44,3.24,3.24,0,0,0,2.22-3.41,3.5,3.5,0,0,0-1.34-2.79,1.6,1.6,0,0,1-.66-1.14,1.14,1.14,0,0,1,1.11-1.19,1.62,1.62,0,0,1,1,.34,5.83,5.83,0,0,1,2.34,4.69A5.76,5.76,0,0,1,297.42,536.17Z" style="fill:#fff"/><path d="M281.21,521.15a1.71,1.71,0,0,1,.08-3.42,1.71,1.71,0,1,1-.08,3.42Zm6-.26a1.31,1.31,0,1,1,.06-2.62l12.42.3a1.31,1.31,0,1,1-.06,2.61Z" style="fill:#fff"/><path d="M297.31,513.91a14.86,14.86,0,0,1-7.52-.61,5.73,5.73,0,0,1-3.51-6.14c.25-2.92,1.85-4.91,4.47-5.5a11,11,0,0,1,3.64-.19,1,1,0,0,1,.91,1.11l-.74,8.72a.16.16,0,0,0,.17.2,5.71,5.71,0,0,0,1.82-.09,3.67,3.67,0,0,0,2.89-3.54,5.42,5.42,0,0,0-1-3.68,1.4,1.4,0,0,1-.29-.93,1.06,1.06,0,0,1,1.17-1,1.33,1.33,0,0,1,.9.49,7.71,7.71,0,0,1,1.6,5.51C301.59,511.33,300,513.29,297.31,513.91Zm-4.25-9.68a.17.17,0,0,0-.17-.2,5,5,0,0,0-1.69.08,3.67,3.67,0,0,0-.58,6.82,4.87,4.87,0,0,0,1.66.36.16.16,0,0,0,.2-.17Z" style="fill:#fff"/><path d="M302.81,489.27l-.4-.07v0c1.05.91,1.63,2.33,1.26,4.51a5.17,5.17,0,0,1-4.55,4.44A12.75,12.75,0,0,1,295,498a12.56,12.56,0,0,1-3.9-1.2,5.16,5.16,0,0,1-2.83-5.69c.38-2.22,1.43-3.36,2.68-3.85v0l-6.57-1.12a1.31,1.31,0,1,1,.43-2.57l18.43,3.13a1.31,1.31,0,1,1-.44,2.58Zm-3.19-.19a8.9,8.9,0,0,0-2.95-.85,9.14,9.14,0,0,0-3-.17,3.47,3.47,0,0,0-1.1,6.47,9.17,9.17,0,0,0,2.92.85,9.35,9.35,0,0,0,3.07.17,3.47,3.47,0,0,0,1.1-6.47Z" style="fill:#fff"/><path d="M307.47,470.23a1.25,1.25,0,0,1,.87,1.6,1.38,1.38,0,0,1-.92,1l-1.05.33v0a5.69,5.69,0,0,1,.57,4.88c-.84,3.23-2.92,4.68-5.66,4-3-.77-3.93-3.2-3-6.79l.85-3.29a.16.16,0,0,0-.14-.22l-.69-.18c-2-.53-3.41.11-4.06,2.64a7.16,7.16,0,0,0-.05,3.15,1.85,1.85,0,0,1,0,.77,1.05,1.05,0,0,1-1.37.81A1.2,1.2,0,0,1,292,478a8.3,8.3,0,0,1,.06-4.68c1-3.86,3.3-5.19,6.86-4.27l5.19,1.34a3,3,0,0,0,1.55.11l1.06-.27A1.48,1.48,0,0,1,307.47,470.23Zm-4.51,2.5-1.59-.42a.17.17,0,0,0-.23.14l-.75,2.89c-.64,2.47-.21,3.78,1.42,4.2s2.54-.5,3-2.43C305.43,474.88,304.74,473.19,303,472.73Z" style="fill:#fff"/><path d="M311.41,458.2l-.39-.14v0c.88,1.07,1.21,2.57.48,4.66a5.17,5.17,0,0,1-5.23,3.61,12.72,12.72,0,0,1-4-.85,12.92,12.92,0,0,1-3.65-1.84,5.16,5.16,0,0,1-1.82-6.09c.74-2.12,2-3.07,3.28-3.34v0L293.77,452a1.31,1.31,0,1,1,.87-2.47l17.63,6.2a1.31,1.31,0,1,1-.86,2.47Zm-3.11-.73a13.61,13.61,0,0,0-5.74-2,3.48,3.48,0,0,0-2.17,6.21,9.25,9.25,0,0,0,2.73,1.32,9.68,9.68,0,0,0,3,.69,3.48,3.48,0,0,0,2.18-6.2Z" style="fill:#fff"/><path d="M308.32,441c-2.7-1.34-3.89-2-5-3.17a7.4,7.4,0,0,1,4.53-12.57,1.91,1.91,0,0,1,.89.17,1.22,1.22,0,0,1,.57,1.71,1.39,1.39,0,0,1-1.25.77,4.41,4.41,0,0,0-3.76,2.51,4.29,4.29,0,0,0,1,5.36,25.9,25.9,0,0,0,9.09,4.54,4.29,4.29,0,0,0,4.87-2.44,4.41,4.41,0,0,0-.25-4.52,1.38,1.38,0,0,1-.14-1.46,1.22,1.22,0,0,1,1.71-.57,1.78,1.78,0,0,1,.67.61,7.41,7.41,0,0,1-7.32,11.18A17.92,17.92,0,0,1,308.32,441Z" style="fill:#fff"/><path d="M308.89,420.34a1.71,1.71,0,0,1,1.72-3,1.71,1.71,0,1,1-1.72,3Zm5.35,2.64a1.31,1.31,0,1,1,1.31-2.27L326.29,427a1.31,1.31,0,1,1-1.31,2.27Z" style="fill:#fff"/><path d="M330.34,420l-12.26-2.68a1.7,1.7,0,0,1-.61-.26,1.21,1.21,0,0,1-.34-1.75,1.29,1.29,0,0,1,1.47-.52l10.78,2.49,0-.05-6.58-8.87a1.29,1.29,0,0,1-.1-1.55,1.23,1.23,0,0,1,1.75-.38,1.61,1.61,0,0,1,.47.47l7.27,10.24c.76,1.06.87,1.62.41,2.33S331.61,420.26,330.34,420Z" style="fill:#fff"/><path d="M322.09,400a1.71,1.71,0,0,1,2.05-2.74,1.71,1.71,0,1,1-2.05,2.74Zm5,3.24a1.31,1.31,0,1,1,1.57-2.1l10,7.44a1.31,1.31,0,1,1-1.57,2.09Z" style="fill:#fff"/><path d="M345,402.75c-1.69,2.08-3.31,2-5.39.31L327.12,392.9a1.31,1.31,0,1,1,1.65-2l12.37,10.06c1,.79,1.58.77,2.23,0a1.15,1.15,0,0,1,1.71-.17,1.17,1.17,0,0,1,.1,1.8Z" style="fill:#fff"/><path d="M427.13,314.25a1.06,1.06,0,0,1-.8-.59.93.93,0,0,1,.48-1.25,1.21,1.21,0,0,1,.65-.07,7,7,0,0,0,3.91-.49c1.95-.88,2.66-2.33,2-3.74-.54-1.18-1.52-1.61-3.9-.95l-.72.21c-3,.83-4.82.18-5.81-2-1.11-2.46-.08-4.81,2.68-6.06a8,8,0,0,1,4.07-.72,1,1,0,0,1,.84.57.88.88,0,0,1-.44,1.18,1.76,1.76,0,0,1-.66.1,7.5,7.5,0,0,0-3.11.58c-1.74.79-2.18,2.14-1.6,3.42s1.56,1.56,3.86.91l.71-.2c3-.84,4.85-.2,5.85,2,1.09,2.39.18,4.9-3.16,6.42A8.54,8.54,0,0,1,427.13,314.25Z" style="fill:#fff"/><path d="M438.32,307.69A8.08,8.08,0,0,1,437,305.3a8.26,8.26,0,0,1-.65-2.64,4.48,4.48,0,0,1,7.8-3,7.8,7.8,0,0,1,1.25,2.28.69.69,0,0,1-.44.93l-5.84,2.22a.11.11,0,0,0-.08.17,4.06,4.06,0,0,0,.62,1.15,2.64,2.64,0,0,0,3.18.77,4,4,0,0,0,2.07-1.76,1,1,0,0,1,.51-.48.75.75,0,0,1,1,.45.92.92,0,0,1,0,.73,5.56,5.56,0,0,1-3.06,2.73A4.11,4.11,0,0,1,438.32,307.69Zm4.92-5.73a.12.12,0,0,0,.07-.17,3.67,3.67,0,0,0-.57-1.07,2.63,2.63,0,0,0-4.58,1.74,4.06,4.06,0,0,0,.28,1.18.13.13,0,0,0,.18.08Z" style="fill:#fff"/><path d="M448.92,303.78a10.94,10.94,0,0,1-1.63-5.15,4.5,4.5,0,0,1,6.85-3.55,1.1,1.1,0,0,1,.47.57.82.82,0,0,1-.54,1,1.12,1.12,0,0,1-.92-.18,2.56,2.56,0,0,0-2.2-.24,2.32,2.32,0,0,0-1.76,2.32,6.93,6.93,0,0,0,.42,2.13,7,7,0,0,0,.89,2,2.3,2.3,0,0,0,2.77.87,2.5,2.5,0,0,0,1.67-1.46,1.08,1.08,0,0,1,.65-.67.81.81,0,0,1,1,.54,1.1,1.1,0,0,1-.05.73,4.5,4.5,0,0,1-7.65,1Z" style="fill:#fff"/><path d="M463,302.45c-2.11.57-3.12-.1-3.7-2.25l-1.55-5.79a.12.12,0,0,0-.16-.09l-.58.16a.76.76,0,1,1-.4-1.47l.58-.15a.13.13,0,0,0,.1-.17l-.61-2.25a.94.94,0,1,1,1.81-.49l.6,2.26c0,.09.08.12.17.09l1.35-.36a.76.76,0,1,1,.39,1.46l-1.35.37c-.09,0-.12.07-.09.16l1.53,5.72c.3,1.09.66,1.34,1.76,1.05a.83.83,0,0,1,1.11.6c.13.49-.1.92-.75,1.1Z" style="fill:#fff"/><path d="M465.72,298.92a8.29,8.29,0,0,1-.93-2.58,8,8,0,0,1-.22-2.71,4.52,4.52,0,0,1,8.22-1.79,8.11,8.11,0,0,1,.92,2.56,8.23,8.23,0,0,1,.23,2.73,4.52,4.52,0,0,1-8.22,1.79Zm6.34-1.93a6.62,6.62,0,0,0-.22-2.18,6.85,6.85,0,0,0-.7-2.06,2.57,2.57,0,0,0-4.7,1,7.07,7.07,0,0,0,.22,2.16,7,7,0,0,0,.71,2.08,2.56,2.56,0,0,0,4.69-1Z" style="fill:#fff"/><path d="M477.47,298.26,476,289.5a.94.94,0,1,1,1.85-.31l.08.49h0a2.89,2.89,0,0,1,2.44-2,3.08,3.08,0,0,1,1.62.12.91.91,0,0,1-.12,1.78,1.37,1.37,0,0,1-.48,0,3.09,3.09,0,0,0-1.25-.06c-1.58.25-2,1.68-1.71,3.43l.83,5.1a.92.92,0,0,1-.76,1.14A.93.93,0,0,1,477.47,298.26Z" style="fill:#fff"/><path d="M424.78,327.47a.83.83,0,0,1,.4-1.2l4.18-2.09c2.7-1.36,5.15-.55,6.36,1.86s.4,4.85-2.31,6.21l-3.08,1.55a.12.12,0,0,0-.06.18l2.25,4.47a1,1,0,0,1-.4,1.4,1,1,0,0,1-1.37-.51Zm9.19-.55c-.74-1.48-2.17-1.9-3.85-1.06l-3,1.51a.12.12,0,0,0-.06.18l2.28,4.54a.12.12,0,0,0,.18.06l3-1.52C434.19,329.79,434.71,328.39,434,326.92Z" style="fill:#fff"/><path d="M442.42,333.76,439,325.58a.94.94,0,1,1,1.72-.73l.19.45h0a2.9,2.9,0,0,1,1.89-2.56,3.1,3.1,0,0,1,1.6-.27.89.89,0,0,1,.8.53.9.9,0,0,1-.49,1.23,1.42,1.42,0,0,1-.48.08,3.27,3.27,0,0,0-1.23.23c-1.47.62-1.55,2.1-.85,3.74l2,4.76a.94.94,0,1,1-1.72.73Z" style="fill:#fff"/><path d="M445.81,318.18a1.23,1.23,0,1,1,1.58.71A1.23,1.23,0,0,1,445.81,318.18Zm1.76,3.88a.94.94,0,1,1,1.76-.66l3.11,8.32a.92.92,0,0,1-.53,1.27.91.91,0,0,1-1.22-.61Z" style="fill:#fff"/><path d="M457.85,327.67l-5.64-7a1.22,1.22,0,0,1-.22-.42.86.86,0,0,1,.59-1.12.92.92,0,0,1,1.05.36l4.9,6.21h0l.3-7.88a.93.93,0,0,1,.64-.91.87.87,0,0,1,1.14.57,1.17,1.17,0,0,1,.06.47l-.53,9c-.05.93-.24,1.29-.81,1.48S458.43,328.39,457.85,327.67Z" style="fill:#fff"/><path d="M474,323.43a.9.9,0,0,1-.71,1.1,1,1,0,0,1-.91-.25l-.57-.55h0a4.06,4.06,0,0,1-2.86,2c-2.31.58-3.94-.23-4.43-2.19-.54-2.13.66-3.56,3.22-4.21l2.36-.59a.13.13,0,0,0,.09-.17l-.12-.49c-.37-1.45-1.24-2.1-3.05-1.64a5.11,5.11,0,0,0-2,1,1.33,1.33,0,0,1-.48.28.74.74,0,0,1-1-.58.85.85,0,0,1,.25-.84,5.9,5.9,0,0,1,2.95-1.57c2.76-.7,4.39.29,5,2.84l.94,3.71a1.94,1.94,0,0,0,.46,1l.53.58A1.07,1.07,0,0,1,474,323.43Zm-3.11-2-.29-1.14a.12.12,0,0,0-.16-.1l-2.07.53c-1.77.44-2.44,1.16-2.14,2.33s1.18,1.42,2.56,1.07C470.41,323.75,471.23,322.74,470.91,321.46Z" style="fill:#fff"/><path d="M483,321.64l-.05-.29h0a3.24,3.24,0,0,1-2.72,1.94,3.69,3.69,0,0,1-4.09-2,11.31,11.31,0,0,1-1-5.72,3.69,3.69,0,0,1,3.14-3.28,3.22,3.22,0,0,1,3.23.87h0l-.84-4.69a.94.94,0,1,1,1.84-.33l2.37,13.15a.94.94,0,1,1-1.84.33Zm-.65-2.19a6.66,6.66,0,0,0-.14-2.19,6.5,6.5,0,0,0-.63-2.08,2.48,2.48,0,0,0-4.62.83,6.81,6.81,0,0,0,.14,2.17,6.73,6.73,0,0,0,.63,2.1,2.48,2.48,0,0,0,4.62-.83Z" style="fill:#fff"/><path d="M487.71,319.13a10.46,10.46,0,0,1-.59-5.38,4.52,4.52,0,0,1,8.37-.92,10.4,10.4,0,0,1,.59,5.38,4.52,4.52,0,0,1-8.37.92Zm6.52-1.25a7.23,7.23,0,0,0,0-2.2,6.8,6.8,0,0,0-.48-2.12,2.57,2.57,0,0,0-4.78.53,6.72,6.72,0,0,0,0,2.17,6.87,6.87,0,0,0,.48,2.14,2.57,2.57,0,0,0,4.78-.52Z" style="fill:#fff"/><path id="_Path_" data-name="&lt;Path&gt;" d="M566.71,870.88a4.78,4.78,0,0,0-2.24-4.06h0a6.42,6.42,0,0,1-1.83-9.23h0a4.85,4.85,0,0,0,.86-2.75,4.78,4.78,0,0,0-1.2-3.18c-.93-1.12-7.74-9.76-25.56-20.34a6.43,6.43,0,0,0-7.24.26h0l-10.75,7.73v0h0a6.49,6.49,0,0,1-3.49,1h-8a4.82,4.82,0,0,0-4.82,4.81v65a4.82,4.82,0,0,0,1.12,3.08,16.73,16.73,0,0,0,4.36,3.51,4.82,4.82,0,0,0,7.38-4.07l0-12.86a4.82,4.82,0,0,1,4.81-4.82,5,5,0,0,1,2.11.48h0A32.42,32.42,0,0,0,566.58,872,4.66,4.66,0,0,0,566.71,870.88Z" style="fill:none;stroke:#fff;stroke-miterlimit:10;stroke-width:4px"/><path d="M204.67,437.85h-.82a4.78,4.78,0,0,0-4.13-7.1h-12a4.71,4.71,0,0,0,0-4.69,1.21,1.21,0,1,0-2.09,1.21,2.27,2.27,0,0,1,.3,1.17,2.32,2.32,0,0,1-2.31,2.31H169a1.21,1.21,0,0,0-1.21,1.2,9.55,9.55,0,0,1-9.57,9.48h0a1.22,1.22,0,1,0,0,2.43h.05a12,12,0,0,0,11.93-10.69h29.53a2.41,2.41,0,0,1,2.34,2.39,2.34,2.34,0,0,1-2.34,2.29H177.14a1.21,1.21,0,1,0,0,2.42h27.53a2.31,2.31,0,0,1,1.63.7,2.37,2.37,0,0,1,.68,1.67,2.32,2.32,0,0,1-2.32,2.3H177.11a1.22,1.22,0,0,0,0,2.43h22.57a2.24,2.24,0,0,1,1.62.68,2.27,2.27,0,0,1,0,3.23,2.24,2.24,0,0,1-1.61.66H177.09a1.22,1.22,0,1,0,0,2.43H192a2.32,2.32,0,0,1,2.31,2.33,2.25,2.25,0,0,1-2.32,2.21c-.21,0-26.22,0-26.29,0a16.4,16.4,0,0,1-4.57-32.06,1.21,1.21,0,0,0-.72-2.31,18.92,18.92,0,0,0-9.49,6.72,18.88,18.88,0,0,0,1.73,24.57,18,18,0,0,0,13.05,5.52H192a4.66,4.66,0,0,0,4.74-4.64,4.74,4.74,0,0,0-.61-2.34h3.53A4.75,4.75,0,0,0,203,453a4.63,4.63,0,0,0,1.41-3.34,4.73,4.73,0,0,0-.59-2.31h.86a4.75,4.75,0,0,0,3.37-8.09A4.64,4.64,0,0,0,204.67,437.85Z" style="fill:#fff"/><path d="M151.92,409.06h.85a4.62,4.62,0,0,0-.59,2.31,4.73,4.73,0,0,0,4.75,4.69h3.52a4.74,4.74,0,0,0-.6,2.34A4.65,4.65,0,0,0,164.6,423h26.06a18.74,18.74,0,0,0,18.74-18.81,18.84,18.84,0,0,0-18.82-18.82H173a4.74,4.74,0,0,0-4.72,4.76,4.58,4.58,0,0,0,.61,2.29h-12a4.79,4.79,0,0,0-4.72,4.83,4.67,4.67,0,0,0,.6,2.28h-.83a4.66,4.66,0,0,0-3.35,1.42,4.76,4.76,0,0,0,3.38,8.1Zm-1.65-6.4a2.27,2.27,0,0,1,1.62-.7h27.54a1.21,1.21,0,0,0,0-2.42H156.87a2.33,2.33,0,0,1-2.32-2.29,2.37,2.37,0,0,1,2.3-2.39h30.71a1.22,1.22,0,1,0,0-2.43H173a2.32,2.32,0,0,1,0-4.63h17.57a16.4,16.4,0,0,1,.07,32.79H164.59a2.25,2.25,0,0,1-2.32-2.21,2.32,2.32,0,0,1,2.31-2.33h14.9a1.22,1.22,0,1,0,0-2.43H156.92a2.28,2.28,0,0,1-1.65-3.89,2.21,2.21,0,0,1,1.6-.68h22.58a1.22,1.22,0,1,0,0-2.43H151.91a2.32,2.32,0,0,1-2.32-2.3A2.37,2.37,0,0,1,150.27,402.66Z" style="fill:#fff"/><path d="M234.7,261.85a3.32,3.32,0,0,0-2.38,1,3.36,3.36,0,1,0,2.38-1Zm.79,4.15a1.07,1.07,0,0,1-.79.33,1.11,1.11,0,0,1-.8-.33,1.13,1.13,0,0,1,0-1.58,1.15,1.15,0,0,1,.8-.33,1.12,1.12,0,0,1,.79,1.91Z" style="fill:#fff"/><path d="M281.81,312.32a3.36,3.36,0,1,0-2.38,1A3.36,3.36,0,0,0,281.81,312.32Zm-3.17-3.17a1.13,1.13,0,1,1,0,1.59A1.11,1.11,0,0,1,278.64,309.15Z" style="fill:#fff"/><path d="M241,286.79a1.15,1.15,0,0,0,1.59,0,1.12,1.12,0,0,0,0-1.59l-17.88-17.88,12.15-12.14,7.92,7.92-3.43,3.43a1.12,1.12,0,0,0,0,1.59,1.14,1.14,0,0,0,1.58,0l3.44-3.44,3,3-3.43,3.43a1.13,1.13,0,0,0,.79,1.92,1.09,1.09,0,0,0,.79-.33l3.44-3.44,3,3-3.43,3.43a1.12,1.12,0,1,0,1.59,1.59l4.22-4.23a1.11,1.11,0,0,0,0-1.58L237.6,252.8a1.11,1.11,0,0,0-1.58,0l-13.74,13.73a1.14,1.14,0,0,0,0,1.59Z" style="fill:#fff"/><path d="M273.17,288.37a1.11,1.11,0,0,0-1.58,0l-4.23,4.23a1.12,1.12,0,0,0,1.59,1.58l3.43-3.43,3,3-3.44,3.44a1.12,1.12,0,0,0,1.59,1.58l3.43-3.43,3,3-3.44,3.44a1.12,1.12,0,0,0,1.59,1.58l3.43-3.43,7.93,7.92L277.32,320,259.44,302.1a1.12,1.12,0,1,0-1.58,1.59l18.66,18.67a1.15,1.15,0,0,0,1.59,0l13.73-13.74a1.11,1.11,0,0,0,0-1.58Z" style="fill:#fff"/><path d="M281.31,275.47l9.22-9.22a5.59,5.59,0,0,0,0-7.92l-4.22-4.22a5.59,5.59,0,0,0-7.92,0l-2.12,2.11a1.12,1.12,0,0,0,1.59,1.58l2.11-2.11a3.36,3.36,0,0,1,4.75,0l4.23,4.23a3.36,3.36,0,0,1,0,4.75l-4.49,4.49-9.77-9.77a1.12,1.12,0,0,0-1.59,0l-3.93,3.93-39.49,39.49h0s0,0,0,0a1.15,1.15,0,0,0-.21.33l-4.32,10.47v0L222,321.14a1.12,1.12,0,0,0,.24,1.22,1.16,1.16,0,0,0,.8.32,1,1,0,0,0,.42-.08l7.48-3.08h0l10.47-4.31a1.19,1.19,0,0,0,.33-.22l0,0h0ZM241.42,312.2a6.84,6.84,0,0,0-1.1-1.42,6.94,6.94,0,0,0-3.07-1.8l29.28-29.28a1.12,1.12,0,1,0-1.59-1.59l-29.28,29.28a7,7,0,0,0-3.22-4.17L270,265.7l3.7,3.7-4.49,4.49a1.12,1.12,0,1,0,1.58,1.58l4.49-4.49,3.7,3.7Zm-10.6,5-3.34-3.34,3.61-8.78a4.65,4.65,0,0,1,2.5,4.71,1.16,1.16,0,0,0,.31,1,1.13,1.13,0,0,0,1,.31,4.41,4.41,0,0,1,3.85,1.31,5.05,5.05,0,0,1,.87,1.19Zm43.08-55.39,9,9-2.36,2.36-9-9Zm-47.35,54.29,2,2-3.44,1.41Z" style="fill:#fff"/><path d="M207.87,593.11l-9-4a1.76,1.76,0,0,1-1.05-1.61V585a13.11,13.11,0,0,0,5-10.28v-3.48a3.2,3.2,0,0,0,1.66-2.81v-.33A13.16,13.16,0,0,0,191.31,555H188a13.15,13.15,0,0,0-13.14,13.14v3.06a3.24,3.24,0,0,0,1.23,2.6,3.41,3.41,0,0,0,.42.28v.68a13.14,13.14,0,0,0,5,10.28v2.47a1.76,1.76,0,0,1-1,1.61l-9,4a8.17,8.17,0,0,0-4.85,7.47v20.53a1.55,1.55,0,1,0,3.1,0V600.58a4.89,4.89,0,0,1,0-.54l4.15,4.15a3.44,3.44,0,0,1,1,2.42v14.5a1.55,1.55,0,1,0,3.1,0v-14.5a6.48,6.48,0,0,0-1.91-4.61l-5-4.94a5,5,0,0,1,1.59-1.12l8.85-3.93,6.56,6.56v22.54a1.55,1.55,0,1,0,3.1,0V598.57l6.56-6.56,8.85,3.93a4.87,4.87,0,0,1,1.59,1.12L203.26,602a6.48,6.48,0,0,0-1.91,4.61v14.5a1.55,1.55,0,1,0,3.1,0v-14.5a3.4,3.4,0,0,1,1-2.42l4.14-4.15a4.9,4.9,0,0,1,0,.54v20.53a1.55,1.55,0,1,0,3.09,0V600.58A8.17,8.17,0,0,0,207.87,593.11Zm-18.22,2.63L183.89,590a4.85,4.85,0,0,0,.69-2.48v-.63a13.11,13.11,0,0,0,10.14,0v.63a4.85,4.85,0,0,0,.69,2.48Zm0-11a10,10,0,0,1-10-10v-.7a9,9,0,0,0,2.81-1.82,1.55,1.55,0,1,0-2.1-2.28,5.42,5.42,0,0,1-2.3,1.37h0a.32.32,0,0,1,0-.14v-3.06a10.05,10.05,0,0,1,10.05-10h3.31a10.05,10.05,0,0,1,10,10v.33a.1.1,0,0,1-.07.11c-9.28,1.83-13.93-1.62-15.5-3.19a1.55,1.55,0,0,0-2.19,2.19c4.81,4.81,11.83,4.89,16.1,4.38v2.8A10,10,0,0,1,189.65,584.79Z" style="fill:#fff"/><path d="M164.71,584.68v-3.31a11.47,11.47,0,0,0-5.26-9.64,6.77,6.77,0,0,0,.29-2,6.52,6.52,0,0,0-13,0,6.41,6.41,0,0,0,.3,2,11.45,11.45,0,0,0-5.27,9.64v3.31a11.46,11.46,0,0,0,5,9.45v3.41a1.74,1.74,0,0,1-1,1.57l-5.36,2.68a6.49,6.49,0,0,0-3.6,5.83v13.49a1.55,1.55,0,1,0,3.09,0V608.29l2.53,2.52a3.44,3.44,0,0,1,1,2.42v7.88a1.55,1.55,0,1,0,3.1,0v-7.88a6.48,6.48,0,0,0-1.91-4.61l-3.51-3.51-.06-.05a3.84,3.84,0,0,1,.74-.5l5.36-2.67a5,5,0,0,0,.77-.48l3.79,3.78v15.92a1.55,1.55,0,1,0,3.1,0V605.19l3.78-3.78a5.52,5.52,0,0,0,.77.48l1.48.73a1.44,1.44,0,0,0,.69.17,1.55,1.55,0,0,0,.69-2.94l-1.47-.74a1.75,1.75,0,0,1-1-1.57v-3.41A11.46,11.46,0,0,0,164.71,584.68Zm-11.48-18.32a3.42,3.42,0,0,1,3.41,3.42,3.08,3.08,0,0,1,0,.61,11.54,11.54,0,0,0-6.72,0,3.08,3.08,0,0,1-.06-.61A3.42,3.42,0,0,1,153.23,566.36Zm0,6.63a8.39,8.39,0,0,1,8.38,8.38v.56a9.74,9.74,0,0,1-10.46-3.14,1.52,1.52,0,0,0-1.12-.62,1.56,1.56,0,0,0-1.21.45,10.25,10.25,0,0,1-4,2.54A8.39,8.39,0,0,1,153.23,573Zm0,29.37-3.58-3.58a5.08,5.08,0,0,0,.16-1.24v-1.89a11.47,11.47,0,0,0,6.83,0v1.89a4.64,4.64,0,0,0,.17,1.24Zm0-9.29a8.39,8.39,0,0,1-8.39-8.39v-.32a12.3,12.3,0,0,0,5-2.48,14,14,0,0,0,2.87,2.09,12.28,12.28,0,0,0,5.92,1.53,13,13,0,0,0,3-.36A8.4,8.4,0,0,1,153.23,593.07Z" style="fill:#fff"/><path d="M269.46,698l-2.63-1.21-3.42,2.15L254.53,702l-14.17,12.18-.4.08-4.57,3.18-2.12.08-5.2,4.15-4.15,2.86-3.31,3.66-2.8,2.5-.46,1.26-3,1.8h-.08l-8.84,8.36-3.12.58-2.4,1.3-.09.06-1.83,3,.8,2-.61.6-1.38,2.53,3.19,3.11,1.26,2.71,1.47-2,1.4-2.25,4.3-.37.73-.07,2.14-1.6,5.45-.19,1.28-3.54.93-4.12,3.74-.33,4,.32,3.52-2.07,2.7.93,1-1-1.28-1.58,2.27-4.18,1,2.09,1.39,1.89,2.46.36,1.59-1.94.39.29,1.77-2.68.05-.16,2.11,3,2.1,1.41,5.45,1.95,2.43-.68,1.3-.3,1-1.45-.07.12-.43-.6.62-1.57,1-.24.16-.41-.56-2.78-.06-.83.54-.56.75-.71,1.91-1.41,3.39-2.86,7.25-1.94,1.2-.26,8.12.67,1.23-2.61-.12-.78-6.8-1.2-4-2.74,1.78-.65,3.33-1.11-.5-2.62-.79-2.07-1.53-3.88.13-6.25-4.05-.89L269.46,698Z" style="fill:none;stroke:#fff;stroke-linecap:round;stroke-linejoin:round;stroke-width:3px"/><path d="M200.33,760.84l-.74,1.24-.45.87-.13,1.18-.07.58.35,2,1.55,3.75.11.21-.1,0-.35.22-1.82-.75-1.36-1.39-.95-1.34-.47-.31-.62-1.1-.66-.21-.18-.08,6.14-6.31-.25,1.36" style="fill:none;stroke:#fff;stroke-linecap:round;stroke-linejoin:round;stroke-width:2.83142530918121px"/><path d="M220.47,771.26l-3.34,1.2-.18-.12-.19,1,.1.34.59-.14.28.43.61-.65-.1.42.26-.07.59-.27.46.59.09.06.94.13v0l.42.32-.13-.18.24.19.28.07,0-.19.23-.28-.1-.31.21.28.06-.73Z" style="fill:none;stroke:#fff;stroke-linecap:round;stroke-linejoin:round;stroke-width:2.83142530918121px"/><path d="M219.41,771.25l.08-.19-1.22-1v-.17l-.91-1-.17.12-.51,1-.15-.35-.2.52.09.19-.11.19-.39-.2-.47-.24-.52-.22-.09.28.21,1.13.34,0,1.34.28,2.37-.22h.44l-.13-.17Z" style="fill:none;stroke:#fff;stroke-linecap:round;stroke-linejoin:round;stroke-width:2.83142530918121px"/><path d="M808.38,390.36h-5.61a1.41,1.41,0,0,0-1.41,1.4v8.42a1.41,1.41,0,0,0,1.41,1.41h5.61a1.4,1.4,0,0,0,1.4-1.41v-8.42A1.4,1.4,0,0,0,808.38,390.36Zm-1.4,8.42h-2.81v-5.61H807v5.61Z" style="fill:#fff"/><path d="M823.82,383.34v-5.61a4.21,4.21,0,0,0-8.42,0v5.61a1.4,1.4,0,0,0,1.4,1.41h5.61A1.41,1.41,0,0,0,823.82,383.34Zm-2.81-1.4H818.2v-4.21a1.41,1.41,0,0,1,2.81,0v4.21Z" style="fill:#fff"/><path d="M847.67,390.36H822.41a1.41,1.41,0,0,0,0,2.81h1.41v12.62a1.4,1.4,0,1,0,2.8,0V393.17h7v5.61a1.41,1.41,0,0,0,0,2.81v4.2a1.4,1.4,0,1,0,2.8,0v-4.2a1.41,1.41,0,1,0,0-2.81v-5.61h7V405.8a1.41,1.41,0,0,0,2.81,0V393.17h1.4a1.41,1.41,0,0,0,0-2.81Z" style="fill:#fff"/><path d="M819.61,362.29a1.4,1.4,0,0,0,1.4-1.4c0-6,4-10.63,9.86-12.12a18.41,18.41,0,0,0-4.25,12.12,1.41,1.41,0,0,0,2.81,0A15.32,15.32,0,0,1,835,348.58a15.47,15.47,0,0,1,5.61,12.31,1.41,1.41,0,0,0,2.81,0,18.41,18.41,0,0,0-4.25-12.12c5.9,1.49,9.86,6.13,9.86,12.12a1.41,1.41,0,0,0,2.81,0c0-8.36-6.54-14.76-15.44-15.37V334.23h8.42V337h-4.21a1.4,1.4,0,0,0,0,2.8h5.62a1.4,1.4,0,0,0,1.4-1.4v-5.61a1.41,1.41,0,0,0-1.4-1.41H835a1.41,1.41,0,0,0-1.4,1.41v12.69c-8.89.61-15.44,7-15.44,15.37A1.4,1.4,0,0,0,819.61,362.29Z" style="fill:#fff"/><path d="M847.67,410H822.41a1.41,1.41,0,0,0-1.4,1.41v2.8a1.41,1.41,0,1,0,2.81,0v-1.4h22.45v1.4a1.4,1.4,0,1,0,2.8,0v-2.8A1.4,1.4,0,0,0,847.67,410Z" style="fill:#fff"/><path d="M853.28,384.75a1.41,1.41,0,0,0,1.41-1.41v-5.61a4.21,4.21,0,0,0-8.42,0v5.61a1.4,1.4,0,0,0,1.4,1.41Zm-4.21-7a1.41,1.41,0,0,1,2.81,0v4.21h-2.81v-4.21Z" style="fill:#fff"/><path d="M861.7,384.75h5.62a1.41,1.41,0,0,0,1.4-1.41v-5.61a4.21,4.21,0,0,0-8.42,0v5.61A1.41,1.41,0,0,0,861.7,384.75Zm1.41-7a1.4,1.4,0,1,1,2.8,0v4.21h-2.8v-4.21Z" style="fill:#fff"/><path d="M875.74,362.29a1.41,1.41,0,0,0-1.41,1.41v1.4H795.75v-1.4a1.41,1.41,0,1,0-2.81,0v50.51a1.41,1.41,0,0,0,1.41,1.41H816.8a1.4,1.4,0,0,0,1.4-1.41V408.6a2.81,2.81,0,0,0-4.21-2.43,2.9,2.9,0,0,0-2.8,0,2.92,2.92,0,0,0-2.81,0,2.92,2.92,0,0,0-2.81,0,2.9,2.9,0,0,0-2.8,0,2.92,2.92,0,0,0-2.81,0,2.92,2.92,0,0,0-2.81,0,2.76,2.76,0,0,0-1.4-.37V367.91h78.58V405.8a2.76,2.76,0,0,0-1.4.37,2.92,2.92,0,0,0-2.81,0,2.9,2.9,0,0,0-2.8,0,2.92,2.92,0,0,0-2.81,0,2.92,2.92,0,0,0-2.81,0,2.9,2.9,0,0,0-2.8,0,2.92,2.92,0,0,0-2.81,0,2.76,2.76,0,0,0-1.4-.37,2.8,2.8,0,0,0-2.81,2.8v5.61a1.41,1.41,0,0,0,1.4,1.41h22.45a1.41,1.41,0,0,0,1.41-1.41V363.7A1.41,1.41,0,0,0,875.74,362.29ZM797.15,410a1.41,1.41,0,0,1,2.81,0,1.41,1.41,0,0,1,2.81,0,1.4,1.4,0,0,1,2.8,0,1.41,1.41,0,0,1,2.81,0,1.41,1.41,0,0,1,2.81,0,1.4,1.4,0,1,1,2.8,0,1.4,1.4,0,0,0,1.41-1.4v4.21H795.75V408.6A1.4,1.4,0,0,0,797.15,410Zm77.18,2.81H854.69V408.6a3.15,3.15,0,0,1,4.21,1.4,1.4,1.4,0,0,1,2.8,0,1.41,1.41,0,0,1,2.81,0,1.41,1.41,0,0,1,2.81,0,1.4,1.4,0,0,1,2.8,0,1.41,1.41,0,0,1,2.81,0,1.4,1.4,0,0,0,1.4-1.4v4.21Z" style="fill:#fff"/><path d="M860.3,400.18a1.41,1.41,0,0,0,1.4,1.41h5.62a1.41,1.41,0,0,0,1.4-1.41v-8.42a1.4,1.4,0,0,0-1.4-1.4H861.7a1.4,1.4,0,0,0-1.4,1.4Zm2.81-7h2.8v5.61h-2.8Z" style="fill:#fff"/><path d="M837.85,384.75a1.41,1.41,0,0,0,1.4-1.41v-5.61a4.21,4.21,0,0,0-8.42,0v5.61a1.41,1.41,0,0,0,1.41,1.41Zm-4.21-7a1.4,1.4,0,0,1,2.8,0v4.21h-2.8v-4.21Z" style="fill:#fff"/><path d="M809.78,377.73a4.21,4.21,0,1,0-8.42,0v5.61a1.41,1.41,0,0,0,1.41,1.41h5.61a1.4,1.4,0,0,0,1.4-1.41v-5.61Zm-2.8,4.21h-2.81v-4.21a1.41,1.41,0,0,1,2.81,0Z" style="fill:#fff"/><path d="M424.72,212.79l-1.07-2.44s-1.39.53-1.49.6a1.37,1.37,0,0,0-.51,1.69l1.43,3.47a1,1,0,0,1-.57,1.36l-3.78,1.58a1,1,0,0,1-1.35-.57L415.93,215a1.37,1.37,0,0,0-1.55-.83,21.44,21.44,0,0,1-8.37,0,1.38,1.38,0,0,0-1.56.83L403,218.48a1,1,0,0,1-1.36.57l-3.78-1.57a1,1,0,0,1-.57-.57,1,1,0,0,1,0-.8l1.45-3.47a1.38,1.38,0,0,0-.51-1.69,21.29,21.29,0,0,1-5.92-5.93,1.38,1.38,0,0,0-1.69-.5L387.15,206a1,1,0,0,1-1.35-.57l-1.57-3.78a1,1,0,0,1,.57-1.35l3.47-1.45a1.37,1.37,0,0,0,.83-1.55,21.44,21.44,0,0,1,0-8.37,1.37,1.37,0,0,0-.83-1.55l-3.47-1.45a1.06,1.06,0,0,1-.57-.57,1,1,0,0,1,0-.8l1.57-3.78a1,1,0,0,1,.57-.57,1,1,0,0,1,.8,0l3.47,1.44a1.37,1.37,0,0,0,1.69-.5,21.19,21.19,0,0,1,5.93-5.93,1.38,1.38,0,0,0,.5-1.69L397.32,170a1,1,0,0,1,0-.8,1.06,1.06,0,0,1,.57-.57l3.78-1.57a1,1,0,0,1,1.35.57l1.45,3.47a1.39,1.39,0,1,0,2.57-1.06l-1.45-3.47a3.83,3.83,0,0,0-5-2.08l-3.78,1.57a3.79,3.79,0,0,0-2.08,2.08,3.91,3.91,0,0,0,0,2.93l1,2.45a24.08,24.08,0,0,0-5.09,5.09l-2.45-1a3.83,3.83,0,0,0-5,2.07l-1.57,3.79a3.84,3.84,0,0,0,2.07,5l2.45,1a23.49,23.49,0,0,0,0,7.2l-2.45,1a3.83,3.83,0,0,0-2.07,5l1.57,3.73a3.83,3.83,0,0,0,5,2.08l2.44-1a24.56,24.56,0,0,0,5.09,5.09l-1,2.44a3.85,3.85,0,0,0,2.07,5l3.79,1.57a3.84,3.84,0,0,0,5-2.08l1-2.45a23.49,23.49,0,0,0,7.2,0l1,2.45a3.83,3.83,0,0,0,3.53,2.37,3.78,3.78,0,0,0,1.47-.29l3.78-1.57a3.85,3.85,0,0,0,2.08-5Z" style="fill:#fff"/><path d="M410.11,183.55a1.39,1.39,0,1,0,0-2.78h0a12.3,12.3,0,0,0,.08,24.59h.09A12.29,12.29,0,0,0,422.47,193a1.39,1.39,0,0,0-1.4-1.38h0a1.39,1.39,0,0,0-1.38,1.4,9.51,9.51,0,0,1-9.45,9.58h-.07a9.52,9.52,0,0,1-6.77-16.2A9.61,9.61,0,0,1,410.11,183.55Z" style="fill:#fff"/><path d="M434.19,151.31a19.33,19.33,0,0,0-10.09,35.82,7.7,7.7,0,0,1,1.56,1.22v9.22c0,3.35,1.73,5.69,4.2,5.69h8.66c2.47,0,4.2-2.34,4.2-5.69v-9.22a7.7,7.7,0,0,1,1.56-1.22,19.33,19.33,0,0,0-10.09-35.82ZM440,197.57c0,1.74-.64,3-1.52,3h-8.66c-.88,0-1.52-1.26-1.52-3v-1.48H440Zm2.83-12.73-.15.1a16.24,16.24,0,0,1-2.64,1.31l0,7.15h-11.7v-7.24a10,10,0,0,1-2.68-1.22l-.15-.1a16.65,16.65,0,1,1,17.36,0Z" style="fill:#fff"/><path d="M443.36,160.47a1.34,1.34,0,1,0-1.89,1.91,12.27,12.27,0,0,1,3.65,8.77,12.72,12.72,0,0,1-.55,3.68,1.34,1.34,0,0,0,.88,1.68,1.39,1.39,0,0,0,.4.06,1.34,1.34,0,0,0,1.28-.95,15,15,0,0,0-3.77-15.15Z" style="fill:#fff"/><path d="M438.72,157.55l-.07,0a1.34,1.34,0,1,0-1.24,2.38l.07,0a1.38,1.38,0,0,0,.62.15,1.34,1.34,0,0,0,.62-2.53Z" style="fill:#fff"/><path d="M434.19,140.78a1.34,1.34,0,0,0-1.34,1.35v4.58a1.34,1.34,0,0,0,2.68,0v-4.58A1.34,1.34,0,0,0,434.19,140.78Z" style="fill:#fff"/><path d="M455,149.87a1.35,1.35,0,0,0-1.9,0L450,153a1.34,1.34,0,0,0,1.89,1.91l3.14-3.12A1.34,1.34,0,0,0,455,149.87Z" style="fill:#fff"/><path d="M411.56,151.77l3.14,3.12a1.34,1.34,0,0,0,.6.34,1.34,1.34,0,0,0,1.29-2.25l-3.14-3.11a1.34,1.34,0,1,0-1.89,1.9Z" style="fill:#fff"/><path d="M462.11,169h-4.26a1.34,1.34,0,0,0,0,2.68h4.26a1.34,1.34,0,0,0,0-2.68Z" style="fill:#fff"/><circle cx="513.47" cy="526.12" r="274.74" style="fill:none;stroke:#fff;stroke-linecap:round;stroke-miterlimit:10;stroke-width:3.8884907579422px;stroke-dasharray:0.9721226692199707,11.665472030639648"/><line x1="295.57" y1="718.28" x2="185.67" y2="818.43" style="fill:none;stroke:#9aca3c;stroke-linecap:round;stroke-miterlimit:10;stroke-width:6px"/><text transform="matrix(-0.65, -0.76, 0.76, -0.65, 196.48, 804.39)" style="font-size:24px;fill:#fff;font-family:DINNextRoundedLTPro-Regular, DIN Next Rounded LT Pro">N</text><text transform="matrix(-0.62, -0.78, 0.78, -0.62, 186.42, 792.48)" style="font-size:24px;fill:#fff;font-family:DINNextRoundedLTPro-Regular, DIN Next Rounded LT Pro">a</text><text transform="translate(178.71 782.79) rotate(-127.2)" style="font-size:24px;fill:#fff;font-family:DINNextRoundedLTPro-Regular, DIN Next Rounded LT Pro">c</text><text transform="matrix(-0.59, -0.81, 0.81, -0.59, 171.92, 773.81)" style="font-size:24px;fill:#fff;font-family:DINNextRoundedLTPro-Regular, DIN Next Rounded LT Pro">i</text><text transform="matrix(-0.58, -0.82, 0.82, -0.58, 168.42, 769.09)" style="font-size:24px;fill:#fff;font-family:DINNextRoundedLTPro-Regular, DIN Next Rounded LT Pro">รณ</text><text transform="matrix(-0.55, -0.83, 0.83, -0.55, 161.34, 759.05)" style="font-size:24px;fill:#fff;font-family:DINNextRoundedLTPro-Regular, DIN Next Rounded LT Pro">n</text><text transform="matrix(0.89, -0.46, 0.46, 0.89, 287.71, 79.69)" style="font-size:24px;fill:#fff;font-family:DINNextRoundedLTPro-Regular, DIN Next Rounded LT Pro">E</text><text transform="matrix(0.91, -0.42, 0.42, 0.91, 299.51, 73.49)" style="font-size:24px;fill:#fff;font-family:DINNextRoundedLTPro-Regular, DIN Next Rounded LT Pro">m</text><text transform="translate(317.81 65.14) rotate(-22.47)" style="font-size:24px;fill:#fff;font-family:DINNextRoundedLTPro-Regular, DIN Next Rounded LT Pro">p</text><text transform="matrix(0.93, -0.36, 0.36, 0.93, 329.64, 60.26)" style="font-size:24px;fill:#fff;font-family:DINNextRoundedLTPro-Regular, DIN Next Rounded LT Pro">r</text><text transform="matrix(0.94, -0.34, 0.34, 0.94, 338.27, 56.93)" style="font-size:24px;fill:#fff;font-family:DINNextRoundedLTPro-Regular, DIN Next Rounded LT Pro">e</text><text transform="translate(349.75 52.85) rotate(-17.97)" style="font-size:24px;fill:#fff;font-family:DINNextRoundedLTPro-Regular, DIN Next Rounded LT Pro">s</text><text transform="translate(360.81 49.26) rotate(-16.32)" style="font-size:24px;fill:#fff;font-family:DINNextRoundedLTPro-Regular, DIN Next Rounded LT Pro">a</text><text transform="matrix(0.97, -0.25, 0.25, 0.97, 372.68, 45.78)" style="font-size:24px;fill:#fff;font-family:DINNextRoundedLTPro-Regular, DIN Next Rounded LT Pro">s</text><text transform="matrix(0.9, -0.43, 0.43, 0.9, 299.55, 105.84)" style="font-size:24px;fill:#fff;font-family:DINNextRoundedLTPro-Regular, DIN Next Rounded LT Pro">E</text><text transform="matrix(0.92, -0.39, 0.39, 0.92, 311.55, 100.02)" style="font-size:24px;fill:#fff;font-family:DINNextRoundedLTPro-Regular, DIN Next Rounded LT Pro">m</text><text transform="translate(330.11 92.26) rotate(-20.73)" style="font-size:24px;fill:#fff;font-family:DINNextRoundedLTPro-Regular, DIN Next Rounded LT Pro">p</text><text transform="translate(342.1 87.74) rotate(-19.35)" style="font-size:24px;fill:#fff;font-family:DINNextRoundedLTPro-Regular, DIN Next Rounded LT Pro">r</text><text transform="translate(350.82 84.66) rotate(-18.09)" style="font-size:24px;fill:#fff;font-family:DINNextRoundedLTPro-Regular, DIN Next Rounded LT Pro">e</text><text transform="translate(362.41 80.86) rotate(-16.62)" style="font-size:24px;fill:#fff;font-family:DINNextRoundedLTPro-Regular, DIN Next Rounded LT Pro">n</text><text transform="translate(374.81 77.16) rotate(-15.14)" style="font-size:24px;fill:#fff;font-family:DINNextRoundedLTPro-Regular, DIN Next Rounded LT Pro">d</text><text transform="translate(387.23 73.84) rotate(-14.06)" style="font-size:24px;fill:#fff;font-family:DINNextRoundedLTPro-Regular, DIN Next Rounded LT Pro">i</text><text transform="translate(392.86 72.33) rotate(-12.57)" style="font-size:24px;fill:#fff;font-family:DINNextRoundedLTPro-Regular, DIN Next Rounded LT Pro">m</text><text transform="translate(412.59 68.03) rotate(-11.06)" style="font-size:24px;fill:#fff;font-family:DINNextRoundedLTPro-Regular, DIN Next Rounded LT Pro">i</text><text transform="translate(418.35 66.87) rotate(-10.01)" style="font-size:24px;fill:#fff;font-family:DINNextRoundedLTPro-Regular, DIN Next Rounded LT Pro">e</text><text transform="translate(430.35 64.74) rotate(-8.55)" style="font-size:24px;fill:#fff;font-family:DINNextRoundedLTPro-Regular, DIN Next Rounded LT Pro">n</text><text transform="translate(443.19 62.84) rotate(-7.33)" style="font-size:24px;fill:#fff;font-family:DINNextRoundedLTPro-Regular, DIN Next Rounded LT Pro">t</text><text transform="matrix(0.99, -0.11, 0.11, 0.99, 450.67, 61.85)" style="font-size:24px;fill:#fff;font-family:DINNextRoundedLTPro-Regular, DIN Next Rounded LT Pro">o</text><text transform="translate(462.88 60.54) rotate(-4.72)" style="font-size:24px;fill:#fff;font-family:DINNextRoundedLTPro-Regular, DIN Next Rounded LT Pro">s</text><text transform="translate(822.4 900.04) rotate(-43)" style="font-size:24px;fill:#fff;font-family:DINNextRoundedLTPro-Regular, DIN Next Rounded LT Pro">P</text><text transform="translate(832.72 890.39) rotate(-44.04)" style="font-size:24px;fill:#fff;font-family:DINNextRoundedLTPro-Regular, DIN Next Rounded LT Pro">r</text><text transform="translate(839.4 883.95) rotate(-45)" style="font-size:24px;fill:#fff;font-family:DINNextRoundedLTPro-Regular, DIN Next Rounded LT Pro">o</text><text transform="translate(848.03 875.31) rotate(-46.14)" style="font-size:24px;fill:#fff;font-family:DINNextRoundedLTPro-Regular, DIN Next Rounded LT Pro">v</text><text transform="matrix(0.68, -0.73, 0.73, 0.68, 855.93, 867.06)" style="font-size:24px;fill:#fff;font-family:DINNextRoundedLTPro-Regular, DIN Next Rounded LT Pro">i</text><text transform="translate(859.97 862.77) rotate(-48.08)" style="font-size:24px;fill:#fff;font-family:DINNextRoundedLTPro-Regular, DIN Next Rounded LT Pro">n</text><text transform="matrix(0.65, -0.76, 0.76, 0.65, 868.63, 853.13)" style="font-size:24px;fill:#fff;font-family:DINNextRoundedLTPro-Regular, DIN Next Rounded LT Pro">c</text><text transform="translate(876.02 844.41) rotate(-50.84)" style="font-size:24px;fill:#fff;font-family:DINNextRoundedLTPro-Regular, DIN Next Rounded LT Pro">i</text><text transform="translate(880.01 839.6) rotate(-52.6)" style="font-size:24px;fill:#fff;font-family:DINNextRoundedLTPro-Regular, DIN Next Rounded LT Pro">a</text><line x1="421.28" y1="351.41" x2="265.29" y2="66.75" style="fill:none;stroke:#2b3182;stroke-linecap:round;stroke-miterlimit:10;stroke-width:6px"/><line x1="265.64" y1="678.01" x2="70.28" y2="797.45" style="fill:none;stroke:#414042;stroke-linecap:round;stroke-miterlimit:10;stroke-width:6px"/><text transform="matrix(-0.51, -0.86, 0.86, -0.51, 87.44, 772.51)" style="font-size:24px;fill:#fff;font-family:DINNextRoundedLTPro-Regular, DIN Next Rounded LT Pro">C</text><text transform="translate(80.66 760.9) rotate(-119.51)" style="font-size:24px;fill:#fff;font-family:DINNextRoundedLTPro-Regular, DIN Next Rounded LT Pro">i</text><text transform="translate(77.73 755.79) rotate(-118.72)" style="font-size:24px;fill:#fff;font-family:DINNextRoundedLTPro-Regular, DIN Next Rounded LT Pro">u</text><text transform="translate(71.55 744.51) rotate(-117.67)" style="font-size:24px;fill:#fff;font-family:DINNextRoundedLTPro-Regular, DIN Next Rounded LT Pro">d</text><text transform="matrix(-0.45, -0.89, 0.89, -0.45, 65.59, 733.13)" style="font-size:24px;fill:#fff;font-family:DINNextRoundedLTPro-Regular, DIN Next Rounded LT Pro">a</text><text transform="translate(60.03 722.06) rotate(-115.54)" style="font-size:24px;fill:#fff;font-family:DINNextRoundedLTPro-Regular, DIN Next Rounded LT Pro">d</text><text transform="translate(54.5 710.48) rotate(-114.39)" style="font-size:24px;fill:#fff;font-family:DINNextRoundedLTPro-Regular, DIN Next Rounded LT Pro">a</text><text transform="translate(49.37 699.18) rotate(-113.13)" style="font-size:24px;fill:#fff;font-family:DINNextRoundedLTPro-Regular, DIN Next Rounded LT Pro">n</text><text transform="matrix(-0.37, -0.93, 0.93, -0.37, 44.28, 687.27)" style="font-size:24px;fill:#fff;font-family:DINNextRoundedLTPro-Regular, DIN Next Rounded LT Pro">o</text><text transform="translate(39.73 675.85) rotate(-110.29)" style="font-size:24px;fill:#fff;font-family:DINNextRoundedLTPro-Regular, DIN Next Rounded LT Pro">s</text><text transform="matrix(0.2, -0.98, 0.98, 0.2, 52.54, 446.05)" style="font-size:24px;fill:#fff;font-family:DINNextRoundedLTPro-Regular, DIN Next Rounded LT Pro">O</text><text transform="matrix(0.22, -0.97, 0.97, 0.22, 55.5, 431.6)" style="font-size:24px;fill:#fff;font-family:DINNextRoundedLTPro-Regular, DIN Next Rounded LT Pro">N</text><text transform="translate(59 416.38) rotate(-75.81)" style="font-size:24px;fill:#fff;font-family:DINNextRoundedLTPro-Regular, DIN Next Rounded LT Pro">G</text><text transform="matrix(0.52, -0.85, 0.85, 0.52, 141.96, 328.56)" style="font-size:24px;fill:#fff;font-family:DINNextRoundedLTPro-Regular, DIN Next Rounded LT Pro">A</text><text transform="matrix(0.54, -0.84, 0.84, 0.54, 149.51, 316.27)" style="font-size:24px;fill:#fff;font-family:DINNextRoundedLTPro-Regular, DIN Next Rounded LT Pro">c</text><text transform="matrix(0.55, -0.83, 0.83, 0.55, 155.42, 307.04)" style="font-size:24px;fill:#fff;font-family:DINNextRoundedLTPro-Regular, DIN Next Rounded LT Pro">a</text><text transform="translate(162.29 296.69) rotate(-55.37)" style="font-size:24px;fill:#fff;font-family:DINNextRoundedLTPro-Regular, DIN Next Rounded LT Pro">d</text><text transform="matrix(0.58, -0.81, 0.81, 0.58, 169.57, 286.14)" style="font-size:24px;fill:#fff;font-family:DINNextRoundedLTPro-Regular, DIN Next Rounded LT Pro">e</text><text transform="translate(176.65 276.19) rotate(-52.88)" style="font-size:24px;fill:#fff;font-family:DINNextRoundedLTPro-Regular, DIN Next Rounded LT Pro">m</text><text transform="translate(188.88 260.15) rotate(-51.62)" style="font-size:24px;fill:#fff;font-family:DINNextRoundedLTPro-Regular, DIN Next Rounded LT Pro">i</text><text transform="translate(192.52 255.51) rotate(-50.66)" style="font-size:24px;fill:#fff;font-family:DINNextRoundedLTPro-Regular, DIN Next Rounded LT Pro">a</text><line x1="225.39" y1="480.8" x2="29.06" y2="452.55" style="fill:none;stroke:#414042;stroke-linecap:round;stroke-miterlimit:10;stroke-width:6px"/><line x1="905.46" y1="821.26" x2="745.37" y2="704.16" style="fill:none;stroke:#9aca3c;stroke-linecap:round;stroke-miterlimit:10;stroke-width:6px"/><line x1="252.66" y1="394.86" x2="110.31" y2="326.67" style="fill:none;stroke:#414042;stroke-linecap:round;stroke-miterlimit:10;stroke-width:6px"/><text transform="translate(531.28 23.78) rotate(3.1)" style="font-size:24px;fill:#fff;font-family:DINNextRoundedLTPro-Regular, DIN Next Rounded LT Pro">M</text><text transform="translate(549.29 24.8) rotate(4.47)" style="font-size:24px;fill:#fff;font-family:DINNextRoundedLTPro-Regular, DIN Next Rounded LT Pro">u</text><text transform="translate(562.12 25.8) rotate(5.52)" style="font-size:24px;fill:#fff;font-family:DINNextRoundedLTPro-Regular, DIN Next Rounded LT Pro">n</text><text transform="translate(575.06 27.07) rotate(6.3)" style="font-size:24px;fill:#fff;font-family:DINNextRoundedLTPro-Regular, DIN Next Rounded LT Pro">i</text><text transform="translate(580.94 27.7) rotate(7.02)" style="font-size:24px;fill:#fff;font-family:DINNextRoundedLTPro-Regular, DIN Next Rounded LT Pro">c</text><text transform="translate(592.12 29.1) rotate(7.76)" style="font-size:24px;fill:#fff;font-family:DINNextRoundedLTPro-Regular, DIN Next Rounded LT Pro">i</text><text transform="translate(597.96 29.86) rotate(8.62)" style="font-size:24px;fill:#fff;font-family:DINNextRoundedLTPro-Regular, DIN Next Rounded LT Pro">p</text><text transform="translate(610.65 31.81) rotate(9.52)" style="font-size:24px;fill:#fff;font-family:DINNextRoundedLTPro-Regular, DIN Next Rounded LT Pro">i</text><text transform="matrix(0.98, 0.18, -0.18, 0.98, 616.45, 32.76)" style="font-size:24px;fill:#fff;font-family:DINNextRoundedLTPro-Regular, DIN Next Rounded LT Pro">o</text><text transform="translate(628.55 34.99) rotate(11.78)" style="font-size:24px;fill:#fff;font-family:DINNextRoundedLTPro-Regular, DIN Next Rounded LT Pro">s</text><line x1="516.84" y1="327.82" x2="520.84" y2="8.15" style="fill:none;stroke:#9aca3c;stroke-linecap:round;stroke-miterlimit:10;stroke-width:6px"/><path d="M209.4,226.64a431.29,431.29,0,0,1,87.29-69.42" style="fill:none;stroke:#fff;stroke-linecap:round;stroke-linejoin:round;stroke-width:2.91px;stroke-dasharray:2.9100000858306885,4.849999904632568"/><path d="M65.45,376.52Q72.53,355,81.57,334.39" style="fill:none;stroke:#fff;stroke-linecap:round;stroke-linejoin:round;stroke-width:2.91px;stroke-dasharray:2.9100000858306885,4.849999904632568"/><path d="M795.76,910.4A474.19,474.19,0,0,1,518,999.74c-136.68,0-259.91-57.57-346.77-149.79" style="fill:none;stroke:#fff;stroke-linecap:round;stroke-linejoin:round;stroke-width:2.91px;stroke-dasharray:2.9100000858306885,4.849999904632568"/><path d="M20.44,637.56a514.72,514.72,0,0,1-8.37-176.21" style="fill:none;stroke:#fff;stroke-linecap:round;stroke-linejoin:round;stroke-width:3.115446px;stroke-dasharray:3.115446090698242,5.192409992218018"/><path d="M411.16,26.21A520.55,520.55,0,0,1,518,15.54" style="fill:none;stroke:#fff;stroke-linecap:round;stroke-linejoin:round;stroke-width:3.115446px;stroke-dasharray:3.115446090698242,5.192409992218018"/><path d="M678.63,41.2c201,66.75,345.93,256.28,345.93,479.67a503,503,0,0,1-94.82,294.76" style="fill:none;stroke:#fff;stroke-linecap:round;stroke-linejoin:round;stroke-width:2.96884842552834px;stroke-dasharray:2.968848466873169,4.948080539703369"/></g></g></svg>