<svg xmlns="http://www.w3.org/2000/svg" viewBox="0 0 1214.3 222.39"><title>emojis</title><g id="Layer_2" data-name="Layer 2"><g id="Capa_1" data-name="Capa 1"><path d="M440.17,122.83c7.55,19.71,7.56,20.35-7.58,33.86-3.2,2.86-1.75,4.41-.44,7.14,5.18,10.79,2.66,19.34-7.22,25.88-2.77,1.83-6.44,2.15-5.47,7.62,2.35,13.2-1.63,21.4-14.23,22.89-33.57,4-67.18,5.26-94.05-21.39-25.8-25.59-34.66-56-23.28-90.71C299.13,73.87,324.19,54.7,359.47,49,382.6,45.2,405.18,39.69,427,31c6.89-2.75,14.68-7.35,20.23,1.41,5,7.91,4.58,16.82-1.51,24.15C432.87,72,415.22,77.32,396,78.48c-6.45.39-13,.06-19.42.22-2.19,0-4.52.69-4.24,3.59.21,2.07,2.07,2.83,3.94,2.94,2.87.15,5.76.13,8.63.13,46,0,92.07-.07,138.11.08,12.35,0,19.11,6.17,19.58,16.8.46,10.38-6.15,17.71-17.63,19.28a63.33,63.33,0,0,1-8.61.22c-21.94,0-43.88,0-65.82.07C447.08,121.83,443.44,120.77,440.17,122.83Z" style="fill:#fedd5f"/><path d="M21.09,80.87l-.27-7.57c13.81-6.64,15.8-6.17,27.34,4.94,12.92,12.46,26,24.76,39.1,37,2,1.91,4.29,6.13,7.46,2.86s-1-5.54-3-7.45C76.77,96.75,61.58,83.11,46.78,69.07c-5.52-5.23-12.4-9.55-14.41-17.71-.65-7.2,4.44-10.48,9.43-13.83,7.68,2,13.43,6.73,19.1,12.17,15.63,15,31.74,29.51,47.69,44.17,2,1.79,4.16,4.91,6.91,1.77,2.16-2.48-.49-4.6-2.25-6.2-9.84-9-20.08-17.48-29.58-26.76S63,45.9,56.61,33.8c2.62-13.72,11.07-16.69,21.66-8.12s19,19.72,30.71,27c14.26,15,27.82,30.86,47.5,39.52C154.24,87,150.1,83.63,146.09,80c-9.37-8.52-19.8-16.13-26-27.65,2.65-13.62,11.35-17.11,21.51-8,16.83,15.11,33.76,30.19,49.65,46.26C220.6,120.31,215.57,172,181.35,196c-6.16,4.32-12,9.58-19.75,11.29a34.21,34.21,0,0,0-5.56.22c-26.23,5.24-48.64-1.24-68.09-20.07S47.8,150.67,27.7,132.29c-4.11-3.76-8.33-7.49-10.29-13,.54-2.38,1.09-4.77,1.63-7.15,10.44-8.12,13.76-7.81,23.62,1.6Q57.12,127.55,71.89,141c2,1.79,3.84,6.41,7.32,2.82s-1-5.53-2.94-7.36C62.92,124,49.24,111.89,36,99.33,30.27,93.89,23,89.49,21.09,80.87Z" style="fill:#fedc5d"/><path d="M17.41,119.3c2,5.5,6.18,9.23,10.29,13C47.8,150.67,68.38,168.54,88,187.47s41.86,25.31,68.09,20.07a34.21,34.21,0,0,1,5.56-.22c-.84,4.43-4.87,5.52-8,7-26.89,12.48-53.19,11-76-8.1C52.44,185.09,29,161.88,4.86,139.58c-4.62-4.25-6.41-9.44-3.32-15.05C5,118.24,10.6,116.42,17.41,119.3Z" style="fill:#ef9a47"/><path d="M21.09,80.87c1.9,8.62,9.18,13,14.91,18.46C49.24,111.89,62.92,124,76.27,136.44c2,1.83,6.33,3.88,2.94,7.36s-5.36-1-7.32-2.82q-14.78-13.42-29.23-27.23C32.8,104.34,29.48,104,19,112.15c-3-2.67-6-5.3-8.9-8C5.37,99.64.2,95.2,3.77,87.57S14,79.69,21.09,80.87Z" style="fill:#ef9a47"/><path d="M32.37,51.36c2,8.16,8.89,12.48,14.41,17.71,14.8,14,30,27.68,44.91,41.6,2.06,1.91,6.12,4.26,3,7.45s-5.42-1-7.46-2.86c-13.1-12.26-26.18-24.56-39.1-37C36.62,67.13,34.63,66.66,20.82,73.3c-5.13-4-9.06-8.62-5.56-15.52C18.9,50.59,25.13,49.42,32.37,51.36Z" style="fill:#ef9a47"/><path d="M56.61,33.8C63,45.9,74.24,53.47,83.67,62.68s19.74,17.81,29.58,26.76c1.76,1.6,4.41,3.72,2.25,6.2-2.75,3.14-5,0-6.91-1.77C92.64,79.21,76.53,64.71,60.9,49.7c-5.67-5.44-11.42-10.16-19.1-12.17C45.58,31.71,51.21,33.21,56.61,33.8Z" style="fill:#ef9a47"/><path d="M117.88,21.88c0,4.66.08,9.32,0,14-.1,4.27-1.89,7.34-6.63,7.23-4.24-.11-6-2.93-6-6.84,0-9.94-.1-19.89.07-29.83.07-3.93,2.23-6.48,6.43-6.42,3.81.05,5.68,2.76,5.92,6,.38,5.26.1,10.56.1,15.85Z" style="fill:#ef9a47"/><path d="M172.87,59.77c-5.78.12-7.85-1.49-8.75-4.47a5.26,5.26,0,0,1,3.24-6.83Q182,42.74,196.85,37.59a5.47,5.47,0,0,1,7,3.1c1.27,2.71,1.27,6.25-1.51,7.45C191.89,52.63,181.2,56.53,172.87,59.77Z" style="fill:#ef9a47"/><path d="M170.47,11.2a15.2,15.2,0,0,1-1.65,3.39c-5.83,7.6-11.69,15.17-17.68,22.65-2.43,3-5.64,4-8.91,1.39s-3.29-5.91-.91-9.05q9-11.79,18.26-23.36a5.88,5.88,0,0,1,7.49-1.88C169.49,5.5,170.7,7.61,170.47,11.2Z" style="fill:#ef9a47"/><path d="M120.08,52.33c6.21,11.52,16.64,19.13,26,27.65,4,3.65,8.15,7,10.39,12.19C136.8,83.51,123.24,67.66,109,52.65,112.64,51,116.37,52.06,120.08,52.33Z" style="fill:#ef9a47"/><path d="M621.75,168.64c-.14-14.13-6.7-25.61-14.53-36.78C597.06,117.37,595,101.58,601.6,85a52.66,52.66,0,0,1,50.92-33.64c24.16,1,44.05,19.46,48.57,42.25C704,108.26,700,121,692,133c-6.42,9.6-13.26,19-13.65,31.23l-24.24,4c.06-6.12.72-12.31.06-18.36C652.33,133,654.54,118,670.11,108a3.37,3.37,0,0,0,.5-.5c2.23-2.24,3.37-5.21,1.11-7.49s-5.25-1.15-7.49,1.07c-3.34,3.32-6.87,6.49-10,10s-5.3,3.83-8.45.15a140.42,140.42,0,0,0-10.48-10.51c-2.29-2.17-5.15-2.83-7.57-.56-2.9,2.7-.88,5,1.31,7.08,4.06,3.94,7.85,8.17,12.06,11.92,3.45,3.08,4.75,6.49,4.65,11.14-.28,12.71-.08,25.44-.06,38.16Z" style="fill:#fed984"/><path d="M654.11,168.14l24.24-4c6,3.41,6,6-.06,10-2.31.23-4.65.34-6.95.7q-24.84,3.85-49.69,7.8c-6-3-6-4.8,0-9.93,8.78.45,17.14-2,25.6-3.69Z" style="fill:#cbd5dc"/><path d="M623.25,202.37c-2.91-.32-5.65-.89-5.85-4.61-.15-3,1.07-4.93,4.29-5.18,3-.48,6-.92,9-1.45q23.82-4.22,47.65-8.47c6,4.08,6,6.69-.06,9.93-3,.48-6,.86-9,1.46C654,197.12,638.38,198.39,623.25,202.37Z" style="fill:#cbd5dc"/><path d="M678.35,182.66q-23.82,4.25-47.65,8.47c-3,.53-6,1-9,1.45q0-5,0-9.92,24.86-3.9,49.69-7.8c2.3-.36,4.64-.47,6.95-.7Z" style="fill:#9dadb8"/><path d="M623.25,202.37c15.13-4,30.75-5.25,46-8.32,3-.6,6-1,9-1.46.07,10.85-1.36,12.75-11,14.54a326.57,326.57,0,0,0-34.56,0C628.93,206.79,625.42,205.9,623.25,202.37Z" style="fill:#9dadb8"/><path d="M632.71,207.14a326.57,326.57,0,0,1,34.56,0C660.27,219.4,639.72,219.41,632.71,207.14Z" style="fill:#cbd5dc"/><path d="M647.21,169c-8.46,1.73-16.82,4.14-25.6,3.69,0-1.37.09-2.73.14-4.09l24-.15Z" style="fill:#aeb6b0"/><path d="M647.21,169l-1.47-.55c0-12.72-.22-25.45.06-38.16.1-4.65-1.2-8.06-4.65-11.14-4.21-3.75-8-8-12.06-11.92-2.19-2.12-4.21-4.38-1.31-7.08,2.42-2.27,5.28-1.61,7.57.56a140.42,140.42,0,0,1,10.48,10.51c3.15,3.68,5.47,3.26,8.45-.15s6.61-6.71,10-10c2.24-2.22,5.22-3.36,7.49-1.07s1.12,5.25-1.11,7.49a3.37,3.37,0,0,1-.5.5c-15.57,10-17.78,25-15.94,41.78.66,6.05,0,12.24-.06,18.36Z" style="fill:#fecc4d"/><path d="M890.62,149.25c19.87-18.11,42.24-23,67-17.18,16.08,3.76,25.08,14.8,27.1,31.73,1.47,12.32-5.58,24.09-19.16,31.47-22.55,12.25-46.92,14-71.89,12.24-13.88-1-26.73-6.91-40.7-7.9-8.43-.61-10.16-3.59-9.67-12.09,1.76-30.66,7.53-60.38,21.6-88,5.15-10.12,8.94-21.07,17.78-29,7.55-6.73,16.17-10.17,26.38-11,11.77-.91,21.06,14.89,18.48,27.26-6.53,3.43-8,8.22-6,15.5.78,3-11.83,7.79-17.39,7.09-.42,0-.83-.12-1.23-.2-11.07-2.23-11.33-2.25-12.21,8.87A207.41,207.41,0,0,0,890.62,149.25Zm29.29,44.88c15.63-1.16,29.1-6,38.7-26.54,1.52-3.25,2.17-6.12-1.71-7.73s-4.79,1.38-6.07,4.22c-4.84,10.77-12.26,18.32-24.54,20.66-8.84,1.69-16.71-.8-24.77-3.45-2.95-1-6.5-2.2-7.87,2-1.2,3.63,1.84,4.89,4.67,6C905.09,192,912.2,193.23,919.91,194.13Z" style="fill:#fedc5e"/><path d="M919.91,194.13c-7.71-.9-14.82-2.1-21.59-4.85-2.83-1.14-5.87-2.4-4.67-6,1.37-4.16,4.92-2.93,7.87-2,8.06,2.65,15.93,5.14,24.77,3.45,12.28-2.34,19.7-9.89,24.54-20.66,1.28-2.84,2.26-5.79,6.07-4.22s3.23,4.48,1.71,7.73C949,188.09,935.54,193,919.91,194.13Z" style="fill:#ef9944"/><path d="M1202.9,126.5c8,3,11.63,8.65,11.39,17.38-.35,13-.06,26.08-.1,39.12,0,11.41-5.53,17-16.76,17q-31.12,0-62.26,0c-10.56,0-16.25-5.71-16.3-16.36-.06-11.38.53-22.8-.14-34.15-1.24-21.18,8.09-23.66,23-23.25,15.59.44,31.21,0,46.82-.12Z" style="fill:#fead30"/><path d="M1202.9,126.5l-14.31-.38c0-7.52.12-15.05-.06-22.57-.22-9.13-7.49-18.27-15.89-20.34-10.28-2.55-20.37,1.14-24.87,10.23-2.42,4.9-4.78,4.88-9.28,3.44-7.8-2.5-8.9-.76-4.22-9.9,7.33-14.32,24.42-22.17,39.92-18.47,17.26,4.12,28.71,17.91,28.83,34.86C1203.08,111.08,1202.94,118.79,1202.9,126.5Z" style="fill:#acbac3"/></g></g></svg>