<svg xmlns="http://www.w3.org/2000/svg" viewBox="0 0 162.19 253.49"><title>female_1</title><g style="isolation:isolate"><g id="Layer_2" data-name="Layer 2"><g id="Capa_1" data-name="Capa 1"><g style="mix-blend-mode:multiply"><path d="M87.78,224.82a3.72,3.72,0,0,0-3.72,3.72v14.55a3,3,0,1,1-5.93,0V196.54a3.72,3.72,0,0,0-3.72-3.72h-36a3,3,0,0,1,0-5.94h36a3.72,3.72,0,0,0,3.72-3.72v-25a3.71,3.71,0,0,0-3.4-3.7,73.85,73.85,0,0,1-59.44-40.31,3.71,3.71,0,1,0-6.63,3.35,81.29,81.29,0,0,0,62,44v17.93H38.38a10.4,10.4,0,1,0,0,20.8H70.69v42.84a10.41,10.41,0,0,0,20.81,0V228.54A3.72,3.72,0,0,0,87.78,224.82Z" style="fill:#60024c"/><path d="M147,65.41a3.72,3.72,0,1,0-7.23,1.72,60.37,60.37,0,1,1-5.93-15.25,3.71,3.71,0,1,0,6.49-3.61A67.72,67.72,0,1,0,81.09,148.82C124.7,148.82,157.11,108,147,65.41Z" style="fill:#60024c"/><path d="M81.09,0A81.11,81.11,0,0,0,2.34,100.45a3.72,3.72,0,1,0,7.22-1.77,73.62,73.62,0,1,1,77.9,55.8,3.71,3.71,0,0,0-3.4,3.7v25a3.72,3.72,0,0,0,3.72,3.71h36a3,3,0,0,1,0,5.94h-36a3.72,3.72,0,0,0-3.72,3.72v14.65a3.72,3.72,0,1,0,7.44,0V200.25h32.31a10.4,10.4,0,0,0,0-20.8H91.5V161.52A81.1,81.1,0,0,0,81.09,0Z" style="fill:#60024c"/></g></g></g></g></svg>