<svg xmlns="http://www.w3.org/2000/svg" viewBox="0 0 1914.01 993.13"><title>gracias</title><g id="Layer_2" data-name="Layer 2"><g id="Capa_1" data-name="Capa 1"><path d="M1015.65,3.73a1.92,1.92,0,0,1-2-1.88,2,2,0,0,1,3.94,0,1.92,1.92,0,0,1-2,1.88" style="fill:#fff"/><path d="M1015.65,36.33a1.87,1.87,0,1,1,2-1.86,1.92,1.92,0,0,1-2,1.86" style="fill:#fff"/><path d="M1046.18,3.73a1.92,1.92,0,0,1-2-1.88,2,2,0,0,1,3.93,0,1.92,1.92,0,0,1-2,1.88" style="fill:#fff"/><path d="M1046.18,36.33a1.87,1.87,0,1,1,2-1.86,1.92,1.92,0,0,1-2,1.86" style="fill:#fff"/><path d="M1076.73,3.73a1.92,1.92,0,0,1-2-1.88,2,2,0,0,1,3.93,0,1.92,1.92,0,0,1-2,1.88" style="fill:#fff"/><path d="M1076.73,36.33a1.87,1.87,0,1,1,2-1.86,1.92,1.92,0,0,1-2,1.86" style="fill:#fff"/><path d="M1107.26,3.73a1.92,1.92,0,0,1-2-1.88,2,2,0,0,1,3.94,0,1.92,1.92,0,0,1-2,1.88" style="fill:#fff"/><path d="M1107.26,36.33a1.87,1.87,0,1,1,2-1.86,1.92,1.92,0,0,1-2,1.86" style="fill:#fff"/><path d="M1137.8,3.73a1.93,1.93,0,0,1-2-1.88,2,2,0,0,1,4,0,1.93,1.93,0,0,1-2,1.88" style="fill:#fff"/><path d="M1137.8,36.33a1.87,1.87,0,1,1,2-1.86,1.93,1.93,0,0,1-2,1.86" style="fill:#fff"/><path d="M1168.33,3.73a1.92,1.92,0,0,1-2-1.88,2,2,0,0,1,3.94,0,1.93,1.93,0,0,1-2,1.88" style="fill:#fff"/><path d="M1168.33,36.33a1.87,1.87,0,1,1,2-1.86,1.92,1.92,0,0,1-2,1.86" style="fill:#fff"/><path d="M1198.87,3.73a1.93,1.93,0,0,1-2-1.88,2,2,0,0,1,3.94,0,1.92,1.92,0,0,1-2,1.88" style="fill:#fff"/><path d="M1198.87,36.33a1.87,1.87,0,1,1,2-1.86,1.93,1.93,0,0,1-2,1.86" style="fill:#fff"/><path d="M1229.41,3.73a1.93,1.93,0,0,1-2-1.88,2,2,0,0,1,3.94,0,1.92,1.92,0,0,1-2,1.88" style="fill:#fff"/><path d="M1229.41,36.33a1.87,1.87,0,1,1,2-1.86,1.93,1.93,0,0,1-2,1.86" style="fill:#fff"/><path d="M1260,3.73a1.92,1.92,0,0,1-2-1.88,2,2,0,0,1,3.94,0,1.93,1.93,0,0,1-2,1.88" style="fill:#fff"/><path d="M1260,36.33a1.87,1.87,0,1,1,2-1.86,1.92,1.92,0,0,1-2,1.86" style="fill:#fff"/><path d="M1290.49,3.73a1.92,1.92,0,0,1-2-1.88,2,2,0,0,1,3.94,0,1.93,1.93,0,0,1-2,1.88" style="fill:#fff"/><path d="M1290.49,36.33a1.87,1.87,0,1,1,2-1.86,1.92,1.92,0,0,1-2,1.86" style="fill:#fff"/><path d="M1321,3.73a1.92,1.92,0,0,1-2-1.88,2,2,0,0,1,3.94,0,1.93,1.93,0,0,1-2,1.88" style="fill:#fff"/><path d="M1321,36.33a1.87,1.87,0,1,1,0-3.73,1.87,1.87,0,1,1,0,3.73" style="fill:#fff"/><path d="M1351.56,3.73a1.92,1.92,0,0,1-2-1.88,2,2,0,0,1,3.94,0,1.92,1.92,0,0,1-2,1.88" style="fill:#fff"/><path d="M1351.56,36.33a1.87,1.87,0,1,1,2-1.86,1.92,1.92,0,0,1-2,1.86" style="fill:#fff"/><path d="M1382.1,3.73a1.92,1.92,0,0,1-2-1.88,1.91,1.91,0,0,1,2-1.85h.21a1.9,1.9,0,0,0-1.76,1.84,1.92,1.92,0,0,0,1.76,1.87h-.21" style="fill:#fff"/><path d="M1382.1,36.33a1.87,1.87,0,1,1,0-3.73h.21a1.86,1.86,0,0,0,0,3.71h-.21" style="fill:#fff"/><path d="M1382.52,3.73h-.21a1.92,1.92,0,0,1-1.76-1.87A1.9,1.9,0,0,1,1382.31,0h.21a1.92,1.92,0,0,1,2,1.85,1.93,1.93,0,0,1-2,1.88" style="fill:#fff"/><path d="M1382.52,36.33h-.21a1.86,1.86,0,0,1,0-3.71h.21a1.87,1.87,0,1,1,0,3.73" style="fill:#fff"/><path d="M1413.05,3.73a1.93,1.93,0,0,1-2-1.88,2,2,0,0,1,3.94,0,1.92,1.92,0,0,1-2,1.88" style="fill:#fff"/><path d="M1413.05,36.33a1.87,1.87,0,1,1,2-1.86,1.93,1.93,0,0,1-2,1.86" style="fill:#fff"/><path d="M1443.59,3.73a1.93,1.93,0,0,1-2-1.88,2,2,0,0,1,3.94,0,1.92,1.92,0,0,1-2,1.88" style="fill:#fff"/><path d="M1443.59,36.33a1.87,1.87,0,1,1,2-1.86,1.93,1.93,0,0,1-2,1.86" style="fill:#fff"/><path d="M1474.13,3.73a1.92,1.92,0,0,1-2-1.88,2,2,0,0,1,3.94,0,1.92,1.92,0,0,1-2,1.88" style="fill:#fff"/><path d="M1474.13,36.33a1.87,1.87,0,1,1,2-1.86,1.92,1.92,0,0,1-2,1.86" style="fill:#fff"/><path d="M1504.67,3.73a1.93,1.93,0,0,1-2-1.88,2,2,0,0,1,4,0,1.92,1.92,0,0,1-2,1.88" style="fill:#fff"/><path d="M1504.67,36.33a1.87,1.87,0,1,1,2-1.86,1.93,1.93,0,0,1-2,1.86" style="fill:#fff"/><path d="M1535.21,3.73a1.92,1.92,0,0,1-2-1.88,2,2,0,0,1,3.94,0,1.93,1.93,0,0,1-2,1.88" style="fill:#fff"/><path d="M1535.21,36.33a1.87,1.87,0,1,1,2-1.86,1.92,1.92,0,0,1-2,1.86" style="fill:#fff"/><path d="M1565.74,3.73a1.92,1.92,0,0,1-2-1.88,2,2,0,0,1,3.94,0,1.92,1.92,0,0,1-2,1.88" style="fill:#fff"/><path d="M1565.74,36.33a1.87,1.87,0,1,1,2-1.86,1.92,1.92,0,0,1-2,1.86" style="fill:#fff"/><path d="M1596.28,3.73a1.92,1.92,0,0,1-2-1.88,2,2,0,0,1,3.94,0,1.92,1.92,0,0,1-2,1.88" style="fill:#fff"/><path d="M1596.28,36.33a1.87,1.87,0,1,1,2-1.86,1.92,1.92,0,0,1-2,1.86" style="fill:#fff"/><path d="M1626.81,3.73a1.92,1.92,0,0,1-2-1.88,2,2,0,0,1,3.94,0,1.93,1.93,0,0,1-2,1.88" style="fill:#fff"/><path d="M1626.81,36.33a1.87,1.87,0,1,1,2-1.86,1.92,1.92,0,0,1-2,1.86" style="fill:#fff"/><path d="M1657.35,3.73a1.92,1.92,0,0,1-2-1.88,2,2,0,0,1,3.93,0,1.92,1.92,0,0,1-2,1.88" style="fill:#fff"/><path d="M1657.35,36.33a1.87,1.87,0,1,1,2-1.86,1.92,1.92,0,0,1-2,1.86" style="fill:#fff"/><path d="M1687.89,3.73a1.92,1.92,0,0,1-2-1.88,2,2,0,0,1,3.93,0,1.92,1.92,0,0,1-2,1.88" style="fill:#fff"/><path d="M1687.89,36.33a1.87,1.87,0,1,1,2-1.86,1.91,1.91,0,0,1-2,1.86" style="fill:#fff"/><path d="M1718.43,3.73a1.92,1.92,0,0,1-2-1.88,2,2,0,0,1,3.94,0,1.92,1.92,0,0,1-2,1.88" style="fill:#fff"/><path d="M1718.43,36.33a1.87,1.87,0,1,1,2-1.86,1.92,1.92,0,0,1-2,1.86" style="fill:#fff"/><path d="M1749,3.73a1.92,1.92,0,0,1-2-1.88,2,2,0,0,1,3.94,0,1.93,1.93,0,0,1-2,1.88" style="fill:#fff"/><path d="M1749,36.33a1.87,1.87,0,1,1,2-1.86,1.92,1.92,0,0,1-2,1.86" style="fill:#fff"/><path d="M1779.51,3.73a1.93,1.93,0,0,1-2-1.88,2,2,0,0,1,4,0,1.93,1.93,0,0,1-2,1.88" style="fill:#fff"/><path d="M1779.51,36.33a1.87,1.87,0,1,1,2-1.86,1.92,1.92,0,0,1-2,1.86" style="fill:#fff"/><path d="M1810.05,3.73a1.93,1.93,0,0,1-2-1.88,2,2,0,0,1,4,0,1.93,1.93,0,0,1-2,1.88" style="fill:#fff"/><path d="M1810.05,36.33a1.87,1.87,0,1,1,2-1.86,1.92,1.92,0,0,1-2,1.86" style="fill:#fff"/><path d="M1840.58,3.73a1.92,1.92,0,0,1-2-1.88,2,2,0,0,1,3.94,0,1.92,1.92,0,0,1-2,1.88" style="fill:#fff"/><path d="M1840.58,36.33a1.87,1.87,0,1,1,2-1.86,1.92,1.92,0,0,1-2,1.86" style="fill:#fff"/><path d="M1871.11,3.73a1.92,1.92,0,0,1-2-1.88,2,2,0,0,1,3.93,0,1.92,1.92,0,0,1-2,1.88" style="fill:#fff"/><path d="M1871.11,36.33a1.87,1.87,0,1,1,2-1.86,1.92,1.92,0,0,1-2,1.86" style="fill:#fff"/><path d="M1015.65,61.76a1.87,1.87,0,1,1,2-1.87,1.92,1.92,0,0,1-2,1.87" style="fill:#fff"/><path d="M1015.65,94.36a1.87,1.87,0,1,1,2-1.86,1.91,1.91,0,0,1-2,1.86" style="fill:#fff"/><path d="M1015.65,127a1.87,1.87,0,1,1,2-1.86,1.91,1.91,0,0,1-2,1.86" style="fill:#fff"/><path d="M1015.65,159.58a1.87,1.87,0,1,1,2-1.87,1.92,1.92,0,0,1-2,1.87" style="fill:#fff"/><path d="M1015.65,192.18a1.87,1.87,0,1,1,2-1.86,1.91,1.91,0,0,1-2,1.86" style="fill:#fff"/><path d="M1015.65,224.78a1.86,1.86,0,1,1,2-1.86,1.91,1.91,0,0,1-2,1.86" style="fill:#fff"/><path d="M1015.65,257.39a1.86,1.86,0,1,1,2-1.87,1.92,1.92,0,0,1-2,1.87" style="fill:#fff"/><path d="M1046.18,61.76a1.87,1.87,0,1,1,2-1.87,1.92,1.92,0,0,1-2,1.87" style="fill:#fff"/><path d="M1046.18,94.36a1.87,1.87,0,1,1,2-1.86,1.91,1.91,0,0,1-2,1.86" style="fill:#fff"/><path d="M1046.18,127a1.87,1.87,0,1,1,2-1.86,1.91,1.91,0,0,1-2,1.86" style="fill:#fff"/><path d="M1046.18,159.58a1.87,1.87,0,1,1,2-1.87,1.92,1.92,0,0,1-2,1.87" style="fill:#fff"/><path d="M1046.18,192.18a1.87,1.87,0,1,1,2-1.86,1.91,1.91,0,0,1-2,1.86" style="fill:#fff"/><path d="M1046.18,224.78a1.86,1.86,0,1,1,2-1.86,1.91,1.91,0,0,1-2,1.86" style="fill:#fff"/><path d="M1046.18,257.39a1.86,1.86,0,1,1,2-1.87,1.91,1.91,0,0,1-2,1.87" style="fill:#fff"/><path d="M1076.73,61.76a1.87,1.87,0,1,1,2-1.87,1.92,1.92,0,0,1-2,1.87" style="fill:#fff"/><path d="M1076.73,94.36a1.87,1.87,0,1,1,2-1.86,1.91,1.91,0,0,1-2,1.86" style="fill:#fff"/><path d="M1076.73,127a1.87,1.87,0,1,1,2-1.86,1.91,1.91,0,0,1-2,1.86" style="fill:#fff"/><path d="M1076.73,159.58a1.87,1.87,0,1,1,2-1.87,1.92,1.92,0,0,1-2,1.87" style="fill:#fff"/><path d="M1076.73,192.18a1.87,1.87,0,1,1,2-1.86,1.91,1.91,0,0,1-2,1.86" style="fill:#fff"/><path d="M1076.73,224.78a1.86,1.86,0,1,1,2-1.86,1.91,1.91,0,0,1-2,1.86" style="fill:#fff"/><path d="M1076.73,257.39a1.86,1.86,0,1,1,2-1.87,1.92,1.92,0,0,1-2,1.87" style="fill:#fff"/><path d="M1107.26,61.76a1.87,1.87,0,1,1,2-1.87,1.92,1.92,0,0,1-2,1.87" style="fill:#fff"/><path d="M1107.26,94.36a1.87,1.87,0,1,1,2-1.86,1.91,1.91,0,0,1-2,1.86" style="fill:#fff"/><path d="M1107.26,127a1.87,1.87,0,1,1,2-1.86,1.91,1.91,0,0,1-2,1.86" style="fill:#fff"/><path d="M1107.26,159.58a1.87,1.87,0,1,1,2-1.87,1.92,1.92,0,0,1-2,1.87" style="fill:#fff"/><path d="M1107.26,192.18a1.87,1.87,0,1,1,2-1.86,1.91,1.91,0,0,1-2,1.86" style="fill:#fff"/><path d="M1107.26,224.78a1.86,1.86,0,1,1,2-1.86,1.91,1.91,0,0,1-2,1.86" style="fill:#fff"/><path d="M1107.26,257.39a1.86,1.86,0,1,1,2-1.87,1.92,1.92,0,0,1-2,1.87" style="fill:#fff"/><path d="M1137.8,61.76a1.87,1.87,0,1,1,2-1.87,1.93,1.93,0,0,1-2,1.87" style="fill:#fff"/><path d="M1137.8,94.36a1.87,1.87,0,1,1,2-1.86,1.92,1.92,0,0,1-2,1.86" style="fill:#fff"/><path d="M1137.8,127a1.87,1.87,0,1,1,2-1.86,1.92,1.92,0,0,1-2,1.86" style="fill:#fff"/><path d="M1137.8,159.58a1.87,1.87,0,1,1,2-1.87,1.93,1.93,0,0,1-2,1.87" style="fill:#fff"/><path d="M1137.8,192.18a1.87,1.87,0,1,1,2-1.86,1.92,1.92,0,0,1-2,1.86" style="fill:#fff"/><path d="M1137.8,224.78a1.86,1.86,0,1,1,2-1.86,1.92,1.92,0,0,1-2,1.86" style="fill:#fff"/><path d="M1137.8,257.39a1.86,1.86,0,1,1,2-1.87,1.92,1.92,0,0,1-2,1.87" style="fill:#fff"/><path d="M1168.33,61.76a1.87,1.87,0,1,1,2-1.87,1.92,1.92,0,0,1-2,1.87" style="fill:#fff"/><path d="M1168.33,94.36a1.87,1.87,0,1,1,0-3.73,1.87,1.87,0,1,1,0,3.73" style="fill:#fff"/><path d="M1168.33,127a1.87,1.87,0,1,1,2-1.86,1.91,1.91,0,0,1-2,1.86" style="fill:#fff"/><path d="M1168.33,159.58a1.87,1.87,0,1,1,2-1.87,1.92,1.92,0,0,1-2,1.87" style="fill:#fff"/><path d="M1168.33,192.18a1.87,1.87,0,1,1,0-3.73,1.87,1.87,0,1,1,0,3.73" style="fill:#fff"/><path d="M1168.33,224.78a1.86,1.86,0,1,1,0-3.72,1.86,1.86,0,1,1,0,3.72" style="fill:#fff"/><path d="M1168.33,257.39a1.86,1.86,0,1,1,2-1.87,1.91,1.91,0,0,1-2,1.87" style="fill:#fff"/><path d="M1198.87,61.76a1.87,1.87,0,1,1,2-1.87,1.93,1.93,0,0,1-2,1.87" style="fill:#fff"/><path d="M1198.87,94.36a1.87,1.87,0,1,1,2-1.86,1.92,1.92,0,0,1-2,1.86" style="fill:#fff"/><path d="M1198.87,127a1.87,1.87,0,1,1,2-1.86,1.92,1.92,0,0,1-2,1.86" style="fill:#fff"/><path d="M1198.87,159.58a1.87,1.87,0,1,1,2-1.87,1.93,1.93,0,0,1-2,1.87" style="fill:#fff"/><path d="M1198.87,192.18a1.87,1.87,0,1,1,2-1.86,1.92,1.92,0,0,1-2,1.86" style="fill:#fff"/><path d="M1198.87,224.78a1.86,1.86,0,1,1,2-1.86,1.91,1.91,0,0,1-2,1.86" style="fill:#fff"/><path d="M1198.87,257.39a1.86,1.86,0,1,1,2-1.87,1.92,1.92,0,0,1-2,1.87" style="fill:#fff"/><path d="M1229.41,61.76a1.87,1.87,0,1,1,2-1.87,1.93,1.93,0,0,1-2,1.87" style="fill:#fff"/><path d="M1229.41,94.36a1.87,1.87,0,1,1,2-1.86,1.92,1.92,0,0,1-2,1.86" style="fill:#fff"/><path d="M1229.41,127a1.87,1.87,0,1,1,2-1.86,1.92,1.92,0,0,1-2,1.86" style="fill:#fff"/><path d="M1229.41,159.58a1.87,1.87,0,1,1,2-1.87,1.93,1.93,0,0,1-2,1.87" style="fill:#fff"/><path d="M1229.41,192.18a1.87,1.87,0,1,1,2-1.86,1.92,1.92,0,0,1-2,1.86" style="fill:#fff"/><path d="M1229.41,224.78a1.86,1.86,0,1,1,2-1.86,1.91,1.91,0,0,1-2,1.86" style="fill:#fff"/><path d="M1229.41,257.39a1.86,1.86,0,1,1,2-1.87,1.92,1.92,0,0,1-2,1.87" style="fill:#fff"/><path d="M1260,61.76a1.87,1.87,0,1,1,2-1.87,1.92,1.92,0,0,1-2,1.87" style="fill:#fff"/><path d="M1260,94.36a1.87,1.87,0,1,1,2-1.86,1.91,1.91,0,0,1-2,1.86" style="fill:#fff"/><path d="M1260,127a1.87,1.87,0,1,1,2-1.86,1.91,1.91,0,0,1-2,1.86" style="fill:#fff"/><path d="M1260,159.58a1.87,1.87,0,1,1,2-1.87,1.92,1.92,0,0,1-2,1.87" style="fill:#fff"/><path d="M1260,192.18a1.87,1.87,0,1,1,2-1.86,1.91,1.91,0,0,1-2,1.86" style="fill:#fff"/><path d="M1260,224.78a1.86,1.86,0,1,1,0-3.72,1.86,1.86,0,1,1,0,3.72" style="fill:#fff"/><path d="M1260,257.39a1.86,1.86,0,1,1,2-1.87,1.92,1.92,0,0,1-2,1.87" style="fill:#fff"/><path d="M1290.49,61.76a1.87,1.87,0,1,1,2-1.87,1.92,1.92,0,0,1-2,1.87" style="fill:#fff"/><path d="M1290.49,94.36a1.87,1.87,0,1,1,2-1.86,1.91,1.91,0,0,1-2,1.86" style="fill:#fff"/><path d="M1290.49,127a1.87,1.87,0,1,1,2-1.86,1.91,1.91,0,0,1-2,1.86" style="fill:#fff"/><path d="M1290.49,159.58a1.87,1.87,0,1,1,2-1.87,1.92,1.92,0,0,1-2,1.87" style="fill:#fff"/><path d="M1290.49,192.18a1.87,1.87,0,1,1,2-1.86,1.91,1.91,0,0,1-2,1.86" style="fill:#fff"/><path d="M1290.49,224.78a1.86,1.86,0,1,1,0-3.72,1.86,1.86,0,1,1,0,3.72" style="fill:#fff"/><path d="M1290.49,257.39a1.86,1.86,0,1,1,2-1.87,1.92,1.92,0,0,1-2,1.87" style="fill:#fff"/><path d="M1321,61.76a1.87,1.87,0,1,1,2-1.87,1.91,1.91,0,0,1-2,1.87" style="fill:#fff"/><path d="M1321,94.36a1.87,1.87,0,1,1,0-3.73,1.87,1.87,0,1,1,0,3.73" style="fill:#fff"/><path d="M1321,127a1.87,1.87,0,1,1,0-3.73,1.87,1.87,0,1,1,0,3.73" style="fill:#fff"/><path d="M1321,159.58a1.87,1.87,0,1,1,2-1.87,1.91,1.91,0,0,1-2,1.87" style="fill:#fff"/><path d="M1321,192.18a1.87,1.87,0,1,1,0-3.73,1.87,1.87,0,1,1,0,3.73" style="fill:#fff"/><path d="M1321,224.78a1.86,1.86,0,1,1,0-3.72,1.86,1.86,0,1,1,0,3.72" style="fill:#fff"/><path d="M1321,257.39a1.86,1.86,0,1,1,2-1.87,1.91,1.91,0,0,1-2,1.87" style="fill:#fff"/><path d="M1351.56,61.76a1.87,1.87,0,1,1,2-1.87,1.92,1.92,0,0,1-2,1.87" style="fill:#fff"/><path d="M1351.56,94.36a1.87,1.87,0,1,1,2-1.86,1.91,1.91,0,0,1-2,1.86" style="fill:#fff"/><path d="M1351.56,127a1.87,1.87,0,1,1,2-1.86,1.91,1.91,0,0,1-2,1.86" style="fill:#fff"/><path d="M1351.56,159.58a1.87,1.87,0,1,1,2-1.87,1.92,1.92,0,0,1-2,1.87" style="fill:#fff"/><path d="M1351.56,192.18a1.87,1.87,0,1,1,2-1.86,1.91,1.91,0,0,1-2,1.86" style="fill:#fff"/><path d="M1351.56,224.78a1.86,1.86,0,1,1,2-1.86,1.91,1.91,0,0,1-2,1.86" style="fill:#fff"/><path d="M1351.56,257.39a1.86,1.86,0,1,1,2-1.87,1.92,1.92,0,0,1-2,1.87" style="fill:#fff"/><path d="M1382.1,61.76a1.87,1.87,0,1,1,0-3.73h.21a1.86,1.86,0,0,0,0,3.71h-.21" style="fill:#fff"/><path d="M1382.1,94.36a1.87,1.87,0,1,1,0-3.73h.21a1.86,1.86,0,0,0,0,3.71h-.21" style="fill:#fff"/><path d="M1382.1,127a1.87,1.87,0,1,1,0-3.73h.21a1.86,1.86,0,0,0,0,3.71h-.21" style="fill:#fff"/><path d="M1382.1,159.58a1.87,1.87,0,1,1,0-3.74h.21a1.86,1.86,0,0,0,0,3.72h-.21" style="fill:#fff"/><path d="M1382.1,192.18a1.87,1.87,0,1,1,0-3.73h.21a1.86,1.86,0,0,0,0,3.71h-.21" style="fill:#fff"/><path d="M1382.1,224.78a1.86,1.86,0,1,1,0-3.72h.21a1.85,1.85,0,0,0,0,3.7h-.21" style="fill:#fff"/><path d="M1382.1,257.39a1.86,1.86,0,1,1,0-3.72h.21a1.85,1.85,0,0,0,0,3.7h-.21" style="fill:#fff"/><path d="M1382.52,61.76h-.21a1.86,1.86,0,0,1,0-3.71h.21a1.87,1.87,0,1,1,0,3.73" style="fill:#fff"/><path d="M1382.52,94.36h-.21a1.86,1.86,0,0,1,0-3.71h.21a1.87,1.87,0,1,1,0,3.73" style="fill:#fff"/><path d="M1382.52,127h-.21a1.86,1.86,0,0,1,0-3.71h.21a1.87,1.87,0,1,1,0,3.73" style="fill:#fff"/><path d="M1382.52,159.58h-.21a1.86,1.86,0,0,1,0-3.72h.21a1.87,1.87,0,1,1,0,3.74" style="fill:#fff"/><path d="M1382.52,192.18h-.21a1.86,1.86,0,0,1,0-3.71h.21a1.87,1.87,0,1,1,0,3.73" style="fill:#fff"/><path d="M1382.52,224.78h-.21a1.85,1.85,0,0,1,0-3.7h.21a1.86,1.86,0,1,1,0,3.72" style="fill:#fff"/><path d="M1382.52,257.39h-.21a1.85,1.85,0,0,1,0-3.7h.21a1.86,1.86,0,1,1,0,3.72" style="fill:#fff"/><path d="M1413.05,61.76a1.87,1.87,0,1,1,2-1.87,1.93,1.93,0,0,1-2,1.87" style="fill:#fff"/><path d="M1413.05,94.36a1.87,1.87,0,1,1,2-1.86,1.92,1.92,0,0,1-2,1.86" style="fill:#fff"/><path d="M1413.05,127a1.87,1.87,0,1,1,2-1.86,1.92,1.92,0,0,1-2,1.86" style="fill:#fff"/><path d="M1413.05,159.58a1.87,1.87,0,1,1,2-1.87,1.93,1.93,0,0,1-2,1.87" style="fill:#fff"/><path d="M1413.05,192.18a1.87,1.87,0,1,1,2-1.86,1.92,1.92,0,0,1-2,1.86" style="fill:#fff"/><path d="M1413.05,224.78a1.86,1.86,0,1,1,2-1.86,1.91,1.91,0,0,1-2,1.86" style="fill:#fff"/><path d="M1413.05,257.39a1.86,1.86,0,1,1,2-1.87,1.92,1.92,0,0,1-2,1.87" style="fill:#fff"/><path d="M1443.59,61.76a1.87,1.87,0,1,1,2-1.87,1.93,1.93,0,0,1-2,1.87" style="fill:#fff"/><path d="M1443.59,94.36a1.87,1.87,0,1,1,2-1.86,1.92,1.92,0,0,1-2,1.86" style="fill:#fff"/><path d="M1443.59,127a1.87,1.87,0,1,1,2-1.86,1.92,1.92,0,0,1-2,1.86" style="fill:#fff"/><path d="M1443.59,159.58a1.87,1.87,0,1,1,2-1.87,1.93,1.93,0,0,1-2,1.87" style="fill:#fff"/><path d="M1443.59,192.18a1.87,1.87,0,1,1,2-1.86,1.92,1.92,0,0,1-2,1.86" style="fill:#fff"/><path d="M1443.59,224.78a1.86,1.86,0,1,1,2-1.86,1.91,1.91,0,0,1-2,1.86" style="fill:#fff"/><path d="M1443.59,257.39a1.86,1.86,0,1,1,2-1.87,1.92,1.92,0,0,1-2,1.87" style="fill:#fff"/><path d="M1474.13,61.76a1.87,1.87,0,1,1,2-1.87,1.92,1.92,0,0,1-2,1.87" style="fill:#fff"/><path d="M1474.13,94.36a1.87,1.87,0,1,1,2-1.86,1.91,1.91,0,0,1-2,1.86" style="fill:#fff"/><path d="M1474.13,127a1.87,1.87,0,1,1,2-1.86,1.91,1.91,0,0,1-2,1.86" style="fill:#fff"/><path d="M1474.13,159.58a1.87,1.87,0,1,1,2-1.87,1.92,1.92,0,0,1-2,1.87" style="fill:#fff"/><path d="M1474.13,192.18a1.87,1.87,0,1,1,2-1.86,1.91,1.91,0,0,1-2,1.86" style="fill:#fff"/><path d="M1474.13,224.78a1.86,1.86,0,1,1,2-1.86,1.91,1.91,0,0,1-2,1.86" style="fill:#fff"/><path d="M1474.13,257.39a1.86,1.86,0,1,1,2-1.87,1.92,1.92,0,0,1-2,1.87" style="fill:#fff"/><path d="M1504.67,61.76a1.87,1.87,0,1,1,2-1.87,1.93,1.93,0,0,1-2,1.87" style="fill:#fff"/><path d="M1504.67,94.36a1.87,1.87,0,1,1,2-1.86,1.92,1.92,0,0,1-2,1.86" style="fill:#fff"/><path d="M1504.67,127a1.87,1.87,0,1,1,2-1.86,1.92,1.92,0,0,1-2,1.86" style="fill:#fff"/><path d="M1504.67,159.58a1.87,1.87,0,1,1,2-1.87,1.93,1.93,0,0,1-2,1.87" style="fill:#fff"/><path d="M1504.67,192.18a1.87,1.87,0,1,1,2-1.86,1.92,1.92,0,0,1-2,1.86" style="fill:#fff"/><path d="M1504.67,224.78a1.86,1.86,0,1,1,2-1.86,1.92,1.92,0,0,1-2,1.86" style="fill:#fff"/><path d="M1504.67,257.39a1.86,1.86,0,1,1,2-1.87,1.92,1.92,0,0,1-2,1.87" style="fill:#fff"/><path d="M1535.21,61.76a1.87,1.87,0,1,1,2-1.87,1.92,1.92,0,0,1-2,1.87" style="fill:#fff"/><path d="M1535.21,94.36a1.87,1.87,0,1,1,2-1.86,1.91,1.91,0,0,1-2,1.86" style="fill:#fff"/><path d="M1535.21,127a1.87,1.87,0,1,1,2-1.86,1.91,1.91,0,0,1-2,1.86" style="fill:#fff"/><path d="M1535.21,159.58a1.87,1.87,0,1,1,2-1.87,1.92,1.92,0,0,1-2,1.87" style="fill:#fff"/><path d="M1535.21,192.18a1.87,1.87,0,1,1,2-1.86,1.91,1.91,0,0,1-2,1.86" style="fill:#fff"/><path d="M1535.21,224.78a1.86,1.86,0,1,1,0-3.72,1.86,1.86,0,1,1,0,3.72" style="fill:#fff"/><path d="M1535.21,257.39a1.86,1.86,0,1,1,2-1.87,1.92,1.92,0,0,1-2,1.87" style="fill:#fff"/><path d="M1565.74,61.76a1.87,1.87,0,1,1,2-1.87,1.92,1.92,0,0,1-2,1.87" style="fill:#fff"/><path d="M1565.74,94.36a1.87,1.87,0,1,1,2-1.86,1.91,1.91,0,0,1-2,1.86" style="fill:#fff"/><path d="M1565.74,127a1.87,1.87,0,1,1,2-1.86,1.91,1.91,0,0,1-2,1.86" style="fill:#fff"/><path d="M1565.74,159.58a1.87,1.87,0,1,1,2-1.87,1.92,1.92,0,0,1-2,1.87" style="fill:#fff"/><path d="M1565.74,192.18a1.87,1.87,0,1,1,2-1.86,1.91,1.91,0,0,1-2,1.86" style="fill:#fff"/><path d="M1565.74,224.78a1.86,1.86,0,1,1,2-1.86,1.91,1.91,0,0,1-2,1.86" style="fill:#fff"/><path d="M1565.74,257.39a1.86,1.86,0,1,1,2-1.87,1.92,1.92,0,0,1-2,1.87" style="fill:#fff"/><path d="M1596.28,61.76a1.87,1.87,0,1,1,2-1.87,1.92,1.92,0,0,1-2,1.87" style="fill:#fff"/><path d="M1596.28,94.36a1.87,1.87,0,1,1,2-1.86,1.91,1.91,0,0,1-2,1.86" style="fill:#fff"/><path d="M1596.28,127a1.87,1.87,0,1,1,2-1.86,1.91,1.91,0,0,1-2,1.86" style="fill:#fff"/><path d="M1596.28,159.58a1.87,1.87,0,1,1,2-1.87,1.92,1.92,0,0,1-2,1.87" style="fill:#fff"/><path d="M1596.28,192.18a1.87,1.87,0,1,1,2-1.86,1.91,1.91,0,0,1-2,1.86" style="fill:#fff"/><path d="M1596.28,224.78a1.86,1.86,0,1,1,2-1.86,1.91,1.91,0,0,1-2,1.86" style="fill:#fff"/><path d="M1596.28,257.39a1.86,1.86,0,1,1,2-1.87,1.92,1.92,0,0,1-2,1.87" style="fill:#fff"/><path d="M1626.81,61.76a1.87,1.87,0,1,1,2-1.87,1.92,1.92,0,0,1-2,1.87" style="fill:#fff"/><path d="M1626.81,94.36a1.87,1.87,0,1,1,0-3.73,1.87,1.87,0,1,1,0,3.73" style="fill:#fff"/><path d="M1626.81,127a1.87,1.87,0,1,1,2-1.86,1.91,1.91,0,0,1-2,1.86" style="fill:#fff"/><path d="M1626.81,159.58a1.87,1.87,0,1,1,2-1.87,1.92,1.92,0,0,1-2,1.87" style="fill:#fff"/><path d="M1626.81,192.18a1.87,1.87,0,1,1,0-3.73,1.87,1.87,0,1,1,0,3.73" style="fill:#fff"/><path d="M1626.81,224.78a1.86,1.86,0,1,1,0-3.72,1.86,1.86,0,1,1,0,3.72" style="fill:#fff"/><path d="M1626.81,257.39a1.86,1.86,0,1,1,2-1.87,1.91,1.91,0,0,1-2,1.87" style="fill:#fff"/><path d="M1657.35,61.76a1.87,1.87,0,1,1,2-1.87,1.92,1.92,0,0,1-2,1.87" style="fill:#fff"/><path d="M1657.35,94.36a1.87,1.87,0,1,1,2-1.86,1.91,1.91,0,0,1-2,1.86" style="fill:#fff"/><path d="M1657.35,127a1.87,1.87,0,1,1,2-1.86,1.91,1.91,0,0,1-2,1.86" style="fill:#fff"/><path d="M1657.35,159.58a1.87,1.87,0,1,1,2-1.87,1.92,1.92,0,0,1-2,1.87" style="fill:#fff"/><path d="M1657.35,192.18a1.87,1.87,0,1,1,2-1.86,1.91,1.91,0,0,1-2,1.86" style="fill:#fff"/><path d="M1657.35,224.78a1.86,1.86,0,1,1,2-1.86,1.91,1.91,0,0,1-2,1.86" style="fill:#fff"/><path d="M1657.35,257.39a1.86,1.86,0,1,1,2-1.87,1.91,1.91,0,0,1-2,1.87" style="fill:#fff"/><path d="M1687.89,61.76a1.87,1.87,0,1,1,2-1.87,1.91,1.91,0,0,1-2,1.87" style="fill:#fff"/><path d="M1687.89,94.36a1.87,1.87,0,1,1,2-1.86,1.91,1.91,0,0,1-2,1.86" style="fill:#fff"/><path d="M1687.89,127a1.87,1.87,0,1,1,2-1.86,1.91,1.91,0,0,1-2,1.86" style="fill:#fff"/><path d="M1687.89,159.58a1.87,1.87,0,1,1,2-1.87,1.91,1.91,0,0,1-2,1.87" style="fill:#fff"/><path d="M1687.89,192.18a1.87,1.87,0,1,1,2-1.86,1.91,1.91,0,0,1-2,1.86" style="fill:#fff"/><path d="M1687.89,224.78a1.86,1.86,0,1,1,0-3.72,1.86,1.86,0,1,1,0,3.72" style="fill:#fff"/><path d="M1687.89,257.39a1.86,1.86,0,1,1,2-1.87,1.91,1.91,0,0,1-2,1.87" style="fill:#fff"/><path d="M1718.43,61.76a1.87,1.87,0,1,1,2-1.87,1.92,1.92,0,0,1-2,1.87" style="fill:#fff"/><path d="M1718.43,94.36a1.87,1.87,0,1,1,2-1.86,1.91,1.91,0,0,1-2,1.86" style="fill:#fff"/><path d="M1718.43,127a1.87,1.87,0,1,1,2-1.86,1.91,1.91,0,0,1-2,1.86" style="fill:#fff"/><path d="M1718.43,159.58a1.87,1.87,0,1,1,2-1.87,1.92,1.92,0,0,1-2,1.87" style="fill:#fff"/><path d="M1718.43,192.18a1.87,1.87,0,1,1,2-1.86,1.91,1.91,0,0,1-2,1.86" style="fill:#fff"/><path d="M1718.43,224.78a1.86,1.86,0,1,1,2-1.86,1.91,1.91,0,0,1-2,1.86" style="fill:#fff"/><path d="M1718.43,257.39a1.86,1.86,0,1,1,2-1.87,1.92,1.92,0,0,1-2,1.87" style="fill:#fff"/><path d="M1749,61.76a1.87,1.87,0,1,1,2-1.87,1.92,1.92,0,0,1-2,1.87" style="fill:#fff"/><path d="M1749,94.36a1.87,1.87,0,1,1,0-3.73,1.87,1.87,0,1,1,0,3.73" style="fill:#fff"/><path d="M1749,127a1.87,1.87,0,1,1,2-1.86,1.91,1.91,0,0,1-2,1.86" style="fill:#fff"/><path d="M1749,159.58a1.87,1.87,0,1,1,2-1.87,1.92,1.92,0,0,1-2,1.87" style="fill:#fff"/><path d="M1749,192.18a1.87,1.87,0,1,1,0-3.73,1.87,1.87,0,1,1,0,3.73" style="fill:#fff"/><path d="M1749,224.78a1.86,1.86,0,1,1,0-3.72,1.86,1.86,0,1,1,0,3.72" style="fill:#fff"/><path d="M1749,257.39a1.86,1.86,0,1,1,2-1.87,1.91,1.91,0,0,1-2,1.87" style="fill:#fff"/><path d="M1779.51,61.76a1.87,1.87,0,1,1,2-1.87,1.93,1.93,0,0,1-2,1.87" style="fill:#fff"/><path d="M1779.51,94.36a1.87,1.87,0,1,1,2-1.86,1.92,1.92,0,0,1-2,1.86" style="fill:#fff"/><path d="M1779.51,127a1.87,1.87,0,1,1,2-1.86,1.92,1.92,0,0,1-2,1.86" style="fill:#fff"/><path d="M1779.51,159.58a1.87,1.87,0,1,1,2-1.87,1.93,1.93,0,0,1-2,1.87" style="fill:#fff"/><path d="M1779.51,192.18a1.87,1.87,0,1,1,2-1.86,1.92,1.92,0,0,1-2,1.86" style="fill:#fff"/><path d="M1779.51,224.78a1.86,1.86,0,1,1,2-1.86,1.91,1.91,0,0,1-2,1.86" style="fill:#fff"/><path d="M1779.51,257.39a1.86,1.86,0,1,1,2-1.87,1.92,1.92,0,0,1-2,1.87" style="fill:#fff"/><path d="M1810.05,61.76a1.87,1.87,0,1,1,2-1.87,1.93,1.93,0,0,1-2,1.87" style="fill:#fff"/><path d="M1810.05,94.36a1.87,1.87,0,1,1,2-1.86,1.92,1.92,0,0,1-2,1.86" style="fill:#fff"/><path d="M1810.05,127a1.87,1.87,0,1,1,2-1.86,1.92,1.92,0,0,1-2,1.86" style="fill:#fff"/><path d="M1810.05,159.58a1.87,1.87,0,1,1,2-1.87,1.93,1.93,0,0,1-2,1.87" style="fill:#fff"/><path d="M1810.05,192.18a1.87,1.87,0,1,1,2-1.86,1.92,1.92,0,0,1-2,1.86" style="fill:#fff"/><path d="M1810.05,224.78a1.86,1.86,0,1,1,2-1.86,1.91,1.91,0,0,1-2,1.86" style="fill:#fff"/><path d="M1810.05,257.39a1.86,1.86,0,1,1,2-1.87,1.92,1.92,0,0,1-2,1.87" style="fill:#fff"/><path d="M1840.58,61.76a1.87,1.87,0,1,1,2-1.87,1.92,1.92,0,0,1-2,1.87" style="fill:#fff"/><path d="M1840.58,94.36a1.87,1.87,0,1,1,2-1.86,1.91,1.91,0,0,1-2,1.86" style="fill:#fff"/><path d="M1840.58,127a1.87,1.87,0,1,1,2-1.86,1.91,1.91,0,0,1-2,1.86" style="fill:#fff"/><path d="M1840.58,159.58a1.87,1.87,0,1,1,2-1.87,1.92,1.92,0,0,1-2,1.87" style="fill:#fff"/><path d="M1840.58,192.18a1.87,1.87,0,1,1,2-1.86,1.91,1.91,0,0,1-2,1.86" style="fill:#fff"/><path d="M1840.58,224.78a1.86,1.86,0,1,1,2-1.86,1.91,1.91,0,0,1-2,1.86" style="fill:#fff"/><path d="M1840.58,257.39a1.86,1.86,0,1,1,2-1.87,1.92,1.92,0,0,1-2,1.87" style="fill:#fff"/><path d="M1871.11,61.76a1.87,1.87,0,1,1,2-1.87,1.92,1.92,0,0,1-2,1.87" style="fill:#fff"/><path d="M1871.11,94.36a1.87,1.87,0,1,1,2-1.86,1.91,1.91,0,0,1-2,1.86" style="fill:#fff"/><path d="M1871.11,127a1.87,1.87,0,1,1,2-1.86,1.91,1.91,0,0,1-2,1.86" style="fill:#fff"/><path d="M1871.11,159.58a1.87,1.87,0,1,1,2-1.87,1.92,1.92,0,0,1-2,1.87" style="fill:#fff"/><path d="M1871.11,192.18a1.87,1.87,0,1,1,2-1.86,1.91,1.91,0,0,1-2,1.86" style="fill:#fff"/><path d="M1871.11,224.78a1.86,1.86,0,1,1,2-1.86,1.91,1.91,0,0,1-2,1.86" style="fill:#fff"/><path d="M1871.11,257.39a1.86,1.86,0,1,1,2-1.87,1.91,1.91,0,0,1-2,1.87" style="fill:#fff"/><path d="M508.27,608.58,454,501.42H398a2.34,2.34,0,0,0-2.65,2.64v93.49c0,16.76-10.58,27.35-26,27.35-15,0-26-10.59-26-27.35V346.19c0-14.11,8.82-23.38,23.38-23.38h97c55.12,0,95.69,36.61,95.69,89.53,0,37.92-21.17,67-53.36,80.7L555,584.32a33.85,33.85,0,0,1,4,15.88c0,13.67-9.7,24.7-25.14,24.7C522.82,624.9,514,620,508.27,608.58Zm-.45-196.24c0-26-18.52-42.78-45.86-42.78H398a2.34,2.34,0,0,0-2.65,2.65V452a2.34,2.34,0,0,0,2.65,2.64H462C489.3,454.67,507.82,437.91,507.82,412.34Z" style="fill:#fff"/><path d="M630.86,590.94l87.32-240.78c6.61-18.53,16.31-29.55,34.39-29.55s28.23,11,34.84,29.55l86.44,240.78a31.77,31.77,0,0,1,1.76,9.7c0,15-11.9,24.26-25.13,24.26-11.47,0-20.73-6.62-24.7-18.09l-16.32-46.74H694.8l-15.87,46.74c-4,11.47-13.23,18.09-24.7,18.09-13.23,0-25.13-9.27-25.13-24.26A31.77,31.77,0,0,1,630.86,590.94Zm162.73-77.18L753,396.9h-1.33L711.12,513.76Z" style="fill:#fff"/><path d="M939.56,472.75c0-44.54,2.2-61.74,8.38-82.46C963.37,343.1,1000.42,318,1052,318c41.9,0,75.41,19.41,90.41,49,2.64,4.85,4.41,9.71,4.41,15.44,0,13.67-10.59,23.37-23.82,23.37-8.82,0-15.87-4-22.93-14.11-11.91-18.08-26-26.9-48.07-26.9-28.66,0-45.86,15-53.8,39.25-4,12.79-5.73,26-5.73,68.79s1.76,56,5.73,68.8c7.94,24.25,25.14,39.25,53.8,39.25,22,0,36.16-8.82,48.07-26.9,7.06-10.15,14.11-14.12,22.93-14.12,13.23,0,23.82,9.71,23.82,23.82,0,5.29-1.77,10.14-4.41,15-15,29.55-48.51,48.95-90.41,48.95-51.59,0-88.64-25.14-104.07-72.32C941.76,534.49,939.56,517.29,939.56,472.75Z" style="fill:#fff"/><path d="M1364.23,590.94l87.32-240.78c6.61-18.53,16.32-29.55,34.4-29.55s28.22,11,34.84,29.55l86.43,240.78a31.77,31.77,0,0,1,1.76,9.7c0,15-11.9,24.26-25.13,24.26-11.47,0-20.73-6.62-24.7-18.09l-16.32-46.74H1428.18l-15.88,46.74c-4,11.47-13.23,18.09-24.7,18.09-13.22,0-25.13-9.27-25.13-24.26A31.77,31.77,0,0,1,1364.23,590.94ZM1527,513.76,1486.39,396.9h-1.33l-40.57,116.86Z" style="fill:#fff"/><g id="_Group_" data-name="&lt;Group&gt;"><g id="_Group_2" data-name="&lt;Group&gt;"><g id="_Group_3" data-name="&lt;Group&gt;"><g id="_Group_4" data-name="&lt;Group&gt;"><g id="_Group_5" data-name="&lt;Group&gt;"><g id="_Group_6" data-name="&lt;Group&gt;"><g id="_Group_7" data-name="&lt;Group&gt;"><g id="_Group_8" data-name="&lt;Group&gt;"><path id="_Compound_Path_" data-name="&lt;Compound Path&gt;" d="M1655.39,949.23a1.16,1.16,0,0,1,1.24-1.25h6.53c4.23,0,6.78,2.55,6.78,6.32s-2.55,6.31-6.78,6.31h-4.83c-.12,0-.18.06-.18.19v7a1.38,1.38,0,1,1-2.76,0Zm11.81,5.07c0-2.31-1.52-3.73-4.14-3.73h-4.73a.16.16,0,0,0-.18.18v7.09c0,.13.06.19.18.19h4.73C1665.68,958,1667.2,956.6,1667.2,954.3Z" style="fill:#414042"/><path id="_Compound_Path_2" data-name="&lt;Compound Path&gt;" d="M1672,967.89V955.48a1.31,1.31,0,1,1,2.61,0v.69h0a4.07,4.07,0,0,1,3.83-2.28,4.36,4.36,0,0,1,2.21.53,1.27,1.27,0,0,1-.57,2.43,1.67,1.67,0,0,1-.64-.16,4.77,4.77,0,0,0-1.71-.37c-2.24,0-3.15,1.87-3.15,4.35v7.22a1.31,1.31,0,1,1-2.61,0Z" style="fill:#414042"/><path id="_Compound_Path_3" data-name="&lt;Compound Path&gt;" d="M1682.94,965.46a14.26,14.26,0,0,1,0-7.56,6.31,6.31,0,0,1,11.75,0,14.54,14.54,0,0,1,0,7.56,6.31,6.31,0,0,1-11.75,0Zm9.23-.75a9.65,9.65,0,0,0,.34-3,9.55,9.55,0,0,0-.34-3,3.58,3.58,0,0,0-6.71,0,9.5,9.5,0,0,0-.35,3,9.6,9.6,0,0,0,.35,3,3.58,3.58,0,0,0,6.71,0Z" style="fill:#414042"/><path id="_Compound_Path_4" data-name="&lt;Compound Path&gt;" d="M1701.19,967.67l-4.5-11.69a1.65,1.65,0,0,1-.13-.66,1.22,1.22,0,0,1,1.27-1.24,1.3,1.3,0,0,1,1.25.93l3.85,10.36h.07l3.76-10.36a1.29,1.29,0,0,1,1.24-.93,1.21,1.21,0,0,1,1.27,1.24,1.63,1.63,0,0,1-.12.66l-4.54,11.69c-.46,1.21-.87,1.62-1.7,1.62S1701.66,968.88,1701.19,967.67Z" style="fill:#414042"/><path id="_Compound_Path_5" data-name="&lt;Compound Path&gt;" d="M1711.3,949.54a1.71,1.71,0,0,1,3.42,0,1.71,1.71,0,1,1-3.42,0Zm.4,5.94a1.31,1.31,0,1,1,2.61,0v12.41a1.31,1.31,0,1,1-2.61,0Z" style="fill:#414042"/><path id="_Compound_Path_6" data-name="&lt;Compound Path&gt;" d="M1718.17,955.48a1.31,1.31,0,1,1,2.62,0v.43h0a4.69,4.69,0,0,1,4.16-2c3.24,0,5.16,2.21,5.16,5.6v8.4a1.31,1.31,0,1,1-2.61,0v-7.78c0-2.39-1.09-3.79-3.32-3.79a3.34,3.34,0,0,0-3.42,3.64v7.93a1.31,1.31,0,1,1-2.62,0Z" style="fill:#414042"/><path id="_Compound_Path_7" data-name="&lt;Compound Path&gt;" d="M1733.56,965.46a15.76,15.76,0,0,1,0-7.56,6.3,6.3,0,0,1,10.64-1.83,1.57,1.57,0,0,1,.38,1,1.13,1.13,0,0,1-1.15,1.16,1.56,1.56,0,0,1-1.16-.63,3.54,3.54,0,0,0-2.83-1.24,3.22,3.22,0,0,0-3.32,2.33,13.29,13.29,0,0,0,0,6.06,3.22,3.22,0,0,0,3.32,2.34,3.51,3.51,0,0,0,2.83-1.25,1.58,1.58,0,0,1,1.16-.62,1.13,1.13,0,0,1,1.15,1.15,1.59,1.59,0,0,1-.38,1,6.31,6.31,0,0,1-10.64-1.84Z" style="fill:#414042"/><path id="_Compound_Path_8" data-name="&lt;Compound Path&gt;" d="M1747.19,949.54a1.71,1.71,0,1,1,3.41,0,1.71,1.71,0,1,1-3.41,0Zm.4,5.94a1.31,1.31,0,1,1,2.61,0v12.41a1.31,1.31,0,1,1-2.61,0Z" style="fill:#414042"/><path id="_Compound_Path_9" data-name="&lt;Compound Path&gt;" d="M1766.09,968a1.25,1.25,0,0,1-1.33,1.25,1.35,1.35,0,0,1-1.15-.66l-.59-.93h0a5.65,5.65,0,0,1-4.57,1.77c-3.33,0-5.26-1.64-5.26-4.47,0-3.09,2.12-4.61,5.83-4.61h3.38c.13,0,.19-.06.19-.18v-.72c0-2.08-1-3.27-3.57-3.27a7.17,7.17,0,0,0-3.06.75,1.69,1.69,0,0,1-.74.22,1,1,0,0,1-1.12-1.12,1.21,1.21,0,0,1,.62-1.06,8.38,8.38,0,0,1,4.54-1.12c4,0,5.85,1.9,5.85,5.57v5.35a2.84,2.84,0,0,0,.28,1.52l.53,1A1.62,1.62,0,0,1,1766.09,968Zm-3.54-3.73v-1.65c0-.12-.06-.18-.19-.18h-3c-2.55,0-3.7.74-3.7,2.42s1.11,2.34,3.1,2.34C1761.09,967.24,1762.55,966.15,1762.55,964.31Z" style="fill:#414042"/></g></g></g></g></g><g id="_Group_9" data-name="&lt;Group&gt;"><path id="_Compound_Path_10" data-name="&lt;Compound Path&gt;" d="M1655.39,922.91a1.86,1.86,0,0,1,2-2h6.55c4.6,0,6.74,2.27,6.74,5.62a4.8,4.8,0,0,1-2.45,4.51v.06a5,5,0,0,1,2.83,4.79c0,4.16-2.77,6.15-7.34,6.15h-6.33a1.84,1.84,0,0,1-2-2Zm7.95,6.62c1.74,0,2.8-.9,2.8-2.49s-1-2.46-2.8-2.46h-3.2a.17.17,0,0,0-.19.19v4.57a.17.17,0,0,0,.19.19Zm-3.2,8.8h3.45c1.87,0,2.89-1,2.89-2.68s-1-2.61-2.89-2.61h-3.45a.17.17,0,0,0-.19.19v4.9A.18.18,0,0,0,1660.14,938.33Z" style="fill:#414042"/><path id="_Compound_Path_11" data-name="&lt;Compound Path&gt;" d="M1682.39,940.62h0a4.85,4.85,0,0,1-4,1.74c-3.32,0-5-2.33-5-5.59v-7.68a2.13,2.13,0,0,1,2.21-2.3,2.1,2.1,0,0,1,2.14,2.3v6.84c0,1.65.75,2.74,2.3,2.74s2.3-1.09,2.3-2.74v-6.84a2.18,2.18,0,1,1,4.35,0v10.82a2.11,2.11,0,0,1-2.18,2.3A2,2,0,0,1,1682.39,940.62Z" style="fill:#414042"/><path id="_Compound_Path_12" data-name="&lt;Compound Path&gt;" d="M1689.54,938.07a10.94,10.94,0,0,1-.5-3.57,11.19,11.19,0,0,1,.47-3.61c.91-2.73,3.3-4.25,6.5-4.25s5.62,1.55,6.5,4.23a11.18,11.18,0,0,1,.49,3.51,1.34,1.34,0,0,1-1.43,1.43h-8a.16.16,0,0,0-.18.18,2.79,2.79,0,0,0,.15.87,3,3,0,0,0,3.11,2,6.18,6.18,0,0,0,2.83-.77,2.93,2.93,0,0,1,1.49-.47,1.55,1.55,0,0,1,1.58,1.61,1.81,1.81,0,0,1-.87,1.56,9.06,9.06,0,0,1-5.44,1.61C1692.77,942.36,1690.42,940.78,1689.54,938.07Zm9-5.16c.13,0,.19,0,.19-.18a3.37,3.37,0,0,0-.16-1.12A2.43,2.43,0,0,0,1696,930a2.41,2.41,0,0,0-2.49,1.65,3.69,3.69,0,0,0-.15,1.12c0,.13.06.18.18.18Z" style="fill:#414042"/><path id="_Compound_Path_13" data-name="&lt;Compound Path&gt;" d="M1714.29,939.91v-6.84c0-1.64-.81-2.74-2.37-2.74s-2.33,1.1-2.33,2.74v6.84a2.18,2.18,0,1,1-4.35,0V929.09a2.1,2.1,0,0,1,2.17-2.3,2,2,0,0,1,2.08,1.59h0a4.8,4.8,0,0,1,4-1.74c3.32,0,5.12,2.33,5.12,5.59v7.68a2.17,2.17,0,1,1-4.34,0Z" style="fill:#414042"/><path id="_Compound_Path_14" data-name="&lt;Compound Path&gt;" d="M1721.4,938.05a12.82,12.82,0,0,1,0-7.09c.9-2.77,3.23-4.32,6.53-4.32s5.62,1.55,6.52,4.32a12.82,12.82,0,0,1,0,7.09c-.9,2.76-3.23,4.31-6.52,4.31S1722.3,940.81,1721.4,938.05Zm8.86-1a11.48,11.48,0,0,0,0-5,2.46,2.46,0,0,0-4.67,0,11.89,11.89,0,0,0,0,5,2.46,2.46,0,0,0,4.67,0Z" style="fill:#414042"/><path id="_Compound_Path_15" data-name="&lt;Compound Path&gt;" d="M1737.66,940.94a2,2,0,0,1-1.06-1.75,1.77,1.77,0,0,1,1.8-1.74,2.54,2.54,0,0,1,1.28.41,7.17,7.17,0,0,0,3.69,1.08c1.59,0,2.34-.55,2.34-1.39s-.41-1.09-2.18-1.28l-1.64-.19c-3.27-.37-4.92-2-4.92-4.59,0-3,2.27-4.85,6.22-4.85a10.24,10.24,0,0,1,4.57,1,1.9,1.9,0,0,1,1.27,1.71,1.65,1.65,0,0,1-1.71,1.71,2.88,2.88,0,0,1-1.24-.37,7.08,7.08,0,0,0-3-.65c-1.33,0-1.89.46-1.89,1.18s.37,1,2.08,1.24l1.65.18c3.54.41,5,2,5,4.57,0,3.08-2.45,5.16-6.72,5.16A10.56,10.56,0,0,1,1737.66,940.94Z" style="fill:#414042"/><path id="_Compound_Path_16" data-name="&lt;Compound Path&gt;" d="M1758.51,939.19l5.72-15.82c.59-1.68,1.52-2.67,3.14-2.67s2.58,1,3.17,2.67l5.63,15.82a2.64,2.64,0,0,1,.15.87,2.14,2.14,0,0,1-2.21,2.15,2.2,2.2,0,0,1-2.14-1.62l-.87-2.58h-7.55l-.85,2.58a2.19,2.19,0,0,1-2.13,1.62,2.14,2.14,0,0,1-2.21-2.15A2.64,2.64,0,0,1,1758.51,939.19Zm11.32-5.06-2.43-7.4h-.1l-2.45,7.4Z" style="fill:#414042"/><path id="_Compound_Path_17" data-name="&lt;Compound Path&gt;" d="M1778,923a2.46,2.46,0,1,1,2.46,2.46A2.44,2.44,0,0,1,1778,923Zm.28,16.91V929.09a2.18,2.18,0,1,1,4.35,0v10.82a2.18,2.18,0,1,1-4.35,0Z" style="fill:#414042"/><path id="_Compound_Path_18" data-name="&lt;Compound Path&gt;" d="M1785.8,939.91V929.09a2.11,2.11,0,0,1,2.18-2.3,2.07,2.07,0,0,1,2.11,1.68v0h0a4.66,4.66,0,0,1,3.79-1.86,3.65,3.65,0,0,1,1.59.31,1.9,1.9,0,0,1,1.15,1.77,2.09,2.09,0,0,1-2.15,2.21,3.14,3.14,0,0,1-.94-.16,4.38,4.38,0,0,0-1.11-.15c-1.62,0-2.3,1.15-2.3,3.17v6.12a2.18,2.18,0,1,1-4.35,0Z" style="fill:#414042"/><path id="_Compound_Path_19" data-name="&lt;Compound Path&gt;" d="M1797.43,938.07a10.68,10.68,0,0,1-.5-3.57,10.92,10.92,0,0,1,.47-3.61c.89-2.73,3.29-4.25,6.49-4.25s5.62,1.55,6.49,4.23a10.6,10.6,0,0,1,.51,3.51,1.34,1.34,0,0,1-1.44,1.43h-8a.16.16,0,0,0-.18.18,2.53,2.53,0,0,0,.16.87,3,3,0,0,0,3.1,2,6.15,6.15,0,0,0,2.83-.77,3,3,0,0,1,1.49-.47,1.56,1.56,0,0,1,1.59,1.61,1.79,1.79,0,0,1-.88,1.56,9,9,0,0,1-5.43,1.61C1800.66,942.36,1798.29,940.78,1797.43,938.07Zm9-5.16c.12,0,.18,0,.18-.18a3.69,3.69,0,0,0-.15-1.12,2.45,2.45,0,0,0-2.52-1.65,2.4,2.4,0,0,0-2.48,1.65,3.37,3.37,0,0,0-.16,1.12c0,.13.06.18.18.18Z" style="fill:#414042"/><path id="_Compound_Path_20" data-name="&lt;Compound Path&gt;" d="M1813.59,940.94a2,2,0,0,1-1.06-1.75,1.77,1.77,0,0,1,1.8-1.74,2.54,2.54,0,0,1,1.28.41,7.2,7.2,0,0,0,3.69,1.08c1.59,0,2.34-.55,2.34-1.39s-.41-1.09-2.18-1.28l-1.64-.19c-3.27-.37-4.91-2-4.91-4.59,0-3,2.26-4.85,6.21-4.85a10.24,10.24,0,0,1,4.57,1,1.9,1.9,0,0,1,1.27,1.71,1.65,1.65,0,0,1-1.7,1.71,2.84,2.84,0,0,1-1.25-.37,7.06,7.06,0,0,0-3-.65c-1.34,0-1.9.46-1.9,1.18s.37,1,2.08,1.24l1.65.18c3.54.41,5,2,5,4.57,0,3.08-2.47,5.16-6.72,5.16A10.54,10.54,0,0,1,1813.59,940.94Z" style="fill:#414042"/></g></g><path id="_Path_" data-name="&lt;Path&gt;" d="M1634.94,943.72a5.08,5.08,0,0,0-2.38-4.31h0a6.8,6.8,0,0,1-1.94-9.77h0a5.11,5.11,0,0,0-.36-6.28c-1-1.19-8.2-10.35-27.08-21.56a6.78,6.78,0,0,0-7.67.29h0l-11.39,8.2h0a6.74,6.74,0,0,1-3.69,1.08h-8.51a5.09,5.09,0,0,0-5.1,5.09v68.91a5.07,5.07,0,0,0,1.18,3.27,17.75,17.75,0,0,0,4.62,3.71,5,5,0,0,0,2.72.79,5.1,5.1,0,0,0,5.1-5.1l0-13.63a5.1,5.1,0,0,1,5.1-5.1,5.21,5.21,0,0,1,2.23.51h0a34.32,34.32,0,0,0,47-24.91A4.68,4.68,0,0,0,1634.94,943.72Z" style="fill:#fff"/></g></g><path d="M1300.83,938.85a1.57,1.57,0,0,1,1.62-1.74c.86,0,1.25.46,1.72,1.49l4.12,9.26h.1l4-9.26c.44-1,.84-1.49,1.69-1.49a1.55,1.55,0,0,1,1.6,1.74v13.78a1.28,1.28,0,0,1-1.32,1.42,1.3,1.3,0,0,1-1.36-1.42v-9.16h-.12l-3,6.92c-.45,1-.89,1.31-1.58,1.31s-1.15-.3-1.59-1.31l-3.07-6.92h-.12v9.16a1.34,1.34,0,1,1-2.68,0Z" style="fill:#414042"/><path d="M1320.72,937a1.65,1.65,0,1,1-1.64,1.64A1.65,1.65,0,0,1,1320.72,937Zm-1.37,15.59v-9.18a1.38,1.38,0,1,1,2.75,0v9.18a1.38,1.38,0,1,1-2.75,0Z" style="fill:#414042"/><path d="M1328.46,943.2a3.69,3.69,0,0,1,3.12-1.38c2.53,0,4.1,1.87,4.1,4.4v6.38a1.38,1.38,0,1,1-2.75,0v-5.74c0-1.53-.74-2.58-2.24-2.58s-2.26,1.05-2.26,2.58v5.74a1.38,1.38,0,1,1-2.75,0v-9.18a1.38,1.38,0,0,1,2.75-.22Z" style="fill:#414042"/><path d="M1340.51,937a1.65,1.65,0,1,1-1.64,1.64A1.65,1.65,0,0,1,1340.51,937Zm-1.37,15.59v-9.18a1.38,1.38,0,1,1,2.75,0v9.18a1.38,1.38,0,1,1-2.75,0Z" style="fill:#414042"/><path d="M1345.5,953a1.22,1.22,0,0,1-.66-1.11,1.24,1.24,0,0,1,1.25-1.25,1.79,1.79,0,0,1,.86.27,5.42,5.42,0,0,0,3,1c1.35,0,2.19-.52,2.19-1.4s-.42-1.16-2-1.31l-1.28-.12c-2.43-.27-3.63-1.47-3.63-3.49,0-2.25,1.62-3.73,4.59-3.73a7.71,7.71,0,0,1,3.59.89,1.27,1.27,0,0,1,.83,1.13,1.13,1.13,0,0,1-1.15,1.2,1.69,1.69,0,0,1-.86-.27,6,6,0,0,0-2.56-.64c-1.22,0-1.79.54-1.79,1.23s.44,1.1,1.94,1.25l1.28.12c2.5.25,3.66,1.53,3.66,3.49,0,2.36-1.77,4-5,4A7.86,7.86,0,0,1,1345.5,953Z" style="fill:#414042"/><path d="M1357.36,944.23a1,1,0,0,1-1.13-1.06,1,1,0,0,1,1.13-1.08h.35a.15.15,0,0,0,.17-.14v-2.17a1.34,1.34,0,0,1,1.4-1.45,1.32,1.32,0,0,1,1.35,1.45V942c0,.09,0,.14.15.14H1362a1,1,0,0,1,1.13,1.08,1,1,0,0,1-1.13,1.06h-1.25a.13.13,0,0,0-.15.15v5.89c0,1,.27,1.25,1.27,1.35a1.22,1.22,0,0,1,1.26,1.23c0,.69-.49,1.23-1.5,1.23h-.22c-2.58,0-3.56-1.16-3.56-3.74v-6a.15.15,0,0,0-.17-.15Z" style="fill:#414042"/><path d="M1365.39,950.91a10.53,10.53,0,0,1,0-5.82,5.23,5.23,0,0,1,9.7,0,9.66,9.66,0,0,1,.39,2.85.89.89,0,0,1-1,1h-6.6c-.1,0-.15,0-.15.14a2.54,2.54,0,0,0,.17.91,2.59,2.59,0,0,0,2.68,1.79,3.93,3.93,0,0,0,2.43-.81,1.79,1.79,0,0,1,1-.39,1.09,1.09,0,0,1,1.15,1.16,1.33,1.33,0,0,1-.56,1.08,6.44,6.44,0,0,1-4.28,1.42A4.8,4.8,0,0,1,1365.39,950.91Zm7.15-5.23a2.53,2.53,0,0,0-4.64,0,2.93,2.93,0,0,0-.15,1,.13.13,0,0,0,.15.15h4.64a.13.13,0,0,0,.15-.15A2.93,2.93,0,0,0,1372.54,945.68Z" style="fill:#414042"/><path d="M1381.16,943.47h0a3.41,3.41,0,0,1,3-1.65,3.45,3.45,0,0,1,1.5.32,1.22,1.22,0,0,1,.73,1.13,1.32,1.32,0,0,1-1.35,1.4,2.3,2.3,0,0,1-.64-.12,4,4,0,0,0-1.1-.2c-1.52,0-2.16,1.2-2.16,3v5.25a1.38,1.38,0,1,1-2.75,0v-9.18a1.38,1.38,0,1,1,2.75,0Z" style="fill:#414042"/><path d="M1390.1,937a1.65,1.65,0,1,1-1.65,1.64A1.64,1.64,0,0,1,1390.1,937Zm-1.38,15.59v-9.18a1.38,1.38,0,1,1,2.75,0v9.18a1.38,1.38,0,1,1-2.75,0Z" style="fill:#414042"/><path d="M1394.81,950.93a11.13,11.13,0,0,1,0-5.84,5.27,5.27,0,0,1,9.75,0,10.86,10.86,0,0,1,0,5.84,5.27,5.27,0,0,1-9.75,0Zm7.1-.73a9.67,9.67,0,0,0,0-4.37,2.17,2.17,0,0,0-2.21-1.55,2.21,2.21,0,0,0-2.23,1.55,9.67,9.67,0,0,0,0,4.37,2.21,2.21,0,0,0,2.23,1.54A2.18,2.18,0,0,0,1401.91,950.2Z" style="fill:#414042"/><path d="M1423.57,938.56v14a1.38,1.38,0,0,1-2.75.2h0a3.59,3.59,0,0,1-3.2,1.4,4.11,4.11,0,0,1-4-3,12.32,12.32,0,0,1,0-6.38,4.11,4.11,0,0,1,4-3,3.65,3.65,0,0,1,3.2,1.4h0v-4.66a1.38,1.38,0,1,1,2.75,0Zm-7.39,7.29a9.46,9.46,0,0,0,0,4.32,2.09,2.09,0,0,0,2.18,1.57,2.11,2.11,0,0,0,2.22-1.57,9.84,9.84,0,0,0,0-4.32,2.11,2.11,0,0,0-2.22-1.57A2.09,2.09,0,0,0,1416.18,945.85Z" style="fill:#414042"/><path d="M1426.94,950.91a9,9,0,0,1-.42-2.9,9.58,9.58,0,0,1,.39-2.92,5.23,5.23,0,0,1,9.7,0,9.34,9.34,0,0,1,.39,2.85.89.89,0,0,1-1,1h-6.61c-.1,0-.15,0-.15.14a2.54,2.54,0,0,0,.18.91,2.58,2.58,0,0,0,2.67,1.79,3.93,3.93,0,0,0,2.43-.81,1.79,1.79,0,0,1,1-.39,1.09,1.09,0,0,1,1.15,1.16,1.3,1.3,0,0,1-.56,1.08,6.43,6.43,0,0,1-4.27,1.42A4.8,4.8,0,0,1,1426.94,950.91Zm7.14-5.23a2.53,2.53,0,0,0-4.64,0,2.93,2.93,0,0,0-.15,1,.13.13,0,0,0,.15.15h4.64a.13.13,0,0,0,.15-.15A2.93,2.93,0,0,0,1434.08,945.68Z" style="fill:#414042"/><path d="M1445.38,945.58a14.19,14.19,0,0,1,.47-4.62c.86-2.63,3-4,5.92-4,2.6,0,4.49,1.1,5.32,2.68a1.72,1.72,0,0,1,.25.86,1.29,1.29,0,0,1-1.33,1.3,1.48,1.48,0,0,1-1.27-.74,3.29,3.29,0,0,0-3-1.5,3,3,0,0,0-3.12,2.21,22.84,22.84,0,0,0,0,7.62,3,3,0,0,0,3.14,2.21,3.06,3.06,0,0,0,3.14-2.12,7.1,7.1,0,0,0,.27-2.13c0-.1,0-.15-.14-.15h-1.92a1.23,1.23,0,1,1,0-2.46h3.76a1.09,1.09,0,0,1,1.18,1.18v.47a12.77,12.77,0,0,1-.45,3.71,5.73,5.73,0,0,1-5.86,4.1c-2.93,0-5.06-1.38-5.92-4A14.19,14.19,0,0,1,1445.38,945.58Z" style="fill:#414042"/><path d="M1461,950.93a10.86,10.86,0,0,1,0-5.84,5.27,5.27,0,0,1,9.75,0,11.13,11.13,0,0,1,0,5.84,5.27,5.27,0,0,1-9.75,0Zm7.09-.73a9.67,9.67,0,0,0,0-4.37,2.17,2.17,0,0,0-2.21-1.55,2.21,2.21,0,0,0-2.23,1.55,9.67,9.67,0,0,0,0,4.37,2.21,2.21,0,0,0,2.23,1.54A2.18,2.18,0,0,0,1468.07,950.2Z" style="fill:#414042"/><path d="M1476.82,938.56v4.66h0a3.63,3.63,0,0,1,3.19-1.4,4.1,4.1,0,0,1,4,3,12.32,12.32,0,0,1,0,6.38,4.1,4.1,0,0,1-4,3,3.56,3.56,0,0,1-3.19-1.4h0a1.38,1.38,0,0,1-2.76-.2v-14a1.38,1.38,0,1,1,2.76,0Zm.24,7.29a9.84,9.84,0,0,0,0,4.32,2.33,2.33,0,0,0,4.4,0,9.84,9.84,0,0,0,0-4.32,2.33,2.33,0,0,0-4.4,0Z" style="fill:#414042"/><path d="M1488.82,937a1.65,1.65,0,1,1-1.64,1.64A1.65,1.65,0,0,1,1488.82,937Zm-1.37,15.59v-9.18a1.38,1.38,0,1,1,2.75,0v9.18a1.38,1.38,0,1,1-2.75,0Z" style="fill:#414042"/><path d="M1493.56,950.91a10.78,10.78,0,0,1,0-5.82,5.23,5.23,0,0,1,9.7,0,9.34,9.34,0,0,1,.39,2.85.89.89,0,0,1-1,1h-6.61c-.1,0-.15,0-.15.14a2.78,2.78,0,0,0,.17.91,2.6,2.6,0,0,0,2.68,1.79,3.93,3.93,0,0,0,2.43-.81,1.79,1.79,0,0,1,1-.39,1.09,1.09,0,0,1,1.15,1.16,1.3,1.3,0,0,1-.56,1.08,6.44,6.44,0,0,1-4.28,1.42A4.82,4.82,0,0,1,1493.56,950.91Zm7.15-5.23a2.53,2.53,0,0,0-4.64,0,2.93,2.93,0,0,0-.15,1,.13.13,0,0,0,.15.15h4.64a.13.13,0,0,0,.15-.15A2.93,2.93,0,0,0,1500.71,945.68Z" style="fill:#414042"/><path d="M1509.33,943.47h0a3.38,3.38,0,0,1,3-1.65,3.45,3.45,0,0,1,1.5.32,1.21,1.21,0,0,1,.74,1.13,1.32,1.32,0,0,1-1.35,1.4,2.18,2.18,0,0,1-.64-.12,4.18,4.18,0,0,0-1.11-.2c-1.52,0-2.16,1.2-2.16,3v5.25a1.32,1.32,0,0,1-1.37,1.45,1.34,1.34,0,0,1-1.38-1.45v-9.18a1.38,1.38,0,1,1,2.75,0Z" style="fill:#414042"/><path d="M1519.67,943.2a3.69,3.69,0,0,1,3.12-1.38c2.53,0,4.1,1.87,4.1,4.4v6.38a1.38,1.38,0,1,1-2.75,0v-5.74c0-1.53-.74-2.58-2.23-2.58s-2.26,1.05-2.26,2.58v5.74a1.38,1.38,0,1,1-2.76,0v-9.18a1.39,1.39,0,0,1,2.76-.22Z" style="fill:#414042"/><path d="M1530.11,950.93a10.86,10.86,0,0,1,0-5.84,5.27,5.27,0,0,1,9.75,0,11.13,11.13,0,0,1,0,5.84,5.27,5.27,0,0,1-9.75,0Zm7.09-.73a9.67,9.67,0,0,0,0-4.37,2.17,2.17,0,0,0-2.21-1.55,2.21,2.21,0,0,0-2.23,1.55,9.67,9.67,0,0,0,0,4.37,2.21,2.21,0,0,0,2.23,1.54A2.18,2.18,0,0,0,1537.2,950.2Z" style="fill:#414042"/><path d="M181.06,910.27a1.12,1.12,0,0,1,1.2-1.2H187c3.23,0,4.82,1.64,4.82,4.09a3.48,3.48,0,0,1-1.79,3.3v0a3.69,3.69,0,0,1,2.07,3.57c0,2.91-2,4.46-5.19,4.46h-4.69a1.1,1.1,0,0,1-1.2-1.18Zm5.91,5.24a2,2,0,1,0,0-4.08h-3.09a.13.13,0,0,0-.14.14v3.8a.13.13,0,0,0,.14.14Zm-3.09,6.66h3.23a2.16,2.16,0,1,0,0-4.3h-3.23a.13.13,0,0,0-.14.14v4C183.74,922.13,183.79,922.17,183.88,922.17Z" style="fill:#414042"/><path d="M201.33,923.52h0a3.4,3.4,0,0,1-2.87,1.27c-2.34,0-3.75-1.73-3.75-4.07V914.8a1.27,1.27,0,1,1,2.54,0v5.33c0,1.41.64,2.38,2,2.38s2.07-1,2.07-2.38V914.8a1.28,1.28,0,1,1,2.55,0v8.51a1.28,1.28,0,0,1-2.55.21Z" style="fill:#414042"/><path d="M207,921.74a10,10,0,0,1,0-5.39,4.85,4.85,0,0,1,9,0,8.72,8.72,0,0,1,.36,2.64.83.83,0,0,1-.89.89h-6.11c-.1,0-.14,0-.14.13a2.55,2.55,0,0,0,2.64,2.5,3.67,3.67,0,0,0,2.25-.75,1.69,1.69,0,0,1,.93-.36,1,1,0,0,1,1.07,1.07,1.2,1.2,0,0,1-.52,1,5.9,5.9,0,0,1-4,1.32A4.46,4.46,0,0,1,207,921.74Zm6.62-4.84a2.33,2.33,0,0,0-4.29,0,2.53,2.53,0,0,0-.14.93c0,.09,0,.13.14.13h4.29c.1,0,.14,0,.14-.13A2.53,2.53,0,0,0,213.61,916.9Z" style="fill:#414042"/><path d="M221.62,914.6a3.43,3.43,0,0,1,2.89-1.28c2.35,0,3.8,1.73,3.8,4.08v5.91a1.28,1.28,0,1,1-2.55,0V918c0-1.41-.68-2.39-2.07-2.39s-2.09,1-2.09,2.39v5.32a1.28,1.28,0,1,1-2.55,0V914.8a1.28,1.28,0,0,1,2.55-.2Z" style="fill:#414042"/><path d="M231.29,921.76a10.34,10.34,0,0,1,0-5.41,4.89,4.89,0,0,1,9,0,10.34,10.34,0,0,1,0,5.41,4.89,4.89,0,0,1-9,0Zm6.58-.68a6.22,6.22,0,0,0,.23-2,6.32,6.32,0,0,0-.23-2,2,2,0,0,0-2.05-1.43,2.05,2.05,0,0,0-2.07,1.43,6.32,6.32,0,0,0-.23,2,6.22,6.22,0,0,0,.23,2,2.05,2.05,0,0,0,2.07,1.43A2,2,0,0,0,237.87,921.08Z" style="fill:#414042"/><path d="M243.44,923.67a1.13,1.13,0,0,1-.61-1,1.15,1.15,0,0,1,1.16-1.16,1.58,1.58,0,0,1,.79.25,5.06,5.06,0,0,0,2.8.89c1.25,0,2-.48,2-1.3s-.39-1.07-1.82-1.2L246.6,920c-2.25-.25-3.36-1.36-3.36-3.23,0-2.09,1.5-3.46,4.25-3.46a7.11,7.11,0,0,1,3.32.82c.5.28.78.59.78,1.05a1,1,0,0,1-1.07,1.11,1.52,1.52,0,0,1-.8-.25,5.6,5.6,0,0,0-2.36-.59c-1.14,0-1.67.5-1.67,1.14s.41,1,1.8,1.16l1.19.11c2.32.23,3.38,1.41,3.38,3.23,0,2.19-1.63,3.69-4.61,3.69A7.24,7.24,0,0,1,243.44,923.67Z" style="fill:#414042"/><path d="M201.6,942.35l4.51-12.42c.34-.95.84-1.52,1.77-1.52s1.46.57,1.8,1.52l4.46,12.42a1.86,1.86,0,0,1,.09.5,1.25,1.25,0,0,1-1.3,1.26,1.31,1.31,0,0,1-1.27-.94l-.84-2.41H204.9l-.82,2.41a1.31,1.31,0,0,1-1.27.94,1.25,1.25,0,0,1-1.3-1.26A1.86,1.86,0,0,1,201.6,942.35Zm8.4-4-2.1-6h-.06l-2.1,6Z" style="fill:#414042"/><path d="M217.82,928.32a1.53,1.53,0,1,1-1.52,1.52A1.52,1.52,0,0,1,217.82,928.32Zm-1.27,14.44v-8.5a1.28,1.28,0,1,1,2.55,0v8.5a1.28,1.28,0,1,1-2.55,0Z" style="fill:#414042"/><path d="M225,934.3h0a3.16,3.16,0,0,1,2.78-1.52,3.12,3.12,0,0,1,1.38.29,1.14,1.14,0,0,1,.69,1,1.22,1.22,0,0,1-1.25,1.3,1.94,1.94,0,0,1-.6-.12,3.83,3.83,0,0,0-1-.18c-1.41,0-2,1.11-2,2.78v4.86a1.28,1.28,0,1,1-2.55,0v-8.5a1.28,1.28,0,1,1,2.55,0Z" style="fill:#414042"/><path d="M231.36,941.19a8.35,8.35,0,0,1-.39-2.68,8.67,8.67,0,0,1,.37-2.71,4.41,4.41,0,0,1,4.48-3,4.46,4.46,0,0,1,4.51,3,9,9,0,0,1,.36,2.64.83.83,0,0,1-.89.89h-6.12c-.09,0-.13,0-.13.13a2.48,2.48,0,0,0,.15.85,2.41,2.41,0,0,0,2.48,1.66,3.74,3.74,0,0,0,2.26-.75,1.6,1.6,0,0,1,.93-.37,1,1,0,0,1,1.07,1.07,1.2,1.2,0,0,1-.52,1,5.9,5.9,0,0,1-4,1.32A4.44,4.44,0,0,1,231.36,941.19Zm6.62-4.84a2.12,2.12,0,0,0-2.14-1.41,2.14,2.14,0,0,0-2.16,1.41,2.78,2.78,0,0,0-.13.93c0,.09,0,.14.13.14H238a.13.13,0,0,0,.14-.14A2.76,2.76,0,0,0,238,936.35Z" style="fill:#414042"/><path d="M243.44,943.13a1.14,1.14,0,0,1-.61-1,1.15,1.15,0,0,1,1.16-1.16,1.65,1.65,0,0,1,.8.25,4.93,4.93,0,0,0,2.79.89c1.25,0,2-.48,2-1.3s-.39-1.06-1.82-1.2l-1.18-.12c-2.26-.25-3.37-1.36-3.37-3.23,0-2.09,1.5-3.45,4.25-3.45a7.11,7.11,0,0,1,3.32.82c.5.27.78.59.78,1a1.05,1.05,0,0,1-1.07,1.12,1.62,1.62,0,0,1-.8-.25,5.46,5.46,0,0,0-2.36-.6c-1.14,0-1.66.51-1.66,1.14s.4,1,1.79,1.16l1.19.12c2.32.22,3.39,1.41,3.39,3.23,0,2.18-1.64,3.68-4.62,3.68A7.32,7.32,0,0,1,243.44,943.13Z" style="fill:#414042"/><path d="M214.55,951.39a1.34,1.34,0,1,1,2.68,0V963a.13.13,0,0,0,.14.14h6.1a1.21,1.21,0,1,1,0,2.41h-7.58a1.25,1.25,0,0,1-1.34-1.34Z" style="fill:#414042"/><path d="M226,963.92l4.51-12.42c.34-1,.84-1.52,1.77-1.52s1.46.57,1.8,1.52l4.46,12.42a1.86,1.86,0,0,1,.09.5,1.25,1.25,0,0,1-1.3,1.26,1.31,1.31,0,0,1-1.27-.94l-.84-2.41h-5.92l-.82,2.41a1.31,1.31,0,0,1-1.27.94,1.25,1.25,0,0,1-1.3-1.26A1.86,1.86,0,0,1,226,963.92Zm8.4-4-2.1-6h-.06l-2.1,6Z" style="fill:#414042"/><path d="M241,951.3a1.12,1.12,0,0,1,1.2-1.21H247c3.23,0,4.82,1.64,4.82,4.1a3.45,3.45,0,0,1-1.8,3.29v0a3.69,3.69,0,0,1,2.08,3.57c0,2.91-2,4.46-5.19,4.46h-4.69a1.1,1.1,0,0,1-1.2-1.18Zm5.91,5.23a2,2,0,1,0,0-4.07h-3.09c-.09,0-.14,0-.14.13v3.8a.13.13,0,0,0,.14.14Zm-3.09,6.67H247a2.16,2.16,0,1,0,0-4.3h-3.23c-.09,0-.14,0-.14.13v4A.13.13,0,0,0,243.81,963.2Z" style="fill:#414042"/><path d="M156.32,984.78v-4.6h28.22c2,0,2.37-.37,2.37-2.36V950.88c0-1.89-.44-2.33-2.32-2.33-7.85,0-15.7-.12-23.54.06-3.53.07-7.14-2.13-7.09-7.07.08-7.82,0-15.63,0-23.45,0-2.06-.4-2.47-2.46-2.47H124.67c-1.75,0-2.32.56-2.32,2.31v28.4c-1.46,0-2.8,0-4.13,0-.18,0-.38-.15-.51-.48a1.87,1.87,0,0,1,0-.63q0-13.76,0-27.5c0-2.57.95-4.71,3.31-5.91a7.14,7.14,0,0,1,3.16-.79c9.38-.06,18.76,0,28.14,0a6.21,6.21,0,0,1,6.38,6.4c0,8,0,15.94,0,23.91a7.82,7.82,0,0,0,.08,1.37,1.4,1.4,0,0,0,1.31,1.21,6.78,6.78,0,0,0,1,0h23.81c4.06,0,6.71,2.6,6.71,6.64q0,13.88,0,27.77a6.09,6.09,0,0,1-6.39,6.49Z" style="fill:#414042"/><path d="M147.3,980.18v4.6l-22.74,0c-4.26,0-6.87-2.55-6.88-6.8,0-7.27,0-14.53,0-21.79,0-1,.24-1.16,1.19-1.15h3.51v22.76c0,1.84.51,2.36,2.33,2.36H147.3" style="fill:#414042"/><rect x="293.02" y="261.63" width="51.6" height="51.6" transform="translate(455.4 -119.52) rotate(66.52)" style="fill:#09999a"/><rect x="403.15" y="557.7" width="50.01" height="50.01" transform="translate(179.76 -96.38) rotate(16.22)" style="fill:#2b3182"/><rect x="1693.42" y="31.79" width="50.01" height="50.01" transform="translate(84.23 -477.63) rotate(16.22)" style="fill:#e3003e"/><rect x="799.97" y="348.97" width="50.01" height="50.01" transform="translate(137.26 -215.5) rotate(16.22)" style="fill:#09999a"/><rect x="293.82" y="52.41" width="50.01" height="50.01" transform="translate(34.3 -85.95) rotate(16.22)" style="fill:#e3003e"/><rect x="566.85" y="118.92" width="50.01" height="50.01" transform="translate(233.61 -348.69) rotate(40.31)" style="fill:#09999a"/><rect x="962.99" y="191.65" width="50.01" height="50.01" transform="translate(697.53 -752.21) rotate(60.94)" style="fill:#2b3182"/><rect x="1855" y="666.86" width="50.01" height="50.01" transform="translate(1571.7 -1287.54) rotate(60.94)" style="fill:#09999a"/><rect x="1259.67" y="666.86" width="50.01" height="50.01" transform="translate(506.82 -542.64) rotate(29.48)" style="fill:#2b3182"/><rect x="1370.69" y="171.55" width="50.01" height="50.01" transform="translate(32.63 -162.13) rotate(6.73)" style="fill:#09999a"/><rect x="869.37" y="769.77" width="50.01" height="50.01" transform="translate(-228.88 382.62) rotate(-21.48)" style="fill:#09999a"/><rect x="599.66" y="273.91" width="27.04" height="27.04" transform="translate(104.66 -159.8) rotate(16.22)" style="fill:#e3003e"/><rect x="1477.67" y="146.06" width="27.04" height="27.04" transform="translate(111.54 747.53) rotate(-29.19)" style="fill:#09999a"/><rect x="695.66" y="257.47" width="24.96" height="24.96" transform="translate(500.37 -458.86) rotate(53.22)" style="fill:#2b3182"/><rect x="453.85" y="381.42" width="18.51" height="18.51" transform="translate(105.67 -98.54) rotate(13.7)" style="fill:#09999a"/><rect x="1112.81" y="322.06" width="18.51" height="18.51" transform="translate(110.36 -256.26) rotate(13.7)" style="fill:#09999a"/><rect x="586.49" y="547.11" width="18.51" height="18.51" transform="translate(827.16 -225.24) rotate(63.45)" style="fill:#e3003e"/><rect x="1567.64" y="396.58" width="18.51" height="18.51" transform="translate(131.11 -343.16) rotate(12.95)" style="fill:#09999a"/><rect x="1501.95" y="636.86" width="18.51" height="18.51" transform="translate(183.3 -322.33) rotate(12.95)" style="fill:#e3003e"/><rect x="1883.5" y="453.53" width="18.51" height="18.51" transform="translate(-21.71 100.12) rotate(-3.01)" style="fill:#e3003e"/><rect x="1628.54" y="260.7" width="18.51" height="18.51" transform="translate(201.45 -562.01) rotate(20.72)" style="fill:#09999a"/><rect x="151.48" y="146.59" width="18.51" height="18.51" transform="translate(65.54 -46.79) rotate(20.72)" style="fill:#09999a"/><rect x="1852.34" y="236.81" width="18.51" height="18.51" transform="translate(719.25 -1244.28) rotate(45)" style="fill:#2b3182"/><rect x="100.76" y="670.2" width="18.51" height="18.51" transform="translate(788.01 798.16) rotate(109.13)" style="fill:#09999a"/><rect x="1052.89" y="527.42" width="18.51" height="18.51" transform="translate(58.61 -102.92) rotate(5.7)" style="fill:#09999a"/><rect x="827.18" y="614.06" width="18.51" height="18.51" transform="translate(509.12 -367.14) rotate(35.02)" style="fill:#09999a"/><rect x="1154.48" y="81.37" width="18.51" height="18.51" transform="translate(262.7 -651.41) rotate(35.02)" style="fill:#e3003e"/><rect x="672.54" y="719.33" width="18.51" height="18.51" transform="translate(541.54 -259.35) rotate(35.02)" style="fill:#e3003e"/><rect x="356.14" y="425.15" width="18.51" height="18.51" transform="translate(344.32 -132.85) rotate(37.94)" style="fill:#09999a"/><rect x="-11.7" y="244.22" width="161.47" height="56.06" transform="translate(-115.34 484.12) rotate(-124.74)" style="fill:#09999a"/><rect x="61.65" y="257.5" width="161.47" height="56.06" transform="translate(-137.32 132.02) rotate(-34.74)" style="fill:#2b3182"/><rect x="1100.92" y="377.8" width="161.47" height="56.06" transform="translate(659.38 -729.17) rotate(46.34)" style="fill:#2b3182"/><rect x="1102.65" y="303.28" width="161.47" height="56.06" transform="translate(98.58 908.69) rotate(-43.66)" style="fill:#e3003e"/><rect x="1099.18" y="452.31" width="161.47" height="56.06" transform="translate(-5.28 947.51) rotate(-43.66)" style="fill:#e3003e"/><rect x="1593.19" y="580.81" width="161.47" height="56.06" transform="translate(814.72 -951.44) rotate(41.17)" style="fill:#09999a"/><rect x="1588.21" y="506.44" width="161.47" height="56.06" transform="translate(167.92 1438.89) rotate(-48.83)" style="fill:#2b3182"/><rect x="1598.16" y="655.18" width="161.47" height="56.06" transform="translate(59.36 1497.2) rotate(-48.83)" style="fill:#2b3182"/><path d="M24.93,472.75c0-43.66,1.77-61.3,8.38-82.9C48.75,342.66,87.11,318,139.59,318c46.75,0,80.7,19.85,95.7,48.07,2.64,4.85,4.41,9.7,4.41,15.44,0,13.67-10.59,23.37-23.82,23.37-8.82,0-15.87-3.53-22.93-13.23-12.35-18.52-29.55-26.9-53.36-26.9-30.43,0-48.07,15-56,39.69-4,12.79-5.73,28.22-5.73,68.35s1.77,55.57,5.73,68.36c7.94,24.69,26,39.69,56.45,39.69,27.78,0,48.51-13.67,56.45-37.93,3.53-10.58,4.85-25.14,4.85-38.37a2.34,2.34,0,0,0-2.65-2.64H164.29c-14.12,0-22.94-9.26-22.94-22.05s8.82-22.05,22.94-22.05h67.47c13.23,0,21.17,7.94,21.17,21.17v8.38c0,24.25-2.21,49.39-7.94,66.59-15.44,47.62-53.36,73.64-105.4,73.64-52.48,0-90.84-24.69-106.28-71.88C26.7,534.05,24.93,516.41,24.93,472.75Z" style="fill:#fff"/><rect x="112.29" y="414.7" width="60.18" height="60.18" transform="translate(356.21 29.59) rotate(45)" style="fill:#2b3182"/><path d="M1231.5,348c0-16.76,11-27.34,26-27.34s26,10.58,26,27.34v249.6c0,16.76-11,27.35-26,27.35s-26-10.59-26-27.35Z" style="fill:#fff"/><path d="M1687.92,600.64c-8.38-5.29-13.23-13.23-13.23-22.49,0-12.35,9.7-23.81,23.37-23.81a33.37,33.37,0,0,1,16.76,4.85c22.93,13.67,44.1,21.61,69.24,21.61,37,0,58.21-17.2,58.21-43.22,0-21.61-12.35-36.16-54.24-41.45l-15.44-2.21c-60.41-7.94-90.84-36.16-90.84-86,0-54.25,39.69-90,101-90,32.64,0,64,8.82,81.59,20.29,9.26,5.29,13.23,12.79,13.23,21.17,0,13.23-9.7,22.93-22.93,22.93-5.29,0-11.47-1.77-16.32-4-17.2-8.38-35.28-13.67-56-13.67-31.75,0-47.62,17.2-47.62,40.13,0,21.61,15,34.84,54.68,40.57l15,2.21c61.3,8.37,90.85,36.6,90.85,87.75,0,53.36-38.37,92.17-113.78,92.17C1740.84,627.54,1708.21,613.87,1687.92,600.64Z" style="fill:#fff"/><rect x="1724.12" y="287.06" width="50.01" height="50.01" transform="translate(617.12 -1057.38) rotate(40.31)" style="fill:#2b3182"/><rect x="179" y="293.81" width="105.41" height="56.06" transform="translate(99.25 695.64) rotate(-124.74)" style="fill:#09999a"/></g></g></svg>