<svg xmlns="http://www.w3.org/2000/svg" viewBox="0 0 480 323.56"><title>Asset 11</title><g id="Layer_2" data-name="Layer 2"><g id="Capa_1" data-name="Capa 1"><rect width="480" height="323.56" style="fill:#e3003e"/><path d="M80.34,107A104.26,104.26,0,0,1,131.2,50" style="fill:none;stroke:#fff;stroke-linecap:round;stroke-linejoin:round;stroke-width:2.88781785964966px;stroke-dasharray:0.7219544649124146,8.663454055786133"/><path d="M282.14,229.37a104.28,104.28,0,0,1-62.94,43.3" style="fill:none;stroke:#fff;stroke-linecap:round;stroke-linejoin:round;stroke-width:2.88781785964966px;stroke-dasharray:0.7219544649124146,8.663454055786133"/><path d="M185.08,100.62a3,3,0,1,1,6,0v11.32a.27.27,0,0,0,.31.31h13.27a.27.27,0,0,0,.31-.31V100.62a3,3,0,1,1,6,0v29a3,3,0,1,1-6,0V118a.28.28,0,0,0-.31-.31H191.44a.28.28,0,0,0-.31.31v11.64a3,3,0,1,1-6,0Z" style="fill:#fff"/><path d="M239.93,130.14a2.69,2.69,0,0,1-2.87,2.66,2.72,2.72,0,0,1-2.41-1.18l-.82-1.23h-.05c-1.44,1.7-3.95,2.72-7.28,2.72-5.84,0-9-2.77-9-7.48,0-5.33,3.74-7.9,9.84-7.9h5.07c.21,0,.31-.1.31-.3v-.62c0-2.87-1.64-4.56-5.53-4.56a10.88,10.88,0,0,0-4.51,1,4.2,4.2,0,0,1-1.49.3,2.23,2.23,0,0,1-2.36-2.35A2.48,2.48,0,0,1,220.3,109a15.3,15.3,0,0,1,7.53-1.69c7,0,10.36,3.48,10.36,9.58v7.79a4.36,4.36,0,0,0,.51,2.46l.77,1.34A3.55,3.55,0,0,1,239.93,130.14Zm-7.18-5.59v-2.2a.27.27,0,0,0-.31-.31h-4.1c-3.79,0-5.33,1.08-5.33,3.33,0,2,1.49,3.08,4.31,3.08C230.65,128.45,232.75,127.17,232.75,124.55Z" style="fill:#fff"/><path d="M244.9,126.29a19.43,19.43,0,0,1-.77-6.1,19.41,19.41,0,0,1,.77-6.09c1.44-4.41,5.18-6.82,10.15-6.82a10.37,10.37,0,0,1,7.79,3.12,3.13,3.13,0,0,1,1,2.26,2.45,2.45,0,0,1-2.52,2.51,3.34,3.34,0,0,1-2.35-1.23,4.83,4.83,0,0,0-3.9-1.54,4.54,4.54,0,0,0-4.61,3.23,14.54,14.54,0,0,0-.51,4.56,14.57,14.57,0,0,0,.51,4.57A4.54,4.54,0,0,0,255.1,128a4.83,4.83,0,0,0,3.9-1.54,3.34,3.34,0,0,1,2.35-1.23,2.45,2.45,0,0,1,2.52,2.51,3.1,3.1,0,0,1-1,2.25,10.34,10.34,0,0,1-7.79,3.13C250.08,133.11,246.34,130.7,244.9,126.29Z" style="fill:#fff"/><path d="M275.61,118.2l8.91-9.59a2.86,2.86,0,0,1,2.16-1,2.4,2.4,0,0,1,2.46,2.35,2.88,2.88,0,0,1-.93,2L283,117.17l7.12,11.33a3,3,0,0,1,.51,1.54,2.72,2.72,0,0,1-2.76,2.76,3,3,0,0,1-2.67-1.53L279.09,121l-3.48,3.75v5a2.88,2.88,0,1,1-5.75,0V100.46a2.88,2.88,0,1,1,5.75,0Z" style="fill:#fff"/><path d="M316.87,130.14A2.69,2.69,0,0,1,314,132.8a2.72,2.72,0,0,1-2.41-1.18l-.82-1.23h0c-1.44,1.7-4,2.72-7.28,2.72-5.84,0-9-2.77-9-7.48,0-5.33,3.74-7.9,9.84-7.9h5.07c.21,0,.31-.1.31-.3v-.62c0-2.87-1.64-4.56-5.53-4.56a10.88,10.88,0,0,0-4.51,1,4.2,4.2,0,0,1-1.49.3,2.23,2.23,0,0,1-2.36-2.35,2.48,2.48,0,0,1,1.44-2.26,15.3,15.3,0,0,1,7.53-1.69c7,0,10.35,3.48,10.35,9.58v7.79a4.35,4.35,0,0,0,.52,2.46l.77,1.34A3.55,3.55,0,0,1,316.87,130.14Zm-7.18-5.59v-2.2a.27.27,0,0,0-.31-.31h-4.1c-3.79,0-5.33,1.08-5.33,3.33,0,2,1.49,3.08,4.31,3.08C307.59,128.45,309.69,127.17,309.69,124.55Z" style="fill:#fff"/><path d="M321.69,112.3a2.14,2.14,0,0,1-2.36-2.2,2.18,2.18,0,0,1,2.36-2.26h.71c.21,0,.36-.1.36-.31V103a2.8,2.8,0,0,1,2.92-3,2.75,2.75,0,0,1,2.82,3v4.51a.28.28,0,0,0,.31.31h2.61a2.18,2.18,0,0,1,2.36,2.26,2.14,2.14,0,0,1-2.36,2.2h-2.61a.28.28,0,0,0-.31.31v12.3c0,2,.57,2.61,2.67,2.82a2.53,2.53,0,0,1,2.61,2.56c0,1.44-1,2.56-3.12,2.56h-.47c-5.38,0-7.43-2.4-7.43-7.79V112.61c0-.21-.15-.31-.36-.31Z" style="fill:#fff"/><path d="M338.4,126.29a18.07,18.07,0,0,1-.82-6.1,18,18,0,0,1,.82-6.09c1.38-4.31,5.17-6.82,10.2-6.82s8.76,2.51,10.14,6.82a18,18,0,0,1,.82,6.09,18.07,18.07,0,0,1-.82,6.1c-1.38,4.31-5.17,6.82-10.14,6.82S339.78,130.6,338.4,126.29Zm14.81-1.53a14,14,0,0,0,.51-4.57,14.17,14.17,0,0,0-.51-4.56,4.57,4.57,0,0,0-4.61-3.23,4.63,4.63,0,0,0-4.67,3.23,14.17,14.17,0,0,0-.51,4.56,14,14,0,0,0,.51,4.57A4.63,4.63,0,0,0,348.6,128,4.57,4.57,0,0,0,353.21,124.76Z" style="fill:#fff"/><path d="M371.51,110.15a7.72,7.72,0,0,1,6.51-2.87c5.28,0,8.56,3.89,8.56,9.17v13.33a2.87,2.87,0,1,1-5.74,0v-12c0-3.18-1.54-5.39-4.67-5.39s-4.71,2.21-4.71,5.39v12a2.87,2.87,0,1,1-5.74,0V110.61a2.88,2.88,0,0,1,5.74-.46Z" style="fill:#fff"/><path d="M393.35,126.24a18.9,18.9,0,0,1-.88-6,19.67,19.67,0,0,1,.82-6.09c1.39-4.31,5.18-6.82,10.1-6.82,5.08,0,8.77,2.61,10.15,6.82a19.84,19.84,0,0,1,.82,5.94,1.86,1.86,0,0,1-2,2H398.57c-.2,0-.3.1-.3.31a5.48,5.48,0,0,0,.35,1.89,5.43,5.43,0,0,0,5.59,3.75,8.28,8.28,0,0,0,5.08-1.7,3.7,3.7,0,0,1,2.1-.82,2.29,2.29,0,0,1,2.41,2.41,2.71,2.71,0,0,1-1.18,2.26,13.34,13.34,0,0,1-8.92,3C398.42,133.11,394.73,130.55,393.35,126.24Zm14.91-10.91a5.28,5.28,0,0,0-9.69,0,6.39,6.39,0,0,0-.3,2.1.27.27,0,0,0,.3.3h9.69c.21,0,.31-.1.31-.3A6.12,6.12,0,0,0,408.26,115.33Z" style="fill:#fff"/><path d="M420.56,130.6a2.56,2.56,0,0,1-1.38-2.31,2.59,2.59,0,0,1,2.61-2.61,3.65,3.65,0,0,1,1.8.56,11.21,11.21,0,0,0,6.3,2c2.82,0,4.56-1.07,4.56-2.92,0-1.54-.87-2.41-4.1-2.72l-2.66-.25c-5.08-.57-7.59-3.08-7.59-7.28,0-4.72,3.38-7.79,9.59-7.79a16.2,16.2,0,0,1,7.48,1.84,2.7,2.7,0,0,1,1.74,2.36A2.36,2.36,0,0,1,436.5,114a3.57,3.57,0,0,1-1.79-.56,12.61,12.61,0,0,0-5.33-1.33c-2.56,0-3.74,1.12-3.74,2.56s.92,2.31,4.05,2.61l2.66.26c5.23.51,7.64,3.18,7.64,7.28,0,4.92-3.69,8.3-10.41,8.3A16.44,16.44,0,0,1,420.56,130.6Z" style="fill:#fff"/><path d="M181.24,139v-2.56H442.3V139Z" style="fill:#fff"/><path d="M184.52,187.75a19.2,19.2,0,0,1-.87-6,19.69,19.69,0,0,1,.82-6.1c1.38-4.31,5.18-6.82,10.1-6.82,5.07,0,8.76,2.61,10.14,6.82a19.52,19.52,0,0,1,.82,5.94,1.85,1.85,0,0,1-2,2H189.75a.27.27,0,0,0-.31.31,5.26,5.26,0,0,0,.36,1.89,5.43,5.43,0,0,0,5.59,3.75,8.26,8.26,0,0,0,5.07-1.7,3.73,3.73,0,0,1,2.1-.82,2.29,2.29,0,0,1,2.41,2.41,2.71,2.71,0,0,1-1.18,2.26,13.32,13.32,0,0,1-8.92,3C189.59,194.62,185.9,192.06,184.52,187.75Zm14.91-10.91a5.27,5.27,0,0,0-9.68,0,6.12,6.12,0,0,0-.31,2.1c0,.2.1.3.31.3h9.68c.21,0,.31-.1.31-.3A6.12,6.12,0,0,0,199.43,176.84Z" style="fill:#fff"/><path d="M224,162.13a3,3,0,1,1,6.05,0v29a3,3,0,1,1-6.05,0Z" style="fill:#fff"/><path d="M258.12,162v29.32a2.88,2.88,0,0,1-5.74.41h0c-1.18,1.69-3.17,2.92-6.66,2.92a8.58,8.58,0,0,1-8.46-6.25,26,26,0,0,1,0-13.33,8.58,8.58,0,0,1,8.46-6.25c3.49,0,5.59,1.33,6.66,2.92h0V162a2.87,2.87,0,1,1,5.74,0ZM242.7,177.19a19.86,19.86,0,0,0,0,9,4.84,4.84,0,0,0,9.17,0,20.24,20.24,0,0,0,0-9,4.84,4.84,0,0,0-9.17,0Z" style="fill:#fff"/><path d="M265.15,187.75a19.2,19.2,0,0,1-.87-6,19.39,19.39,0,0,1,.82-6.1c1.38-4.31,5.17-6.82,10.09-6.82,5.08,0,8.77,2.61,10.15,6.82a19.52,19.52,0,0,1,.82,5.94,1.85,1.85,0,0,1-2,2H270.38a.27.27,0,0,0-.31.31,5.26,5.26,0,0,0,.36,1.89A5.42,5.42,0,0,0,276,189.5a8.26,8.26,0,0,0,5.08-1.7,3.73,3.73,0,0,1,2.1-.82,2.29,2.29,0,0,1,2.41,2.41,2.71,2.71,0,0,1-1.18,2.26,13.32,13.32,0,0,1-8.92,3C270.22,194.62,266.53,192.06,265.15,187.75Zm14.91-10.91a5.27,5.27,0,0,0-9.68,0,6.12,6.12,0,0,0-.31,2.1c0,.2.1.3.31.3h9.68c.21,0,.31-.1.31-.3A6.12,6.12,0,0,0,280.06,176.84Z" style="fill:#fff"/><path d="M313.59,191.65a2.69,2.69,0,0,1-2.87,2.66,2.72,2.72,0,0,1-2.41-1.18l-.82-1.23h-.05c-1.44,1.7-3.95,2.72-7.28,2.72-5.85,0-9-2.77-9-7.48,0-5.33,3.74-7.9,9.84-7.9h5.07c.21,0,.31-.1.31-.3v-.62c0-2.87-1.64-4.56-5.53-4.56a11,11,0,0,0-4.52,1,4.11,4.11,0,0,1-1.48.3,2.23,2.23,0,0,1-2.36-2.35,2.49,2.49,0,0,1,1.44-2.26,15.27,15.27,0,0,1,7.53-1.69c7,0,10.35,3.48,10.35,9.58v7.79a4.35,4.35,0,0,0,.52,2.46l.77,1.34A3.55,3.55,0,0,1,313.59,191.65Zm-7.18-5.59v-2.2a.27.27,0,0,0-.31-.31H302c-3.79,0-5.33,1.08-5.33,3.33,0,2.05,1.49,3.08,4.31,3.08C304.31,190,306.41,188.68,306.41,186.06Z" style="fill:#fff"/><path d="M318.41,173.81a2.14,2.14,0,0,1-2.36-2.2,2.18,2.18,0,0,1,2.36-2.26h.71c.21,0,.36-.1.36-.3v-4.52a2.8,2.8,0,0,1,2.92-3,2.75,2.75,0,0,1,2.82,3v4.52a.27.27,0,0,0,.31.3h2.61a2.18,2.18,0,0,1,2.36,2.26,2.14,2.14,0,0,1-2.36,2.2h-2.61a.28.28,0,0,0-.31.31v12.3c0,2,.57,2.61,2.67,2.82a2.53,2.53,0,0,1,2.61,2.56c0,1.44-1,2.56-3.12,2.56h-.47c-5.38,0-7.43-2.4-7.43-7.79V174.12c0-.21-.15-.31-.36-.31Z" style="fill:#fff"/><path d="M335.12,187.8a23.06,23.06,0,0,1,0-12.19c1.38-4.31,5.17-6.82,10.2-6.82s8.76,2.51,10.14,6.82a23.06,23.06,0,0,1,0,12.19c-1.38,4.31-5.17,6.82-10.14,6.82S336.5,192.11,335.12,187.8Zm14.81-1.53a14,14,0,0,0,.51-4.56,14.2,14.2,0,0,0-.51-4.57,4.57,4.57,0,0,0-4.61-3.23,4.63,4.63,0,0,0-4.67,3.23,14.2,14.2,0,0,0-.51,4.57,14,14,0,0,0,.51,4.56,4.63,4.63,0,0,0,4.67,3.23A4.57,4.57,0,0,0,349.93,186.27Z" style="fill:#fff"/><path d="M368.23,171.66a7.72,7.72,0,0,1,6.51-2.87c5.28,0,8.56,3.89,8.56,9.17v13.33a2.87,2.87,0,1,1-5.74,0v-12c0-3.18-1.54-5.39-4.67-5.39s-4.71,2.21-4.71,5.39v12a2.87,2.87,0,1,1-5.74,0V172.12a2.88,2.88,0,0,1,5.74-.46Z" style="fill:#fff"/><path d="M390.06,187.75a19.2,19.2,0,0,1-.87-6,19.69,19.69,0,0,1,.82-6.1c1.39-4.31,5.18-6.82,10.1-6.82,5.08,0,8.77,2.61,10.15,6.82a19.84,19.84,0,0,1,.82,5.94,1.86,1.86,0,0,1-2,2H395.29c-.2,0-.3.1-.3.31a5.48,5.48,0,0,0,.35,1.89,5.43,5.43,0,0,0,5.59,3.75,8.23,8.23,0,0,0,5.07-1.7,3.76,3.76,0,0,1,2.11-.82,2.29,2.29,0,0,1,2.41,2.41,2.71,2.71,0,0,1-1.18,2.26,13.34,13.34,0,0,1-8.92,3C395.14,194.62,391.45,192.06,390.06,187.75ZM405,176.84a5.28,5.28,0,0,0-9.69,0,6.39,6.39,0,0,0-.3,2.1.27.27,0,0,0,.3.3H405c.21,0,.31-.1.31-.3A6.12,6.12,0,0,0,405,176.84Z" style="fill:#fff"/><path d="M417.28,192.11a2.56,2.56,0,0,1-1.38-2.31,2.59,2.59,0,0,1,2.61-2.61,3.65,3.65,0,0,1,1.8.56,11.21,11.21,0,0,0,6.3,2c2.82,0,4.56-1.07,4.56-2.92,0-1.54-.87-2.41-4.1-2.72l-2.66-.25c-5.08-.57-7.59-3.08-7.59-7.28,0-4.72,3.38-7.79,9.59-7.79a16.2,16.2,0,0,1,7.48,1.84,2.7,2.7,0,0,1,1.74,2.36,2.36,2.36,0,0,1-2.41,2.51,3.57,3.57,0,0,1-1.79-.56,12.61,12.61,0,0,0-5.33-1.33c-2.56,0-3.74,1.12-3.74,2.56s.92,2.31,4.05,2.61l2.66.26c5.23.51,7.64,3.18,7.64,7.28,0,4.92-3.69,8.3-10.41,8.3A16.44,16.44,0,0,1,417.28,192.11Z" style="fill:#fff"/><path d="M181.24,200.46V197.9H439v2.56Z" style="fill:#fff"/><path d="M97.31,113.2A104,104,0,0,1,263.75,77.83" style="fill:none;stroke:#fff;stroke-linecap:round;stroke-miterlimit:10;stroke-width:5.0536812543869px"/><path d="M273.45,219.65a104,104,0,0,1-128.39,26.52" style="fill:none;stroke:#fff;stroke-linecap:round;stroke-miterlimit:10;stroke-width:5.0536812543869px"/><path d="M94.55,150.25a39.73,39.73,0,0,0-20.72,73.62A14.9,14.9,0,0,1,77,226.38v30.07c0,6.89,3.55,11.69,8.64,11.69h17.78c5.09,0,8.64-4.8,8.64-11.69V226.38a14.73,14.73,0,0,1,3.2-2.51,39.73,39.73,0,0,0-20.73-73.62Zm12,106.2c0,3.58-1.32,6.18-3.13,6.18H85.66c-1.81,0-3.12-2.6-3.12-6.18v-3h24Zm0-8.55h-24v-44h0c1.28-.94,3.16-.67,4.26-.39,3,.77,4.88,2.68,5,3.28v27.81a2.76,2.76,0,0,0,5.52,0v-27.8c.13-.64,2-2.53,5-3.29,1.1-.28,3-.55,4.27.39ZM85.35,197.74l9.2-18.55,9.2,18.55a13.66,13.66,0,0,0-3.7.67,15.47,15.47,0,0,0-5.5,3.08,15.47,15.47,0,0,0-5.5-3.08A13.66,13.66,0,0,0,85.35,197.74Zm27,21.42-.31.2V202.69a1.21,1.21,0,0,0,0-.19s0-.07,0-.11a1.77,1.77,0,0,0,0-.2.29.29,0,0,0,0-.09,2.17,2.17,0,0,0-.07-.24s0,0,0,0l-.12-.28h0L97,171.75a2.76,2.76,0,0,0-4.94,0L77.31,201.53a2.13,2.13,0,0,0-.21.58s0,0,0,.06,0,.16,0,.24a.17.17,0,0,1,0,.07c0,.08,0,.15,0,.23v16.65l-.31-.2a34.21,34.21,0,1,1,35.68,0Z" style="fill:#fff;stroke:#fff;stroke-miterlimit:10;stroke-width:2.32497832328706px"/><path d="M113.39,169.08A2.76,2.76,0,1,0,109.5,173a25.46,25.46,0,0,1,6.37,25.59,2.76,2.76,0,0,0,1.82,3.45,2.91,2.91,0,0,0,.82.12,2.75,2.75,0,0,0,2.63-1.94,31,31,0,0,0-7.75-31.14Z" style="fill:#fff;stroke:#fff;stroke-miterlimit:10;stroke-width:2.32497832328706px"/><path d="M103.86,163.08l-.15-.08a2.76,2.76,0,0,0-2.55,4.89l.15.08a2.82,2.82,0,0,0,1.28.32,2.76,2.76,0,0,0,1.27-5.21Z" style="fill:#fff;stroke:#fff;stroke-miterlimit:10;stroke-width:2.32497832328706px"/><path d="M45.92,186.53H37.18a2.76,2.76,0,1,0,0,5.51h8.74a2.76,2.76,0,1,0,0-5.51Z" style="fill:#fff;stroke:#fff;stroke-miterlimit:10;stroke-width:2.32497832328706px"/><path d="M94.55,128.63a2.77,2.77,0,0,0-2.76,2.76v9.42a2.76,2.76,0,1,0,5.52,0v-9.42A2.77,2.77,0,0,0,94.55,128.63Z" style="fill:#fff;stroke:#fff;stroke-miterlimit:10;stroke-width:2.32497832328706px"/><path d="M137.34,147.31a2.76,2.76,0,0,0-3.9,0L127,153.69a2.76,2.76,0,1,0,3.89,3.92l6.45-6.4A2.76,2.76,0,0,0,137.34,147.31Z" style="fill:#fff;stroke:#fff;stroke-miterlimit:10;stroke-width:2.32497832328706px"/><path d="M49.49,151.21l6.45,6.4a2.76,2.76,0,0,0,3.89-3.92l-6.45-6.39a2.76,2.76,0,0,0-3.89,3.91Z" style="fill:#fff;stroke:#fff;stroke-miterlimit:10;stroke-width:2.32497832328706px"/><path d="M151.91,186.53h-8.74a2.76,2.76,0,1,0,0,5.51h8.74a2.76,2.76,0,1,0,0-5.51Z" style="fill:#fff;stroke:#fff;stroke-miterlimit:10;stroke-width:2.32497832328706px"/></g></g></svg>