<svg xmlns="http://www.w3.org/2000/svg" viewBox="0 0 159.01 117.71"><title>icond4</title><g id="Layer_2" data-name="Layer 2"><g id="Capa_1" data-name="Capa 1"><path d="M154.78,54.63H117.55a58.85,58.85,0,1,0,0,8.46h37.23a4.23,4.23,0,0,0,0-8.46Zm-71.52,19a1.3,1.3,0,0,0-1.65-.07c-.11.07-10.27,7.58-22.77,7.58S36.16,73.6,36.07,73.53a1.31,1.31,0,0,0-1.65.07,1.27,1.27,0,0,0-.24,1.64C34.51,75.81,42.61,89,58.86,89S83.17,75.79,83.5,75.24a1.29,1.29,0,0,0-.24-1.64m22.68-14.74A47.12,47.12,0,1,1,58.82,11.74a47.11,47.11,0,0,1,47.12,47.12M83.26,73.6a1.3,1.3,0,0,0-1.65-.07c-.11.07-10.27,7.58-22.77,7.58S36.16,73.6,36.07,73.53a1.31,1.31,0,0,0-1.65.07,1.27,1.27,0,0,0-.24,1.64C34.51,75.81,42.61,89,58.86,89S83.17,75.79,83.5,75.24a1.29,1.29,0,0,0-.24-1.64m0,0a1.3,1.3,0,0,0-1.65-.07c-.11.07-10.27,7.58-22.77,7.58S36.16,73.6,36.07,73.53a1.31,1.31,0,0,0-1.65.07,1.27,1.27,0,0,0-.24,1.64C34.51,75.81,42.61,89,58.86,89S83.17,75.79,83.5,75.24a1.29,1.29,0,0,0-.24-1.64m0,0a1.3,1.3,0,0,0-1.65-.07A44.85,44.85,0,0,1,67.43,80a38.67,38.67,0,0,1-8.59,1.12A38.62,38.62,0,0,1,50.23,80a45.41,45.41,0,0,1-14.18-6.46,1.3,1.3,0,0,0-1.89,1.71A31.25,31.25,0,0,0,48.37,87v.94a5.25,5.25,0,0,0,5.22,5.23h4.09V83.68h0c.38,0,.75,0,1.14,0s.74,0,1.12,0v9.44h4.09a5.25,5.25,0,0,0,5.22-5.23V82.18h0V87A31.25,31.25,0,0,0,83.52,75.24,1.32,1.32,0,0,0,83.26,73.6ZM81.4,48.46c0,4.49-2.44,8.11-5.48,8.11s-5.49-3.64-5.49-8.11,2.45-8.12,5.49-8.12S81.4,44,81.4,48.46m11.16-2.63c-.32,2.5-1.14,9.2-3.32,10.82-1.73,1.29-6.18,2.21-9.38,2.21h0a16,16,0,0,1-7.79-2c-3.46-2-4-7.49-4.18-10.38-.11-1.59-.46-4.84,2.18-6.46,3-1.83,9.05-2,10.87-2a33.84,33.84,0,0,1,10.6,1.68c1.75.59,1.22,4.45,1,6M50,46.49c-.21,2.89-.72,8.45-4.18,10.42a16.09,16.09,0,0,1-7.8,2h0c-3.21,0-7.66-.9-9.39-2.21-2.17-1.62-3-8.28-3.31-10.79-.21-1.58-.74-5.46,1-6.07a34.53,34.53,0,0,1,10.6-1.68c1.82,0,7.91.12,10.88,1.94,2.63,1.62,2.28,4.86,2.19,6.44m52.86-9.55c-.44-.45-3.32.71-6.22-.76-6-3-21.13-6-31,1-1,.75-5.47.88-6.7.83s-5.63-.08-6.7-.83c-9.85-7-25-4-31-1-2.91,1.47-5.78.33-6.23.76a3.9,3.9,0,0,0,0,3.75c.65.63,3.87,1.34,4.51,3.22s.65,13,5.8,16.81c4.81,3.59,16.05,4.67,23.15.62,6.21-3.53,6-11,7.13-15.38a3,3,0,0,1,3.29-2.38A3,3,0,0,1,62.21,46c1.14,4.41.92,11.85,7.12,15.38,7.12,4,18.35,3,23.15-.62,5.14-3.83,5.16-14.93,5.8-16.81s3.87-2.59,4.51-3.22.68-3.13,0-3.75M36.46,48.46c0,4.49,2.45,8.11,5.48,8.11s5.49-3.64,5.49-8.11S45,40.34,41.94,40.34,36.46,44,36.46,48.46" style="fill:#414042"/></g></g></svg>