<svg xmlns="http://www.w3.org/2000/svg" viewBox="0 0 159.01 117.71"><title>icond3</title><g id="Layer_2" data-name="Layer 2"><g id="Capa_1" data-name="Capa 1"><path d="M154.78,54.63H117.55a58.85,58.85,0,1,0,0,8.46h37.23a4.23,4.23,0,0,0,0-8.46ZM89.41,46.27c0,.62,0,1.26,0,1.89,0,19.4-14.76,41.78-41.77,41.78a41.57,41.57,0,0,1-22.5-6.6,28.86,28.86,0,0,0,3.5.2,29.42,29.42,0,0,0,18.23-6.28A14.69,14.69,0,0,1,33.2,67.06a14.48,14.48,0,0,0,6.63-.25A14.69,14.69,0,0,1,28.05,52.42v-.19a14.66,14.66,0,0,0,6.65,1.84,14.69,14.69,0,0,1-4.54-19.6A41.72,41.72,0,0,0,60.42,49.81,14.83,14.83,0,0,1,60,46.46a14.69,14.69,0,0,1,25.4-10,29.32,29.32,0,0,0,9.32-3.57A14.73,14.73,0,0,1,88.3,41a29.57,29.57,0,0,0,8.44-2.32A30,30,0,0,1,89.41,46.27Z" style="fill:#414042"/></g></g></svg>