<svg xmlns="http://www.w3.org/2000/svg" viewBox="0 0 159.01 117.71"><title>icond1</title><g id="Layer_2" data-name="Layer 2"><g id="Capa_1" data-name="Capa 1"><path d="M32.48,86H83.22V41.8H32.48Zm11-30.31a1.69,1.69,0,0,1,3.38,0v6.54H68.82V55.64a1.69,1.69,0,0,1,3.38,0v8.23a1.69,1.69,0,0,1-1.69,1.7H45.18a1.7,1.7,0,0,1-1.69-1.7Z" style="fill:#414042"/><path d="M154.78,54.63H117.55a58.85,58.85,0,1,0,0,8.46h37.23a4.23,4.23,0,0,0,0-8.46ZM45.18,23.51H70.51a1.7,1.7,0,0,1,0,3.39H45.18a1.7,1.7,0,0,1,0-3.39ZM35,29.78H80.66a3.38,3.38,0,1,1,0,6.76H35a3.38,3.38,0,1,1,0-6.76ZM86.6,87.64a1.69,1.69,0,0,1-1.69,1.69H30.79a1.69,1.69,0,0,1-1.69-1.69V40.11a1.69,1.69,0,0,1,1.69-1.69H84.91a1.69,1.69,0,0,1,1.69,1.69Z" style="fill:#414042"/></g></g></svg>