<svg xmlns="http://www.w3.org/2000/svg" viewBox="0 0 159.01 117.71"><title>icond2</title><g id="Layer_2" data-name="Layer 2"><g id="Capa_1" data-name="Capa 1"><path d="M40.45,56A16.33,16.33,0,1,0,56.83,39.65h-.22A16.37,16.37,0,0,0,40.45,56Zm16.37-13.6a2.58,2.58,0,1,1,0,5.15A8.45,8.45,0,1,0,65.27,56a2.58,2.58,0,1,1,5.15,0,13.6,13.6,0,1,1-13.6-13.6Z" style="fill:#414042"/><path d="M154.78,54.63H117.55a58.85,58.85,0,1,0,0,8.46h37.23a4.23,4.23,0,0,0,0-8.46Zm-52.12,2.56a2.58,2.58,0,0,1-1.81.75h0A2.58,2.58,0,0,1,99,57.17,59.1,59.1,0,0,0,72.91,41.82a21.48,21.48,0,1,1-32.4.15A59,59,0,0,0,14.9,57.17l-.36.37a2.65,2.65,0,0,1-3.65,0,2.57,2.57,0,0,1,0-3.64l.36-.37a64,64,0,0,1,45.36-19h.31a64,64,0,0,1,45.76,19A2.59,2.59,0,0,1,102.66,57.19Z" style="fill:#414042"/></g></g></svg>