<svg xmlns="http://www.w3.org/2000/svg" viewBox="0 0 159.01 117.71"><title>icond6</title><g id="Layer_2" data-name="Layer 2"><g id="Capa_1" data-name="Capa 1"><path d="M154.78,54.63H117.55a58.85,58.85,0,1,0,0,8.46h37.23a4.23,4.23,0,0,0,0-8.46ZM80.88,72.16a6,6,0,0,0,2.27,5.35A32.5,32.5,0,0,1,86,80.38l-.31.45H63.41c1.62-1.66,2.8-3,4.12-4.17a4,4,0,0,0,1.41-3.31c-.06-7.71,0-15.41-.31-23.22-.32.73-.66,1.45-.95,2.19Q62.37,65.81,57,79.28a7.31,7.31,0,0,1-1.35,1.64c-.55-.54-1.32-1-1.63-1.62-4.13-8.89-8.2-17.81-12.29-26.72a6.73,6.73,0,0,0-1.59-2.37v3c0,5.3.06,10.61,0,15.91a6.5,6.5,0,0,0,1.74,4.8c1.43,1.57,2.73,3.24,4.06,4.9a22.16,22.16,0,0,1,1.22,2H30.3a8.12,8.12,0,0,1,.41-1.29,3.42,3.42,0,0,1,.78-1c4.69-4.1,6.07-9.22,5.51-15.34a120.44,120.44,0,0,1,0-14.84,7.73,7.73,0,0,0-2.22-6.11,60.46,60.46,0,0,1-3.9-4.8c.14-.19.28-.39.43-.58,4.94,0,9.89-.05,14.83.07.58,0,1.37.81,1.66,1.43C51.32,46,54.82,53.73,58.34,61.43c.32.7.66,1.4,1.2,2.55.41-.9.68-1.47.92-2.06,3.1-7.72,6.25-15.43,9.26-23.18a2.57,2.57,0,0,1,2.93-1.94c4.36.12,8.73,0,13.1,0,.14.18.27.36.4.55A24.37,24.37,0,0,1,83.51,40c-2.07,1.55-2.68,3.47-2.64,6C81,54.76,81,63.46,80.88,72.16Z" style="fill:#414042"/></g></g></svg>