<svg xmlns="http://www.w3.org/2000/svg" viewBox="0 0 399.62 246.44"><title>logo</title><g id="Layer_2" data-name="Layer 2"><g id="Capa_1" data-name="Capa 1"><circle cx="391.46" cy="100.48" r="8.16" style="fill:#2b3182"/><path d="M371.48,123.43a7.4,7.4,0,1,1,7.4-7.4A7.41,7.41,0,0,1,371.48,123.43Zm0-12.69a5.3,5.3,0,1,0,5.29,5.29A5.3,5.3,0,0,0,371.48,110.74Z" style="fill:#fff"/><path d="M17.23,141.35l-3.61-1,1-3.62a3.13,3.13,0,1,0-6-1.65l-1,3.61-3.62-1a3.13,3.13,0,1,0-1.65,6l3.61,1-1,3.62A3.13,3.13,0,0,0,11,150l1-3.62,3.62,1a3.13,3.13,0,1,0,1.65-6Z" style="fill:#a1c517"/><path d="M20.89,79.55a2,2,0,0,1-1.44-3.49L48.77,46.75a2,2,0,1,1,2.88,2.89L22.34,79A2,2,0,0,1,20.89,79.55Z" style="fill:#fff"/><path d="M62.16,191.74a4.22,4.22,0,0,1,3.44-3.13l12.91-3a2.55,2.55,0,0,1,1.07,0c1.18.35,1.81,1.74,1.29,3.52a3.2,3.2,0,0,1-2.48,2.53l-9.58,1.89,0,.1,7.06,6.76a3.23,3.23,0,0,1,.72,3.46c-.52,1.78-1.8,2.62-3,2.27a2.6,2.6,0,0,1-.93-.54l-9.28-9.45A4.22,4.22,0,0,1,62.16,191.74Z" style="fill:#a1c517"/><path d="M88.29,207.38a3.23,3.23,0,0,1,2.48-2.53l9.58-1.89,0-.1-7-6.75a3.23,3.23,0,0,1-.73-3.47c.52-1.78,1.81-2.61,3-2.27a2.49,2.49,0,0,1,.93.55l9.28,9.44a4.47,4.47,0,0,1-2.23,7.63l-12.91,2.95a2.4,2.4,0,0,1-1.07,0C88.4,210.56,87.77,209.16,88.29,207.38Z" style="fill:#a1c517"/><path d="M283.92,25.36l-7.42,3.12a5.86,5.86,0,0,1-7.68-3.12l-3.12-7.42a5.87,5.87,0,0,1,3.12-7.68l7.42-3.12a5.87,5.87,0,0,1,7.68,3.12L287,17.68A5.86,5.86,0,0,1,283.92,25.36Zm-13.78-12a2.47,2.47,0,0,0-1.31,3.23L272,24a2.47,2.47,0,0,0,3.23,1.31l7.42-3.12A2.47,2.47,0,0,0,283.91,19l-3.12-7.42a2.47,2.47,0,0,0-3.23-1.31Z" style="fill:#fff"/><path d="M268.28,246.2a3.73,3.73,0,0,1-2.71,0l-52.21-21.06a3.71,3.71,0,0,1,.07-6.91l77.07-29.44a3.71,3.71,0,0,1,4.65,5.11l-24.87,50.5A3.69,3.69,0,0,1,268.28,246.2ZM224.9,221.76,265.15,238l19.17-38.94Z" style="fill:#2b3182"/><path d="M78.3,0H294.78a0,0,0,0,1,0,0V147.21a27,27,0,0,1-27,27H105.31a27,27,0,0,1-27-27V0A0,0,0,0,1,78.3,0Z" style="fill:#a1c517"/><path d="M182.66,66.53a1.14,1.14,0,0,1,1.23-1.23h4.87c3.3,0,4.92,1.67,4.92,4.17a3.56,3.56,0,0,1-1.83,3.37v0A3.74,3.74,0,0,1,194,76.53c0,3-2,4.55-5.29,4.55h-4.78a1.12,1.12,0,0,1-1.23-1.2Zm6,5.34a2.09,2.09,0,1,0,0-4.16h-3.16a.13.13,0,0,0-.14.14v3.88a.13.13,0,0,0,.14.14Zm-3.16,6.8h3.3a2.2,2.2,0,1,0,0-4.39h-3.3a.13.13,0,0,0-.14.14v4.11A.13.13,0,0,0,185.53,78.67Z" style="fill:#fff"/><path d="M203.34,80h0a3.45,3.45,0,0,1-2.93,1.3c-2.39,0-3.83-1.77-3.83-4.16v-6a1.3,1.3,0,1,1,2.6,0v5.43c0,1.44.65,2.44,2.07,2.44s2.11-1,2.11-2.44V71.15a1.3,1.3,0,1,1,2.6,0v8.68a1.3,1.3,0,0,1-2.6.21Z" style="fill:#fff"/><path d="M209.12,78.23a8.76,8.76,0,0,1-.39-2.74,9,9,0,0,1,.37-2.77,4.49,4.49,0,0,1,4.57-3.08,4.54,4.54,0,0,1,4.6,3.08,9.12,9.12,0,0,1,.37,2.7.84.84,0,0,1-.91.9h-6.24a.13.13,0,0,0-.14.14A2.6,2.6,0,0,0,214,79a3.75,3.75,0,0,0,2.3-.77,1.66,1.66,0,0,1,.95-.37A1,1,0,0,1,218.38,79a1.22,1.22,0,0,1-.53,1,6,6,0,0,1-4,1.35A4.54,4.54,0,0,1,209.12,78.23Zm6.76-5a2.39,2.39,0,0,0-4.39,0,2.93,2.93,0,0,0-.14,1,.12.12,0,0,0,.14.14h4.39a.12.12,0,0,0,.14-.14A2.93,2.93,0,0,0,215.88,73.28Z" style="fill:#fff"/><path d="M224.05,70.94a3.47,3.47,0,0,1,2.95-1.3c2.39,0,3.87,1.76,3.87,4.15v6a1.3,1.3,0,1,1-2.6,0V74.4c0-1.44-.69-2.44-2.11-2.44S224,73,224,74.4v5.43a1.3,1.3,0,1,1-2.6,0V71.15a1.3,1.3,0,0,1,2.6-.21Z" style="fill:#fff"/><path d="M233.92,78.25a10.25,10.25,0,0,1,0-5.53,5,5,0,0,1,9.21,0,10.52,10.52,0,0,1,0,5.53,5,5,0,0,1-9.21,0Zm6.7-.7a6.14,6.14,0,0,0,.24-2.06,6.28,6.28,0,0,0-.24-2.07A2.05,2.05,0,0,0,238.54,72a2.1,2.1,0,0,0-2.12,1.46,6.6,6.6,0,0,0-.23,2.07,6.45,6.45,0,0,0,.23,2.06A2.11,2.11,0,0,0,238.54,79,2.06,2.06,0,0,0,240.62,77.55Z" style="fill:#fff"/><path d="M246.31,80.2a1.15,1.15,0,0,1-.62-1A1.17,1.17,0,0,1,246.87,78a1.57,1.57,0,0,1,.81.26,5.14,5.14,0,0,0,2.86.9c1.28,0,2.06-.49,2.06-1.32s-.39-1.09-1.85-1.23l-1.21-.12c-2.3-.25-3.44-1.39-3.44-3.29,0-2.14,1.54-3.53,4.35-3.53a7.37,7.37,0,0,1,3.38.83,1.21,1.21,0,0,1,.79,1.07,1.07,1.07,0,0,1-1.09,1.14,1.6,1.6,0,0,1-.81-.26,5.68,5.68,0,0,0-2.41-.6c-1.16,0-1.7.51-1.7,1.16s.42,1,1.84,1.18l1.2.12c2.37.23,3.46,1.44,3.46,3.3,0,2.23-1.67,3.76-4.71,3.76A7.41,7.41,0,0,1,246.31,80.2Z" style="fill:#fff"/><path d="M203.62,99.26l4.6-12.67c.34-1,.85-1.56,1.81-1.56s1.48.58,1.83,1.56l4.55,12.67a1.6,1.6,0,0,1,.09.51,1.27,1.27,0,0,1-1.32,1.28,1.34,1.34,0,0,1-1.3-1L213,97.64h-6l-.84,2.46a1.34,1.34,0,0,1-1.3,1,1.27,1.27,0,0,1-1.32-1.28A1.6,1.6,0,0,1,203.62,99.26Zm8.57-4.06-2.14-6.15H210l-2.14,6.15Z" style="fill:#fff"/><path d="M220.17,84.94a1.56,1.56,0,1,1-1.55,1.55A1.55,1.55,0,0,1,220.17,84.94Zm-1.3,14.74V91a1.3,1.3,0,1,1,2.6,0v8.68a1.3,1.3,0,1,1-2.6,0Z" style="fill:#fff"/><path d="M227.46,91h0a3.4,3.4,0,0,1,4.25-1.25,1.15,1.15,0,0,1,.7,1.07,1.24,1.24,0,0,1-1.28,1.32,2,2,0,0,1-.6-.12,4.13,4.13,0,0,0-1.05-.18c-1.43,0-2,1.14-2,2.83v5a1.25,1.25,0,0,1-1.3,1.37,1.26,1.26,0,0,1-1.3-1.37V91a1.3,1.3,0,1,1,2.6,0Z" style="fill:#fff"/><path d="M234,98.08a8.45,8.45,0,0,1-.4-2.74,9,9,0,0,1,.37-2.77,5,5,0,0,1,9.17,0,9.12,9.12,0,0,1,.37,2.7.83.83,0,0,1-.9.9h-6.25a.13.13,0,0,0-.14.14,2.27,2.27,0,0,0,.17.86,2.46,2.46,0,0,0,2.53,1.7,3.75,3.75,0,0,0,2.3-.77,1.66,1.66,0,0,1,.95-.37,1,1,0,0,1,1.09,1.09,1.23,1.23,0,0,1-.54,1,6,6,0,0,1-4,1.35A4.52,4.52,0,0,1,234,98.08Zm6.75-5a2.39,2.39,0,0,0-4.39,0,2.93,2.93,0,0,0-.14,1,.12.12,0,0,0,.14.14h4.39a.12.12,0,0,0,.14-.14A2.93,2.93,0,0,0,240.74,93.13Z" style="fill:#fff"/><path d="M246.31,100.05a1.15,1.15,0,0,1-.62-1,1.17,1.17,0,0,1,1.18-1.19,1.57,1.57,0,0,1,.81.26,5.14,5.14,0,0,0,2.86.9c1.28,0,2.06-.49,2.06-1.32s-.39-1.09-1.85-1.23l-1.21-.12c-2.3-.25-3.44-1.39-3.44-3.29,0-2.14,1.54-3.53,4.35-3.53a7.44,7.44,0,0,1,3.39.83,1.22,1.22,0,0,1,.78,1.07,1.07,1.07,0,0,1-1.09,1.14,1.6,1.6,0,0,1-.81-.26,5.68,5.68,0,0,0-2.41-.6c-1.16,0-1.7.51-1.7,1.16s.42,1,1.84,1.18l1.2.12c2.37.23,3.46,1.44,3.46,3.3,0,2.23-1.67,3.76-4.71,3.76A7.41,7.41,0,0,1,246.31,100.05Z" style="fill:#fff"/><path d="M216.83,108.48a1.37,1.37,0,1,1,2.74,0v11.86a.12.12,0,0,0,.14.14h6.22a1.24,1.24,0,1,1,0,2.46H218.2a1.28,1.28,0,0,1-1.37-1.37Z" style="fill:#fff"/><path d="M228.51,121.27l4.59-12.68c.35-1,.86-1.55,1.81-1.55s1.49.58,1.84,1.55l4.55,12.68a1.86,1.86,0,0,1,.09.51,1.27,1.27,0,0,1-1.32,1.28,1.33,1.33,0,0,1-1.3-1l-.86-2.47h-6l-.83,2.47a1.34,1.34,0,0,1-1.3,1,1.27,1.27,0,0,1-1.33-1.28A1.54,1.54,0,0,1,228.51,121.27Zm8.56-4.06-2.13-6.15h-.07l-2.14,6.15Z" style="fill:#fff"/><path d="M243.81,108.39a1.15,1.15,0,0,1,1.23-1.24h4.87c3.3,0,4.92,1.68,4.92,4.18A3.56,3.56,0,0,1,253,114.7v0a3.74,3.74,0,0,1,2.11,3.64c0,3-2,4.55-5.29,4.55H245a1.12,1.12,0,0,1-1.23-1.21Zm6,5.33a2.08,2.08,0,1,0,0-4.15h-3.16c-.09,0-.13.05-.13.14v3.88c0,.09,0,.13.13.13Zm-3.16,6.81H250a2.2,2.2,0,1,0,0-4.39h-3.3c-.09,0-.13,0-.13.14v4.11C246.55,120.48,246.59,120.53,246.68,120.53Z" style="fill:#fff"/><path d="M157.41,142.55v-4.69h28.8c2,0,2.41-.38,2.41-2.41V108c0-1.93-.44-2.37-2.37-2.38-8,0-16-.11-24,.06-3.6.08-7.28-2.17-7.23-7.21.08-8,0-16,0-23.93,0-2.1-.41-2.51-2.51-2.51h-27.4c-1.78,0-2.36.56-2.36,2.35v29c-1.49,0-2.85,0-4.22,0-.18,0-.39-.16-.52-.49a2,2,0,0,1,0-.65q0-14,0-28.05c0-2.63,1-4.81,3.37-6a7.56,7.56,0,0,1,3.23-.81c9.57-.06,19.14,0,28.71,0a6.35,6.35,0,0,1,6.51,6.54q0,12.19,0,24.39a8.11,8.11,0,0,0,.08,1.4,1.43,1.43,0,0,0,1.34,1.24,8.8,8.8,0,0,0,1,0h24.3c4.14,0,6.84,2.65,6.84,6.77q0,14.16,0,28.34a6.21,6.21,0,0,1-6.52,6.62Z" style="fill:#fff"/><path d="M148.21,137.86v4.69l-23.2,0c-4.35,0-7-2.6-7-6.94,0-7.41,0-14.82,0-22.23,0-1,.25-1.18,1.22-1.17h3.58v23.22c0,1.87.52,2.4,2.38,2.41h23.07" style="fill:#fff"/></g></g></svg>