<svg xmlns="http://www.w3.org/2000/svg" viewBox="0 0 183.19 225.88"><title>Asset 7</title><g style="isolation:isolate"><g id="Layer_2" data-name="Layer 2"><g id="Capa_1" data-name="Capa 1"><g style="mix-blend-mode:multiply"><path d="M155.36,151.89a78,78,0,0,0-33-67.43l26.12-49.85,15.26,48.82a10,10,0,1,0,19-5.94L161.85,10.63a15.16,15.16,0,0,0-19-9.94l-31.75,9.92a3.56,3.56,0,0,0,2.13,6.8L145,7.49a8,8,0,0,1,10.06,5.27l20.88,66.85a2.85,2.85,0,1,1-5.44,1.7l-17.81-57a3.56,3.56,0,0,0-6.55-.59L114.54,84a3.56,3.56,0,0,0,1.24,4.65,70.87,70.87,0,0,1,32.47,62.91,3.55,3.55,0,0,0,1.91,3.32,3.33,3.33,0,0,0,1.48.4A3.55,3.55,0,0,0,155.36,151.89Z" style="fill:#2f9195"/><path d="M152.59,169.08a3.56,3.56,0,0,0-6.86-1.92C133.6,210.47,84.56,231.43,45,210.68A70.62,70.62,0,0,1,105,83a3.57,3.57,0,0,0,4.53-1.63l31.59-60.3A3.56,3.56,0,0,0,136.88,16C77.55,34.22,79.65,34.65,77.67,33.62a2.86,2.86,0,0,1,.48-5.25l19.24-6a3.56,3.56,0,1,0-2.12-6.79L76,21.58a10,10,0,0,0,5.94,19L130.8,25.36,104.68,75.21A77.74,77.74,0,0,0,41.65,217C85.34,239.88,139.26,216.67,152.59,169.08Z" style="fill:#2f9195"/><path d="M107.85,90.62a64.93,64.93,0,0,0-93.53,43.56,3.56,3.56,0,0,0,7,1.53A57.91,57.91,0,1,1,20,151.33a3.56,3.56,0,1,0-7.1.41,65.47,65.47,0,0,0,10,31.09c26.37,41.83,89.06,39.88,112.35-4.58A65,65,0,0,0,107.85,90.62Z" style="fill:#2f9195"/></g></g></g></g></svg>