<svg xmlns="http://www.w3.org/2000/svg" viewBox="0 0 686.25 370.12"><title>muybueno</title><g id="Layer_2" data-name="Layer 2"><g id="Capa_1" data-name="Capa 1"><text transform="translate(121.96 335.08)" style="font-size:62px;fill:#414042;font-family:DINNextRoundedLTPro-Medium, DIN Next Rounded LT Pro;letter-spacing:0.010001890120967742em">Muy bueno<tspan x="297.47" y="0" style="letter-spacing:-0.012994581653225807em">.</tspan></text><path d="M398.46,73.44c13.23,30.72,18.42,62.28,9.34,95.14C391,229.28,338.54,269.17,276.22,268.73c-60.89-.42-113.22-41.89-128.79-102.35-8.28-32.16-2.94-63,10-92.95,18.64.15,26,8.51,23.51,26.26-.86,6-2.58,11.85-2.28,18,.15,3,.2,6.27,3.47,7.81s5.89-.21,8.22-2.21a143.43,143.43,0,0,0,14.53-14.32c6.93-7.91,14.26-10.17,24-4.78,6.23,3.45,13.14,5.74,19.66,8.76,3.11,1.45,6.57,2.68,9.52-.2,3.29-3.23,2.13-7,.37-10.49-3.44-6.73-7.39-13.18-11-19.84-4-7.54-2.94-13.49,3.25-19.2a166.74,166.74,0,0,0,13.5-13.74c2.28-2.63,4.23-5.6,2.4-9.24s-5.44-3.57-8.9-3.35c-5.68.37-11.21,1.65-16.78,2.69-16.09,3-26.37-6.23-26.33-23.61q63.38-31.84,126.75,0c0,17.38-10.24,26.61-26.32,23.61-5.94-1.11-11.85-2.49-17.92-2.75-3.12-.14-6.17.2-7.78,3.4s-.26,5.93,1.7,8.36A145.53,145.53,0,0,0,305.2,63.18c6.16,5.73,7.29,11.66,3.24,19.2-3.57,6.66-7.52,13.11-10.95,19.84-1.77,3.46-2.93,7.26.36,10.49,2.95,2.88,6.41,1.65,9.53.2,6.51-3,13.42-5.31,19.65-8.76,9.72-5.39,17.05-3.13,24,4.78a144.47,144.47,0,0,0,14.53,14.32c2.34,2,5,3.74,8.23,2.21s3.33-4.79,3.46-7.81c.28-6.49-1.55-12.74-2.44-19.09C372.47,82.08,380.41,73.55,398.46,73.44Z" style="fill:#fecc4c"/><path d="M398.46,73.44c-23.25,10.48-23.24,10.48-18.74,36.06a15,15,0,0,1,.38,3.38c-.33,5.72,3.14,12.87-4,16.35-7.43,3.63-11.75-2.44-16.29-7-21.11-21.07-21.12-21.06-47.61-8.23-2,1-4.09,2-6.14,2.94-4.1,2-8.1,2.36-11.27-1.57-2.77-3.44-3.89-7.2-1.46-11.51C298,95.66,302.22,87.2,307,79.07c2.77-4.69,2.43-8-1.71-11.78C299.41,62,294.09,56,288.42,50.48c-3.64-3.57-5.1-7.83-2.79-12.32s6.37-6,11.52-4.65c2.9.76,6,.7,9,1.19C331,38.78,331,38.79,341.3,15.93c1-1.58,2.14-3.11,3.07-4.74,2.7-4.69,5.49-9.58,12-8.33s7.66,6.39,8.25,12c.48,4.49,1.24,9,2.11,13.41,2.15,11,8.35,18.28,19.5,20.77,5.15,1.15,10.36,2,15.57,2.92,5,.84,8.55,3.4,9,8.63.43,4.64-2.2,7.81-6.31,9.8C402.49,71.36,400.48,72.42,398.46,73.44Z" style="fill:#e95f23"/><path d="M539.49,100.06c-23.67,9.49-23.67,9.48-20.25,35.23a15,15,0,0,1,.23,3.39c-.58,5.71,2.59,13-4.68,16.17-7.57,3.31-11.64-2.94-16-7.65-20.2-22-20.21-21.95-47.21-10.25l-6.26,2.67c-4.19,1.8-8.2,2-11.2-2-2.63-3.56-3.58-7.36-1-11.57,5-8,9.58-16.3,14.72-24.21,3-4.57,2.78-7.94-1.21-11.85C441,84.4,436,78.24,430.52,72.44c-3.48-3.72-4.75-8-2.26-12.42s6.63-5.72,11.71-4.16c2.86.88,6,1,8.91,1.57,24.7,5.13,24.7,5.14,35.95-17.26,1.09-1.53,2.26-3,3.27-4.6C491,31,494,26.23,500.44,27.75s7.39,6.72,7.74,12.33c.28,4.51.85,9,1.53,13.49,1.69,11.05,7.56,18.62,18.6,21.58,5.1,1.37,10.27,2.49,15.43,3.59,5,1.05,8.4,3.75,8.66,9,.23,4.66-2.53,7.71-6.72,9.53C543.6,98.16,541.55,99.13,539.49,100.06Z" style="fill:#e95f23"/><path d="M638.61,79.06l0,0a14.62,14.62,0,0,1,.12,4c-.23,4.19-.24,8.76,0,14.39.52,15.33,8,26.3,21.67,31.75,5.16,2.05,10.43,3.85,15.37,5.52a6.33,6.33,0,0,1,1.38.62v.11a4.93,4.93,0,0,1-1.32.56c-1.59.48-3.15,1-4.65,1.48l-1.78.57c-13.74,3.72-21.33,5.79-26.21,12.37s-4.75,14.57-4.54,29.12v.46c0,.33,0,.78,0,1a37.29,37.29,0,0,0-.66,6.05c0,.72-.08,1.65-.16,2.4a34.15,34.15,0,0,1-3-3.86c-.48-.71-1-1.41-1.45-2.08-11.86-16.37-17.81-24.58-31-24.58h0c-6.37,0-13.26,2.07-24.72,5.51l-4.14,1.22-2.35.69c-.29.09-.54.15-.75.2a3.56,3.56,0,0,1-.2-.53,1.65,1.65,0,0,1,.16-.22c2.46-3.1,4.88-6.26,7.22-9.32,3.27-4.28,6.66-8.71,10.1-12.85,8-9.67,4.58-18.08.27-23.43-2.91-3.62-5.59-7.44-8.43-11.49-1.72-2.45-3.5-5-5.34-7.48a5.28,5.28,0,0,1-.9-1.65s.06-.1.11-.16l.13-.17a4.55,4.55,0,0,1,1,.34,41.22,41.22,0,0,0,6.61,2.11c1,.27,2,.52,2.89.8C594.19,105.93,600.27,108,606,108c11.63,0,16.79-7.58,25.87-21.36l.65-.7c.93-1,2-2.12,3-3.41a28.84,28.84,0,0,1,3.06-3.43m-.24-9.21c-4.31,0-7.15,3.53-9.92,7-1.18,1.46-2.51,2.79-3.78,4.19C616.15,93.93,612.9,98.86,606,98.86c-4.26,0-9.91-1.88-19-4.93-2.86-1-5.92-1.39-8.66-2.6a12.33,12.33,0,0,0-4.9-1.14,8.72,8.72,0,0,0-7.22,3.91c-3,4.06-2.23,8.5.8,12.6,4.72,6.39,9,13.1,14,19.27,3.49,4.35,3.3,7.72-.19,11.91-6,7.26-11.56,14.94-17.44,22.33-3.09,3.87-2.58,7.76-.39,11.6a7.28,7.28,0,0,0,6.73,4,14.92,14.92,0,0,0,4.15-.68l6.53-1.93c10.48-3.15,17.07-5.13,22.11-5.13,8.5,0,12.6,5.65,23.59,20.82,3.21,4.44,6.1,10,11.82,10a11,11,0,0,0,3.15-.5c7.59-2.31,5.3-9.91,6.54-15.51a14.78,14.78,0,0,0,.16-3.4c-.39-26-.39-26,24.23-32.62,2.16-.69,4.3-1.41,6.47-2.07,4.37-1.31,7.47-4,7.78-8.67.36-5.24-2.71-8.32-7.54-10-5-1.68-10-3.4-14.91-5.36-10.61-4.23-15.57-12.44-15.95-23.6-.15-4.52-.2-9.06,0-13.58.31-5.61-.14-10.93-6.24-13.15a9.73,9.73,0,0,0-3.26-.62Z" style="fill:#e95f23"/><path d="M600.05,168.23c-2.17.65-24,6.27-26.21,6.92-4.37,1.29-8.38,1-10.88-3.34-2.19-3.84-2.7-7.73.39-11.6,5.88-7.39,11.41-15.07,17.44-22.33,3.49-4.19,3.68-7.56.19-11.91-5-6.17-9.29-12.88-14-19.27-3-4.1-3.79-8.54-.8-12.6s7.25-4.91,12.12-2.77c2.74,1.21,5.8,1.65,8.66,2.6,23.94,8,23.93,8,37.72-12.94,1.27-1.4,7.45-7.85,8.63-9.31l8,2.63Z" style="fill:#e95f23"/><path d="M214.55,15.93c10.3,22.87,10.25,22.53,35.22,19,6.76-1,15.73-6.14,20.37,3.31,4.49,9.1-4.18,13.5-9.19,18.64-16.2,16.61-16.3,16.52-4.61,36.22.77,1.3,1.82,2.45,2.49,3.8,2.94,5.91,8.39,11.76,2.19,18.52s-11.91,1.15-17.37-1.45c-26.52-12.68-26.48-12.76-47.64,8.32-1.88,1.87-3.75,3.75-5.71,5.53-3.17,2.89-7,3-10.63,1.51s-4.58-4.94-4.23-8.51c.81-8.25.69-16.85,3.15-24.61,3.06-9.69-.42-14.09-8.88-17.08-4.25-1.51-8.23-3.77-12.32-5.69-2.67-1.41-5.42-2.68-8-4.26a8.65,8.65,0,0,1-4.18-9.7,8.21,8.21,0,0,1,6.64-6.91c5.53-1.17,11.13-2,16.67-3.2C180,47,187.48,38.9,189.27,27.14c.68-4.47,1.57-8.92,2.09-13.42.6-5.29,2.36-9.76,8.11-10.87,5.9-1.14,8.88,2.92,11.45,7.36C212.05,12.17,213.34,14,214.55,15.93Z" style="fill:#e95f23"/><path d="M66.44,46.42C78.2,68.57,78.13,68.23,102.82,63.06c6.68-1.4,15.29-7.15,20.55,2,5.06,8.8-3.3,13.75-8,19.2-15.08,17.64-15.2,17.55-2.24,36.45.85,1.25,2,2.33,2.72,3.62,3.32,5.71,9.14,11.19,3.4,18.34s-11.81,1.93-17.43-.31c-27.29-10.92-27.25-11-47,11.41-1.75,2-3.49,4-5.33,5.89-3,3.08-6.75,3.42-10.51,2.19s-4.89-4.62-4.77-8.21c.27-8.28-.42-16.86,1.53-24.76,2.43-9.88-1.33-14-10-16.47-4.33-1.22-8.45-3.22-12.66-4.87-2.75-1.23-5.57-2.33-8.24-3.73A8.65,8.65,0,0,1,.1,94.37,8.22,8.22,0,0,1,6.28,87c5.44-1.53,11-2.77,16.43-4.28C34,79.63,40.92,71.1,41.94,59.25c.39-4.51,1-9,1.21-13.53.26-5.32,1.73-9.89,7.39-11.38,5.81-1.52,9.05,2.34,11.9,6.61C63.7,42.82,65.1,44.6,66.44,46.42Z" style="fill:#e95f23"/><path d="M279,231.81c-31.2-1.51-56.32-13-73.78-38.94a57.21,57.21,0,0,1-8.17-18.6c-4.76-19.55,2.44-27.33,22-23.35a293.61,293.61,0,0,0,118.18-.06c19.33-3.93,27.17,4.39,21.29,23.81C348.9,206.48,325.35,223,294,229.92,288.87,231.05,283.53,231.26,279,231.81Z" style="fill:#664300"/><path d="M343.76,165c-22.2,38.4-109.63,38.32-131.62,0,22.4,5.06,44,6.65,65.8,6.62C299.53,171.61,321,170.17,343.76,165Z" style="fill:#fdfdfc"/></g></g></svg>