<svg xmlns="http://www.w3.org/2000/svg" viewBox="0 0 480 323.56"><title>Asset 9</title><g id="Layer_2" data-name="Layer 2"><g id="Capa_1" data-name="Capa 1"><rect width="480" height="323.56" style="fill:#09999a"/><path d="M100.18,107a104.24,104.24,0,0,1,50.87-57" style="fill:none;stroke:#fff;stroke-linecap:round;stroke-linejoin:round;stroke-width:2.88781785964966px;stroke-dasharray:0.7219544649124146,8.663454055786133"/><path d="M302,229.37A104.25,104.25,0,0,1,239,272.67" style="fill:none;stroke:#fff;stroke-linecap:round;stroke-linejoin:round;stroke-width:2.88781785964966px;stroke-dasharray:0.7219544649124146,8.663454055786133"/><path d="M204.93,129.63V100.41a2.52,2.52,0,0,1,2.66-2.72h10.92c6.76,0,11.48,4.36,11.48,10.82s-4.72,10.86-11.48,10.86h-7.23a.28.28,0,0,0-.31.31v9.95a3,3,0,1,1-6,0Zm19-21.12c0-3.18-2.2-5.38-5.79-5.38h-6.87a.27.27,0,0,0-.31.3v10.15a.28.28,0,0,0,.31.31h6.87C221.74,113.89,223.94,111.74,223.94,108.51Z" style="fill:#fff"/><path d="M241.22,110.71h.05a7.1,7.1,0,0,1,6.25-3.43,7.23,7.23,0,0,1,3.13.66,2.57,2.57,0,0,1,1.54,2.36,2.75,2.75,0,0,1-2.82,2.92A4.55,4.55,0,0,1,248,113a8.41,8.41,0,0,0-2.3-.41c-3.18,0-4.51,2.51-4.51,6.25v11a2.87,2.87,0,1,1-5.74,0V110.61a2.87,2.87,0,1,1,5.74,0Z" style="fill:#fff"/><path d="M255.57,126.29a18.33,18.33,0,0,1-.82-6.1,18.31,18.31,0,0,1,.82-6.09c1.38-4.31,5.18-6.82,10.2-6.82s8.76,2.51,10.15,6.82a18.31,18.31,0,0,1,.82,6.09,18.33,18.33,0,0,1-.82,6.1c-1.39,4.31-5.18,6.82-10.15,6.82S257,130.6,255.57,126.29Zm14.81-1.53a13.94,13.94,0,0,0,.52-4.57,14.13,14.13,0,0,0-.52-4.56,4.55,4.55,0,0,0-4.61-3.23,4.61,4.61,0,0,0-4.66,3.23,14.13,14.13,0,0,0-.52,4.56,13.94,13.94,0,0,0,.52,4.57,4.61,4.61,0,0,0,4.66,3.23A4.55,4.55,0,0,0,270.38,124.76Z" style="fill:#fff"/><path d="M287.61,129.32l-6.92-17.63a3.44,3.44,0,0,1-.26-1.39,2.8,2.8,0,0,1,5.49-.66l5.58,15h.1l5.39-15a2.76,2.76,0,0,1,5.43.66,3.44,3.44,0,0,1-.26,1.39l-6.92,17.63c-1.07,2.61-1.94,3.48-3.84,3.48S288.68,131.93,287.61,129.32Z" style="fill:#fff"/><path d="M310.52,97.23a3.44,3.44,0,1,1-3.43,3.44A3.43,3.43,0,0,1,310.52,97.23Zm-2.87,32.55V110.61a2.87,2.87,0,1,1,5.74,0v19.17a2.87,2.87,0,1,1-5.74,0Z" style="fill:#fff"/><path d="M326.67,110.15a7.7,7.7,0,0,1,6.5-2.87c5.28,0,8.56,3.89,8.56,9.17v13.33a2.87,2.87,0,1,1-5.74,0v-12c0-3.18-1.53-5.39-4.66-5.39s-4.72,2.21-4.72,5.39v12a2.87,2.87,0,1,1-5.74,0V110.61a2.88,2.88,0,0,1,5.74-.46Z" style="fill:#fff"/><path d="M348.4,126.29a19.43,19.43,0,0,1-.77-6.1,19.41,19.41,0,0,1,.77-6.09c1.43-4.41,5.18-6.82,10.15-6.82a10.39,10.39,0,0,1,7.79,3.12,3.12,3.12,0,0,1,1,2.26,2.44,2.44,0,0,1-2.51,2.51,3.36,3.36,0,0,1-2.36-1.23,4.81,4.81,0,0,0-3.89-1.54,4.52,4.52,0,0,0-4.61,3.23,14.51,14.51,0,0,0-.52,4.56,14.54,14.54,0,0,0,.52,4.57A4.52,4.52,0,0,0,358.6,128a4.81,4.81,0,0,0,3.89-1.54,3.36,3.36,0,0,1,2.36-1.23,2.44,2.44,0,0,1,2.51,2.51,3.08,3.08,0,0,1-1,2.25,10.35,10.35,0,0,1-7.79,3.13C353.58,133.11,349.83,130.7,348.4,126.29Z" style="fill:#fff"/><path d="M376.23,97.23a3.44,3.44,0,1,1-3.43,3.44A3.44,3.44,0,0,1,376.23,97.23Zm-2.87,32.55V110.61a2.87,2.87,0,1,1,5.74,0v19.17a2.87,2.87,0,1,1-5.74,0Z" style="fill:#fff"/><path d="M407.86,130.14A2.69,2.69,0,0,1,405,132.8a2.72,2.72,0,0,1-2.41-1.18l-.82-1.23h-.05c-1.44,1.7-3.95,2.72-7.28,2.72-5.84,0-9-2.77-9-7.48,0-5.33,3.74-7.9,9.84-7.9h5.07c.21,0,.31-.1.31-.3v-.62c0-2.87-1.64-4.56-5.53-4.56a10.88,10.88,0,0,0-4.51,1,4.2,4.2,0,0,1-1.49.3,2.23,2.23,0,0,1-2.36-2.35,2.48,2.48,0,0,1,1.44-2.26,15.3,15.3,0,0,1,7.53-1.69c7,0,10.35,3.48,10.35,9.58v7.79a4.35,4.35,0,0,0,.52,2.46l.77,1.34A3.55,3.55,0,0,1,407.86,130.14Zm-7.18-5.59v-2.2a.27.27,0,0,0-.31-.31h-4.1c-3.79,0-5.33,1.08-5.33,3.33,0,2,1.49,3.08,4.31,3.08C398.58,128.45,400.68,127.17,400.68,124.55Z" style="fill:#fff"/><path d="M201.08,139v-2.56H409.65V139Z" style="fill:#fff"/><path d="M202.77,190.37l10.15-28c.77-2.15,1.9-3.43,4-3.43s3.28,1.28,4.05,3.43l10.05,28a3.67,3.67,0,0,1,.2,1.12,2.79,2.79,0,0,1-2.92,2.82,3,3,0,0,1-2.87-2.1l-1.9-5.43H210.21l-1.85,5.43a3,3,0,0,1-2.87,2.1,2.79,2.79,0,0,1-2.92-2.82A3.67,3.67,0,0,1,202.77,190.37Zm18.92-9L217,167.82h-.15L212.1,181.4Z" style="fill:#fff"/><path d="M242.19,162v9.74h.05c1.08-1.59,3.18-2.92,6.66-2.92a8.57,8.57,0,0,1,8.46,6.25,26,26,0,0,1,0,13.33,8.57,8.57,0,0,1-8.46,6.25c-3.48,0-5.48-1.23-6.66-2.92h-.05a2.88,2.88,0,0,1-5.74-.41V162a2.87,2.87,0,1,1,5.74,0Zm.51,15.22a20.24,20.24,0,0,0,0,9,4.85,4.85,0,0,0,9.18,0,20.24,20.24,0,0,0,0-9,4.85,4.85,0,0,0-9.18,0Z" style="fill:#fff"/><path d="M267.26,158.74a3.44,3.44,0,1,1-3.44,3.44A3.44,3.44,0,0,1,267.26,158.74Zm-2.87,32.55V172.12a2.87,2.87,0,1,1,5.74,0v19.17a2.87,2.87,0,1,1-5.74,0Z" style="fill:#fff"/><path d="M277.15,187.75a19.2,19.2,0,0,1-.87-6,19.69,19.69,0,0,1,.82-6.1c1.38-4.31,5.17-6.82,10.1-6.82s8.76,2.61,10.14,6.82a19.52,19.52,0,0,1,.82,5.94,1.85,1.85,0,0,1-2,2H282.38a.27.27,0,0,0-.31.31,5.26,5.26,0,0,0,.36,1.89A5.43,5.43,0,0,0,288,189.5a8.26,8.26,0,0,0,5.07-1.7,3.73,3.73,0,0,1,2.1-.82,2.29,2.29,0,0,1,2.41,2.41,2.71,2.71,0,0,1-1.18,2.26,13.32,13.32,0,0,1-8.92,3C282.22,194.62,278.53,192.06,277.15,187.75Zm14.91-10.91a5.27,5.27,0,0,0-9.68,0,6.12,6.12,0,0,0-.31,2.1c0,.2.1.3.31.3h9.68c.21,0,.31-.1.31-.3A6.12,6.12,0,0,0,292.06,176.84Z" style="fill:#fff"/><path d="M310.06,172.22h.05a7.48,7.48,0,0,1,9.38-2.76,2.55,2.55,0,0,1,1.54,2.35,2.75,2.75,0,0,1-2.82,2.92,4.5,4.5,0,0,1-1.34-.25,8.41,8.41,0,0,0-2.3-.41c-3.18,0-4.51,2.51-4.51,6.25v11a2.87,2.87,0,1,1-5.74,0V172.12a2.87,2.87,0,1,1,5.74,0Z" style="fill:#fff"/><path d="M325.13,173.81a2.14,2.14,0,0,1-2.36-2.2,2.18,2.18,0,0,1,2.36-2.26h.71c.21,0,.36-.1.36-.3v-4.52a2.8,2.8,0,0,1,2.93-3,2.74,2.74,0,0,1,2.81,3v4.52a.27.27,0,0,0,.31.3h2.62a2.18,2.18,0,0,1,2.35,2.26,2.14,2.14,0,0,1-2.35,2.2h-2.62a.28.28,0,0,0-.31.31v12.3c0,2,.57,2.61,2.67,2.82a2.53,2.53,0,0,1,2.61,2.56c0,1.44-1,2.56-3.12,2.56h-.46c-5.39,0-7.44-2.4-7.44-7.79V174.12c0-.21-.15-.31-.36-.31Z" style="fill:#fff"/><path d="M363.62,191.65a2.69,2.69,0,0,1-2.87,2.66,2.72,2.72,0,0,1-2.41-1.18l-.82-1.23h0c-1.44,1.7-4,2.72-7.28,2.72-5.84,0-9-2.77-9-7.48,0-5.33,3.74-7.9,9.84-7.9h5.08a.27.27,0,0,0,.3-.3v-.62c0-2.87-1.64-4.56-5.53-4.56a11,11,0,0,0-4.51,1,4.16,4.16,0,0,1-1.49.3,2.23,2.23,0,0,1-2.36-2.35,2.49,2.49,0,0,1,1.44-2.26,15.3,15.3,0,0,1,7.53-1.69c7,0,10.36,3.48,10.36,9.58v7.79a4.36,4.36,0,0,0,.51,2.46l.77,1.34A3.44,3.44,0,0,1,363.62,191.65Zm-7.18-5.59v-2.2c0-.21-.1-.31-.3-.31H352c-3.8,0-5.33,1.08-5.33,3.33,0,2.05,1.48,3.08,4.3,3.08C354.34,190,356.44,188.68,356.44,186.06Z" style="fill:#fff"/><path d="M201.08,200.46V197.9H365.42v2.56Z" style="fill:#fff"/><path d="M115.22,118.05A104,104,0,0,1,283.59,77.83" style="fill:none;stroke:#fff;stroke-linecap:round;stroke-miterlimit:10;stroke-width:5.0536812543869px"/><path d="M293.3,219.65a104,104,0,0,1-128.4,26.52" style="fill:none;stroke:#fff;stroke-linecap:round;stroke-miterlimit:10;stroke-width:5.0536812543869px"/><path d="M115.39,190.31a5.43,5.43,0,0,0-5.43,5.43v23.79a5.43,5.43,0,1,0,10.86,0V195.74A5.43,5.43,0,0,0,115.39,190.31Z" style="fill:#fff"/><path d="M140.35,166.35H94.2a21.67,21.67,0,0,1,13.06-26.68,21.65,21.65,0,0,1,27.87,12.64,5.43,5.43,0,1,0,10.17-3.82,32.51,32.51,0,0,0-61.87,19.7,14.33,14.33,0,0,0-7.33,12.5v53.89a14.35,14.35,0,0,0,14.33,14.34h49.92a14.36,14.36,0,0,0,14.34-14.34V180.69A14.36,14.36,0,0,0,140.35,166.35Zm3.47,68.23a3.47,3.47,0,0,1-3.47,3.48H90.43A3.48,3.48,0,0,1,87,234.58V180.69a3.48,3.48,0,0,1,3.47-3.48h49.92a3.48,3.48,0,0,1,3.48,3.48v53.89Z" style="fill:#fff"/></g></g></svg>