<svg xmlns="http://www.w3.org/2000/svg" viewBox="0 0 867.78 908.43"><title>protagonistas</title><g id="Layer_2" data-name="Layer 2"><g id="Capa_1" data-name="Capa 1"><path d="M433.85,42.06a432.31,432.31,0,0,0-206.7,52.59L302.43,233a275.33,275.33,0,0,1,131-33.18" style="fill:#2b3182;stroke:#fff;stroke-miterlimit:10;stroke-width:2.72px;fill-rule:evenodd"/><path d="M508.44,48.53,481.22,204c129.36,22.62,227.7,135.47,227.7,271.33a274.77,274.77,0,0,1-18.11,98.38l146.51,56.54a433.47,433.47,0,0,0,22.55-81.12C901.06,313.81,743.72,89.73,508.44,48.53Z" style="fill:#9aca3c;stroke:#fff;stroke-miterlimit:10;stroke-width:2.7208400000000004px;fill-rule:evenodd"/><path d="M433.45,199.82V363.48h.11A111.08,111.08,0,0,1,453,365.21L481.22,204A276.37,276.37,0,0,0,433.45,199.82Z" style="fill:#9aca3c;stroke:#fff;stroke-miterlimit:10;stroke-width:2.7208400000000004px;fill-rule:evenodd"/><path d="M508.44,48.53a431.85,431.85,0,0,0-74.59-6.47V199.83A277,277,0,0,1,481.22,204Z" style="fill:#9aca3c;stroke:#fff;stroke-miterlimit:10;stroke-width:2.7208400000000004px;fill-rule:evenodd"/><path d="M433.45,199.82V363.48h.4V199.83Z" style="fill:#9aca3c;stroke:#fff;stroke-miterlimit:10;stroke-width:2.7208400000000004px;fill-rule:evenodd"/><path d="M299.18,234.74q-6.51,3.64-12.82,7.64A274.06,274.06,0,0,0,185.08,356.11L43.34,288.66A432.47,432.47,0,0,1,223.07,96.89l76.11,137.85" style="fill:#077572;stroke:#fff;stroke-miterlimit:10;stroke-width:2.72px;fill-rule:evenodd"/><path d="M68.2,705.43A432.39,432.39,0,0,0,278.11,877.94C501,963.94,751.33,853,837.32,630.21L690.81,573.67C651.2,677.2,550.92,750.73,433.45,750.73a275.42,275.42,0,0,1-232.9-128.34" style="fill:#9aca3c;stroke:#fff;stroke-miterlimit:10;stroke-width:2.7208400000000004px;fill-rule:evenodd"/><path d="M43.34,288.66A432.35,432.35,0,0,0,5.65,413.79l155.19,22a276.87,276.87,0,0,1,24.24-79.68Z" style="fill:#077572;stroke:#fff;stroke-miterlimit:10;stroke-width:2.72px;fill-rule:evenodd"/><path d="M160.84,435.79l-155.19-22A432.32,432.32,0,0,0,68.2,705.43L200.31,622A274.47,274.47,0,0,1,160.84,435.79Z" style="fill:#077572;stroke:#fff;stroke-miterlimit:10;stroke-width:2.72px;fill-rule:evenodd"/><path d="M379,377.8,299.18,234.74q-6.51,3.64-12.82,7.64c-128.64,81.23-167,251.37-85.81,380L340,534.29A111,111,0,0,1,379,377.8Z" style="fill:#077572;stroke:#fff;stroke-miterlimit:10;stroke-width:2.72px;fill-rule:evenodd"/><path d="M433.45,199.82a275.44,275.44,0,0,0-134.27,34.92L379,377.8a110.53,110.53,0,0,1,54.41-14.32Z" style="fill:#2b3182;stroke:#fff;stroke-miterlimit:10;stroke-width:2.72px;fill-rule:evenodd"/><path d="M433.45,199.82V363.48h.11A111,111,0,1,1,340,534.29l-139.49,88.1a275.42,275.42,0,0,0,232.9,128.34c152.13,0,275.47-123.31,275.47-275.44S585.58,199.82,433.45,199.82Z" style="fill:#9aca3c;stroke:#fff;stroke-miterlimit:10;stroke-width:2.7208400000000004px;fill-rule:evenodd"/><polygon points="223.07 96.89 227.15 94.65 302.43 233 299.18 234.74 223.07 96.89" style="fill:#2b3182;stroke:#fff;stroke-miterlimit:10;stroke-width:2.72px;fill-rule:evenodd"/><text transform="translate(633.6 503.2) rotate(100.09)" style="font-size:23.580610275268555px;fill:#fff;font-family:DINNextRoundedLTPro-Regular, DIN Next Rounded LT Pro">S</text><text transform="matrix(-0.24, 0.97, -0.97, -0.24, 631.19, 516.65)" style="font-size:23.580610275268555px;fill:#fff;font-family:DINNextRoundedLTPro-Regular, DIN Next Rounded LT Pro">e</text><text transform="translate(628.37 528.18) rotate(106.92)" style="font-size:23.580610275268555px;fill:#fff;font-family:DINNextRoundedLTPro-Regular, DIN Next Rounded LT Pro">c</text><text transform="translate(625.15 538.64) rotate(109.52)" style="font-size:23.580610275268555px;fill:#fff;font-family:DINNextRoundedLTPro-Regular, DIN Next Rounded LT Pro">t</text><text transform="matrix(-0.38, 0.93, -0.93, -0.38, 622.77, 545.55)" style="font-size:23.580610275268555px;fill:#fff;font-family:DINNextRoundedLTPro-Regular, DIN Next Rounded LT Pro">o</text><text transform="matrix(-0.43, 0.9, -0.9, -0.43, 618.21, 556.62)" style="font-size:23.580610275268555px;fill:#fff;font-family:DINNextRoundedLTPro-Regular, DIN Next Rounded LT Pro">r</text><text transform="translate(614.14 565.14) rotate(117.46)" style="font-size:23.580610275268555px;fill:#fff;font-family:DINNextRoundedLTPro-Regular, DIN Next Rounded LT Pro"> </text><text transform="translate(611.69 570.07) rotate(120.21)" style="font-size:23.580610275268555px;fill:#fff;font-family:DINNextRoundedLTPro-Regular, DIN Next Rounded LT Pro">P</text><text transform="matrix(-0.56, 0.83, -0.83, -0.56, 604.78, 581.92)" style="font-size:23.580610275268555px;fill:#fff;font-family:DINNextRoundedLTPro-Regular, DIN Next Rounded LT Pro">ú</text><text transform="translate(597.83 592.26) rotate(127.49)" style="font-size:23.580610275268555px;fill:#fff;font-family:DINNextRoundedLTPro-Regular, DIN Next Rounded LT Pro">b</text><text transform="matrix(-0.64, 0.76, -0.76, -0.64, 590.17, 602.13)" style="font-size:23.580610275268555px;fill:#fff;font-family:DINNextRoundedLTPro-Regular, DIN Next Rounded LT Pro">l</text><text transform="translate(586 607.07) rotate(131.88)" style="font-size:23.580610275268555px;fill:#fff;font-family:DINNextRoundedLTPro-Regular, DIN Next Rounded LT Pro">i</text><text transform="translate(582.25 611.34) rotate(134.21)" style="font-size:23.580610275268555px;fill:#fff;font-family:DINNextRoundedLTPro-Regular, DIN Next Rounded LT Pro">c</text><text transform="translate(574.64 619.18) rotate(137.4)" style="font-size:23.580610275268555px;fill:#fff;font-family:DINNextRoundedLTPro-Regular, DIN Next Rounded LT Pro">o</text><text transform="translate(232.22 494.22) rotate(-93.68)" style="font-size:23.580610275268555px;fill:#fff;font-family:DINNextRoundedLTPro-Regular, DIN Next Rounded LT Pro">S</text><text transform="matrix(0, -1, 1, 0, 231.36, 480.56)" style="font-size:23.580610275268555px;fill:#fff;font-family:DINNextRoundedLTPro-Regular, DIN Next Rounded LT Pro">o</text><text transform="matrix(0.06, -1, 1, 0.06, 231.36, 468.61)" style="font-size:23.580610275268555px;fill:#fff;font-family:DINNextRoundedLTPro-Regular, DIN Next Rounded LT Pro">c</text><text transform="translate(232.02 457.67) rotate(-84.42)" style="font-size:23.580610275268555px;fill:#fff;font-family:DINNextRoundedLTPro-Regular, DIN Next Rounded LT Pro">i</text><text transform="translate(232.51 452) rotate(-81.91)" style="font-size:23.580610275268555px;fill:#fff;font-family:DINNextRoundedLTPro-Regular, DIN Next Rounded LT Pro">e</text><text transform="matrix(0.2, -0.98, 0.98, 0.2, 234.15, 440.3)" style="font-size:23.580610275268555px;fill:#fff;font-family:DINNextRoundedLTPro-Regular, DIN Next Rounded LT Pro">d</text><text transform="translate(236.65 428.09) rotate(-74.95)" style="font-size:23.580610275268555px;fill:#fff;font-family:DINNextRoundedLTPro-Regular, DIN Next Rounded LT Pro">a</text><text transform="translate(239.76 416.47) rotate(-71.46)" style="font-size:23.580610275268555px;fill:#fff;font-family:DINNextRoundedLTPro-Regular, DIN Next Rounded LT Pro">d</text><text transform="translate(243.8 404.63) rotate(-68.89)" style="font-size:23.580610275268555px;fill:#fff;font-family:DINNextRoundedLTPro-Regular, DIN Next Rounded LT Pro"> </text><text transform="translate(245.7 399.46) rotate(-66.26)" style="font-size:23.580610275268555px;fill:#fff;font-family:DINNextRoundedLTPro-Regular, DIN Next Rounded LT Pro">C</text><text transform="translate(251.05 387.51) rotate(-63.63)" style="font-size:23.580610275268555px;fill:#fff;font-family:DINNextRoundedLTPro-Regular, DIN Next Rounded LT Pro">i</text><text transform="translate(253.58 382.38) rotate(-61.79)" style="font-size:23.580610275268555px;fill:#fff;font-family:DINNextRoundedLTPro-Regular, DIN Next Rounded LT Pro">v</text><text transform="translate(258.93 372.63) rotate(-58.93)" style="font-size:23.580610275268555px;fill:#fff;font-family:DINNextRoundedLTPro-Regular, DIN Next Rounded LT Pro">i</text><text transform="matrix(0.54, -0.84, 0.84, 0.54, 261.86, 367.75)" style="font-size:23.580610275268555px;fill:#fff;font-family:DINNextRoundedLTPro-Regular, DIN Next Rounded LT Pro">l</text><text transform="translate(352.71 289.16) rotate(-21.56)" style="font-size:23.580610275268555px;fill:#fff;font-family:DINNextRoundedLTPro-Regular, DIN Next Rounded LT Pro">S</text><text transform="translate(365.46 284.14) rotate(-17.96)" style="font-size:23.580610275268555px;fill:#fff;font-family:DINNextRoundedLTPro-Regular, DIN Next Rounded LT Pro">e</text><text transform="matrix(0.97, -0.25, 0.25, 0.97, 376.73, 280.5)" style="font-size:23.580610275268555px;fill:#fff;font-family:DINNextRoundedLTPro-Regular, DIN Next Rounded LT Pro">c</text><text transform="matrix(0.98, -0.21, 0.21, 0.98, 387.33, 277.74)" style="font-size:23.580610275268555px;fill:#fff;font-family:DINNextRoundedLTPro-Regular, DIN Next Rounded LT Pro">t</text><text transform="matrix(0.99, -0.16, 0.16, 0.99, 394.46, 276.15)" style="font-size:23.580610275268555px;fill:#fff;font-family:DINNextRoundedLTPro-Regular, DIN Next Rounded LT Pro">o</text><text transform="translate(406.26 274.21) rotate(-6.42)" style="font-size:23.580610275268555px;fill:#fff;font-family:DINNextRoundedLTPro-Regular, DIN Next Rounded LT Pro">r</text><text transform="matrix(1, -0.07, 0.07, 1, 415.67, 273.18)" style="font-size:23.580610275268555px;fill:#fff;font-family:DINNextRoundedLTPro-Regular, DIN Next Rounded LT Pro"> </text><text transform="translate(355.06 315.8) rotate(-23.81)" style="font-size:23.580610275268555px;fill:#fff;font-family:DINNextRoundedLTPro-Regular, DIN Next Rounded LT Pro">P</text><text transform="translate(367.62 310.32) rotate(-20.1)" style="font-size:23.580610275268555px;fill:#fff;font-family:DINNextRoundedLTPro-Regular, DIN Next Rounded LT Pro">r</text><text transform="translate(376.48 307.12) rotate(-17.66)" style="font-size:23.580610275268555px;fill:#fff;font-family:DINNextRoundedLTPro-Regular, DIN Next Rounded LT Pro">i</text><text transform="translate(381.85 305.34) rotate(-14.96)" style="font-size:23.580610275268555px;fill:#fff;font-family:DINNextRoundedLTPro-Regular, DIN Next Rounded LT Pro">v</text><text transform="translate(392.3 302.51) rotate(-11.3)" style="font-size:23.580610275268555px;fill:#fff;font-family:DINNextRoundedLTPro-Regular, DIN Next Rounded LT Pro">a</text><text transform="translate(404.06 300.15) rotate(-7.35)" style="font-size:23.580610275268555px;fill:#fff;font-family:DINNextRoundedLTPro-Regular, DIN Next Rounded LT Pro">d</text><text transform="translate(416.35 298.56) rotate(-3.41)" style="font-size:23.580610275268555px;fill:#fff;font-family:DINNextRoundedLTPro-Regular, DIN Next Rounded LT Pro">o</text><text transform="translate(352.71 289.16) rotate(-21.56)" style="font-size:23.580610275268555px;fill:#fff;font-family:DINNextRoundedLTPro-Regular, DIN Next Rounded LT Pro">S</text><text transform="translate(365.46 284.14) rotate(-17.96)" style="font-size:23.580610275268555px;fill:#fff;font-family:DINNextRoundedLTPro-Regular, DIN Next Rounded LT Pro">e</text><text transform="matrix(0.97, -0.25, 0.25, 0.97, 376.73, 280.5)" style="font-size:23.580610275268555px;fill:#fff;font-family:DINNextRoundedLTPro-Regular, DIN Next Rounded LT Pro">c</text><text transform="matrix(0.98, -0.21, 0.21, 0.98, 387.33, 277.74)" style="font-size:23.580610275268555px;fill:#fff;font-family:DINNextRoundedLTPro-Regular, DIN Next Rounded LT Pro">t</text><text transform="matrix(0.99, -0.16, 0.16, 0.99, 394.46, 276.15)" style="font-size:23.580610275268555px;fill:#fff;font-family:DINNextRoundedLTPro-Regular, DIN Next Rounded LT Pro">o</text><text transform="translate(406.26 274.21) rotate(-6.42)" style="font-size:23.580610275268555px;fill:#fff;font-family:DINNextRoundedLTPro-Regular, DIN Next Rounded LT Pro">r</text><text transform="matrix(1, -0.07, 0.07, 1, 415.67, 273.18)" style="font-size:23.580610275268555px;fill:#fff;font-family:DINNextRoundedLTPro-Regular, DIN Next Rounded LT Pro"> </text><path d="M140.35,639.26c-3.23,1.71-4.75,2.39-6.67,2.72-4.07.7-7.34-.89-9.37-4.73a8.33,8.33,0,0,1,.19-8.59,2.13,2.13,0,0,1,.79-.76,1.49,1.49,0,0,1,2.09.64,1.7,1.7,0,0,1-.13,1.78,5.33,5.33,0,0,0-.17,5.47,5.19,5.19,0,0,0,6,2.81c1.29-.21,2.71-.75,5.71-2.34s4.25-2.46,5.16-3.41a5.21,5.21,0,0,0,1-6.52,5.32,5.32,0,0,0-4.63-2.93,1.73,1.73,0,0,1-1.54-.89,1.49,1.49,0,0,1,.65-2.09,2.07,2.07,0,0,1,1.07-.23,8.35,8.35,0,0,1,7.22,4.68c2,3.83,1.5,7.44-1.37,10.41C145,636.67,143.59,637.55,140.35,639.26Z" style="fill:#fff"/><path d="M120.45,624.45a2.07,2.07,0,1,1-1.76-3.75,2.07,2.07,0,1,1,1.76,3.75Zm6.31-3.51a1.59,1.59,0,1,1-1.35-2.87L139,611.66a1.59,1.59,0,1,1,1.35,2.86Z" style="fill:#fff"/><path d="M131.05,593.21a1.59,1.59,0,1,1,1.22,2.92l-.49.21,0,0A5.58,5.58,0,0,1,136,600c1.51,3.62-.07,6.78-3.87,8.36l-9.4,3.93a1.59,1.59,0,1,1-1.22-2.93l8.7-3.63c2.68-1.12,3.76-3,2.71-5.46-.94-2.27-3.17-3.1-5.64-2.06l-8.88,3.7a1.59,1.59,0,1,1-1.22-2.92Z" style="fill:#fff"/><path d="M125.35,577.36l-.46.16v0c1.64.35,3.09,1.53,4,4.06a6.25,6.25,0,0,1-2.23,7.37,15.82,15.82,0,0,1-4.46,2.22,15.63,15.63,0,0,1-4.84,1,6.26,6.26,0,0,1-6.32-4.4c-.89-2.56-.45-4.4.6-5.64l0,0L104,584.79a1.59,1.59,0,1,1-1-3l21.38-7.43a1.59,1.59,0,1,1,1,3Zm-3.5,1.65a11.31,11.31,0,0,0-3.63.82,11.16,11.16,0,0,0-3.32,1.6,4.22,4.22,0,0,0,2.61,7.52,16.37,16.37,0,0,0,6.95-2.42,4.21,4.21,0,0,0-2.61-7.52Z" style="fill:#fff"/><path d="M118.72,554.44a1.53,1.53,0,0,1,1.9,1.16,1.64,1.64,0,0,1-.39,1.55l-.89,1v0a6.88,6.88,0,0,1,3.57,4.75c1.09,3.89-.2,6.68-3.5,7.61-3.6,1-6.07-.95-7.29-5.28L111,561.32a.2.2,0,0,0-.28-.16l-.84.23c-2.43.69-3.49,2.2-2.63,5.25a8.54,8.54,0,0,0,1.87,3.32,2.12,2.12,0,0,1,.5.8,1.26,1.26,0,0,1-.94,1.67,1.42,1.42,0,0,1-1.44-.38,10.05,10.05,0,0,1-2.8-4.93c-1.31-4.65.29-7.45,4.58-8.66l6.24-1.76a3.49,3.49,0,0,0,1.69-.82l1-.94A2,2,0,0,1,118.72,554.44Zm-3.19,5.37-1.92.54a.2.2,0,0,0-.16.28l1,3.49c.84,3,2.09,4.07,4,3.52s2.36-2.07,1.7-4.4C119.43,560.56,117.67,559.21,115.53,559.81Z" style="fill:#fff"/><path d="M115.16,539.39l-.48.11v0c1.58.55,2.88,1.89,3.45,4.5a6.27,6.27,0,0,1-3.11,7.05,15.64,15.64,0,0,1-4.69,1.67,15.22,15.22,0,0,1-4.93.42,6.25,6.25,0,0,1-5.74-5.12c-.58-2.66.08-4.42,1.27-5.53v0L93,544.2A1.57,1.57,0,0,1,91,543a1.56,1.56,0,0,1,1.33-1.91l22.12-4.8a1.58,1.58,0,1,1,.67,3.09Zm-3.67,1.22a11.59,11.59,0,0,0-3.7.38,11.13,11.13,0,0,0-3.49,1.19A4.21,4.21,0,0,0,106,550a11,11,0,0,0,3.66-.37,11.22,11.22,0,0,0,3.53-1.19,4.22,4.22,0,0,0-1.69-7.78Z" style="fill:#fff"/><path d="M111.35,515.88a1.51,1.51,0,0,1,1.74,1.37,1.65,1.65,0,0,1-.57,1.5l-1,.88v0a6.89,6.89,0,0,1,3,5.15c.62,4-1,6.61-4.4,7.13-3.69.57-5.91-1.68-6.59-6.12l-.63-4.06a.2.2,0,0,0-.26-.19l-.86.13c-2.49.39-3.73,1.76-3.25,4.9a8.67,8.67,0,0,0,1.46,3.51,2.21,2.21,0,0,1,.4.86,1.26,1.26,0,0,1-1.13,1.55,1.47,1.47,0,0,1-1.39-.55,10.15,10.15,0,0,1-2.18-5.24c-.74-4.77,1.19-7.36,5.59-8l6.41-1a3.61,3.61,0,0,0,1.78-.62l1.06-.81A1.81,1.81,0,0,1,111.35,515.88Zm-3.82,4.94-2,.31c-.15,0-.22.1-.19.25l.55,3.58c.47,3.06,1.58,4.3,3.6,4,1.86-.29,2.58-1.77,2.22-4.16C111.31,522,109.73,520.48,107.53,520.82Z" style="fill:#fff"/><path d="M95.64,512.79a1.59,1.59,0,1,1-.29-3.16l.52-.05v0A5.74,5.74,0,0,1,93,504.74c-.36-3.91,2.09-6.49,6.19-6.87l10.14-.94a1.59,1.59,0,1,1,.29,3.16l-9.39.87c-2.89.27-4.46,1.74-4.21,4.45.23,2.44,2.11,4,4.78,3.72l9.58-.89a1.59,1.59,0,1,1,.29,3.16Z" style="fill:#fff"/><path d="M106,491.8a13.49,13.49,0,0,1-4.58.75,13.29,13.29,0,0,1-4.59-.46c-3.12-.88-5-3.46-5.09-7s1.58-6.2,4.64-7.28a13.67,13.67,0,0,1,4.54-.75,13.32,13.32,0,0,1,4.62.46c3.09.88,5,3.46,5.09,7S109.05,490.72,106,491.8Zm-1.26-11.17a12,12,0,0,0-3.71-.3,11.47,11.47,0,0,0-3.65.54,4.34,4.34,0,0,0,.26,8.14,11.74,11.74,0,0,0,3.67.3,12,12,0,0,0,3.68-.53,4.35,4.35,0,0,0-.25-8.15Z" style="fill:#fff"/><path d="M108.44,472.49a1.59,1.59,0,0,1-1.34.72,1.44,1.44,0,0,1-1.39-1.51,2,2,0,0,1,.36-1.05,9.48,9.48,0,0,0,1.72-5c.07-2.6-1-4-2.61-4s-2.28.62-2.66,3.48l-.24,1.88c-.47,3.53-2.33,5.33-5.23,5.26-3.43-.09-5.44-2.6-5.33-6.83a11.06,11.06,0,0,1,1.46-5.35,1.45,1.45,0,0,1,1.35-.91,1.35,1.35,0,0,1,1.32,1.39,2.72,2.72,0,0,1-.33,1.13,9.44,9.44,0,0,0-1,4c-.06,2.26.93,3.46,2.4,3.5s2.21-.78,2.54-3.48l.24-1.89c.51-3.76,2.33-5.37,5.27-5.29,3.55.09,5.82,2.72,5.69,7.51A11.54,11.54,0,0,1,108.44,472.49Z" style="fill:#fff"/><path d="M110.27,412.19c-1.93.19-3.58-.06-7.15-.85s-5.17-1.26-6.85-2.25c-3.55-2.1-5-5.47-4.06-9.78s3.71-6.8,7.82-7.2c1.94-.19,3.58.06,7.16.85s5.17,1.26,6.84,2.25c3.56,2.1,5,5.47,4,9.82S114.38,411.79,110.27,412.19Zm2.06-14c-1.13-.67-2.56-1.18-5.88-1.92s-4.83-.87-6.13-.74A5.68,5.68,0,0,0,98,406.11c1.12.67,2.55,1.18,5.87,1.92s4.83.87,6.14.74a5.69,5.69,0,0,0,2.34-10.58Z" style="fill:#fff"/><path d="M98.17,384.1a1.8,1.8,0,0,1-1.42-2.36c.28-.94,1.08-1.37,2.31-1.67l20.45-5.3,0-.14-17.35-5.2a1.57,1.57,0,1,1,.9-3l21.36,6.39a1.79,1.79,0,0,1,1.42,2.35c-.28.94-1.09,1.41-2.32,1.71l-20.38,5.32,0,.11,17.28,5.17a1.57,1.57,0,1,1-.9,3Z" style="fill:#fff"/><path d="M115.84,364.07c-3.42-1.3-4.93-2-6.44-3.22-3.22-2.6-4.17-6.15-2.6-10.27,1.37-3.6,3.94-5.69,6.73-6a2.29,2.29,0,0,1,1,.11,1.49,1.49,0,0,1,.9,2,1.68,1.68,0,0,1-1.42,1.07,5.71,5.71,0,0,0-4.32,3.93,5.24,5.24,0,0,0,1.78,6.45c1,.83,2.36,1.55,5.54,2.75s4.65,1.57,6,1.63a5.25,5.25,0,0,0,5.62-3.64c1-2.61.47-4.95-1.57-6.57a13.18,13.18,0,0,0-3.39-1.82.2.2,0,0,0-.29.13l-1.4,3.67a1.57,1.57,0,1,1-2.93-1.11l2.12-5.57a1.45,1.45,0,0,1,2-.9l.67.25a21,21,0,0,1,5,2.69c3.28,2.62,4.22,6.29,2.68,10.34s-4.64,6.15-8.76,6C120.85,365.85,119.26,365.37,115.84,364.07Z" style="fill:#fff"/><path d="M149.73,314.82l-14.65-18c-.82-1-1.07-1.88-.48-2.85a2.33,2.33,0,0,1,2.78-1l22.72,4.61a2.9,2.9,0,0,1,.73.26,1.53,1.53,0,0,1,.51,2.16,1.65,1.65,0,0,1-1.88.77l-5.13-1.07-5.43,9,3.34,4a1.64,1.64,0,0,1,.2,2,1.53,1.53,0,0,1-2.15.56A2.54,2.54,0,0,1,149.73,314.82Zm1.39-15.77L139,296.53l-.06.09,7.85,9.58Z" style="fill:#fff"/><path d="M160.22,293.31a15.58,15.58,0,0,1-4.11-2.15,15.39,15.39,0,0,1-3.44-3.05c-2-2.62-1.93-5.78,0-8.64a7,7,0,0,1,5.45-3.25,1.89,1.89,0,0,1,1.22.29,1.36,1.36,0,0,1,.36,1.94,1.85,1.85,0,0,1-1.41.72,4.32,4.32,0,0,0-3.2,2,3.93,3.93,0,0,0,0,4.93,12.13,12.13,0,0,0,2.78,2.42,12.32,12.32,0,0,0,3.28,1.76,3.92,3.92,0,0,0,4.62-1.72,4.29,4.29,0,0,0,.71-3.68,1.87,1.87,0,0,1,.17-1.58,1.37,1.37,0,0,1,1.94-.36,2,2,0,0,1,.71,1,7,7,0,0,1-1.1,6.25C166.3,293.06,163.38,294.25,160.22,293.31Z" style="fill:#fff"/><path d="M182,269a1.51,1.51,0,0,1,.2,2.2,1.64,1.64,0,0,1-1.48.62l-1.33-.13,0,0a6.87,6.87,0,0,1-1.7,5.71c-2.47,3.19-5.48,3.81-8.2,1.71-2.95-2.29-2.84-5.45-.09-9l2.52-3.25a.2.2,0,0,0,0-.32l-.68-.53c-2-1.55-3.85-1.51-5.79,1a8.44,8.44,0,0,0-1.55,3.48,2.35,2.35,0,0,1-.35.88,1.28,1.28,0,0,1-1.91.24,1.47,1.47,0,0,1-.55-1.39,10.21,10.21,0,0,1,2.3-5.18c3-3.82,6.17-4.2,9.69-1.47l5.13,4a3.59,3.59,0,0,0,1.67.86l1.31.21A1.84,1.84,0,0,1,182,269Zm-6.21.62-1.58-1.22a.2.2,0,0,0-.32,0l-2.22,2.86c-1.9,2.44-2,4.1-.42,5.35s3.06.66,4.54-1.25C177.46,273.18,177.51,271,175.75,269.6Z" style="fill:#fff"/><path d="M191.93,257.18l-.37-.32,0,0c.51,1.59.2,3.43-1.57,5.44a6.25,6.25,0,0,1-7.51,1.69,15.43,15.43,0,0,1-4.13-2.77,15.61,15.61,0,0,1-3.27-3.72,6.25,6.25,0,0,1,.71-7.66c1.79-2,3.6-2.56,5.2-2.27l0,0-6.06-5.32a1.59,1.59,0,1,1,2.09-2.38l17,14.93a1.59,1.59,0,1,1-2.09,2.38ZM188.76,255a16.35,16.35,0,0,0-5.53-4.85,4.21,4.21,0,0,0-5.25,6,10.89,10.89,0,0,0,2.48,2.73,11.67,11.67,0,0,0,3,2.13,4.22,4.22,0,0,0,5.25-6Z" style="fill:#fff"/><path d="M195.6,248.73a13.49,13.49,0,0,1-3.66-2.79,13.9,13.9,0,0,1-2.85-3.61,6.94,6.94,0,0,1,1.51-8.44c2.5-2.52,5.54-3.12,8.43-1.64a13.59,13.59,0,0,1,3.53,2.65,1.17,1.17,0,0,1,0,1.74l-7.46,7.53a.2.2,0,0,0,0,.32,6.86,6.86,0,0,0,1.76,1.33,4.45,4.45,0,0,0,5.44-1,6.63,6.63,0,0,0,2-4.17,1.71,1.71,0,0,1,.45-1.1,1.3,1.3,0,0,1,1.87,0,1.57,1.57,0,0,1,.45,1.15,9.28,9.28,0,0,1-2.8,6.36C201.58,249.66,198.57,250.24,195.6,248.73Zm3.58-12.29a.21.21,0,0,0,0-.32,6.55,6.55,0,0,0-1.64-1.25,4.46,4.46,0,0,0-5.84,5.9,6.32,6.32,0,0,0,1.26,1.62.2.2,0,0,0,.32,0Z" style="fill:#fff"/><path d="M201.56,225.61a1.59,1.59,0,1,1,2.4-2.07l.35.4,0,0a6.39,6.39,0,0,1,8.07-6.47l0,0a6.68,6.68,0,0,1,2.58-6c3.09-2.66,6.56-2.27,9.32.93l6.65,7.71a1.59,1.59,0,1,1-2.4,2.07L222.44,215c-1.9-2.2-4-2.63-6.07-.85a4.06,4.06,0,0,0-.26,6.05l6.28,7.29a1.59,1.59,0,1,1-2.4,2.07l-6.15-7.15c-1.9-2.2-4-2.62-6.07-.85a4.07,4.07,0,0,0-.26,6.06l6.28,7.28a1.59,1.59,0,1,1-2.4,2.07Z" style="fill:#fff"/><path d="M221.81,199.36a2.08,2.08,0,0,1,3.31-2.51,2.08,2.08,0,1,1-3.31,2.51Zm4.74,5.45a1.59,1.59,0,1,1,2.53-1.92l9.1,12a1.59,1.59,0,1,1-2.53,1.92Z" style="fill:#fff"/><path d="M255.2,203a1.52,1.52,0,0,1-.47,2.17,1.66,1.66,0,0,1-1.6.14l-1.24-.52,0,0a6.85,6.85,0,0,1-3.34,4.92c-3.32,2.3-6.38,2-8.33-.84-2.13-3.07-1.07-6.05,2.63-8.61L246.2,198a.21.21,0,0,0,.06-.32l-.5-.71c-1.44-2.08-3.21-2.6-5.82-.79a8.64,8.64,0,0,0-2.53,2.84,2.14,2.14,0,0,1-.59.74,1.27,1.27,0,0,1-1.89-.35,1.44,1.44,0,0,1-.11-1.48,10,10,0,0,1,3.76-4.25c4-2.75,7.14-2.15,9.67,1.52l3.7,5.33a3.4,3.4,0,0,0,1.33,1.33l1.19.6A1.93,1.93,0,0,1,255.2,203Zm-6.11-1.27L248,200.12a.2.2,0,0,0-.31-.06l-3,2.07c-2.55,1.76-3.18,3.29-2,5s2.73,1.56,4.71.18C249.65,205.69,250.36,203.6,249.09,201.77Z" style="fill:#fff"/><path d="M279,167.27a1.19,1.19,0,0,1,.6-1.7l10.11-4.84a1.29,1.29,0,0,1,1.83.57,1.3,1.3,0,0,1-.69,1.82l-8.51,4.08a.17.17,0,0,0-.09.26l2.76,5.77a.17.17,0,0,0,.26.09l7.1-3.4a1.33,1.33,0,1,1,1.15,2.39l-7.1,3.41a.16.16,0,0,0-.09.25l2.86,6a.18.18,0,0,0,.26.09L298,178a1.33,1.33,0,1,1,1.15,2.39l-10.1,4.84a1.19,1.19,0,0,1-1.71-.6Z" style="fill:#fff"/><path d="M298.58,165.1a1.35,1.35,0,1,1,2.5-1l.16.42,0,0a5.43,5.43,0,0,1,8.27-2.94h0a5.64,5.64,0,0,1,3.72-4.06c3.21-1.28,5.89,0,7.21,3.33l3.2,8a1.35,1.35,0,1,1-2.5,1l-3-7.43c-.91-2.29-2.48-3.22-4.62-2.37a3.44,3.44,0,0,0-1.89,4.78l3,7.59a1.35,1.35,0,1,1-2.5,1l-3-7.43c-.91-2.29-2.48-3.22-4.62-2.37a3.44,3.44,0,0,0-1.89,4.78l3,7.58a1.35,1.35,0,1,1-2.5,1Z" style="fill:#fff"/><path d="M330,172.87l-5.68-17.63a1.35,1.35,0,1,1,2.56-.82l.13.39h0c.33-1.38,1.35-2.58,3.51-3.28a5.3,5.3,0,0,1,6.2,2,16.08,16.08,0,0,1,2.56,7.94,5.31,5.31,0,0,1-3.84,5.28c-2.2.7-3.74.29-4.77-.62h0l1.89,5.88a1.35,1.35,0,1,1-2.56.82Zm6.55-11.59a13.75,13.75,0,0,0-1.91-5.93,3.57,3.57,0,0,0-6.42,2.06,9.65,9.65,0,0,0,.62,3.1,9.34,9.34,0,0,0,1.29,2.84,3.57,3.57,0,0,0,6.42-2.07Z" style="fill:#fff"/><path d="M344.54,162.33,341.19,150a1.35,1.35,0,1,1,2.59-.71l.19.68h0a4.17,4.17,0,0,1,3.18-3.29,4.59,4.59,0,0,1,2.34-.07,1.31,1.31,0,0,1,.1,2.56,1.79,1.79,0,0,1-.7,0,4.71,4.71,0,0,0-1.79.1c-2.23.6-2.62,2.7-1.95,5.17l1.95,7.16a1.35,1.35,0,1,1-2.59.71Z" style="fill:#fff"/><path d="M355.42,156.79a15.16,15.16,0,0,1-1.74-7.54,5.87,5.87,0,0,1,4.92-5.35c2.93-.67,5.38.29,6.77,2.66a11.2,11.2,0,0,1,1.32,3.51,1,1,0,0,1-.8,1.23l-8.77,2c-.13,0-.17.1-.15.23a6,6,0,0,0,.66,1.75A3.76,3.76,0,0,0,362,157a5.6,5.6,0,0,0,3.29-2.09,1.48,1.48,0,0,1,.82-.58,1.09,1.09,0,0,1,1.34.84,1.32,1.32,0,0,1-.19,1,7.87,7.87,0,0,1-4.9,3.28C359.27,160.18,356.86,159.22,355.42,156.79Zm8.15-7.16a.18.18,0,0,0,.15-.23,5.54,5.54,0,0,0-.6-1.64,3.78,3.78,0,0,0-6.87,1.56,5.51,5.51,0,0,0,.16,1.73.18.18,0,0,0,.23.15Z" style="fill:#fff"/><path d="M371.81,155.71a1.36,1.36,0,0,1-.82-1,1.23,1.23,0,0,1,1-1.42,1.77,1.77,0,0,1,.93.13,8.11,8.11,0,0,0,4.46.58c2.17-.38,3.14-1.53,2.91-2.85s-.9-1.79-3.34-1.62l-1.61.12c-3,.21-4.83-1-5.25-3.46-.51-2.87,1.23-5,4.76-5.59a9.46,9.46,0,0,1,4.7.31,1.25,1.25,0,0,1,1,1,1.15,1.15,0,0,1-.94,1.33,2.26,2.26,0,0,1-1-.08,8,8,0,0,0-3.48-.2c-1.89.33-2.72,1.35-2.5,2.58s1,1.71,3.32,1.53l1.61-.12c3.21-.21,4.86,1,5.29,3.48.52,3-1.27,5.3-5.28,6A9.81,9.81,0,0,1,371.81,155.71Z" style="fill:#fff"/><path d="M399.93,151.72a1.29,1.29,0,0,1-1.21,1.44,1.41,1.41,0,0,1-1.26-.52l-.72-.88h0a5.84,5.84,0,0,1-4.44,2.4c-3.4.43-5.58-1-5.94-3.9-.4-3.14,1.56-5,5.34-5.44l3.46-.44a.18.18,0,0,0,.17-.22l-.09-.73c-.27-2.12-1.41-3.21-4.08-2.87a7.21,7.21,0,0,0-3,1.16,1.75,1.75,0,0,1-.73.31,1.08,1.08,0,0,1-1.29-1,1.23,1.23,0,0,1,.5-1.16,8.48,8.48,0,0,1,4.49-1.73c4.06-.51,6.21,1.18,6.68,4.93l.69,5.46a3,3,0,0,0,.49,1.52l.66.91A1.69,1.69,0,0,1,399.93,151.72Zm-4.1-3.36-.21-1.68a.17.17,0,0,0-.22-.16l-3,.38c-2.6.33-3.68,1.24-3.46,2.95s1.44,2.24,3.47,2C394.71,151.54,396.06,150.24,395.83,148.36Z" style="fill:#fff"/><path d="M403.4,151.17a1.34,1.34,0,0,1-.73-1.07,1.22,1.22,0,0,1,1.15-1.3,1.64,1.64,0,0,1,.92.22,8.19,8.19,0,0,0,4.38,1c2.2-.17,3.27-1.22,3.17-2.56s-.72-1.87-3.17-1.94l-1.6,0c-3-.09-4.71-1.5-4.89-4-.23-2.9,1.71-4.82,5.28-5.09a9.34,9.34,0,0,1,4.65.77,1.23,1.23,0,0,1,.89,1.05,1.16,1.16,0,0,1-1.06,1.24,2.24,2.24,0,0,1-1-.18,8.06,8.06,0,0,0-3.44-.54c-1.92.14-2.84,1.08-2.75,2.33s.85,1.79,3.16,1.84l1.61,0c3.22.1,4.73,1.5,4.93,4,.23,3-1.79,5.15-5.84,5.46A9.76,9.76,0,0,1,403.4,151.17Z" style="fill:#fff"/><text transform="translate(540.01 780) rotate(162.97)" style="font-size:32px;fill:#fff;font-family:DINNextRoundedLTPro-Regular, DIN Next Rounded LT Pro">M</text><text transform="translate(517.17 786.84) rotate(166.23)" style="font-size:32px;fill:#fff;font-family:DINNextRoundedLTPro-Regular, DIN Next Rounded LT Pro">u</text><text transform="translate(500.71 790.84) rotate(169.5)" style="font-size:32px;fill:#fff;font-family:DINNextRoundedLTPro-Regular, DIN Next Rounded LT Pro">n</text><text transform="translate(483.79 793.89) rotate(171.68)" style="font-size:32px;fill:#fff;font-family:DINNextRoundedLTPro-Regular, DIN Next Rounded LT Pro">i</text><text transform="translate(476.12 795.08) rotate(173.68)" style="font-size:32px;fill:#fff;font-family:DINNextRoundedLTPro-Regular, DIN Next Rounded LT Pro">c</text><text transform="matrix(-1, 0.08, -0.08, -1, 461.29, 796.66)" style="font-size:32px;fill:#fff;font-family:DINNextRoundedLTPro-Regular, DIN Next Rounded LT Pro">i</text><text transform="translate(453.59 797.33) rotate(177.89)" style="font-size:32px;fill:#fff;font-family:DINNextRoundedLTPro-Regular, DIN Next Rounded LT Pro">p</text><text transform="translate(436.6 797.87) rotate(-179.91)" style="font-size:32px;fill:#fff;font-family:DINNextRoundedLTPro-Regular, DIN Next Rounded LT Pro">i</text><text transform="translate(428.84 797.95) rotate(-177.76)" style="font-size:32px;fill:#fff;font-family:DINNextRoundedLTPro-Regular, DIN Next Rounded LT Pro">o</text><text transform="translate(412.6 797.31) rotate(-174.93)" style="font-size:32px;fill:#fff;font-family:DINNextRoundedLTPro-Regular, DIN Next Rounded LT Pro">s</text><path d="M697.79,254.59a1.19,1.19,0,0,1,1.8.21l4.19,5.25c2.71,3.4,2.3,7.09-.73,9.5s-6.71,2-9.43-1.4l-3.09-3.88a.17.17,0,0,0-.27,0l-5.63,4.49a1.43,1.43,0,1,1-1.78-2.22Zm3.5,12.76c1.86-1.47,2-3.62.35-5.72l-3-3.8a.17.17,0,0,0-.27,0l-5.7,4.55a.17.17,0,0,0,0,.27l3,3.8C697.31,268.52,699.44,268.83,701.29,267.35Z" style="fill:#fff"/><path d="M694.28,281.34l10.29-7.56a1.35,1.35,0,1,1,1.59,2.17l-.57.42,0,0a4.16,4.16,0,0,1,4.21,1.79,4.4,4.4,0,0,1,.91,2.16,1.26,1.26,0,0,1-.48,1.3,1.29,1.29,0,0,1-1.87-.29,1.7,1.7,0,0,1-.27-.64,4.83,4.83,0,0,0-.73-1.64c-1.37-1.86-3.46-1.47-5.53,0l-6,4.4a1.35,1.35,0,1,1-1.59-2.17Z" style="fill:#fff"/><path d="M703.27,289.55a15,15,0,0,1,6.49-4.28,6.5,6.5,0,0,1,6.66,10.1,15,15,0,0,1-6.49,4.28,6.5,6.5,0,0,1-6.66-10.1Zm5.87,7.51a13.83,13.83,0,0,0,5.21-3.43,3.69,3.69,0,0,0-3.8-5.77,9.65,9.65,0,0,0-2.79,1.41,9.94,9.94,0,0,0-2.42,2,3.69,3.69,0,0,0,3.8,5.77Z" style="fill:#fff"/><path d="M712.07,307.55l8-10.13a1.55,1.55,0,0,1,.52-.45,1.25,1.25,0,0,1,1.77.47,1.35,1.35,0,0,1-.18,1.59L715,307.88l0,.05,11.14-2.1a1.33,1.33,0,0,1,1.48.61,1.25,1.25,0,0,1-.43,1.78,1.52,1.52,0,0,1-.64.23l-12.73,2.12c-1.32.23-1.89.08-2.33-.66S711.24,308.6,712.07,307.55Z" style="fill:#fff"/><path d="M729,311.88a1.35,1.35,0,1,1,1.29,2.36l-11.2,6.12a1.34,1.34,0,1,1-1.29-2.35Zm5.16-3.3a1.76,1.76,0,1,1-.7,2.39A1.76,1.76,0,0,1,734.2,308.58Z" style="fill:#fff"/><path d="M733,319.15a1.35,1.35,0,1,1,1.2,2.4l-.4.2v0a4.86,4.86,0,0,1,3.78,2.91c1.48,3,.33,5.77-2.79,7.33l-7.74,3.85a1.35,1.35,0,1,1-1.19-2.41l7.16-3.57c2.2-1.09,3-2.74,2-4.8a3.44,3.44,0,0,0-4.92-1.48l-7.31,3.63a1.35,1.35,0,1,1-1.2-2.4Z" style="fill:#fff"/><path d="M731.19,338.89a13.25,13.25,0,0,1,3.38-2,13.65,13.65,0,0,1,3.74-1.11,6,6,0,0,1,6.21,3.89,6,6,0,0,1-.09,5.39,1.71,1.71,0,0,1-.76.75,1.17,1.17,0,0,1-1.56-.62,1.6,1.6,0,0,1,.11-1.34,3.6,3.6,0,0,0,0-3.18,3.32,3.32,0,0,0-3.57-2.17,10,10,0,0,0-3,.92,10.5,10.5,0,0,0-2.74,1.57,3.32,3.32,0,0,0-.82,4.1,3.64,3.64,0,0,0,2.33,2.16,1.57,1.57,0,0,1,1.06.83,1.16,1.16,0,0,1-.61,1.56,1.64,1.64,0,0,1-1.06,0,6.48,6.48,0,0,1-2.65-10.78Z" style="fill:#fff"/><path d="M746.8,349.36a1.35,1.35,0,1,1,1,2.5l-11.87,4.7a1.35,1.35,0,1,1-1-2.5Zm5.53-2.63a1.76,1.76,0,1,1,1.3,3.27,1.76,1.76,0,1,1-1.3-3.27Z" style="fill:#fff"/><path d="M741.8,373.18a1.28,1.28,0,0,1-1.66-.87,1.39,1.39,0,0,1,.24-1.34l.7-.89v0a5.87,5.87,0,0,1-3.29-3.83c-1.14-3.23-.2-5.67,2.55-6.64,3-1.05,5.19.48,6.46,4.07l1.16,3.29a.17.17,0,0,0,.24.12l.7-.25c2-.71,2.84-2.05,1.94-4.59a7.29,7.29,0,0,0-1.77-2.7,1.9,1.9,0,0,1-.46-.65,1.08,1.08,0,0,1,.7-1.47,1.24,1.24,0,0,1,1.24.24,8.67,8.67,0,0,1,2.64,4c1.36,3.86.16,6.32-3.4,7.58l-5.19,1.83a3,3,0,0,0-1.38.79l-.76.85A1.65,1.65,0,0,1,741.8,373.18Zm2.41-4.72,1.6-.56a.18.18,0,0,0,.12-.25l-1-2.89c-.87-2.48-2-3.34-3.62-2.76s-1.88,1.88-1.19,3.81C740.87,368.05,742.43,369.09,744.21,368.46Z" style="fill:#fff"/><text transform="translate(468.2 26.96)" style="font-size:32px;fill:#fff;font-family:DINNextRoundedLTPro-Regular, DIN Next Rounded LT Pro">Nación</text><line x1="457.34" y1="113.13" x2="457.34" y2="14.71" style="fill:none;stroke:#fff;stroke-miterlimit:10;stroke-width:2.72px"/></g></g></svg>