<svg xmlns="http://www.w3.org/2000/svg" viewBox="0 0 445.93 229.83"><defs><style>.cls-1{fill:#9aca3c;}.cls-2{fill:#2b3182;}.cls-3{fill:#09999a;}</style></defs><title>Recurso 18</title><g id="Capa_2" data-name="Capa 2"><g id="Capa_1-2" data-name="Capa 1"><circle class="cls-1" cx="15.48" cy="151.51" r="5.06"/><path class="cls-2" d="M0,178.32a7.4,7.4,0,1,1,7.4,7.4A7.41,7.41,0,0,1,0,178.32Zm2.11,0A5.29,5.29,0,1,0,7.4,173,5.3,5.3,0,0,0,2.11,178.32Z"/><polygon class="cls-2" points="206.09 0 226.6 34.35 232.29 7.65 206.09 0"/><path class="cls-3" d="M233.46,221.24c-3.66-8.32-10.63-10.35-15.71-11.84-4.56-1.33-6.63-2-7.94-5s-.44-5,1.66-9.24c2.34-4.75,5.54-11.26,1.88-19.58s-10.63-10.35-15.71-11.83c-4.56-1.33-6.63-2-7.94-5s-.44-5,1.66-9.24c2.34-4.75,5.54-11.26,1.88-19.58s-10.63-10.35-15.71-11.83c-4.56-1.33-6.62-2-7.93-5a6.12,6.12,0,1,0-11.2,4.93c3.66,8.31,10.63,10.35,15.71,11.83,4.56,1.33,6.63,2,7.94,5s.44,5-1.66,9.24c-2.34,4.75-5.54,11.26-1.88,19.58s10.63,10.35,15.71,11.83c4.56,1.33,6.62,2,7.93,5s.44,5-1.66,9.25c-2.34,4.75-5.54,11.26-1.88,19.58s10.63,10.35,15.71,11.84c4.56,1.33,6.63,2,7.94,5a6.12,6.12,0,1,0,11.2-4.93Z"/><circle class="cls-2" cx="412.8" cy="205" r="8.16"/><circle class="cls-1" cx="440.87" cy="193.75" r="5.06"/><path class="cls-3" d="M425.39,220.55a7.4,7.4,0,1,1,7.4,7.4A7.41,7.41,0,0,1,425.39,220.55Zm2.11,0a5.29,5.29,0,1,0,5.29-5.29A5.3,5.3,0,0,0,427.5,220.55Z"/><path class="cls-1" d="M345.24,55.64l7-3.9a5.87,5.87,0,0,1,8,2.29l3.9,7a5.87,5.87,0,0,1-2.29,8l-7,3.9a5.87,5.87,0,0,1-8-2.29l-3.9-7A5.87,5.87,0,0,1,345.24,55.64Zm12,0a2.47,2.47,0,0,0-3.35-1l-7,3.9a2.47,2.47,0,0,0-1,3.35l3.9,7a2.47,2.47,0,0,0,3.35,1l7-3.9a2.47,2.47,0,0,0,1-3.35Z"/></g></g></svg>