<svg xmlns="http://www.w3.org/2000/svg" viewBox="0 0 322.02 235.31"><defs><style>.cls-1{fill:#09999a;}.cls-2{fill:#9aca3c;}.cls-3{fill:#fff;}.cls-4{fill:#2b3182;}</style></defs><title>Recurso 14</title><g id="Capa_2" data-name="Capa 2"><g id="Capa_1-2" data-name="Capa 1"><path class="cls-1" d="M128,175.61a2.5,2.5,0,0,1-2-1L98.67,137.4a2.5,2.5,0,0,1,4-3L128,168.89l25.3-34.45a2.5,2.5,0,0,1,4,3L130,174.59A2.5,2.5,0,0,1,128,175.61Z"/><path class="cls-2" d="M128,142.61a2.5,2.5,0,0,1-2-1L98.67,104.4a2.5,2.5,0,0,1,4-3L128,135.89l25.3-34.45a2.5,2.5,0,0,1,4,3L130,141.59A2.5,2.5,0,0,1,128,142.61Z"/><path class="cls-3" d="M128,235.2a2.5,2.5,0,0,1-2-1L98.67,197a2.5,2.5,0,0,1,4-3L128,228.48,153.29,194a2.5,2.5,0,0,1,4,3L130,234.18A2.5,2.5,0,0,1,128,235.2Z"/><path class="cls-2" d="M264.2,232.29c-1.29-2.93-3.74-3.65-5.53-4.17-1.61-.47-2.33-.72-2.8-1.77s-.15-1.76.58-3.25c.82-1.67,2-4,.66-6.9s-3.74-3.64-5.53-4.17c-1.6-.47-2.33-.72-2.79-1.77s-.15-1.75.58-3.25c.82-1.67,2-4,.66-6.89s-3.74-3.65-5.53-4.17c-1.6-.47-2.33-.72-2.79-1.76a2.16,2.16,0,1,0-3.95,1.74c1.29,2.93,3.74,3.64,5.53,4.17,1.6.47,2.33.72,2.79,1.77s.15,1.75-.58,3.25c-.82,1.67-2,4-.66,6.89s3.74,3.65,5.53,4.17c1.6.47,2.33.72,2.79,1.76s.15,1.76-.58,3.26c-.82,1.67-2,4-.66,6.9s3.74,3.65,5.53,4.17c1.6.47,2.33.72,2.8,1.77a2.16,2.16,0,0,0,3.95-1.74Z"/><circle class="cls-4" cx="288.89" cy="68.99" r="8.16"/><circle class="cls-1" cx="316.96" cy="57.73" r="5.06"/><path class="cls-3" d="M301.48,84.54a7.4,7.4,0,1,1,7.4,7.4A7.41,7.41,0,0,1,301.48,84.54Zm2.11,0a5.29,5.29,0,1,0,5.29-5.29A5.3,5.3,0,0,0,303.58,84.54Z"/><path class="cls-4" d="M30.7,3.91l3.46,1.46,1.46-3.46a3.13,3.13,0,1,1,5.77,2.44L39.93,7.81l3.46,1.46A3.13,3.13,0,1,1,40.94,15l-3.46-1.46L36,17a3.13,3.13,0,1,1-5.77-2.44l1.46-3.46L28.26,9.68A3.13,3.13,0,0,1,30.7,3.91Z"/><path class="cls-3" d="M50.82,33.55l7-3.9a5.87,5.87,0,0,1,8,2.29l3.9,7a5.87,5.87,0,0,1-2.29,8l-7,3.9a5.87,5.87,0,0,1-8-2.29l-3.9-7A5.87,5.87,0,0,1,50.82,33.55Zm12,0a2.47,2.47,0,0,0-3.35-1l-7,3.9a2.47,2.47,0,0,0-1,3.35l3.9,7a2.47,2.47,0,0,0,3.35,1l7-3.9a2.47,2.47,0,0,0,1-3.35Z"/><polygon class="cls-2" points="0 37.95 20.51 72.31 26.21 45.61 0 37.95"/></g></g></svg>