<svg xmlns="http://www.w3.org/2000/svg" viewBox="0 0 355.38 259.6"><defs><style>.cls-1{fill:#9aca3c;}.cls-2{fill:#2b3182;}.cls-3{fill:#09999a;}</style></defs><title>Recurso 17</title><g id="Capa_2" data-name="Capa 2"><g id="Capa_1-2" data-name="Capa 1"><path class="cls-1" d="M137.49,200a2.5,2.5,0,0,1-2-1L108.17,161.8a2.5,2.5,0,0,1,4-3l25.3,34.45,25.3-34.45a2.5,2.5,0,0,1,4,3L139.51,199A2.5,2.5,0,0,1,137.49,200Z"/><path class="cls-2" d="M137.49,167a2.5,2.5,0,0,1-2-1L108.17,128.8a2.5,2.5,0,0,1,4-3l25.3,34.45,25.3-34.45a2.5,2.5,0,0,1,4,3L139.51,166A2.5,2.5,0,0,1,137.49,167Z"/><path class="cls-3" d="M137.49,259.6a2.5,2.5,0,0,1-2-1l-27.31-37.19a2.5,2.5,0,0,1,4-3l25.3,34.45,25.3-34.45a2.5,2.5,0,0,1,4,3l-27.31,37.19A2.5,2.5,0,0,1,137.49,259.6Z"/><path class="cls-1" d="M42.3,103.68l-7.76,10.74a2.53,2.53,0,0,1-.83.68c-1.11.52-2.51-.12-3.29-1.8a3.24,3.24,0,0,1,.2-3.54l6-7.74,0-.1-9.75-.43a3.24,3.24,0,0,1-2.83-2.13c-.78-1.68-.36-3.16.75-3.68a2.5,2.5,0,0,1,1.06-.2l13.21,1a4.47,4.47,0,0,1,3.35,7.2Z"/><path class="cls-1" d="M18.59,122.12a2.56,2.56,0,0,1-1.06.2l-13.21-1a4.21,4.21,0,0,1-3.87-2.58A4.21,4.21,0,0,1,1,114.14L8.74,103.4a2.53,2.53,0,0,1,.83-.68c1.11-.52,2.51.11,3.3,1.8a3.23,3.23,0,0,1-.2,3.54l-6,7.73,0,.1,9.75.43a3.24,3.24,0,0,1,2.84,2.13C20.13,120.12,19.71,121.6,18.59,122.12Z"/><path class="cls-2" d="M313,126.66a2.64,2.64,0,0,0,4.7,1.26l37.18-48.45a2.64,2.64,0,1,0-4.18-3.21l-37.18,48.45A2.63,2.63,0,0,0,313,126.66Z"/><path class="cls-1" d="M304.76,106a3.39,3.39,0,0,0,6,1.62L352.68,53a3.39,3.39,0,1,0-5.38-4.13l-41.87,54.57A3.38,3.38,0,0,0,304.76,106Z"/><path class="cls-2" d="M213.38,11l3.13-7.42A5.87,5.87,0,0,1,224.18.46l7.42,3.13a5.87,5.87,0,0,1,3.13,7.68l-3.13,7.42a5.87,5.87,0,0,1-7.68,3.13l-7.42-3.13A5.87,5.87,0,0,1,213.38,11Zm9.48-7.42a2.47,2.47,0,0,0-3.23,1.31l-3.13,7.42a2.47,2.47,0,0,0,1.31,3.23l7.42,3.13a2.47,2.47,0,0,0,3.23-1.31l3.13-7.42a2.47,2.47,0,0,0-1.31-3.23Z"/></g></g></svg>