<svg xmlns="http://www.w3.org/2000/svg" viewBox="0 0 959.16 259.15"><title>Asset 5</title><g id="Layer_2" data-name="Layer 2"><g id="Capa_1" data-name="Capa 1"><path d="M64.86,193.47l103-73.84c15.62-11,21.65-20.59,21.65-30.17C189.46,78.81,181.3,71,167.1,71s-27.34,8.87-47.93,30.88L64.5,55.38C93.26,19.88,122.37.71,174.2.71,231,.71,271.82,34.79,271.82,82v.71c0,38-20.23,58.58-50,77.75l-44.38,28.4h96.92v65H64.86Z" style="fill:#a1c517"/><path d="M290.64,130.28v-.71C290.64,61.06,335.37,0,410.63,0S529.9,60.35,529.9,128.86v.71c0,68.52-44.72,129.58-120,129.58S290.64,198.8,290.64,130.28Zm156.91,0v-.71c0-34.08-15.27-57.51-37.63-57.51S373,94.78,373,128.86v.71c0,34.08,15.26,57.51,37.63,57.51S447.55,164.36,447.55,130.28Z" style="fill:#a1c517"/><path d="M583.51,76.32,543,85.2,528.13,23.78l74.2-20.23h62.83V253.82H583.51Z" style="fill:#a1c517"/><path d="M802.55,73.84H689.3V5.32H893.07V67.8l-107.92,186H695Z" style="fill:#a1c517"/><path d="M0,103.44a5.53,5.53,0,0,1,5.94-5.93H29.46c15.9,0,23.74,8.06,23.74,20.16,0,8-3.47,13.44-8.85,16.24v.22c5.6,2.24,10.19,8.62,10.19,17.58,0,14.34-9.63,22-25.53,22H5.94c-3.7,0-5.94-2.24-5.94-5.83ZM29.12,129.2c6.72,0,10.86-4,10.86-10s-4.14-10.08-10.86-10.08H13.89a.6.6,0,0,0-.67.68v18.7a.59.59,0,0,0,.67.67ZM13.89,162h15.9c7.39,0,11.54-4.26,11.54-10.64s-4.15-10.53-11.54-10.53H13.89a.59.59,0,0,0-.67.67v19.83A.59.59,0,0,0,13.89,162Z" style="fill:#fff"/><path d="M106.51,168.63h-.11c-2.8,3.92-7.73,6.27-14.11,6.27-11.54,0-18.48-8.51-18.48-20.05V125.73c0-4.14,2.57-6.61,6.27-6.61s6.27,2.47,6.27,6.61v26.21c0,6.94,3.14,11.76,10,11.76,6.61,0,10.19-4.82,10.19-11.76V125.73c0-4.14,2.58-6.61,6.27-6.61s6.28,2.47,6.28,6.61v41.89c0,4.14-2.58,6.61-6.28,6.61S107.07,171.87,106.51,168.63Z" style="fill:#fff"/><path d="M141.12,159.89a41.86,41.86,0,0,1-1.91-13.22,42.92,42.92,0,0,1,1.8-13.32c3-9.41,11.31-14.9,22.06-14.9,11.09,0,19.15,5.71,22.18,14.9a43.27,43.27,0,0,1,1.79,13,4.06,4.06,0,0,1-4.37,4.37H152.54a.59.59,0,0,0-.67.67,12,12,0,0,0,.78,4.14c1.8,5.27,6,8.18,12.21,8.18,4.59,0,7.62-1.35,11.09-3.7a8.11,8.11,0,0,1,4.59-1.79,5,5,0,0,1,5.27,5.26,5.91,5.91,0,0,1-2.58,4.93c-4.82,3.92-10.75,6.5-19.49,6.5C152.21,174.9,144.14,169.3,141.12,159.89ZM173.71,136c-1.46-4.36-5.49-6.94-10.53-6.94S154,131.67,152.54,136a13.71,13.71,0,0,0-.67,4.6.59.59,0,0,0,.67.67h21.17a.59.59,0,0,0,.67-.67A13.71,13.71,0,0,0,173.71,136Z" style="fill:#fff"/><path d="M219.85,124.72c2.8-3.92,7.84-6.27,14.23-6.27,11.53,0,18.7,8.51,18.7,20v29.12c0,4.14-2.57,6.61-6.27,6.61s-6.27-2.47-6.27-6.61V141.41c0-6.94-3.36-11.76-10.19-11.76-6.61,0-10.31,4.82-10.31,11.76v26.21c0,4.14-2.57,6.61-6.27,6.61s-6.27-2.47-6.27-6.61V125.73c0-4.14,2.57-6.61,6.27-6.61s5.71,2.35,6.27,5.6Z" style="fill:#fff"/><path d="M274.17,160a40,40,0,0,1-1.79-13.33,39.88,39.88,0,0,1,1.79-13.32c3-9.41,11.31-14.9,22.29-14.9s19.15,5.49,22.18,14.9a39.88,39.88,0,0,1,1.79,13.32A40,40,0,0,1,318.64,160c-3,9.41-11.32,14.9-22.18,14.9S277.2,169.41,274.17,160Zm32.37-3.36c.9-2.8,1.12-5.37,1.12-10s-.22-7-1.12-10a10,10,0,0,0-10.08-7.06c-5,0-8.62,2.58-10.19,7.06-.9,2.91-1.12,5.37-1.12,10s.22,7.17,1.12,10c1.57,4.48,5.15,7.06,10.19,7.06A10,10,0,0,0,306.54,156.64Z" style="fill:#fff"/><path d="M340.7,169.41a5.56,5.56,0,0,1-3-5,5.66,5.66,0,0,1,5.71-5.71,8,8,0,0,1,3.92,1.23c4.14,2.58,8.17,4.37,13.77,4.37,6.16,0,10-2.35,10-6.39,0-3.36-1.9-5.26-9-5.93l-5.82-.56c-11.09-1.23-16.58-6.72-16.58-15.91,0-10.3,7.39-17,20.95-17a35.29,35.29,0,0,1,16.35,4c2.46,1.35,3.81,2.91,3.81,5.15a5.18,5.18,0,0,1-5.27,5.49,7.79,7.79,0,0,1-3.92-1.23A27.51,27.51,0,0,0,360,129c-5.6,0-8.17,2.46-8.17,5.6s2,5,8.85,5.71l5.82.56c11.42,1.12,16.69,6.94,16.69,15.9,0,10.76-8.07,18.15-22.74,18.15A35.86,35.86,0,0,1,340.7,169.41Z" style="fill:#fff"/><path d="M432.09,165.6l22.18-61.15C456,99.75,458.41,97,463,97s7.17,2.8,8.85,7.5L493.8,165.6a7.88,7.88,0,0,1,.45,2.47,6.12,6.12,0,0,1-6.38,6.16,6.45,6.45,0,0,1-6.28-4.6l-4.14-11.87H448.33l-4,11.87a6.45,6.45,0,0,1-6.27,4.6,6.13,6.13,0,0,1-6.39-6.16A8.18,8.18,0,0,1,432.09,165.6ZM473.42,146l-10.31-29.68h-.33L452.47,146Z" style="fill:#fff"/><path d="M518.66,96.5a7.51,7.51,0,1,1-7.5,7.5A7.5,7.5,0,0,1,518.66,96.5Zm-6.27,71.12V125.73c0-4.14,2.58-6.61,6.27-6.61s6.28,2.47,6.28,6.61v41.89c0,4.14-2.58,6.61-6.28,6.61S512.39,171.76,512.39,167.62Z" style="fill:#fff"/><path d="M560.55,126h.11a16.35,16.35,0,0,1,20.5-6,5.57,5.57,0,0,1,3.36,5.15c0,3.69-2.46,6.38-6.16,6.38a9.39,9.39,0,0,1-2.91-.56,19,19,0,0,0-5-.89c-6.95,0-9.86,5.48-9.86,13.66v24c0,4.14-2.57,6.61-6.27,6.61s-6.27-2.47-6.27-6.61V125.73c0-4.14,2.57-6.61,6.27-6.61s6.27,2.47,6.27,6.61Z" style="fill:#fff"/><path d="M598.75,159.89a41.86,41.86,0,0,1-1.91-13.22,43,43,0,0,1,1.79-13.32c3-9.41,11.32-14.9,22.07-14.9,11.09,0,19.15,5.71,22.17,14.9a43.24,43.24,0,0,1,1.8,13,4.06,4.06,0,0,1-4.37,4.37H610.17a.59.59,0,0,0-.67.67,11.78,11.78,0,0,0,.78,4.14c1.79,5.27,6.05,8.18,12.21,8.18,4.59,0,7.62-1.35,11.09-3.7a8.08,8.08,0,0,1,4.59-1.79,5,5,0,0,1,5.26,5.26,5.9,5.9,0,0,1-2.57,4.93c-4.82,3.92-10.75,6.5-19.49,6.5C609.83,174.9,601.77,169.3,598.75,159.89ZM631.34,136c-1.46-4.36-5.49-6.94-10.53-6.94s-9.18,2.58-10.64,6.94a13.71,13.71,0,0,0-.67,4.6.59.59,0,0,0,.67.67h21.17a.59.59,0,0,0,.67-.67A13.71,13.71,0,0,0,631.34,136Z" style="fill:#fff"/><path d="M664.94,169.41a5.57,5.57,0,0,1-3-5,5.67,5.67,0,0,1,5.72-5.71,8,8,0,0,1,3.91,1.23c4.15,2.58,8.18,4.37,13.78,4.37,6.16,0,10-2.35,10-6.39,0-3.36-1.91-5.26-9-5.93l-5.83-.56c-11.08-1.23-16.57-6.72-16.57-15.91,0-10.3,7.39-17,20.94-17a35.26,35.26,0,0,1,16.35,4c2.47,1.35,3.81,2.91,3.81,5.15a5.18,5.18,0,0,1-5.26,5.49,7.79,7.79,0,0,1-3.92-1.23A27.55,27.55,0,0,0,684.2,129c-5.6,0-8.18,2.46-8.18,5.6s2,5,8.85,5.71l5.83.56c11.42,1.12,16.68,6.94,16.68,15.9,0,10.76-8.06,18.15-22.73,18.15A35.86,35.86,0,0,1,664.94,169.41Z" style="fill:#fff"/><path d="M761,103.89c0-4.26,2.8-6.94,6.61-6.94s6.61,2.68,6.61,6.94v57.23a.59.59,0,0,0,.67.67h30c4.15,0,6.72,2.47,6.72,5.94s-2.57,5.94-6.72,5.94H767.64c-4,0-6.61-2.58-6.61-6.61Z" style="fill:#fff"/><path d="M824.09,165.6l22.17-61.15c1.68-4.7,4.15-7.5,8.74-7.5s7.17,2.8,8.85,7.5L885.8,165.6a8.18,8.18,0,0,1,.45,2.47,6.13,6.13,0,0,1-6.39,6.16,6.45,6.45,0,0,1-6.27-4.6l-4.14-11.87H840.33l-4,11.87a6.43,6.43,0,0,1-6.27,4.6,6.12,6.12,0,0,1-6.38-6.16A7.88,7.88,0,0,1,824.09,165.6ZM865.42,146l-10.31-29.68h-.34L844.47,146Z" style="fill:#fff"/><path d="M904.61,103.44a5.53,5.53,0,0,1,5.94-5.93h23.52c15.9,0,23.74,8.06,23.74,20.16,0,8-3.47,13.44-8.84,16.24v.22c5.59,2.24,10.19,8.62,10.19,17.58,0,14.34-9.64,22-25.54,22H910.55c-3.7,0-5.94-2.24-5.94-5.83Zm29.12,25.76c6.72,0,10.87-4,10.87-10s-4.15-10.08-10.87-10.08H918.5a.6.6,0,0,0-.67.68v18.7a.59.59,0,0,0,.67.67ZM918.5,162h15.91c7.39,0,11.53-4.26,11.53-10.64s-4.14-10.53-11.53-10.53H918.5a.59.59,0,0,0-.67.67v19.83A.59.59,0,0,0,918.5,162Z" style="fill:#fff"/></g></g></svg>