<svg id="Capa_1" data-name="Capa 1" xmlns="http://www.w3.org/2000/svg" viewBox="0 0 732.91 52.61"><defs><style>.cls-1{fill:#414142;}.cls-2,.cls-3{fill:none;stroke:#414142;stroke-linecap:round;stroke-linejoin:round;stroke-width:4px;}.cls-3{stroke-dasharray:0.99 11.91;}</style></defs><title>Mesa de trabajo 4</title><path class="cls-1" d="M430.92,16.69a2,2,0,1,1,0-3.92h14.8a2,2,0,1,1,0,3.92h-5a.2.2,0,0,0-.22.22V35.82a2.19,2.19,0,1,1-4.37,0V16.91a.2.2,0,0,0-.22-.22Z"/><path class="cls-1" d="M463.15,36.12l-3.11-10H460l-3.07,10c-.44,1.41-1.22,2-2.37,2s-1.92-.59-2.41-2l-4.44-13.36a2.43,2.43,0,0,1-.15-.85,2,2,0,0,1,2-2,2,2,0,0,1,2,1.74l3.15,10.58h.07l3.07-10.47c.37-1.26,1.07-1.85,2.15-1.85s1.7.59,2.11,1.85l3.33,10.47h.07l3-10.58a2,2,0,0,1,2-1.74,2,2,0,0,1,2,2,3.43,3.43,0,0,1-.15.85l-4.44,13.36c-.44,1.41-1.22,2-2.37,2A2.35,2.35,0,0,1,463.15,36.12Z"/><path class="cls-1" d="M476.36,33.38a13.82,13.82,0,0,1-.63-4.37,14.21,14.21,0,0,1,.59-4.4c1-3.11,3.74-4.92,7.29-4.92s6.33,1.89,7.33,4.92a14.3,14.3,0,0,1,.59,4.29,1.34,1.34,0,0,1-1.44,1.44h-10a.2.2,0,0,0-.22.22,4.15,4.15,0,0,0,4.29,4.07,6,6,0,0,0,3.66-1.22,2.68,2.68,0,0,1,1.52-.59,1.65,1.65,0,0,1,1.74,1.74,2,2,0,0,1-.85,1.63,9.61,9.61,0,0,1-6.44,2.15C480,38.34,477.36,36.49,476.36,33.38Zm10.77-7.88a3.81,3.81,0,0,0-7,0,4.51,4.51,0,0,0-.22,1.52.2.2,0,0,0,.22.22h7a.2.2,0,0,0,.22-.22A4.54,4.54,0,0,0,487.13,25.5Z"/><path class="cls-1" d="M495.64,33.38A13.82,13.82,0,0,1,495,29a14.21,14.21,0,0,1,.59-4.4c1-3.11,3.74-4.92,7.29-4.92s6.33,1.89,7.33,4.92a14.3,14.3,0,0,1,.59,4.29,1.34,1.34,0,0,1-1.44,1.44h-10a.2.2,0,0,0-.22.22,4.15,4.15,0,0,0,4.29,4.07,6,6,0,0,0,3.66-1.22,2.68,2.68,0,0,1,1.52-.59,1.65,1.65,0,0,1,1.74,1.74,2,2,0,0,1-.85,1.63,9.61,9.61,0,0,1-6.44,2.15C499.3,38.34,496.64,36.49,495.64,33.38ZM506.4,25.5a3.81,3.81,0,0,0-7,0,4.54,4.54,0,0,0-.22,1.52.2.2,0,0,0,.22.22h7a.2.2,0,0,0,.22-.22A4.51,4.51,0,0,0,506.4,25.5Z"/><path class="cls-1" d="M514.73,23.32a1.55,1.55,0,0,1-1.7-1.59,1.57,1.57,0,0,1,1.7-1.63h.52c.15,0,.26-.07.26-.22V16.62a2,2,0,0,1,2.11-2.18,2,2,0,0,1,2,2.18v3.26a.2.2,0,0,0,.22.22h1.89a1.57,1.57,0,0,1,1.7,1.63,1.55,1.55,0,0,1-1.7,1.59h-1.89a.2.2,0,0,0-.22.22v8.88c0,1.44.41,1.89,1.92,2a1.83,1.83,0,0,1,1.89,1.85c0,1-.74,1.85-2.26,1.85h-.33c-3.88,0-5.37-1.74-5.37-5.62v-9c0-.15-.11-.22-.26-.22Z"/><path class="cls-1" d="M550.77,14.77V35.93a2.08,2.08,0,0,1-4.14.3h0c-.85,1.22-2.29,2.11-4.81,2.11a6.19,6.19,0,0,1-6.11-4.51A15,15,0,0,1,535,29a15,15,0,0,1,.63-4.81,6.19,6.19,0,0,1,6.11-4.51c2.52,0,4,1,4.81,2.11h0v-7a2.08,2.08,0,1,1,4.14,0Zm-11.14,11a10.73,10.73,0,0,0-.37,3.26,10.73,10.73,0,0,0,.37,3.26,3.5,3.5,0,0,0,6.62,0,10.76,10.76,0,0,0,.37-3.26,10.76,10.76,0,0,0-.37-3.26,3.5,3.5,0,0,0-6.62,0Z"/><path class="cls-1" d="M555.83,33.38a13.82,13.82,0,0,1-.63-4.37,14.21,14.21,0,0,1,.59-4.4c1-3.11,3.74-4.92,7.29-4.92s6.33,1.89,7.33,4.92A14.3,14.3,0,0,1,571,28.9a1.34,1.34,0,0,1-1.44,1.44h-10a.2.2,0,0,0-.22.22,4.15,4.15,0,0,0,4.29,4.07,6,6,0,0,0,3.66-1.22,2.68,2.68,0,0,1,1.52-.59,1.65,1.65,0,0,1,1.74,1.74,2,2,0,0,1-.85,1.63,9.61,9.61,0,0,1-6.44,2.15C559.5,38.34,556.83,36.49,555.83,33.38ZM566.6,25.5a3.81,3.81,0,0,0-7,0,4.54,4.54,0,0,0-.22,1.52.2.2,0,0,0,.22.22h7a.2.2,0,0,0,.22-.22A4.51,4.51,0,0,0,566.6,25.5Z"/><path class="cls-1" d="M575.48,36.53a1.84,1.84,0,0,1-1-1.67A1.87,1.87,0,0,1,576.37,33a2.64,2.64,0,0,1,1.29.41,8.11,8.11,0,0,0,4.55,1.44c2,0,3.29-.78,3.29-2.11,0-1.11-.63-1.74-3-2l-1.92-.18c-3.66-.41-5.48-2.22-5.48-5.25,0-3.4,2.44-5.62,6.92-5.62a11.65,11.65,0,0,1,5.4,1.33,1.94,1.94,0,0,1,1.26,1.7A1.71,1.71,0,0,1,587,24.54a2.59,2.59,0,0,1-1.3-.41,9.09,9.09,0,0,0-3.85-1c-1.85,0-2.7.81-2.7,1.85s.67,1.67,2.92,1.89l1.92.19c3.77.37,5.51,2.29,5.51,5.25,0,3.55-2.66,6-7.51,6A11.84,11.84,0,0,1,575.48,36.53Z"/><path class="cls-1" d="M593.35,23.32a1.55,1.55,0,0,1-1.7-1.59,1.57,1.57,0,0,1,1.7-1.63h.52c.15,0,.26-.07.26-.22V16.62a2,2,0,0,1,2.11-2.18,2,2,0,0,1,2,2.18v3.26a.2.2,0,0,0,.22.22h1.89a1.57,1.57,0,0,1,1.7,1.63,1.55,1.55,0,0,1-1.7,1.59H598.5a.2.2,0,0,0-.22.22v8.88c0,1.44.41,1.89,1.92,2a1.83,1.83,0,0,1,1.89,1.85c0,1-.74,1.85-2.26,1.85h-.33c-3.89,0-5.37-1.74-5.37-5.62v-9c0-.15-.11-.22-.26-.22Z"/><path class="cls-1" d="M621.14,36.19a2,2,0,0,1-2.07,1.92,2,2,0,0,1-1.74-.85l-.59-.89h0a6.69,6.69,0,0,1-5.25,2c-4.22,0-6.48-2-6.48-5.4,0-3.85,2.7-5.7,7.1-5.7h3.66A.2.2,0,0,0,616,27v-.44c0-2.07-1.18-3.29-4-3.29a8,8,0,0,0-3.26.74,2.94,2.94,0,0,1-1.07.22,1.61,1.61,0,0,1-1.7-1.7,1.8,1.8,0,0,1,1-1.63,11,11,0,0,1,5.44-1.22c5.07,0,7.47,2.52,7.47,6.92v5.63a3.17,3.17,0,0,0,.37,1.78l.55,1A2.52,2.52,0,0,1,621.14,36.19Zm-5.18-4V30.57a.2.2,0,0,0-.22-.22h-3c-2.74,0-3.85.78-3.85,2.41S610,35,612,35C614.44,35,616,34,616,32.16Z"/><path class="cls-1" d="M624.73,33.42a14,14,0,0,1-.55-4.4,14,14,0,0,1,.55-4.4c1-3.18,3.74-4.92,7.33-4.92a7.49,7.49,0,0,1,5.63,2.26,2.24,2.24,0,0,1,.74,1.63,1.77,1.77,0,0,1-1.81,1.81,2.42,2.42,0,0,1-1.7-.89,3.47,3.47,0,0,0-2.81-1.11,3.27,3.27,0,0,0-3.33,2.33,10.48,10.48,0,0,0-.37,3.29,10.48,10.48,0,0,0,.37,3.29,3.27,3.27,0,0,0,3.33,2.33,3.47,3.47,0,0,0,2.81-1.11,2.42,2.42,0,0,1,1.7-.89,1.77,1.77,0,0,1,1.81,1.81,2.24,2.24,0,0,1-.74,1.63,7.48,7.48,0,0,1-5.62,2.26C628.46,38.34,625.76,36.6,624.73,33.42Z"/><path class="cls-1" d="M657.66,36.19a2,2,0,0,1-2.07,1.92,2,2,0,0,1-1.74-.85l-.59-.89h0a6.69,6.69,0,0,1-5.25,2c-4.22,0-6.48-2-6.48-5.4,0-3.85,2.7-5.7,7.1-5.7h3.66a.2.2,0,0,0,.22-.22v-.44c0-2.07-1.18-3.29-4-3.29a8,8,0,0,0-3.26.74,2.94,2.94,0,0,1-1.07.22,1.61,1.61,0,0,1-1.7-1.7,1.8,1.8,0,0,1,1-1.63,11,11,0,0,1,5.44-1.22c5.07,0,7.47,2.52,7.47,6.92v5.63a3.17,3.17,0,0,0,.37,1.78l.55,1A2.52,2.52,0,0,1,657.66,36.19Zm-5.18-4V30.57a.2.2,0,0,0-.22-.22h-3c-2.74,0-3.85.78-3.85,2.41S646.52,35,648.56,35C651,35,652.48,34,652.48,32.16Z"/><path class="cls-1" d="M676.42,14.77V35.93a2.08,2.08,0,0,1-4.14.3h0c-.85,1.22-2.29,2.11-4.81,2.11a6.19,6.19,0,0,1-6.11-4.51,15,15,0,0,1-.63-4.81,15,15,0,0,1,.63-4.81,6.19,6.19,0,0,1,6.11-4.51c2.52,0,4,1,4.81,2.11h0v-7a2.08,2.08,0,1,1,4.14,0Zm-11.14,11a10.76,10.76,0,0,0-.37,3.26,10.76,10.76,0,0,0,.37,3.26,3.5,3.5,0,0,0,6.62,0,10.73,10.73,0,0,0,.37-3.26,10.73,10.73,0,0,0-.37-3.26,3.5,3.5,0,0,0-6.62,0Z"/><path class="cls-1" d="M681.45,33.42a13.17,13.17,0,0,1-.59-4.4,13.17,13.17,0,0,1,.59-4.4c1-3.11,3.74-4.92,7.36-4.92s6.33,1.81,7.33,4.92a13.17,13.17,0,0,1,.59,4.4,13.17,13.17,0,0,1-.59,4.4c-1,3.11-3.74,4.92-7.33,4.92S682.45,36.53,681.45,33.42Zm10.69-1.11a10.07,10.07,0,0,0,.37-3.29,10.21,10.21,0,0,0-.37-3.29,3.29,3.29,0,0,0-3.33-2.33,3.34,3.34,0,0,0-3.37,2.33,10.21,10.21,0,0,0-.37,3.29,10.07,10.07,0,0,0,.37,3.29,3.34,3.34,0,0,0,3.37,2.33A3.29,3.29,0,0,0,692.14,32.31Z"/><line class="cls-2" x1="376.55" y1="27.27" x2="376.05" y2="27.27"/><line class="cls-3" x1="364.13" y1="27.27" x2="21.6" y2="27.27"/><line class="cls-2" x1="15.64" y1="27.27" x2="15.14" y2="27.27"/><rect class="cls-2" x="391.8" y="2" width="341.11" height="48.61"/><polygon class="cls-1" points="389.71 19.32 389.71 35.23 382.64 27.27 389.71 19.32"/></svg>