<svg xmlns="http://www.w3.org/2000/svg" viewBox="0 0 640 260.82"><title>ub1</title><g id="Layer_2" data-name="Layer 2"><g id="Capa_1" data-name="Capa 1"><rect width="640" height="260.82" style="fill:#fff"/><path d="M143,145.64a4.72,4.72,0,0,1-2.37-4,4.23,4.23,0,0,1,4.19-4.26,5.91,5.91,0,0,1,3,.87c4.11,2.45,7.9,3.87,12.4,3.87,6.64,0,10.43-3.08,10.43-7.74,0-3.87-2.21-6.48-9.72-7.43l-2.76-.39c-10.82-1.43-16.27-6.48-16.27-15.41,0-9.71,7.11-16.11,18.09-16.11,5.84,0,11.45,1.58,14.61,3.63a4.22,4.22,0,0,1,2.37,3.79,4,4,0,0,1-4.11,4.11,7.64,7.64,0,0,1-2.92-.71,22.41,22.41,0,0,0-10-2.45c-5.69,0-8.53,3.08-8.53,7.19,0,3.87,2.68,6.24,9.79,7.27l2.69.39c11,1.5,16.27,6.56,16.27,15.72,0,9.56-6.87,16.51-20.38,16.51A31,31,0,0,1,143,145.64Z" style="fill:#1da1f2"/><path d="M194.38,139.88a29.59,29.59,0,0,1-1.34-9.33,30.35,30.35,0,0,1,1.26-9.4c2.13-6.63,8-10.5,15.56-10.5,7.82,0,13.51,4,15.64,10.5a30.54,30.54,0,0,1,1.27,9.17,2.87,2.87,0,0,1-3.08,3.08H202.44a.42.42,0,0,0-.48.47,8.2,8.2,0,0,0,.56,2.92c1.26,3.72,4.26,5.77,8.61,5.77A12.75,12.75,0,0,0,219,140a5.7,5.7,0,0,1,3.24-1.26,3.52,3.52,0,0,1,3.71,3.71,4.17,4.17,0,0,1-1.82,3.48c-3.39,2.76-7.58,4.58-13.74,4.58C202.2,150.46,196.51,146.51,194.38,139.88Zm23-16.83c-1-3.08-3.87-4.9-7.43-4.9s-6.48,1.82-7.5,4.9a9.58,9.58,0,0,0-.48,3.24.42.42,0,0,0,.48.47h14.93a.42.42,0,0,0,.47-.47A9.86,9.86,0,0,0,217.37,123.05Z" style="fill:#1da1f2"/><path d="M243,160.34a4.51,4.51,0,0,1-1.19-2.93,3.81,3.81,0,0,1,3.79-3.87,6.31,6.31,0,0,1,3.56,1.27,11.85,11.85,0,0,0,6.55,2c5.45,0,8.46-2.76,8.46-9.16v-3.48h-.08c-1.9,2.92-5.06,4.43-10.11,4.43-6.32,0-10.75-3.4-12.72-9.48a29.39,29.39,0,0,1-1.27-9.4,30.36,30.36,0,0,1,1.27-9.56c2-6,6.4-9.48,12.72-9.48,5.37,0,8.53,2.13,10.26,4.82h.08v-.87a4.17,4.17,0,0,1,4.27-3.48c2.61,0,4.42,1.74,4.42,4.66v30.73c0,12.17-6.24,18.17-17.77,18.17C250.15,164.68,245.1,162.63,243,160.34Zm20.3-36.74c-1.11-3.39-3.16-5-6.72-5s-5.61,1.66-6.71,5a21.44,21.44,0,0,0,0,12.09c1.1,3.4,3.16,5.05,6.71,5.05s5.61-1.65,6.72-5.05a21.44,21.44,0,0,0,0-12.09Z" style="fill:#1da1f2"/><path d="M313,146H313c-2,2.76-5.45,4.42-10,4.42-8.13,0-13-6-13-14.14V115.78c0-2.92,1.82-4.66,4.42-4.66s4.43,1.74,4.43,4.66v18.49c0,4.89,2.21,8.29,7,8.29,4.66,0,7.19-3.4,7.19-8.29V115.78c0-2.92,1.81-4.66,4.42-4.66s4.42,1.74,4.42,4.66v29.55c0,2.92-1.81,4.66-4.42,4.66S313.43,148.33,313,146Z" style="fill:#1da1f2"/><path d="M343.77,95.16a5.3,5.3,0,1,1-5.3,5.3A5.29,5.29,0,0,1,343.77,95.16Zm-4.43,50.17V115.78c0-2.92,1.82-4.66,4.43-4.66s4.42,1.74,4.42,4.66v29.55c0,2.92-1.82,4.66-4.42,4.66S339.34,148.25,339.34,145.33Z" style="fill:#1da1f2"/><path d="M374.58,115.07c2-2.76,5.53-4.42,10-4.42,8.14,0,13.19,6,13.19,14.14v20.54c0,2.92-1.82,4.66-4.42,4.66s-4.43-1.74-4.43-4.66V126.84c0-4.9-2.37-8.29-7.18-8.29s-7.27,3.39-7.27,8.29v18.49c0,2.92-1.82,4.66-4.43,4.66s-4.42-1.74-4.42-4.66V115.78c0-2.92,1.82-4.66,4.42-4.66s4,1.66,4.43,3.95Z" style="fill:#1da1f2"/><path d="M414.08,140a28,28,0,0,1-1.27-9.4,28.13,28.13,0,0,1,1.27-9.4c2.13-6.63,8-10.5,15.72-10.5s13.5,3.87,15.64,10.5a28.15,28.15,0,0,1,1.26,9.4,28.08,28.08,0,0,1-1.26,9.4c-2.14,6.64-8,10.51-15.64,10.51S416.21,146.59,414.08,140Zm22.83-2.37a21.53,21.53,0,0,0,.79-7,21.89,21.89,0,0,0-.79-7,7,7,0,0,0-7.11-5,7.12,7.12,0,0,0-7.19,5,21.89,21.89,0,0,0-.79,7,21.53,21.53,0,0,0,.79,7,7.13,7.13,0,0,0,7.19,5A7,7,0,0,0,436.91,137.58Z" style="fill:#1da1f2"/><path d="M462.19,146.59a3.94,3.94,0,0,1-2.14-3.55,4,4,0,0,1,4-4,5.58,5.58,0,0,1,2.77.87,17.35,17.35,0,0,0,9.71,3.08c4.35,0,7-1.66,7-4.51,0-2.37-1.34-3.71-6.31-4.18l-4.11-.4c-7.82-.87-11.69-4.74-11.69-11.21,0-7.27,5.21-12,14.77-12a24.86,24.86,0,0,1,11.53,2.84c1.74,1,2.69,2.06,2.69,3.64a3.65,3.65,0,0,1-3.72,3.87,5.54,5.54,0,0,1-2.76-.87,19.36,19.36,0,0,0-8.22-2.06c-3.95,0-5.76,1.74-5.76,4s1.42,3.56,6.24,4l4.11.4c8.05.79,11.77,4.89,11.77,11.21,0,7.59-5.69,12.8-16,12.8A25.28,25.28,0,0,1,462.19,146.59Z" style="fill:#1da1f2"/></g></g></svg>