<svg xmlns="http://www.w3.org/2000/svg" viewBox="0 0 640 260.82"><title>ub1h</title><g id="Layer_2" data-name="Layer 2"><g id="Capa_1" data-name="Capa 1"><rect width="640" height="260.82" style="fill:#1da1f2"/><path d="M295.94,183.11c48.94,0,75.71-40.55,75.71-75.71,0-1.15,0-2.3-.08-3.44a54,54,0,0,0,13.28-13.77,53.27,53.27,0,0,1-15.28,4.18,26.68,26.68,0,0,0,11.7-14.72,53.2,53.2,0,0,1-16.9,6.46A26.63,26.63,0,0,0,319,110.38a75.53,75.53,0,0,1-54.85-27.8,26.61,26.61,0,0,0,8.23,35.52,26.32,26.32,0,0,1-12.05-3.33v.34a26.62,26.62,0,0,0,21.35,26.09,26.52,26.52,0,0,1-12,.46,26.65,26.65,0,0,0,24.86,18.48,53.79,53.79,0,0,1-39.4,11,75.32,75.32,0,0,0,40.79,12" style="fill:#fff"/></g></g></svg>