<svg xmlns="http://www.w3.org/2000/svg" viewBox="0 0 640 260.82"><title>ub2</title><g id="Layer_2" data-name="Layer 2"><g id="Capa_1" data-name="Capa 1"><rect width="640" height="260.82"/><path d="M187.24,97.39c0-3.27,2.15-5.33,5.07-5.33s5.07,2.06,5.07,5.33v43.94a.46.46,0,0,0,.52.52h23c3.18,0,5.16,1.89,5.16,4.56s-2,4.56-5.16,4.56H192.31a4.74,4.74,0,0,1-5.07-5.08Z" style="fill:#e8f3ec"/><path d="M233.16,140.39a32.18,32.18,0,0,1-1.46-10.15A33,33,0,0,1,233.07,120c2.33-7.23,8.69-11.44,17-11.44,8.51,0,14.7,4.39,17,11.44a33.2,33.2,0,0,1,1.38,10,3.12,3.12,0,0,1-3.35,3.36H241.93a.45.45,0,0,0-.51.51A9,9,0,0,0,242,137c1.37,4,4.64,6.27,9.37,6.27a13.88,13.88,0,0,0,8.52-2.84,6.22,6.22,0,0,1,3.52-1.37,3.83,3.83,0,0,1,4,4,4.53,4.53,0,0,1-2,3.78c-3.7,3-8.26,5-15,5C241.67,151.91,235.48,147.61,233.16,140.39Zm25-18.32c-1.12-3.35-4.22-5.33-8.09-5.33s-7,2-8.17,5.33a10.62,10.62,0,0,0-.51,3.53.45.45,0,0,0,.51.51h16.26a.45.45,0,0,0,.51-.51A10.62,10.62,0,0,0,258.19,122.07Z" style="fill:#e8f3ec"/><path d="M278,140.39a32.15,32.15,0,0,1-1.47-10.15A33,33,0,0,1,277.88,120c2.32-7.23,8.69-11.44,16.94-11.44,8.52,0,14.71,4.39,17,11.44a33.23,33.23,0,0,1,1.37,10,3.12,3.12,0,0,1-3.35,3.36H286.74a.45.45,0,0,0-.52.51,9.24,9.24,0,0,0,.6,3.19c1.38,4,4.65,6.27,9.38,6.27a13.86,13.86,0,0,0,8.51-2.84,6.28,6.28,0,0,1,3.53-1.37,3.84,3.84,0,0,1,4,4,4.54,4.54,0,0,1-2,3.78c-3.7,3-8.25,5-15,5C286.48,151.91,280.29,147.61,278,140.39Zm25-18.32c-1.12-3.35-4.21-5.33-8.08-5.33s-7.05,2-8.17,5.33a10.35,10.35,0,0,0-.52,3.53.45.45,0,0,0,.52.51H303a.45.45,0,0,0,.52-.51A10.35,10.35,0,0,0,303,122.07Z" style="fill:#e8f3ec"/><path d="M333.26,113.38c2.15-3,6-4.81,10.92-4.81,8.86,0,14.37,6.54,14.37,15.39v22.36c0,3.18-2,5.08-4.82,5.08s-4.82-1.9-4.82-5.08V126.2c0-5.33-2.58-9-7.82-9-5.08,0-7.91,3.7-7.91,9v20.12c0,3.18-2,5.08-4.82,5.08s-4.81-1.9-4.81-5.08V114.16c0-3.18,2-5.08,4.81-5.08s4.39,1.81,4.82,4.3Z" style="fill:#e8f3ec"/><path d="M369.81,140.47a30.75,30.75,0,0,1-1.37-10.23A30.75,30.75,0,0,1,369.81,120c2.32-7.23,8.69-11.44,17.12-11.44s14.7,4.21,17,11.44a30.46,30.46,0,0,1,1.38,10.23A30.46,30.46,0,0,1,404,140.47c-2.32,7.23-8.68,11.44-17,11.44S372.13,147.7,369.81,140.47Zm24.86-2.58a23.55,23.55,0,0,0,.86-7.65,23.88,23.88,0,0,0-.86-7.65,7.66,7.66,0,0,0-7.74-5.42,7.77,7.77,0,0,0-7.83,5.42,23.6,23.6,0,0,0-.86,7.65,23.27,23.27,0,0,0,.86,7.65,7.77,7.77,0,0,0,7.83,5.42A7.66,7.66,0,0,0,394.67,137.89Z" style="fill:#e8f3ec"/><path d="M415.74,147.7a4.28,4.28,0,0,1-2.33-3.87,4.36,4.36,0,0,1,4.39-4.39,6.14,6.14,0,0,1,3,.95,18.84,18.84,0,0,0,10.58,3.35c4.73,0,7.65-1.8,7.65-4.9,0-2.58-1.46-4-6.88-4.56l-4.47-.43c-8.51-.94-12.73-5.16-12.73-12.21,0-7.91,5.68-13.07,16.08-13.07a27.16,27.16,0,0,1,12.56,3.09c1.89,1,2.92,2.24,2.92,4a4,4,0,0,1-4,4.21,6,6,0,0,1-3-.94,21.14,21.14,0,0,0-8.94-2.24c-4.3,0-6.28,1.89-6.28,4.3s1.55,3.87,6.79,4.39l4.48.43c8.77.86,12.81,5.33,12.81,12.21,0,8.26-6.19,13.93-17.46,13.93A27.52,27.52,0,0,1,415.74,147.7Z" style="fill:#e8f3ec"/></g></g></svg>