<svg xmlns="http://www.w3.org/2000/svg" viewBox="0 0 640 260.82"><title>ub2h</title><g id="Layer_2" data-name="Layer 2"><g id="Capa_1" data-name="Capa 1"><rect width="640" height="260.82" style="fill:#e8f3ec"/><g id="Page-1"><g id="Wordmark_White" data-name="Wordmark White"><path id="Shape" d="M365.06,165l8,7.7v.25H332.34v-.25l8.18-7.7a3.1,3.1,0,0,0,1.09-3V112.83a50.48,50.48,0,0,1,.37-7.3l-27.49,68.4h-.32L285.7,111c-.62-1.57-.8-1.68-1.2-2.73v41.26a14.37,14.37,0,0,0,1.35,8.06l11.45,15.1v.25H266.91v-.25l11.45-15.14a14.42,14.42,0,0,0,1.34-8v-45.6a8.83,8.83,0,0,0-1.89-6.24l-8.1-10.54v-.26h29.08l24.35,53.3,21.45-53.3h28.47v.26l-8,8.93a3.15,3.15,0,0,0-1.24,3.07V162A2.93,2.93,0,0,0,365.06,165Z"/></g></g></g></g></svg>