<svg xmlns="http://www.w3.org/2000/svg" viewBox="0 0 640 260.82"><title>ub3h</title><g id="Layer_2" data-name="Layer 2"><g id="Capa_1" data-name="Capa 1"><rect width="640" height="260.82" style="fill:#2b3182"/><path d="M378.59,98.5a6.12,6.12,0,0,0-6.11-6.11h0l-107.07.15a6.09,6.09,0,0,0-6.1,6.12l.08,60.16a6.13,6.13,0,0,0,6.12,6.11h0l107.07-.15a6.12,6.12,0,0,0,6.1-6.12Zm-12.83,0L319,131,272.13,98.64Zm-27,38.65,27.74,21.51-95.12.13,27.9-21.64a3.05,3.05,0,1,0-3.74-4.83l-30.06,23.31-.07-54.21,51.84,35.83a3.07,3.07,0,0,0,3.48,0l51.74-36,.08,54.34-30-23.3a3.06,3.06,0,0,0-3.75,4.83Z" style="fill:#fff"/></g></g></svg>