<svg xmlns="http://www.w3.org/2000/svg" viewBox="0 0 119.38 72.54"><title>ucontact</title><g id="Layer_2" data-name="Layer 2"><g id="Capa_1" data-name="Capa 1"><path d="M119.29,6.11A6.12,6.12,0,0,0,113.18,0h0L6.11.15A6.09,6.09,0,0,0,0,6.27L.08,66.43A6.13,6.13,0,0,0,6.2,72.54h0l107.06-.15a6.12,6.12,0,0,0,6.11-6.12Zm-12.83,0L59.69,38.64,12.83,6.25Zm-27,38.65,27.74,21.51-95.12.13L40,44.77a3.06,3.06,0,0,0-3.75-4.83L6.19,63.25,6.12,9,58,44.87a3.07,3.07,0,0,0,3.48,0l51.74-36,.08,54.34-30-23.3a3.06,3.06,0,1,0-3.75,4.83Z" style="fill:#fff"/></g></g></svg>