<svg xmlns="http://www.w3.org/2000/svg" viewBox="0 0 106.19 87.04"><title>umedium</title><g id="Layer_2" data-name="Layer 2"><g id="Capa_1" data-name="Capa 1"><g id="Page-1"><g id="Wordmark_White" data-name="Wordmark White"><path id="Shape" d="M98.15,78.1l8,7.7v.25H65.43V85.8l8.18-7.7a3.08,3.08,0,0,0,1.09-2.95V25.94a50.48,50.48,0,0,1,.37-7.3L47.59,87h-.33L18.79,24.11c-.61-1.57-.8-1.68-1.2-2.73V62.64a14.37,14.37,0,0,0,1.35,8.06L30.39,85.8v.25H0V85.8L11.45,70.66a14.42,14.42,0,0,0,1.35-8V17a8.88,8.88,0,0,0-1.89-6.24L2.8.26V0H31.88L56.24,53.3,77.68,0h28.47V.26l-8,8.93a3.13,3.13,0,0,0-1.23,3.07V75.15A2.9,2.9,0,0,0,98.15,78.1Z"/></g></g></g></g></svg>